<svg version="1.1" viewBox="0 0 960 720" fill="none" xmlns="http://www.w3.org/2000/svg">
	<defs>
		<marker id="arrow" viewBox="0 0 6 4" refX="1" refY="2" fill="#000"
      markerWidth="6" markerHeight="4" orient="auto">
    <path d="M0 0v4l6 -2z" />
    </marker>
		<style><![CDATA[
			path {stroke-width:1px;marker-end: url(#arrow)}
			text {fill:#000;font-size:18px;font-family:sans-serif}
			#background {fill:#fff;width:100%;height:100%;stroke:none}
		]]></style>
		<symbol id="decision">
			<path stroke="#0c0" d="m70 5l-60 60"/>
			<text y="45">Yes</text>
			<path stroke="#f00" d="m80 5l60 60"/>
			<text x="120" y="45">No</text>
    </symbol>
	</defs>
	<rect id="background"/>

<text x="220" y="20">Subject Present?</text>
<use href="#decision" x="220" y="20"/>

<text x="320" y="115">Bearer Credential</text>

<text x="115" y="115">Subject = Holder?</text>
<use href="#decision" x="125" y="115"/>

<text y="210">Most common use case</text>

<text x="220" y="210">Credential uniquely identifies subject?</text>
<use href="#decision" x="220" y="210"/>

<text x="95" y="305">Irrelevant who Holder is</text>

<text x="315" y="305">Subject passes VC to Holder?</text>
<use href="#decision" x="315" y="305"/>

<text x="105" y="400">e.g. Power of Attorney, employee</text>

<text x="410" y="400">Issuer indepenently authorises Holder?</text>
<use href="#decision" x="410" y="400"/>

<text x="285" y="495">e.g. Law enforcement</text>

<text x="505" y="495">Holder acts for Subject?</text>
<use href="#decision" x="505" y="495"/>

<text x="320" y="590">e.g. pet owner, travel agent</text>

<text x="600" y="590">Holder acts for Verifier?</text>
<use href="#decision" x="600" y="590"/>

<text x="250" y="685">e.g. recruiter passing on VC of applicant to employer</text>

<text x="700" y="685">
	<tspan>Random holder, no relation to</tspan>
	<tspan x="700" y="705">Subject, Issuer, nor Verifier.</tspan>
</text>
</svg>
