<svg version="1.1" viewBox="0.0 0.0 297.4540682414698 100.0" fill="none" stroke="none" stroke-linecap="square" stroke-miterlimit="10" xmlns:xlink="http://www.w3.org/1999/xlink" xmlns="http://www.w3.org/2000/svg"><clipPath id="p.0"><path d="m0 0l297.45407 0l0 100.0l-297.45407 0l0 -100.0z" clip-rule="nonzero"/></clipPath><g clip-path="url(#p.0)"><path fill="#000000" fill-opacity="0.0" d="m0 0l297.45407 0l0 100.0l-297.45407 0z" fill-rule="evenodd"/><path fill="#ffe599" d="m185.07874 31.682415l111.46457 0l0 41.763783l-111.46457 0z" fill-rule="evenodd"/><path stroke="#000000" stroke-width="1.0" stroke-linejoin="round" stroke-linecap="butt" d="m185.07874 31.682415l111.46457 0l0 41.763783l-111.46457 0z" fill-rule="evenodd"/><path fill="#000000" d="m202.86778 45.048664q0 0.53125 -0.28125 1.109375q-0.265625 0.5625 -0.609375 0.984375q-0.34375 0.421875 -0.828125 0.859375q-0.671875 0.59375 -1.21875 0.984375l0.015625 0.046875q1.734375 0 2.203125 -0.15625q0.484375 -0.15625 0.6875 -0.828125l0.25 0.109375q-0.15625 0.515625 -0.21875 1.484375l-3.75 0l-0.109375 -0.375q0.34375 -0.265625 0.9375 -0.84375q0.609375 -0.59375 1.0 -1.0625q0.390625 -0.484375 0.703125 -1.09375q0.328125 -0.609375 0.328125 -1.15625q0 -0.5625 -0.34375 -0.828125q-0.328125 -0.28125 -0.859375 -0.28125q-0.78125 0 -1.453125 0.359375l-0.140625 -0.265625q0.875 -0.734375 1.875 -0.734375q0.75 0 1.28125 0.453125q0.53125 0.4375 0.53125 1.234375zm4.978897 -0.109375q0.234375 0.703125 0.234375 1.609375q0 0.90625 -0.234375 1.609375q-0.21875 0.6875 -0.703125 1.125q-0.46875 0.4375 -1.15625 0.4375q-0.6875 0 -1.171875 -0.4375q-0.484375 -0.4375 -0.703125 -1.125q-0.21875 -0.703125 -0.21875 -1.609375q0 -0.90625 0.21875 -1.609375q0.21875 -0.703125 0.703125 -1.140625q0.484375 -0.4375 1.171875 -0.4375q0.6875 0 1.15625 0.4375q0.484375 0.4375 0.703125 1.140625zm-0.96875 -0.375q-0.3125 -0.78125 -0.90625 -0.78125q-0.578125 0 -0.890625 0.78125q-0.296875 0.765625 -0.296875 1.984375q0 1.203125 0.296875 1.984375q0.3125 0.78125 0.890625 0.78125q0.59375 0 0.90625 -0.78125q0.3125 -0.78125 0.3125 -1.984375q0 -1.21875 -0.3125 -1.984375zm4.0036163 -1.109375q-0.03125 0.984375 -0.03125 2.4375q0 2.34375 0.046875 2.90625l0.015625 0.203125q0.03125 0.15625 0.203125 0.234375q0.171875 0.078125 0.65625 0.15625l-0.03125 0.28125q-0.5625 -0.03125 -1.34375 -0.03125q-0.78125 0 -1.515625 0.03125l-0.03125 -0.28125q0.171875 -0.03125 0.359375 -0.0625q0.1875 -0.03125 0.296875 -0.0625q0.125 -0.03125 0.1875 -0.046875q0.0625 -0.03125 0.140625 -0.0625q0.109375 -0.0625 0.140625 -0.15625q0.0625 -0.546875 0.0625 -2.0q0 -2.25 -0.0625 -2.765625l0 -0.15625l-1.140625 -0.1875l-0.03125 -0.34375q1.171875 0 1.875 -0.1875l0.203125 0.09375zm5.6029816 1.484375q0.234375 0.703125 0.234375 1.609375q0 0.90625 -0.234375 1.609375q-0.21875 0.6875 -0.703125 1.125q-0.46875 0.4375 -1.15625 0.4375q-0.6875 0 -1.171875 -0.4375q-0.484375 -0.4375 -0.703125 -1.125q-0.21875 -0.703125 -0.21875 -1.609375q0 -0.90625 0.21875 -1.609375q0.21875 -0.703125 0.703125 -1.140625q0.484375 -0.4375 1.171875 -0.4375q0.6875 0 1.15625 0.4375q0.484375 0.4375 0.703125 1.140625zm-0.96875 -0.375q-0.3125 -0.78125 -0.90625 -0.78125q-0.578125 0 -0.890625 0.78125q-0.296875 0.765625 -0.296875 1.984375q0 1.203125 0.296875 1.984375q0.3125 0.78125 0.890625 0.78125q0.59375 0 0.90625 -0.78125q0.3125 -0.78125 0.3125 -1.984375q0 -1.21875 -0.3125 -1.984375zm3.9411163 2.828125q-0.21875 0 -0.78125 0.046875q-0.828125 0.046875 -1.234375 0.15625l-0.125 0.03125l-0.078125 -0.15625l0.359375 -0.484375q0.109375 0 0.71875 -0.03125q1.03125 -0.0625 1.328125 -0.140625l0.109375 -0.046875l0.078125 0.140625l-0.375 0.484375zm4.8352814 -2.453125q0.234375 0.703125 0.234375 1.609375q0 0.90625 -0.234375 1.609375q-0.21875 0.6875 -0.703125 1.125q-0.46875 0.4375 -1.15625 0.4375q-0.6875 0 -1.171875 -0.4375q-0.484375 -0.4375 -0.703125 -1.125q-0.21875 -0.703125 -0.21875 -1.609375q0 -0.90625 0.21875 -1.609375q0.21875 -0.703125 0.703125 -1.140625q0.484375 -0.4375 1.171875 -0.4375q0.6875 0 1.15625 0.4375q0.484375 0.4375 0.703125 1.140625zm-0.96875 -0.375q-0.3125 -0.78125 -0.90625 -0.78125q-0.578125 0 -0.890625 0.78125q-0.296875 0.765625 -0.296875 1.984375q0 1.203125 0.296875 1.984375q0.3125 0.78125 0.890625 0.78125q0.59375 0 0.90625 -0.78125q0.3125 -0.78125 0.3125 -1.984375q0 -1.21875 -0.3125 -1.984375zm4.0036163 -1.109375q-0.03125 0.984375 -0.03125 2.4375q0 2.34375 0.046875 2.90625l0.015625 0.203125q0.03125 0.15625 0.203125 0.234375q0.171875 0.078125 0.65625 0.15625l-0.03125 0.28125q-0.5625 -0.03125 -1.34375 -0.03125q-0.78125 0 -1.515625 0.03125l-0.03125 -0.28125q0.171875 -0.03125 0.359375 -0.0625q0.1875 -0.03125 0.296875 -0.0625q0.125 -0.03125 0.1875 -0.046875q0.0625 -0.03125 0.140625 -0.0625q0.109375 -0.0625 0.140625 -0.15625q0.0625 -0.546875 0.0625 -2.0q0 -2.25 -0.0625 -2.765625l0 -0.15625l-1.140625 -0.1875l-0.03125 -0.34375q1.171875 0 1.875 -0.1875l0.203125 0.09375zm3.6967316 3.9375q-0.21875 0 -0.78125 0.046875q-0.828125 0.046875 -1.234375 0.15625l-0.125 0.03125l-0.078125 -0.15625l0.359375 -0.484375q0.109375 0 0.71875 -0.03125q1.03125 -0.0625 1.328125 -0.140625l0.109375 -0.046875l0.078125 0.140625l-0.375 0.484375zm4.8352814 -2.453125q0.234375 0.703125 0.234375 1.609375q0 0.90625 -0.234375 1.609375q-0.21875 0.6875 -0.703125 1.125q-0.46875 0.4375 -1.15625 0.4375q-0.6875 0 -1.171875 -0.4375q-0.484375 -0.4375 -0.703125 -1.125q-0.21875 -0.703125 -0.21875 -1.609375q0 -0.90625 0.21875 -1.609375q0.21875 -0.703125 0.703125 -1.140625q0.484375 -0.4375 1.171875 -0.4375q0.6875 0 1.15625 0.4375q0.484375 0.4375 0.703125 1.140625zm-0.96875 -0.375q-0.3125 -0.78125 -0.90625 -0.78125q-0.578125 0 -0.890625 0.78125q-0.296875 0.765625 -0.296875 1.984375q0 1.203125 0.296875 1.984375q0.3125 0.78125 0.890625 0.78125q0.59375 0 0.90625 -0.78125q0.3125 -0.78125 0.3125 -1.984375q0 -1.21875 -0.3125 -1.984375zm4.0036163 -1.109375q-0.03125 0.984375 -0.03125 2.4375q0 2.34375 0.046875 2.90625l0.015625 0.203125q0.03125 0.15625 0.203125 0.234375q0.171875 0.078125 0.65625 0.15625l-0.03125 0.28125q-0.5625 -0.03125 -1.34375 -0.03125q-0.78125 0 -1.515625 0.03125l-0.03125 -0.28125q0.171875 -0.03125 0.359375 -0.0625q0.1875 -0.03125 0.296875 -0.0625q0.125 -0.03125 0.1875 -0.046875q0.0625 -0.03125 0.140625 -0.0625q0.109375 -0.0625 0.140625 -0.15625q0.0625 -0.546875 0.0625 -2.0q0 -2.25 -0.0625 -2.765625l0 -0.15625l-1.140625 -0.1875l-0.03125 -0.34375q1.171875 0 1.875 -0.1875l0.203125 0.09375zm1.5248566 -0.265625q0.765625 0.0625 2.78125 0.0625q2.015625 0 2.78125 -0.0625l0 0.140625q0 0.75 0.109375 1.375l-0.25 0.109375q-0.25 -0.765625 -0.59375 -0.96875q-0.328125 -0.203125 -1.265625 -0.203125q-0.28125 0 -0.296875 0.25q-0.078125 0.546875 -0.078125 2.0q0 2.34375 0.046875 2.90625l0.03125 0.203125q0.015625 0.171875 0.171875 0.25q0.15625 0.0625 0.609375 0.140625l-0.015625 0.28125q-0.59375 -0.03125 -1.28125 -0.03125q-0.6875 0 -1.28125 0.03125l-0.03125 -0.28125q0.484375 -0.078125 0.640625 -0.15625q0.171875 -0.078125 0.1875 -0.234375q0.078125 -0.546875 0.078125 -2.0q0 -2.34375 -0.046875 -2.921875l-0.03125 -0.1875q-0.015625 -0.25 -0.28125 -0.25q-0.9375 0 -1.28125 0.203125q-0.328125 0.203125 -0.5625 0.96875l-0.25 -0.109375q0.109375 -0.625 0.109375 -1.375l0 -0.140625zm8.223038 0.265625q-0.03125 0.984375 -0.03125 2.4375q0 2.34375 0.046875 2.90625l0.015625 0.203125q0.03125 0.15625 0.203125 0.234375q0.171875 0.078125 0.65625 0.15625l-0.03125 0.28125q-0.5625 -0.03125 -1.34375 -0.03125q-0.78125 0 -1.515625 0.03125l-0.03125 -0.28125q0.171875 -0.03125 0.359375 -0.0625q0.1875 -0.03125 0.296875 -0.0625q0.125 -0.03125 0.1875 -0.046875q0.0625 -0.03125 0.140625 -0.0625q0.109375 -0.0625 0.140625 -0.15625q0.0625 -0.546875 0.0625 -2.0q0 -2.25 -0.0625 -2.765625l0 -0.15625l-1.140625 -0.1875l-0.03125 -0.34375q1.171875 0 1.875 -0.1875l0.203125 0.09375zm3.4311066 3.4375q-0.8125 0 -1.28125 -0.515625q-0.46875 -0.53125 -0.46875 -1.25q0 -0.71875 0.5 -1.234375q0.5 -0.53125 1.40625 -0.53125q0.921875 0 1.515625 0.6875q0.609375 0.6875 0.609375 1.703125q0 1.21875 -0.921875 2.4375q-0.90625 1.21875 -2.796875 2.0625l-0.140625 -0.328125q0.75 -0.359375 1.34375 -0.875q0.59375 -0.53125 0.9375 -1.109375q0.6875 -1.171875 0.6875 -2.296875q0 -0.78125 -0.328125 -1.28125q-0.328125 -0.515625 -0.859375 -0.515625q-0.515625 0 -0.8125 0.40625q-0.296875 0.390625 -0.296875 0.921875q0 0.53125 0.3125 0.921875q0.3125 0.390625 0.859375 0.390625q0.203125 0 0.4375 -0.046875l0.046875 0.34375q-0.40625 0.109375 -0.75 0.109375zm3.9733124 2.6875q-0.14064026 0.140625 -0.35939026 0.140625q-0.203125 0 -0.34375 -0.140625q-0.140625 -0.140625 -0.140625 -0.359375q0 -0.21875 0.140625 -0.359375q0.140625 -0.140625 0.34375 -0.140625q0.21875 0 0.35939026 0.140625q0.140625 0.140625 0.140625 0.359375q0 0.21875 -0.140625 0.359375zm0 -2.828125q-0.14064026 0.140625 -0.35939026 0.140625q-0.203125 0 -0.34375 -0.140625q-0.140625 -0.15625 -0.140625 -0.359375q0 -0.21875 0.140625 -0.359375q0.140625 -0.15625 0.34375 -0.15625q0.21875 0 0.35939026 0.15625q0.140625 0.140625 0.140625 0.359375q0 0.203125 -0.140625 0.359375zm3.422058 -2.703125l-0.5625 0q-0.578125 0 -0.75 0.046875q-0.171875 0.03125 -0.34375 0.078125q-0.171875 0.046875 -0.25 0.125q-0.0625 0.0625 -0.15625 0.15625q-0.140625 0.140625 -0.265625 0.5625l-0.25 -0.109375q0.109375 -0.625 0.109375 -1.515625q0.59375 0.03125 2.15625 0.03125q1.5625 0 1.734375 0l0.03125 0.265625l-2.640625 6.265625l-0.84375 -0.09375l2.6875 -5.59375q-0.03125 -0.21875 -0.65625 -0.21875zm5.465149 3.703125q0 0.875 -0.828125 1.59375q-0.8125 0.703125 -2.109375 0.703125q-0.421875 0 -0.84375 -0.09375l0.03125 -0.453125q0.421875 0.078125 0.765625 0.078125q0.984375 0 1.53125 -0.515625q0.5625 -0.515625 0.5625 -1.1875q0 -0.546875 -0.375 -0.921875q-0.375 -0.375 -1.0625 -0.375q-0.328125 0 -0.703125 0.09375l0.03125 -0.375q0.890625 -0.203125 1.34375 -0.703125q0.46875 -0.5 0.46875 -0.875q0 -0.390625 -0.21875 -0.59375q-0.21875 -0.21875 -0.6875 -0.21875q-0.46875 0 -1.1875 0.453125l-0.140625 -0.265625q0.8125 -0.734375 1.703125 -0.734375q0.609375 0 1.0 0.328125q0.390625 0.3125 0.390625 0.765625q0 0.96875 -1.390625 1.6875l0 0.046875q0.890625 0.125 1.296875 0.546875q0.421875 0.421875 0.421875 1.015625zm1.8681335 1.828125q-0.140625 0.140625 -0.359375 0.140625q-0.203125 0 -0.34375 -0.140625q-0.140625 -0.140625 -0.140625 -0.359375q0 -0.21875 0.140625 -0.359375q0.140625 -0.140625 0.34375 -0.140625q0.21875 0 0.359375 0.140625q0.140625 0.140625 0.140625 0.359375q0 0.21875 -0.140625 0.359375zm0 -2.828125q-0.140625 0.140625 -0.359375 0.140625q-0.203125 0 -0.34375 -0.140625q-0.140625 -0.15625 -0.140625 -0.359375q0 -0.21875 0.140625 -0.359375q0.140625 -0.15625 0.34375 -0.15625q0.21875 0 0.359375 0.15625q0.140625 0.140625 0.140625 0.359375q0 0.203125 -0.140625 0.359375zm4.562683 -1.703125q0 0.53125 -0.28125 1.109375q-0.265625 0.5625 -0.609375 0.984375q-0.34375 0.421875 -0.828125 0.859375q-0.671875 0.59375 -1.21875 0.984375l0.015625 0.046875q1.734375 0 2.203125 -0.15625q0.484375 -0.15625 0.6875 -0.828125l0.25 0.109375q-0.15625 0.515625 -0.21875 1.484375l-3.75 0l-0.109375 -0.375q0.34375 -0.265625 0.9375 -0.84375q0.609375 -0.59375 1.0 -1.0625q0.390625 -0.484375 0.703125 -1.09375q0.328125 -0.609375 0.328125 -1.15625q0 -0.5625 -0.34375 -0.828125q-0.328125 -0.28125 -0.859375 -0.28125q-0.78125 0 -1.453125 0.359375l-0.140625 -0.265625q0.875 -0.734375 1.875 -0.734375q0.75 0 1.28125 0.453125q0.53125 0.4375 0.53125 1.234375zm5.307007 4.625q-0.578125 -0.03125 -1.390625 -0.03125q-0.8125 0 -1.390625 0.03125l-0.03125 -0.28125q0.15625 -0.03125 0.34375 -0.0625q0.1875 -0.03125 0.296875 -0.0625q0.125 -0.03125 0.1875 -0.046875q0.078125 -0.03125 0.140625 -0.0625q0.125 -0.0625 0.140625 -0.15625q0.03125 -0.21875 0.046875 -1.09375l-2.671875 0l-0.109375 -0.359375l2.46875 -4.640625l0.84375 0.078125l-2.640625 4.40625l2.125 0l0 -1.71875q0 -0.03125 0.015625 -0.0625q0.015625 -0.03125 0.21875 -0.078125q0.203125 -0.0625 0.578125 -0.09375q0 1.609375 0.015625 1.953125l0.75 0l0.0625 0.125l-0.359375 0.4375q0 -0.015625 -0.453125 -0.03125l0.0625 1.078125q0.015625 0.171875 0.171875 0.25q0.15625 0.0625 0.609375 0.140625l-0.03125 0.28125zm2.7380066 -0.53125q1.71875 0 2.15625 -0.15625q0.46875 -0.171875 0.640625 -0.5q0.109375 -0.171875 0.1875 -0.4375l0.265625 0.109375q-0.171875 0.515625 -0.234375 1.484375l-5.0 0l-0.21875 -0.328125l4.171875 -5.5625q-2.453125 0 -2.953125 0.140625q-0.484375 0.140625 -0.71875 0.921875l-0.265625 -0.109375q0.125 -0.625 0.125 -1.375l0 -0.140625q0.765625 0.0625 3.53125 0.0625l1.234375 0l0.171875 0.3125l-4.171875 5.578125l1.078125 0z" fill-rule="nonzero"/><path fill="#a4c2f4" d="m16.139053 52.564304l0 0c0 -12.559044 19.748825 -22.740158 44.110237 -22.740158l0 0c24.361412 0 44.110237 10.181114 44.110237 22.740158l0 0c0 12.55904 -19.748825 22.740154 -44.110237 22.740154l0 0c-24.361412 0 -44.110237 -10.181114 -44.110237 -22.740154z" fill-rule="evenodd"/><path stroke="#000000" stroke-width="1.0" stroke-linejoin="round" stroke-linecap="butt" d="m16.139053 52.564304l0 0c0 -12.559044 19.748825 -22.740158 44.110237 -22.740158l0 0c24.361412 0 44.110237 10.181114 44.110237 22.740158l0 0c0 12.55904 -19.748825 22.740154 -44.110237 22.740154l0 0c-24.361412 0 -44.110237 -10.181114 -44.110237 -22.740154z" fill-rule="evenodd"/><path fill="#000000" d="m53.080025 55.724586l0 -7.625l2.875 0q0.75 0 1.15625 0.0625q0.5625 0.09375 0.9375 0.359375q0.390625 0.265625 0.609375 0.75q0.234375 0.46875 0.234375 1.03125q0 0.96875 -0.625 1.65625q-0.609375 0.671875 -2.234375 0.671875l-1.953125 0l0 3.09375l-1.0 0zm1.0 -4.0l1.96875 0q0.984375 0 1.390625 -0.359375q0.421875 -0.375 0.421875 -1.03125q0 -0.484375 -0.25 -0.8125q-0.234375 -0.34375 -0.640625 -0.453125q-0.25 -0.078125 -0.9375 -0.078125l-1.953125 0l0 2.734375zm9.5920105 3.3125q-0.53125 0.453125 -1.015625 0.640625q-0.46875 0.171875 -1.015625 0.171875q-0.921875 0 -1.40625 -0.4375q-0.484375 -0.453125 -0.484375 -1.140625q0 -0.40625 0.171875 -0.734375q0.1875 -0.34375 0.484375 -0.546875q0.3125 -0.203125 0.6875 -0.3125q0.265625 -0.0625 0.828125 -0.140625q1.125 -0.125 1.671875 -0.3125q0 -0.203125 0 -0.25q0 -0.578125 -0.265625 -0.8125q-0.359375 -0.3125 -1.0625 -0.3125q-0.65625 0 -0.984375 0.234375q-0.3125 0.234375 -0.453125 0.8125l-0.921875 -0.125q0.125 -0.578125 0.40625 -0.9375q0.296875 -0.375 0.828125 -0.5625q0.546875 -0.203125 1.25 -0.203125q0.71875 0 1.15625 0.171875q0.4375 0.171875 0.640625 0.421875q0.21875 0.25 0.296875 0.640625q0.046875 0.234375 0.046875 0.859375l0 1.25q0 1.296875 0.0625 1.65625q0.0625 0.34375 0.234375 0.65625l-0.96875 0q-0.15625 -0.296875 -0.1875 -0.6875zm-0.078125 -2.078125q-0.515625 0.203125 -1.53125 0.34375q-0.578125 0.078125 -0.828125 0.1875q-0.234375 0.109375 -0.359375 0.3125q-0.125 0.1875 -0.125 0.4375q0 0.375 0.28125 0.625q0.28125 0.25 0.828125 0.25q0.53125 0 0.953125 -0.234375q0.421875 -0.234375 0.625 -0.65625q0.15625 -0.3125 0.15625 -0.9375l0 -0.328125zm4.4421234 1.921875l0.125 0.828125q-0.390625 0.09375 -0.703125 0.09375q-0.5 0 -0.78125 -0.15625q-0.28125 -0.171875 -0.40625 -0.4375q-0.109375 -0.265625 -0.109375 -1.109375l0 -3.171875l-0.6875 0l0 -0.734375l0.6875 0l0 -1.359375l0.9375 -0.5625l0 1.921875l0.9375 0l0 0.734375l-0.9375 0l0 3.234375q0 0.390625 0.046875 0.515625q0.046875 0.109375 0.15625 0.1875q0.109375 0.0625 0.328125 0.0625q0.15625 0 0.40625 -0.046875z" fill-rule="nonzero"/><path fill="#000000" fill-opacity="0.0" d="m104.35953 52.564304l80.72441 0" fill-rule="evenodd"/><path stroke="#000000" stroke-width="2.0" stroke-linejoin="round" stroke-linecap="butt" d="m104.35953 52.564304l68.724396 0" fill-rule="evenodd"/><path fill="#000000" stroke="#000000" stroke-width="2.0" stroke-linecap="butt" d="m173.08392 55.86777l9.076202 -3.3034668l-9.076202 -3.303463z" fill-rule="evenodd"/><path fill="#000000" fill-opacity="0.0" d="m105.11548 24.879265l88.220474 0l0 33.19685l-88.220474 0z" fill-rule="evenodd"/><path fill="#000000" d="m117.86548 42.839264l0 -0.609375q-0.453125 0.71875 -1.34375 0.71875q-0.578125 0 -1.0625 -0.3125q-0.484375 -0.328125 -0.765625 -0.890625q-0.265625 -0.578125 -0.265625 -1.3125q0 -0.734375 0.234375 -1.3125q0.25 -0.59375 0.734375 -0.90625q0.484375 -0.328125 1.078125 -0.328125q0.4375 0 0.78125 0.1875q0.34375 0.1875 0.5625 0.484375l0 -2.390625l0.8125 0l0 6.671875l-0.765625 0zm-2.59375 -2.40625q0 0.921875 0.390625 1.390625q0.390625 0.453125 0.9375 0.453125q0.53125 0 0.90625 -0.4375q0.375 -0.4375 0.375 -1.34375q0 -1.0 -0.390625 -1.453125q-0.375 -0.46875 -0.9375 -0.46875q-0.546875 0 -0.921875 0.453125q-0.359375 0.4375 -0.359375 1.40625zm7.797241 1.8125q-0.453125 0.390625 -0.875 0.546875q-0.421875 0.15625 -0.90625 0.15625q-0.796875 0 -1.21875 -0.390625q-0.421875 -0.390625 -0.421875 -1.0q0 -0.34375 0.15625 -0.640625q0.15625 -0.296875 0.421875 -0.46875q0.265625 -0.1875 0.59375 -0.28125q0.234375 -0.0625 0.71875 -0.109375q1.0 -0.125 1.46875 -0.28125q0 -0.171875 0 -0.21875q0 -0.5 -0.234375 -0.703125q-0.3125 -0.28125 -0.921875 -0.28125q-0.578125 0 -0.859375 0.203125q-0.28125 0.203125 -0.40625 0.71875l-0.796875 -0.109375q0.109375 -0.515625 0.359375 -0.828125q0.25 -0.328125 0.71875 -0.5q0.46875 -0.171875 1.09375 -0.171875q0.625 0 1.0 0.15625q0.390625 0.140625 0.578125 0.359375q0.1875 0.21875 0.25 0.5625q0.046875 0.203125 0.046875 0.75l0 1.09375q0 1.140625 0.046875 1.453125q0.0625 0.296875 0.21875 0.578125l-0.859375 0q-0.125 -0.25 -0.171875 -0.59375zm-0.0625 -1.828125q-0.453125 0.171875 -1.34375 0.296875q-0.5 0.078125 -0.71875 0.171875q-0.203125 0.09375 -0.3125 0.265625q-0.109375 0.171875 -0.109375 0.390625q0 0.328125 0.234375 0.546875q0.25 0.21875 0.734375 0.21875q0.46875 0 0.828125 -0.203125q0.375 -0.21875 0.5625 -0.578125q0.125 -0.265625 0.125 -0.8125l0 -0.296875zm3.8909912 1.6875l0.109375 0.71875q-0.34375 0.078125 -0.609375 0.078125q-0.453125 0 -0.703125 -0.140625q-0.234375 -0.140625 -0.34375 -0.359375q-0.09375 -0.234375 -0.09375 -0.984375l0 -2.78125l-0.609375 0l0 -0.640625l0.609375 0l0 -1.1875l0.8125 -0.5l0 1.6875l0.828125 0l0 0.640625l-0.828125 0l0 2.828125q0 0.359375 0.046875 0.46875q0.046875 0.09375 0.140625 0.15625q0.09375 0.046875 0.28125 0.046875q0.140625 0 0.359375 -0.03125zm4.1072845 -0.828125l0.84375 0.109375q-0.1875 0.75 -0.734375 1.15625q-0.546875 0.40625 -1.390625 0.40625q-1.0625 0 -1.6875 -0.65625q-0.609375 -0.65625 -0.609375 -1.828125q0 -1.21875 0.625 -1.890625q0.625 -0.6875 1.625 -0.6875q0.984375 0 1.59375 0.671875q0.609375 0.65625 0.609375 1.859375q0 0.0625 0 0.21875l-3.609375 0q0.046875 0.796875 0.453125 1.21875q0.40625 0.421875 1.015625 0.421875q0.453125 0 0.765625 -0.234375q0.3125 -0.234375 0.5 -0.765625zm-2.6875 -1.328125l2.703125 0q-0.0625 -0.609375 -0.3125 -0.90625q-0.390625 -0.46875 -1.015625 -0.46875q-0.5625 0 -0.953125 0.375q-0.375 0.375 -0.421875 1.0zm4.406616 -0.359375q0 -1.671875 0.890625 -2.609375q0.890625 -0.9375 2.296875 -0.9375q0.9375 0 1.671875 0.453125q0.75 0.4375 1.140625 1.234375q0.390625 0.78125 0.390625 1.78125q0 1.015625 -0.421875 1.828125q-0.40625 0.796875 -1.15625 1.203125q-0.75 0.40625 -1.625 0.40625q-0.9375 0 -1.6875 -0.453125q-0.734375 -0.453125 -1.125 -1.234375q-0.375 -0.796875 -0.375 -1.671875zm0.90625 0.015625q0 1.203125 0.640625 1.90625q0.65625 0.6875 1.640625 0.6875q1.0 0 1.640625 -0.703125q0.640625 -0.703125 0.640625 -1.984375q0 -0.828125 -0.28125 -1.421875q-0.265625 -0.609375 -0.796875 -0.9375q-0.53125 -0.34375 -1.1875 -0.34375q-0.9375 0 -1.625 0.640625q-0.671875 0.640625 -0.671875 2.15625zm6.708847 3.234375l0 -4.203125l-0.71875 0l0 -0.640625l0.71875 0l0 -0.515625q0 -0.484375 0.078125 -0.71875q0.125 -0.3125 0.421875 -0.515625q0.296875 -0.203125 0.84375 -0.203125q0.34375 0 0.765625 0.09375l-0.125 0.703125q-0.265625 -0.046875 -0.484375 -0.046875q-0.375 0 -0.53125 0.171875q-0.15625 0.15625 -0.15625 0.59375l0 0.4375l0.9375 0l0 0.640625l-0.9375 0l0 4.203125l-0.8125 0zm2.4666595 0l0 -6.671875l2.5 0q0.765625 0 1.21875 0.203125q0.46875 0.203125 0.734375 0.625q0.265625 0.421875 0.265625 0.875q0 0.421875 -0.234375 0.8125q-0.234375 0.375 -0.703125 0.609375q0.609375 0.171875 0.921875 0.609375q0.328125 0.421875 0.328125 1.0q0 0.46875 -0.203125 0.875q-0.1875 0.40625 -0.484375 0.625q-0.28125 0.21875 -0.734375 0.328125q-0.4375 0.109375 -1.0625 0.109375l-2.546875 0zm0.875 -3.875l1.453125 0q0.578125 0 0.84375 -0.078125q0.328125 -0.09375 0.5 -0.328125q0.171875 -0.234375 0.171875 -0.578125q0 -0.34375 -0.15625 -0.59375q-0.15625 -0.25 -0.453125 -0.34375q-0.296875 -0.09375 -1.015625 -0.09375l-1.34375 0l0 2.015625zm0 3.09375l1.671875 0q0.421875 0 0.59375 -0.03125q0.3125 -0.0625 0.515625 -0.1875q0.203125 -0.125 0.328125 -0.359375q0.140625 -0.25 0.140625 -0.578125q0 -0.375 -0.203125 -0.640625q-0.1875 -0.28125 -0.53125 -0.390625q-0.328125 -0.109375 -0.96875 -0.109375l-1.546875 0l0 2.296875zm5.2842865 -4.953125l0 -0.9375l0.8125 0l0 0.9375l-0.8125 0zm0 5.734375l0 -4.84375l0.8125 0l0 4.84375l-0.8125 0zm2.0567932 0l0 -4.84375l0.734375 0l0 0.734375q0.28125 -0.515625 0.515625 -0.671875q0.25 -0.171875 0.53125 -0.171875q0.421875 0 0.84375 0.265625l-0.28125 0.765625q-0.296875 -0.171875 -0.609375 -0.171875q-0.265625 0 -0.484375 0.15625q-0.203125 0.15625 -0.296875 0.453125q-0.140625 0.4375 -0.140625 0.953125l0 2.53125l-0.8125 0zm4.9032135 -0.734375l0.109375 0.71875q-0.34375 0.078125 -0.609375 0.078125q-0.453125 0 -0.703125 -0.140625q-0.234375 -0.140625 -0.34375 -0.359375q-0.09375 -0.234375 -0.09375 -0.984375l0 -2.78125l-0.609375 0l0 -0.640625l0.609375 0l0 -1.1875l0.8125 -0.5l0 1.6875l0.828125 0l0 0.640625l-0.828125 0l0 2.828125q0 0.359375 0.046875 0.46875q0.046875 0.09375 0.140625 0.15625q0.09375 0.046875 0.28125 0.046875q0.140625 0 0.359375 -0.03125zm0.79478455 0.734375l0 -6.671875l0.828125 0l0 2.390625q0.578125 -0.671875 1.453125 -0.671875q0.53125 0 0.921875 0.21875q0.40625 0.21875 0.578125 0.59375q0.171875 0.359375 0.171875 1.078125l0 3.0625l-0.828125 0l0 -3.0625q0 -0.625 -0.265625 -0.890625q-0.265625 -0.28125 -0.75 -0.28125q-0.375 0 -0.703125 0.1875q-0.3125 0.1875 -0.453125 0.515625q-0.125 0.3125 -0.125 0.890625l0 2.640625l-0.828125 0z" fill-rule="nonzero"/></g></svg>