<?xml version="1.0" standalone="yes"?>

<svg version="1.1" viewBox="0.0 0.0 297.4540682414698 100.0" fill="none" stroke="none" stroke-linecap="square" stroke-miterlimit="10" xmlns="http://www.w3.org/2000/svg" xmlns:xlink="http://www.w3.org/1999/xlink"><clipPath id="p.0"><path d="m0 0l297.45407 0l0 100.0l-297.45407 0l0 -100.0z" clip-rule="nonzero"></path></clipPath><g clip-path="url(#p.0)"><path fill="#000000" fill-opacity="0.0" d="m0 0l297.45407 0l0 100.0l-297.45407 0z" fill-rule="evenodd"></path><path fill="#ffe599" d="m198.88846 31.681103l78.299194 0l0 41.763783l-78.299194 0z" fill-rule="evenodd"></path><path stroke="#000000" stroke-width="1.0" stroke-linejoin="round" stroke-linecap="butt" d="m198.88846 31.681103l78.299194 0l0 41.763783l-78.299194 0z" fill-rule="evenodd"></path><path fill="#000000" d="m225.7314 45.02548q1.0 0.0625 1.96875 0.0625q0.96875 0 1.984375 -0.0625l0.046875 0.46875q-0.703125 0.140625 -1.015625 0.3125q-0.296875 0.171875 -0.4375 0.46875q-2.421875 6.515625 -3.34375 9.765625l-1.5625 0.140625l-3.421875 -10.0q-0.125 -0.265625 -0.390625 -0.40625q-0.25 -0.140625 -0.96875 -0.28125l0.046875 -0.46875q1.015625 0.0625 2.125 0.0625q1.109375 0 2.109375 -0.0625l0.046875 0.46875q-1.109375 0.203125 -1.328125 0.40625q-0.078125 0.078125 -0.078125 0.1875q0 0.09375 0.453125 1.46875q0.453125 1.359375 1.203125 3.640625q0.765625 2.265625 1.15625 3.453125l0.078125 0q0.34375 -1.109375 1.109375 -3.5q1.578125 -4.890625 1.5625 -5.0625q-0.015625 -0.1875 -0.328125 -0.3125q-0.3125 -0.140625 -1.0625 -0.28125l0.046875 -0.46875zm8.570892 7.65625q-1.3125 0.03125 -2.0 0.5q-0.6875 0.453125 -0.6875 1.0q0 0.546875 0.28125 0.796875q0.28125 0.25 0.90625 0.25q0.625 0 1.5 -0.53125l0 -2.015625zm1.171875 3.5q-0.96875 0 -1.125 -1.03125q-1.40625 1.03125 -2.4375 1.03125q-0.6875 0 -1.171875 -0.421875q-0.46875 -0.421875 -0.46875 -1.3125q0 -0.90625 0.953125 -1.625q0.953125 -0.71875 3.078125 -0.859375l0 -1.484375q0 -0.453125 -0.328125 -0.6875q-0.328125 -0.25 -0.921875 -0.25q-0.59375 0 -0.953125 0.328125q-0.34375 0.328125 -0.34375 0.84375q0 0.1875 0.046875 0.4375l-0.34375 0.15625q-0.328125 -0.171875 -0.609375 -0.46875q-0.28125 -0.3125 -0.28125 -0.453125q0 -0.140625 0.21875 -0.390625q0.21875 -0.265625 0.578125 -0.5625q0.375 -0.3125 0.984375 -0.53125q0.625 -0.21875 1.390625 -0.21875q0.765625 0 1.25 0.375q0.484375 0.375 0.484375 1.359375q0 0.984375 0.09375 4.15625q0.015625 0.765625 0.578125 0.765625q0.234375 0 0.484375 -0.125l0.171875 0.40625q-0.609375 0.5625 -1.328125 0.5625zm4.2807617 -11.671875q-0.03125 2.0 -0.03125 5.859375q0 3.84375 0.171875 4.90625q0.015625 0.109375 0.421875 0.21875q0.40625 0.109375 0.703125 0.125l-0.046875 0.46875q-0.765625 -0.046875 -1.859375 -0.046875q-1.078125 0 -1.859375 0.046875l0.0625 -0.46875q0.328125 -0.03125 0.703125 -0.125q0.375 -0.109375 0.390625 -0.21875q0.109375 -1.046875 0.109375 -4.0q0 -4.8125 -0.09375 -5.640625l-0.03125 -0.265625l-1.015625 -0.296875l-0.03125 -0.421875q1.015625 0 2.109375 -0.296875l0.296875 0.15625zm4.539505 11.671875q-1.625 0 -1.625 -1.65625l0 -2.140625q0 -2.15625 -0.109375 -2.6875l-0.953125 -0.296875l-0.03125 -0.421875q0.953125 0 2.03125 -0.28125l0.3125 0.140625q-0.046875 2.859375 -0.046875 5.203125q0 1.078125 1.296875 1.078125q0.546875 0 1.15625 -0.1875q0.625 -0.1875 1.0 -0.40625q0.0625 -0.875 0.0625 -2.03125q0 -2.1875 -0.125 -2.796875l-1.015625 -0.296875l-0.03125 -0.421875q1.03125 0 2.125 -0.28125l0.296875 0.140625q-0.046875 1.203125 -0.046875 3.96875l0.046875 1.875q0 0.265625 0.21875 0.421875q0.21875 0.15625 0.421875 0.203125q0.203125 0.03125 0.578125 0.046875l-0.046875 0.46875q-0.578125 0.046875 -1.75 0.28125q-0.484375 -0.203125 -0.65625 -0.953125q-1.53125 1.03125 -3.109375 1.03125zm11.221893 -5.265625q0 -0.734375 -0.421875 -1.09375q-0.40625 -0.359375 -0.921875 -0.359375q-0.75 0 -1.296875 0.59375q-0.546875 0.59375 -0.71875 1.453125l3.3125 -0.125q0.046875 -0.234375 0.046875 -0.46875zm-1.390625 5.265625q-1.703125 0 -2.5625 -0.96875q-0.859375 -0.96875 -0.859375 -2.578125q0 -1.609375 0.953125 -2.78125q0.953125 -1.171875 2.875 -1.171875q0.96875 0 1.6875 0.6875q0.734375 0.6875 0.734375 2.046875l-0.546875 0.65625q-0.09375 -0.015625 -1.515625 -0.015625q-1.40625 0 -2.828125 0.109375l0 0.140625q0 1.46875 0.609375 2.203125q0.609375 0.71875 1.65625 0.71875q1.0625 0 2.234375 -0.515625l0.1875 0.484375q-1.234375 0.984375 -2.625 0.984375z" fill-rule="nonzero"></path><path fill="#a4c2f4" d="m20.266405 52.562992l0 0c0 -12.559044 20.538496 -22.740158 45.874016 -22.740158l0 0c25.335518 0 45.874016 10.181114 45.874016 22.740158l0 0c0 12.55904 -20.538498 22.740154 -45.874016 22.740154l0 0c-25.335518 0 -45.874016 -10.181114 -45.874016 -22.740154z" fill-rule="evenodd"></path><path stroke="#000000" stroke-width="1.0" stroke-linejoin="round" stroke-linecap="butt" d="m20.266405 52.562992l0 0c0 -12.559044 20.538496 -22.740158 45.874016 -22.740158l0 0c25.335518 0 45.874016 10.181114 45.874016 22.740158l0 0c0 12.55904 -20.538498 22.740154 -45.874016 22.740154l0 0c-25.335518 0 -45.874016 -10.181114 -45.874016 -22.740154z" fill-rule="evenodd"></path><path fill="#000000" d="m44.490883 55.298897l1.171875 -0.109375q0.078125 0.703125 0.375 1.15625q0.3125 0.4375 0.9375 0.71875q0.640625 0.265625 1.4375 0.265625q0.703125 0 1.234375 -0.203125q0.546875 -0.203125 0.8125 -0.5625q0.265625 -0.375 0.265625 -0.8125q0 -0.4375 -0.265625 -0.765625q-0.25 -0.328125 -0.828125 -0.546875q-0.375 -0.140625 -1.65625 -0.453125q-1.28125 -0.3125 -1.796875 -0.578125q-0.671875 -0.34375 -1.0 -0.859375q-0.328125 -0.53125 -0.328125 -1.171875q0 -0.703125 0.390625 -1.3125q0.40625 -0.609375 1.171875 -0.921875q0.78125 -0.328125 1.71875 -0.328125q1.03125 0 1.8125 0.34375q0.796875 0.328125 1.21875 0.984375q0.4375 0.640625 0.46875 1.453125l-1.1875 0.09375q-0.09375 -0.890625 -0.640625 -1.328125q-0.546875 -0.453125 -1.625 -0.453125q-1.109375 0 -1.625 0.40625q-0.515625 0.40625 -0.515625 0.984375q0 0.5 0.359375 0.828125q0.359375 0.328125 1.859375 0.671875q1.5 0.328125 2.0625 0.578125q0.8125 0.375 1.1875 0.953125q0.390625 0.578125 0.390625 1.328125q0 0.734375 -0.421875 1.390625q-0.421875 0.65625 -1.21875 1.03125q-0.796875 0.359375 -1.796875 0.359375q-1.265625 0 -2.125 -0.359375q-0.84375 -0.375 -1.328125 -1.109375q-0.484375 -0.75 -0.515625 -1.671875zm13.59288 2.984375l0 -0.984375q-0.796875 1.140625 -2.140625 1.140625q-0.59375 0 -1.125 -0.234375q-0.515625 -0.234375 -0.765625 -0.578125q-0.25 -0.34375 -0.34375 -0.84375q-0.078125 -0.328125 -0.078125 -1.0625l0 -4.171875l1.140625 0l0 3.734375q0 0.890625 0.078125 1.203125q0.109375 0.453125 0.453125 0.71875q0.34375 0.25 0.859375 0.25q0.515625 0 0.96875 -0.265625q0.453125 -0.265625 0.640625 -0.71875q0.1875 -0.453125 0.1875 -1.3125l0 -3.609375l1.140625 0l0 6.734375l-1.015625 0zm4.0374756 0l-1.0625 0l0 -9.3125l1.15625 0l0 3.328125q0.71875 -0.90625 1.84375 -0.90625q0.625 0 1.171875 0.25q0.5625 0.25 0.921875 0.703125q0.359375 0.453125 0.5625 1.09375q0.203125 0.640625 0.203125 1.375q0 1.734375 -0.859375 2.6875q-0.859375 0.9375 -2.0625 0.9375q-1.1875 0 -1.875 -1.0l0 0.84375zm-0.015625 -3.421875q0 1.21875 0.34375 1.75q0.53125 0.890625 1.453125 0.890625q0.75 0 1.296875 -0.65625q0.546875 -0.65625 0.546875 -1.9375q0 -1.328125 -0.53125 -1.953125q-0.515625 -0.625 -1.265625 -0.625q-0.75 0 -1.296875 0.65625q-0.546875 0.640625 -0.546875 1.875zm6.3656006 -4.5625l0 -1.328125l1.15625 0l0 1.328125l-1.15625 0zm-1.4375 10.59375l0.21875 -0.96875q0.34375 0.09375 0.53125 0.09375q0.359375 0 0.515625 -0.234375q0.171875 -0.234375 0.171875 -1.15625l0 -7.078125l1.15625 0l0 7.109375q0 1.234375 -0.328125 1.71875q-0.421875 0.640625 -1.375 0.640625q-0.46875 0 -0.890625 -0.125zm9.02359 -4.78125l1.1875 0.140625q-0.28125 1.046875 -1.046875 1.625q-0.75 0.5625 -1.921875 0.5625q-1.484375 0 -2.359375 -0.90625q-0.859375 -0.921875 -0.859375 -2.5625q0 -1.703125 0.875 -2.640625q0.890625 -0.9375 2.28125 -0.9375q1.359375 0 2.203125 0.921875q0.859375 0.921875 0.859375 2.578125q0 0.109375 0 0.3125l-5.03125 0q0.0625 1.109375 0.625 1.703125q0.5625 0.59375 1.40625 0.59375q0.640625 0 1.078125 -0.328125q0.453125 -0.34375 0.703125 -1.0625zm-3.75 -1.84375l3.765625 0q-0.078125 -0.859375 -0.4375 -1.28125q-0.546875 -0.65625 -1.40625 -0.65625q-0.796875 0 -1.328125 0.53125q-0.53125 0.515625 -0.59375 1.40625zm10.943726 1.546875l1.125 0.140625q-0.171875 1.171875 -0.9375 1.828125q-0.765625 0.65625 -1.859375 0.65625q-1.390625 0 -2.234375 -0.90625q-0.828125 -0.90625 -0.828125 -2.59375q0 -1.09375 0.359375 -1.90625q0.359375 -0.828125 1.09375 -1.234375q0.734375 -0.40625 1.609375 -0.40625q1.09375 0 1.796875 0.5625q0.703125 0.546875 0.890625 1.5625l-1.109375 0.171875q-0.15625 -0.671875 -0.5625 -1.015625q-0.390625 -0.34375 -0.96875 -0.34375q-0.859375 0 -1.40625 0.625q-0.53125 0.609375 -0.53125 1.953125q0 1.359375 0.515625 1.984375q0.515625 0.609375 1.359375 0.609375q0.671875 0 1.125 -0.40625q0.453125 -0.421875 0.5625 -1.28125zm4.7734375 1.453125l0.15625 1.0q-0.484375 0.109375 -0.859375 0.109375q-0.625 0 -0.96875 -0.203125q-0.34375 -0.203125 -0.484375 -0.515625q-0.140625 -0.328125 -0.140625 -1.34375l0 -3.890625l-0.828125 0l0 -0.875l0.828125 0l0 -1.671875l1.140625 -0.6875l0 2.359375l1.15625 0l0 0.875l-1.15625 0l0 3.953125q0 0.484375 0.0625 0.625q0.0625 0.140625 0.1875 0.21875q0.140625 0.078125 0.390625 0.078125q0.203125 0 0.515625 -0.03125z" fill-rule="nonzero"></path><path fill="#000000" fill-opacity="0.0" d="m112.014435 52.562992l86.86615 0" fill-rule="evenodd"></path><path stroke="#000000" stroke-width="2.0" stroke-linejoin="round" stroke-linecap="butt" d="m112.014435 52.562992l74.86615 0" fill-rule="evenodd"></path><path fill="#000000" stroke="#000000" stroke-width="2.0" stroke-linecap="butt" d="m186.88058 55.86646l9.076187 -3.3034668l-9.076187 -3.303463z" fill-rule="evenodd"></path><path fill="#000000" fill-opacity="0.0" d="m108.54199 24.69685l77.00787 0l0 33.19685l-77.00787 0z" fill-rule="evenodd"></path><path fill="#000000" d="m122.86044 46.49685l0 -9.3125l3.515625 0q0.921875 0 1.40625 0.09375q0.6875 0.109375 1.15625 0.4375q0.46875 0.3125 0.75 0.890625q0.28125 0.578125 0.28125 1.28125q0 1.1875 -0.765625 2.015625q-0.75 0.8125 -2.71875 0.8125l-2.390625 0l0 3.78125l-1.234375 0zm1.234375 -4.875l2.40625 0q1.1875 0 1.6875 -0.4375q0.515625 -0.453125 0.515625 -1.265625q0 -0.578125 -0.296875 -0.984375q-0.296875 -0.421875 -0.78125 -0.5625q-0.3125 -0.078125 -1.15625 -0.078125l-2.375 0l0 3.328125zm7.4991302 4.875l0 -6.734375l1.03125 0l0 1.015625q0.390625 -0.71875 0.71875 -0.9375q0.34375 -0.234375 0.734375 -0.234375q0.578125 0 1.171875 0.359375l-0.390625 1.0625q-0.421875 -0.25 -0.828125 -0.25q-0.375 0 -0.6875 0.234375q-0.296875 0.21875 -0.421875 0.625q-0.1875 0.609375 -0.1875 1.328125l0 3.53125l-1.140625 0zm4.0321198 -3.375q0 -1.875 1.03125 -2.765625q0.875 -0.75 2.125 -0.75q1.390625 0 2.265625 0.90625q0.890625 0.90625 0.890625 2.515625q0 1.296875 -0.390625 2.046875q-0.390625 0.75 -1.140625 1.171875q-0.75 0.40625 -1.625 0.40625q-1.421875 0 -2.296875 -0.90625q-0.859375 -0.90625 -0.859375 -2.625zm1.171875 0q0 1.296875 0.5625 1.953125q0.5625 0.640625 1.421875 0.640625q0.84375 0 1.40625 -0.640625q0.578125 -0.65625 0.578125 -1.984375q0 -1.25 -0.578125 -1.890625q-0.5625 -0.65625 -1.40625 -0.65625q-0.859375 0 -1.421875 0.640625q-0.5625 0.640625 -0.5625 1.9375zm6.6624756 5.953125l0 -9.3125l1.03125 0l0 0.875q0.375 -0.515625 0.828125 -0.765625q0.46875 -0.265625 1.140625 -0.265625q0.859375 0 1.515625 0.453125q0.65625 0.4375 0.984375 1.25q0.34375 0.796875 0.34375 1.765625q0 1.03125 -0.375 1.859375q-0.359375 0.828125 -1.078125 1.28125q-0.703125 0.4375 -1.484375 0.4375q-0.5625 0 -1.015625 -0.234375q-0.453125 -0.25 -0.75 -0.625l0 3.28125l-1.140625 0zm1.03125 -5.90625q0 1.296875 0.53125 1.921875q0.53125 0.625 1.265625 0.625q0.765625 0 1.3125 -0.640625q0.546875 -0.65625 0.546875 -2.0q0 -1.296875 -0.53125 -1.9375q-0.53125 -0.640625 -1.265625 -0.640625q-0.734375 0 -1.296875 0.6875q-0.5625 0.671875 -0.5625 1.984375zm10.990601 1.15625l1.1875 0.140625q-0.28125 1.046875 -1.046875 1.625q-0.75 0.5625 -1.921875 0.5625q-1.484375 0 -2.359375 -0.90625q-0.859375 -0.921875 -0.859375 -2.5625q0 -1.703125 0.875 -2.640625q0.890625 -0.9375 2.28125 -0.9375q1.359375 0 2.203125 0.921875q0.859375 0.921875 0.859375 2.578125q0 0.109375 0 0.3125l-5.03125 0q0.0625 1.109375 0.625 1.703125q0.5625 0.59375 1.40625 0.59375q0.640625 0 1.078125 -0.328125q0.453125 -0.34375 0.703125 -1.0625zm-3.75 -1.84375l3.765625 0q-0.078125 -0.859375 -0.4375 -1.28125q-0.546875 -0.65625 -1.40625 -0.65625q-0.796875 0 -1.328125 0.53125q-0.53125 0.515625 -0.59375 1.40625zm6.5374756 4.015625l0 -6.734375l1.03125 0l0 1.015625q0.390625 -0.71875 0.71875 -0.9375q0.34375 -0.234375 0.734375 -0.234375q0.578125 0 1.171875 0.359375l-0.390625 1.0625q-0.421875 -0.25 -0.828125 -0.25q-0.375 0 -0.6875 0.234375q-0.296875 0.21875 -0.421875 0.625q-0.1875 0.609375 -0.1875 1.328125l0 3.53125l-1.140625 0zm6.9539948 -1.015625l0.15625 1.0q-0.484375 0.109375 -0.859375 0.109375q-0.625 0 -0.96875 -0.203125q-0.34375 -0.203125 -0.484375 -0.515625q-0.140625 -0.328125 -0.140625 -1.34375l0 -3.890625l-0.828125 0l0 -0.875l0.828125 0l0 -1.671875l1.140625 -0.6875l0 2.359375l1.15625 0l0 0.875l-1.15625 0l0 3.953125q0 0.484375 0.0625 0.625q0.0625 0.140625 0.1875 0.21875q0.140625 0.078125 0.390625 0.078125q0.203125 0 0.515625 -0.03125zm1.1561127 3.609375l-0.140625 -1.0625q0.375 0.09375 0.65625 0.09375q0.390625 0 0.609375 -0.125q0.234375 -0.125 0.375 -0.359375q0.109375 -0.171875 0.359375 -0.84375q0.03125 -0.09375 0.09375 -0.28125l-2.5625 -6.75l1.234375 0l1.40625 3.890625q0.265625 0.75 0.484375 1.5625q0.203125 -0.78125 0.46875 -1.53125l1.453125 -3.921875l1.140625 0l-2.5625 6.84375q-0.421875 1.109375 -0.640625 1.53125q-0.3125 0.5625 -0.703125 0.828125q-0.390625 0.265625 -0.9375 0.265625q-0.328125 0 -0.734375 -0.140625z" fill-rule="nonzero"></path></g></svg>

