<?xml version="1.0" standalone="yes"?>

<svg version="1.1" viewBox="0.0 0.0 461.8582677165354 131.0682414698163" fill="none" stroke="none" stroke-linecap="square" stroke-miterlimit="10" xmlns="http://www.w3.org/2000/svg" xmlns:xlink="http://www.w3.org/1999/xlink"><clipPath id="p.0"><path d="m0 0l461.85828 0l0 131.06824l-461.85828 0l0 -131.06824z" clip-rule="nonzero"></path></clipPath><g clip-path="url(#p.0)"><path fill="#000000" fill-opacity="0.0" d="m0 0l461.85828 0l0 131.06824l-461.85828 0z" fill-rule="evenodd"></path><path fill="#ffe599" d="m190.88846 15.681103l78.299194 0l0 41.76378l-78.299194 0z" fill-rule="evenodd"></path><path stroke="#000000" stroke-width="1.0" stroke-linejoin="round" stroke-linecap="butt" d="m190.88846 15.681103l78.299194 0l0 41.76378l-78.299194 0z" fill-rule="evenodd"></path><path fill="#000000" d="m229.78741 32.166103q0 0.90625 -0.46875 1.875q-0.46875 0.96875 -1.078125 1.703125q-0.59375 0.734375 -1.40625 1.484375q-1.140625 1.015625 -2.09375 1.671875l0.03125 0.078125q2.96875 0 3.78125 -0.25q0.8125 -0.25 1.1875 -1.421875l0.421875 0.1875q-0.28125 0.890625 -0.375 2.546875l-6.4375 0l-0.1875 -0.640625q0.59375 -0.453125 1.625 -1.453125q1.03125 -1.015625 1.703125 -1.828125q0.671875 -0.8125 1.21875 -1.859375q0.546875 -1.046875 0.546875 -2.0q0 -0.953125 -0.578125 -1.421875q-0.5625 -0.484375 -1.5 -0.484375q-1.328125 0 -2.484375 0.625l-0.234375 -0.4375q1.5 -1.265625 3.203125 -1.265625q1.296875 0 2.203125 0.765625q0.921875 0.75 0.921875 2.125zm5.3657684 -2.734375q-0.0625 1.703125 -0.0625 4.171875q0 4.015625 0.09375 5.0l0.03125 0.328125q0.03125 0.28125 0.328125 0.40625q0.296875 0.125 1.140625 0.28125l-0.046875 0.46875q-0.96875 -0.046875 -2.3125 -0.046875q-1.34375 0 -2.59375 0.046875l-0.046875 -0.46875q0.28125 -0.0625 0.59375 -0.109375q0.328125 -0.0625 0.53125 -0.109375q0.203125 -0.046875 0.3125 -0.078125q0.109375 -0.046875 0.234375 -0.109375q0.203125 -0.09375 0.234375 -0.28125q0.109375 -0.9375 0.109375 -3.421875q0 -3.859375 -0.09375 -4.75l-0.015625 -0.25l-1.9375 -0.34375l-0.046875 -0.578125q2.0 0 3.21875 -0.3125l0.328125 0.15625z" fill-rule="nonzero"></path><path fill="#a4c2f4" d="m12.266404 36.562992l0 0c0 -12.559042 20.538498 -22.740158 45.874016 -22.740158l0 0c25.335518 0 45.874016 10.181115 45.874016 22.740158l0 0c0 12.559044 -20.538498 22.740158 -45.874016 22.740158l0 0c-25.335518 0 -45.874016 -10.181114 -45.874016 -22.740158z" fill-rule="evenodd"></path><path stroke="#000000" stroke-width="1.0" stroke-linejoin="round" stroke-linecap="butt" d="m12.266404 36.562992l0 0c0 -12.559042 20.538498 -22.740158 45.874016 -22.740158l0 0c25.335518 0 45.874016 10.181115 45.874016 22.740158l0 0c0 12.559044 -20.538498 22.740158 -45.874016 22.740158l0 0c-25.335518 0 -45.874016 -10.181114 -45.874016 -22.740158z" fill-rule="evenodd"></path><path fill="#000000" d="m49.13781 42.28327l0 -9.3125l3.515625 0q0.921875 0 1.40625 0.09375q0.6875 0.109375 1.15625 0.4375q0.46875 0.3125 0.75 0.890625q0.28125 0.578125 0.28125 1.28125q0 1.1875 -0.765625 2.015625q-0.75 0.8125 -2.71875 0.8125l-2.390625 0l0 3.78125l-1.234375 0zm1.234375 -4.875l2.40625 0q1.1875 0 1.6875 -0.4375q0.515625 -0.453125 0.515625 -1.265625q0 -0.578125 -0.296875 -0.984375q-0.296875 -0.421875 -0.78125 -0.5625q-0.3125 -0.078125 -1.15625 -0.078125l-2.375 0l0 3.328125zm11.90538 4.046875q-0.625 0.53125 -1.21875 0.765625q-0.578125 0.21875 -1.25 0.21875q-1.125 0 -1.71875 -0.546875q-0.59375 -0.546875 -0.59375 -1.390625q0 -0.484375 0.21875 -0.890625q0.234375 -0.421875 0.59375 -0.671875q0.375 -0.25 0.828125 -0.375q0.328125 -0.078125 1.015625 -0.171875q1.375 -0.15625 2.03125 -0.390625q0.015625 -0.234375 0.015625 -0.296875q0 -0.703125 -0.328125 -0.984375q-0.4375 -0.390625 -1.296875 -0.390625q-0.8125 0 -1.203125 0.28125q-0.375 0.28125 -0.5625 1.0l-1.109375 -0.140625q0.140625 -0.71875 0.484375 -1.15625q0.359375 -0.453125 1.015625 -0.6875q0.671875 -0.234375 1.53125 -0.234375q0.875 0 1.40625 0.203125q0.546875 0.203125 0.796875 0.515625q0.25 0.296875 0.359375 0.765625q0.046875 0.296875 0.046875 1.0625l0 1.515625q0 1.59375 0.078125 2.015625q0.078125 0.421875 0.28125 0.8125l-1.1875 0q-0.171875 -0.359375 -0.234375 -0.828125zm-0.09375 -2.5625q-0.625 0.265625 -1.859375 0.4375q-0.703125 0.109375 -1.0 0.234375q-0.296875 0.125 -0.453125 0.375q-0.15625 0.234375 -0.15625 0.53125q0 0.453125 0.34375 0.765625q0.34375 0.296875 1.015625 0.296875q0.65625 0 1.171875 -0.28125q0.515625 -0.296875 0.765625 -0.796875q0.171875 -0.375 0.171875 -1.140625l0 -0.421875zm5.6156006 2.375l0.15625 1.0q-0.484375 0.109375 -0.859375 0.109375q-0.625 0 -0.96875 -0.203125q-0.34375 -0.203125 -0.484375 -0.515625q-0.140625 -0.328125 -0.140625 -1.34375l0 -3.890625l-0.828125 0l0 -0.875l0.828125 0l0 -1.671875l1.140625 -0.6875l0 2.359375l1.15625 0l0 0.875l-1.15625 0l0 3.953125q0 0.484375 0.0625 0.625q0.0625 0.140625 0.1875 0.21875q0.140625 0.078125 0.390625 0.078125q0.203125 0 0.515625 -0.03125z" fill-rule="nonzero"></path><path fill="#000000" fill-opacity="0.0" d="m104.014435 36.562992l86.86615 0" fill-rule="evenodd"></path><path stroke="#000000" stroke-width="2.0" stroke-linejoin="round" stroke-linecap="butt" d="m104.014435 36.562992l74.86615 0" fill-rule="evenodd"></path><path fill="#000000" stroke="#000000" stroke-width="2.0" stroke-linecap="butt" d="m178.88058 39.86646l9.076187 -3.3034668l-9.076187 -3.303463z" fill-rule="evenodd"></path><path fill="#000000" fill-opacity="0.0" d="m100.54199 8.696851l77.00787 0l0 33.19685l-77.00787 0z" fill-rule="evenodd"></path><path fill="#000000" d="m118.73624 29.668724q-0.625 0.53125 -1.21875 0.765625q-0.578125 0.21875 -1.25 0.21875q-1.125 0 -1.71875 -0.546875q-0.59375 -0.546875 -0.59375 -1.390625q0 -0.484375 0.21875 -0.890625q0.234375 -0.421875 0.59375 -0.671875q0.375 -0.25 0.828125 -0.375q0.328125 -0.078125 1.015625 -0.171875q1.375 -0.15625 2.03125 -0.390625q0.015625 -0.234375 0.015625 -0.296875q0 -0.703125 -0.328125 -0.984375q-0.4375 -0.390625 -1.296875 -0.390625q-0.8125 0 -1.203125 0.28125q-0.375 0.28125 -0.5625 1.0l-1.109375 -0.140625q0.140625 -0.71875 0.484375 -1.15625q0.359375 -0.453125 1.015625 -0.6875q0.671875 -0.234375 1.53125 -0.234375q0.875 0 1.40625 0.203125q0.546875 0.203125 0.796875 0.515625q0.25 0.296875 0.359375 0.765625q0.046875 0.296875 0.046875 1.0625l0 1.515625q0 1.59375 0.078125 2.015625q0.078125 0.421875 0.28125 0.8125l-1.1875 0q-0.171875 -0.359375 -0.234375 -0.828125zm-0.09375 -2.5625q-0.625 0.265625 -1.859375 0.4375q-0.703125 0.109375 -1.0 0.234375q-0.296875 0.125 -0.453125 0.375q-0.15625 0.234375 -0.15625 0.53125q0 0.453125 0.34375 0.765625q0.34375 0.296875 1.015625 0.296875q0.65625 0 1.171875 -0.28125q0.515625 -0.296875 0.765625 -0.796875q0.171875 -0.375 0.171875 -1.140625l0 -0.421875zm2.8968506 3.953125l1.125 0.15625q0.0625 0.515625 0.375 0.75q0.4375 0.328125 1.171875 0.328125q0.78125 0 1.21875 -0.328125q0.4375 -0.3125 0.578125 -0.890625q0.09375 -0.34375 0.09375 -1.453125q-0.75 0.875 -1.875 0.875q-1.390625 0 -2.15625 -1.0q-0.75 -1.0 -0.75 -2.40625q0 -0.96875 0.34375 -1.78125q0.359375 -0.8125 1.015625 -1.25q0.65625 -0.453125 1.5625 -0.453125q1.1875 0 1.96875 0.96875l0 -0.8125l1.046875 0l0 5.8125q0 1.578125 -0.328125 2.234375q-0.3125 0.65625 -1.015625 1.03125q-0.6875 0.390625 -1.703125 0.390625q-1.203125 0 -1.953125 -0.546875q-0.734375 -0.53125 -0.71875 -1.625zm0.953125 -4.046875q0 1.3125 0.515625 1.921875q0.53125 0.609375 1.328125 0.609375q0.796875 0 1.328125 -0.59375q0.53125 -0.609375 0.53125 -1.90625q0 -1.234375 -0.546875 -1.859375q-0.546875 -0.640625 -1.328125 -0.640625q-0.765625 0 -1.296875 0.625q-0.53125 0.625 -0.53125 1.84375zm11.287476 1.3125l1.1875 0.140625q-0.28125 1.046875 -1.046875 1.625q-0.75 0.5625 -1.921875 0.5625q-1.484375 0 -2.359375 -0.90625q-0.859375 -0.921875 -0.859375 -2.5625q0 -1.703125 0.875 -2.640625q0.890625 -0.9375 2.28125 -0.9375q1.359375 0 2.203125 0.921875q0.859375 0.921875 0.859375 2.578125q0 0.109375 0 0.3125l-5.03125 0q0.0625 1.109375 0.625 1.703125q0.5625 0.59375 1.40625 0.59375q0.640625 0 1.078125 -0.328125q0.453125 -0.34375 0.703125 -1.0625zm-3.75 -1.84375l3.765625 0q-0.078125 -0.859375 -0.4375 -1.28125q-0.546875 -0.65625 -1.40625 -0.65625q-0.796875 0 -1.328125 0.53125q-0.53125 0.515625 -0.59375 1.40625zm6.3187256 -0.515625q0 -2.3125 1.234375 -3.625q1.25 -1.3125 3.21875 -1.3125q1.296875 0 2.328125 0.625q1.03125 0.609375 1.578125 1.71875q0.546875 1.09375 0.546875 2.484375q0 1.421875 -0.578125 2.546875q-0.5625 1.109375 -1.609375 1.6875q-1.046875 0.5625 -2.265625 0.5625q-1.3125 0 -2.359375 -0.625q-1.03125 -0.640625 -1.5625 -1.734375q-0.53125 -1.109375 -0.53125 -2.328125zm1.265625 0.015625q0 1.6875 0.90625 2.65625q0.90625 0.96875 2.28125 0.96875q1.390625 0 2.28125 -0.96875q0.90625 -0.984375 0.90625 -2.78125q0 -1.140625 -0.390625 -1.984375q-0.390625 -0.859375 -1.125 -1.3125q-0.734375 -0.46875 -1.65625 -0.46875q-1.3125 0 -2.265625 0.90625q-0.9375 0.890625 -0.9375 2.984375zm11.2108 4.515625l-2.5625 -6.734375l1.203125 0l1.4375 4.03125q0.234375 0.65625 0.4375 1.359375q0.15625 -0.53125 0.421875 -1.28125l1.5 -4.109375l1.171875 0l-2.546875 6.734375l-1.0625 0zm9.3984375 -2.171875l1.1875 0.140625q-0.28125 1.046875 -1.046875 1.625q-0.75 0.5625 -1.921875 0.5625q-1.484375 0 -2.359375 -0.90625q-0.859375 -0.921875 -0.859375 -2.5625q0 -1.703125 0.875 -2.640625q0.890625 -0.9375 2.28125 -0.9375q1.359375 0 2.203125 0.921875q0.859375 0.921875 0.859375 2.578125q0 0.109375 0 0.3125l-5.03125 0q0.0625 1.109375 0.625 1.703125q0.5625 0.59375 1.40625 0.59375q0.640625 0 1.078125 -0.328125q0.453125 -0.34375 0.703125 -1.0625zm-3.75 -1.84375l3.765625 0q-0.078125 -0.859375 -0.4375 -1.28125q-0.546875 -0.65625 -1.40625 -0.65625q-0.796875 0 -1.328125 0.53125q-0.53125 0.515625 -0.59375 1.40625zm6.5374756 4.015625l0 -6.734375l1.03125 0l0 1.015625q0.390625 -0.71875 0.71875 -0.9375q0.34375 -0.234375 0.734375 -0.234375q0.578125 0 1.171875 0.359375l-0.390625 1.0625q-0.421875 -0.25 -0.828125 -0.25q-0.375 0 -0.6875 0.234375q-0.296875 0.21875 -0.421875 0.625q-0.1875 0.609375 -0.1875 1.328125l0 3.53125l-1.140625 0z" fill-rule="nonzero"></path><path fill="#a4c2f4" d="m186.22179 88.85171l0 0c0 -12.559044 20.538498 -22.740158 45.87401 -22.740158l0 0c25.33551 0 45.874023 10.181114 45.874023 22.740158l0 0c0 12.559044 -20.538513 22.740158 -45.874023 22.740158l0 0c-25.33551 0 -45.87401 -10.181114 -45.87401 -22.740158z" fill-rule="evenodd"></path><path stroke="#000000" stroke-width="1.0" stroke-linejoin="round" stroke-linecap="butt" d="m186.22179 88.85171l0 0c0 -12.559044 20.538498 -22.740158 45.87401 -22.740158l0 0c25.33551 0 45.874023 10.181114 45.874023 22.740158l0 0c0 12.559044 -20.538513 22.740158 -45.874023 22.740158l0 0c-25.33551 0 -45.87401 -10.181114 -45.87401 -22.740158z" fill-rule="evenodd"></path><path fill="#000000" d="m218.97159 91.58761l1.171875 -0.109375q0.078125 0.703125 0.375 1.15625q0.3125 0.4375 0.9375 0.71875q0.640625 0.265625 1.4375 0.265625q0.703125 0 1.234375 -0.203125q0.546875 -0.203125 0.8125 -0.5625q0.265625 -0.375 0.265625 -0.8125q0 -0.4375 -0.265625 -0.765625q-0.25 -0.328125 -0.828125 -0.546875q-0.375 -0.140625 -1.65625 -0.453125q-1.28125 -0.3125 -1.796875 -0.578125q-0.671875 -0.34375 -1.0 -0.859375q-0.328125 -0.53125 -0.328125 -1.171875q0 -0.703125 0.390625 -1.3125q0.40625 -0.609375 1.171875 -0.921875q0.78125 -0.328125 1.71875 -0.328125q1.03125 0 1.8125 0.34375q0.796875 0.328125 1.21875 0.984375q0.4375 0.640625 0.46875 1.453125l-1.1875 0.09375q-0.09375 -0.890625 -0.640625 -1.328125q-0.546875 -0.453125 -1.625 -0.453125q-1.109375 0 -1.625 0.40625q-0.515625 0.40625 -0.515625 0.984375q0 0.5 0.359375 0.828125q0.359375 0.328125 1.859375 0.671875q1.5 0.328125 2.0625 0.578125q0.8125 0.375 1.1875 0.953125q0.390625 0.578125 0.390625 1.328125q0 0.734375 -0.421875 1.390625q-0.421875 0.65625 -1.21875 1.03125q-0.796875 0.359375 -1.796875 0.359375q-1.265625 0 -2.125 -0.359375q-0.84375 -0.375 -1.328125 -1.109375q-0.484375 -0.75 -0.515625 -1.671875zm13.56163 2.15625q-0.625 0.53125 -1.21875 0.765625q-0.578125 0.21875 -1.25 0.21875q-1.125 0 -1.71875 -0.546875q-0.59375 -0.546875 -0.59375 -1.390625q0 -0.484375 0.21875 -0.890625q0.234375 -0.421875 0.59375 -0.671875q0.375 -0.25 0.828125 -0.375q0.328125 -0.078125 1.015625 -0.171875q1.375 -0.15625 2.03125 -0.390625q0.015625 -0.234375 0.015625 -0.296875q0 -0.703125 -0.328125 -0.984375q-0.4375 -0.390625 -1.296875 -0.390625q-0.8125 0 -1.203125 0.28125q-0.375 0.28125 -0.5625 1.0l-1.109375 -0.140625q0.140625 -0.71875 0.484375 -1.15625q0.359375 -0.453125 1.015625 -0.6875q0.671875 -0.234375 1.53125 -0.234375q0.875 0 1.40625 0.203125q0.546875 0.203125 0.796875 0.515625q0.25 0.296875 0.359375 0.765625q0.046875 0.296875 0.046875 1.0625l0 1.515625q0 1.59375 0.078125 2.015625q0.078125 0.421875 0.28125 0.8125l-1.1875 0q-0.171875 -0.359375 -0.234375 -0.828125zm-0.09375 -2.5625q-0.625 0.265625 -1.859375 0.4375q-0.703125 0.109375 -1.0 0.234375q-0.296875 0.125 -0.453125 0.375q-0.15625 0.234375 -0.15625 0.53125q0 0.453125 0.34375 0.765625q0.34375 0.296875 1.015625 0.296875q0.65625 0 1.171875 -0.28125q0.515625 -0.296875 0.765625 -0.796875q0.171875 -0.375 0.171875 -1.140625l0 -0.421875zm3.1156006 3.390625l0 -6.734375l1.015625 0l0 0.9375q0.328125 -0.5 0.84375 -0.796875q0.53125 -0.296875 1.203125 -0.296875q0.75 0 1.21875 0.3125q0.484375 0.3125 0.6875 0.859375q0.796875 -1.171875 2.078125 -1.171875q1.0 0 1.53125 0.5625q0.546875 0.546875 0.546875 1.703125l0 4.625l-1.125 0l0 -4.25q0 -0.6875 -0.109375 -0.984375q-0.109375 -0.296875 -0.40625 -0.484375q-0.296875 -0.1875 -0.6875 -0.1875q-0.71875 0 -1.1875 0.484375q-0.46875 0.46875 -0.46875 1.5l0 3.921875l-1.140625 0l0 -4.375q0 -0.765625 -0.28125 -1.140625q-0.28125 -0.390625 -0.90625 -0.390625q-0.484375 0 -0.890625 0.265625q-0.40625 0.25 -0.59375 0.734375q-0.1875 0.484375 -0.1875 1.40625l0 3.5l-1.140625 0z" fill-rule="nonzero"></path><path fill="#000000" fill-opacity="0.0" d="m90.57825 52.64271l95.65355 36.22047" fill-rule="evenodd"></path><path stroke="#000000" stroke-width="2.0" stroke-linejoin="round" stroke-linecap="butt" d="m90.57825 52.64271l84.43117 31.970974" fill-rule="evenodd"></path><path fill="#000000" stroke="#000000" stroke-width="2.0" stroke-linecap="butt" d="m173.83957 87.70308l9.657883 0.12471771l-7.3181915 -6.303505z" fill-rule="evenodd"></path><path fill="#ffe599" d="m369.8259 67.93003l78.299225 0l0 41.763786l-78.299225 0z" fill-rule="evenodd"></path><path stroke="#000000" stroke-width="1.0" stroke-linejoin="round" stroke-linecap="butt" d="m369.8259 67.93003l78.299225 0l0 41.763786l-78.299225 0z" fill-rule="evenodd"></path><path fill="#000000" d="m389.2717 84.02441q-0.3125 -1.171875 -0.890625 -1.59375q-0.5625 -0.4375 -1.484375 -0.4375q-0.90625 0 -1.390625 0.4375q-0.46875 0.4375 -0.46875 1.078125q0 1.03125 1.0625 1.734375l2.53125 1.65625q1.671875 1.09375 1.671875 2.578125q0 1.203125 -0.953125 2.09375q-0.953125 0.875 -2.78125 0.875q-1.828125 0 -3.1875 -0.578125q0.265625 -1.3125 0.265625 -2.34375l0.421875 -0.1875q0.25 1.3125 0.75 1.8125q0.515625 0.484375 1.59375 0.484375q1.078125 0 1.640625 -0.53125q0.578125 -0.53125 0.578125 -1.25q0 -0.96875 -1.046875 -1.640625l-2.546875 -1.6875q-1.484375 -0.953125 -1.484375 -2.453125q0 -1.171875 0.90625 -2.03125q0.921875 -0.859375 2.390625 -0.859375q0.484375 0 1.0625 0.125q0.59375 0.125 0.890625 0.125q0.3125 0 0.703125 -0.09375l0 0.234375q0 1.171875 0.203125 2.25l-0.4375 0.203125zm4.9167786 8.40625q-1.671875 0 -1.671875 -1.59375q0.015625 -1.40625 0.015625 -2.578125q0 -1.1875 -0.03125 -2.46875l-1.015625 0.015625l-0.046875 -0.171875l0.359375 -0.625q0.21875 0.046875 0.671875 0.0625l-0.0625 -1.46875l1.0625 -0.9375l0.296875 0.140625q-0.03125 1.1875 -0.03125 2.25l2.359375 -0.015625l0.078125 0.1875l-0.578125 0.640625q-0.546875 -0.0625 -1.859375 -0.078125l0 2.140625q0 2.0 0.046875 2.875q0.046875 0.71875 0.84375 0.71875q0.640625 0 1.40625 -0.375l0.203125 0.53125q-1.140625 0.75 -2.046875 0.75zm5.0913696 0q-1.625 0 -1.625 -1.65625l0 -2.140625q0 -2.15625 -0.109375 -2.6875l-0.953125 -0.296875l-0.03125 -0.421875q0.953125 0 2.03125 -0.28125l0.3125 0.140625q-0.046875 2.859375 -0.046875 5.203125q0 1.078125 1.296875 1.078125q0.546875 0 1.15625 -0.1875q0.625 -0.1875 1.0 -0.40625q0.0625 -0.875 0.0625 -2.03125q0 -2.1875 -0.125 -2.796875l-1.015625 -0.296875l-0.03125 -0.421875q1.03125 0 2.125 -0.28125l0.296875 0.140625q-0.046875 1.203125 -0.046875 3.96875l0.046875 1.875q0 0.265625 0.21875 0.421875q0.21875 0.15625 0.421875 0.203125q0.203125 0.03125 0.578125 0.046875l-0.046875 0.46875q-0.578125 0.046875 -1.75 0.28125q-0.484375 -0.203125 -0.65625 -0.953125q-1.53125 1.03125 -3.109375 1.03125zm11.846893 -1.03125q-1.109375 1.03125 -2.421875 1.03125q-1.3125 0 -2.15625 -0.953125q-0.828125 -0.953125 -0.828125 -2.71875q0 -1.765625 1.0 -2.796875q1.0 -1.046875 2.46875 -1.046875q0.796875 0 1.921875 0.5625q0 -2.96875 -0.09375 -3.640625l-0.03125 -0.21875l-1.03125 -0.296875l-0.03125 -0.421875q1.03125 0 2.109375 -0.296875l0.3125 0.15625q-0.03125 2.0 -0.03125 5.671875q0 3.65625 0.03125 4.1875q0.03125 0.515625 0.125 0.65625q0.109375 0.140625 0.328125 0.203125q0.328125 0.09375 0.78125 0.125l-0.046875 0.46875q-0.578125 0.046875 -1.75 0.28125q-0.484375 -0.203125 -0.65625 -0.953125zm-1.515625 -5.515625q-1.265625 0 -1.875 0.828125q-0.59375 0.828125 -0.59375 2.046875q0 1.21875 0.53125 1.953125q0.53125 0.71875 1.5 0.71875q0.984375 0 1.859375 -0.5625q0.078125 -1.28125 0.078125 -4.6875q-0.828125 -0.296875 -1.5 -0.296875zm9.594666 1.28125q0 -0.734375 -0.421875 -1.09375q-0.40625 -0.359375 -0.921875 -0.359375q-0.75 0 -1.296875 0.59375q-0.546875 0.59375 -0.71875 1.453125l3.3125 -0.125q0.046875 -0.234375 0.046875 -0.46875zm-1.390625 5.265625q-1.703125 0 -2.5625 -0.96875q-0.859375 -0.96875 -0.859375 -2.578125q0 -1.609375 0.953125 -2.78125q0.953125 -1.171875 2.875 -1.171875q0.96875 0 1.6875 0.6875q0.734375 0.6875 0.734375 2.046875l-0.546875 0.65625q-0.09375 -0.015625 -1.515625 -0.015625q-1.40625 0 -2.828125 0.109375l0 0.140625q0 1.46875 0.609375 2.203125q0.609375 0.71875 1.65625 0.71875q1.0625 0 2.234375 -0.515625l0.1875 0.484375q-1.234375 0.984375 -2.625 0.984375zm6.093994 -6.015625l-0.015625 2.21875q0 2.0625 0.125 2.6875l0.03125 0.203125q0.015625 0.109375 0.359375 0.21875q0.34375 0.09375 0.671875 0.125l-0.046875 0.46875q-0.765625 -0.046875 -1.765625 -0.046875q-0.984375 0 -1.75 0.046875l0.046875 -0.46875q0.296875 -0.03125 0.640625 -0.125q0.34375 -0.109375 0.359375 -0.21875q0.125 -0.5625 0.125 -2.25q0 -2.71875 -0.125 -3.328125l-1.015625 -0.296875l-0.03125 -0.421875q1.015625 0 2.109375 -0.28125l0.296875 0.140625l0 0.765625q1.78125 -0.921875 3.09375 -0.921875q0.796875 0 1.203125 0.328125q0.421875 0.3125 0.421875 1.1875l0 2.1875q0 2.0625 0.109375 2.6875l0.046875 0.203125q0.03125 0.109375 0.375 0.21875q0.34375 0.09375 0.65625 0.125l-0.046875 0.46875q-0.765625 -0.046875 -1.765625 -0.046875q-0.984375 0 -1.75 0.046875l0.046875 -0.46875q0.296875 -0.03125 0.640625 -0.125q0.34375 -0.109375 0.359375 -0.21875q0.125 -0.5625 0.125 -2.890625l0 -1.5625q0 -0.625 -0.375 -0.859375q-0.359375 -0.234375 -1.234375 -0.234375q-0.875 0 -1.921875 0.4375zm9.319397 6.015625q-1.671875 0 -1.671875 -1.59375q0.015625 -1.40625 0.015625 -2.578125q0 -1.1875 -0.03125 -2.46875l-1.015625 0.015625l-0.046875 -0.171875l0.359375 -0.625q0.21875 0.046875 0.671875 0.0625l-0.0625 -1.46875l1.0625 -0.9375l0.296875 0.140625q-0.03125 1.1875 -0.03125 2.25l2.359375 -0.015625l0.078125 0.1875l-0.578125 0.640625q-0.546875 -0.0625 -1.859375 -0.078125l0 2.140625q0 2.0 0.046875 2.875q0.046875 0.71875 0.84375 0.71875q0.640625 0 1.40625 -0.375l0.203125 0.53125q-1.140625 0.75 -2.046875 0.75z" fill-rule="nonzero"></path><path fill="#000000" fill-opacity="0.0" d="m277.96982 88.85171l91.84253 -0.03149414" fill-rule="evenodd"></path><path stroke="#000000" stroke-width="2.0" stroke-linejoin="round" stroke-linecap="butt" d="m277.96982 88.85171l79.84253 -0.027389526" fill-rule="evenodd"></path><path fill="#000000" stroke="#000000" stroke-width="2.0" stroke-linecap="butt" d="m357.81348 92.12779l9.075043 -3.3065796l-9.077301 -3.300354z" fill-rule="evenodd"></path><path fill="#000000" fill-opacity="0.0" d="m279.1509 59.30315l77.00787 0l0 33.19685l-77.00787 0z" fill-rule="evenodd"></path><path fill="#000000" d="m297.01608 73.118774l0 -1.328125l1.15625 0l0 1.328125l-1.15625 0zm-1.4375 10.59375l0.21875 -0.96875q0.34375 0.09375 0.53125 0.09375q0.359375 0 0.515625 -0.234375q0.171875 -0.234375 0.171875 -1.15625l0 -7.078125l1.15625 0l0 7.109375q0 1.234375 -0.328125 1.71875q-0.421875 0.640625 -1.375 0.640625q-0.46875 0 -0.890625 -0.125zm3.99234 -5.984375q0 -1.875 1.03125 -2.765625q0.875 -0.75 2.125 -0.75q1.390625 0 2.265625 0.90625q0.890625 0.90625 0.890625 2.515625q0 1.296875 -0.390625 2.046875q-0.390625 0.75 -1.140625 1.171875q-0.75 0.40625 -1.625 0.40625q-1.421875 0 -2.296875 -0.90625q-0.859375 -0.90625 -0.859375 -2.625zm1.171875 0q0 1.296875 0.5625 1.953125q0.5625 0.640625 1.421875 0.640625q0.84375 0 1.40625 -0.640625q0.578125 -0.65625 0.578125 -1.984375q0 -1.25 -0.578125 -1.890625q-0.5625 -0.65625 -1.40625 -0.65625q-0.859375 0 -1.421875 0.640625q-0.5625 0.640625 -0.5625 1.9375zm7.7093506 3.375l-1.0625 0l0 -9.3125l1.15625 0l0 3.328125q0.71875 -0.90625 1.84375 -0.90625q0.625 0 1.171875 0.25q0.5625 0.25 0.921875 0.703125q0.359375 0.453125 0.5625 1.09375q0.203125 0.640625 0.203125 1.375q0 1.734375 -0.859375 2.6875q-0.859375 0.9375 -2.0625 0.9375q-1.1875 0 -1.875 -1.0l0 0.84375zm-0.015625 -3.421875q0 1.21875 0.34375 1.75q0.53125 0.890625 1.453125 0.890625q0.75 0 1.296875 -0.65625q0.546875 -0.65625 0.546875 -1.9375q0 -1.328125 -0.53125 -1.953125q-0.515625 -0.625 -1.265625 -0.625q-0.75 0 -1.296875 0.65625q-0.546875 0.640625 -0.546875 1.875zm8.896851 3.421875l0 -8.203125l-3.0625 0l0 -1.109375l7.375 0l0 1.109375l-3.078125 0l0 8.203125l-1.234375 0zm5.6257324 -7.984375l0 -1.328125l1.140625 0l0 1.328125l-1.140625 0zm0 7.984375l0 -6.734375l1.140625 0l0 6.734375l-1.140625 0zm5.46109 -1.015625l0.15625 1.0q-0.484375 0.109375 -0.859375 0.109375q-0.625 0 -0.96875 -0.203125q-0.34375 -0.203125 -0.484375 -0.515625q-0.140625 -0.328125 -0.140625 -1.34375l0 -3.890625l-0.828125 0l0 -0.875l0.828125 0l0 -1.671875l1.140625 -0.6875l0 2.359375l1.15625 0l0 0.875l-1.15625 0l0 3.953125q0 0.484375 0.0625 0.625q0.0625 0.140625 0.1875 0.21875q0.140625 0.078125 0.390625 0.078125q0.203125 0 0.515625 -0.03125zm1.1717529 1.015625l0 -9.3125l1.140625 0l0 9.3125l-1.140625 0zm7.601715 -2.171875l1.1875 0.140625q-0.28125 1.046875 -1.046875 1.625q-0.75 0.5625 -1.921875 0.5625q-1.484375 0 -2.359375 -0.90625q-0.859375 -0.921875 -0.859375 -2.5625q0 -1.703125 0.875 -2.640625q0.890625 -0.9375 2.28125 -0.9375q1.359375 0 2.203125 0.921875q0.859375 0.921875 0.859375 2.578125q0 0.109375 0 0.3125l-5.03125 0q0.0625 1.109375 0.625 1.703125q0.5625 0.59375 1.40625 0.59375q0.640625 0 1.078125 -0.328125q0.453125 -0.34375 0.703125 -1.0625zm-3.75 -1.84375l3.765625 0q-0.078125 -0.859375 -0.4375 -1.28125q-0.546875 -0.65625 -1.40625 -0.65625q-0.796875 0 -1.328125 0.53125q-0.53125 0.515625 -0.59375 1.40625z" fill-rule="nonzero"></path><path fill="#000000" fill-opacity="0.0" d="m108.71644 30.3492l71.84252 27.716536l-11.937012 30.960632l-71.84252 -27.716537z" fill-rule="evenodd"></path><path fill="#000000" d="m119.974 58.058403l3.3500977 -8.689045l1.0641785 0.41055298l-1.9111328 4.9568405l3.5056229 -1.5783577l1.3848877 0.5342827l-3.3046875 1.4046669l1.1298676 4.9744644l-1.3119965 -0.50616455l-0.84238434 -4.0261803l-1.039093 0.43649673l-0.96118164 2.4929962l-1.0641785 -0.41055298zm6.217415 2.3986511l2.4226303 -6.2835197l0.96214294 0.3711853l-0.34288025 0.88931274q1.0842438 -0.77077484 2.3962402 -0.2646103q0.5685272 0.21933746 0.95632935 0.6034126q0.402359 0.38969803 0.5063324 0.8149986q0.12416077 0.4163437 0.03175354 0.91661453q-0.054107666 0.31407547 -0.34077454 1.0576019l-1.489563 3.8634148l-1.0641785 -0.41055298l1.472702 -3.819683q0.25294495 -0.65605164 0.2454071 -1.0274048q0.0070343018 -0.36572647 -0.24060059 -0.6789818q-0.22744751 -0.3222084 -0.65019226 -0.4853058q-0.6851654 -0.26433182 -1.3494415 -0.018180847q-0.65864563 0.2315712 -1.1251831 1.4416237l-1.3265533 3.440628l-1.0641708 -0.41055298zm7.7361984 -0.6328659q0.6745148 -1.7494736 1.9570312 -2.2092857q1.0861664 -0.38484192 2.2523804 0.06508255q1.2974243 0.5005379 1.7877655 1.6610603q0.50491333 1.1661491 -0.0740509 2.667778q-0.46653748 1.2100525 -1.1007843 1.7692413q-0.6342468 0.559185 -1.4857483 0.68286514q-0.84588623 0.10910034 -1.6622314 -0.2058487q-1.3265839 -0.5117874 -1.8169098 -1.6723099q-0.47576904 -1.1548996 0.1425476 -2.758583zm1.0933228 0.42180252q-0.46653748 1.2100525 -0.17782593 2.0248337q0.29434204 0.8002014 1.0961151 1.10952q0.7872009 0.3036995 1.5424652 -0.09157181q0.77545166 -0.4042244 1.2532349 -1.6434364q0.4496765 -1.1663132 0.14076233 -1.9721375q-0.28871155 -0.8147812 -1.0759125 -1.1184807q-0.8017731 -0.30932236 -1.5570374 0.085948944q-0.7552643 0.3952713 -1.2218018 1.6053238zm6.1534424 5.9914284l0.49838257 -7.025894l1.1079102 0.4274292l-0.3937683 4.0182114l-0.15267944 1.4818649q0.068496704 -0.09080505 0.83555603 -1.1681747l2.4077759 -3.2914581l1.0933228 0.42180252l-0.45768738 4.010296l-0.14021301 1.3191986l0.81640625 -1.0750732l2.4783783 -3.213974l1.0350189 0.39930725l-4.390625 5.5242767l-1.093338 -0.42180634l0.4443512 -4.1494217l0.16812134 -1.1744499l-3.1344147 4.350918l-1.1224976 -0.43305206zm8.130753 0.9763794l1.1114197 0.24456787q-0.15423584 0.6606369 0.11904907 1.1679993q0.2788849 0.49279022 1.007782 0.77399445q0.72888184 0.2811966 1.1911621 0.12459564q0.48249817 -0.16555023 0.6398773 -0.573761q0.14051819 -0.36447906 -0.101486206 -0.6923065q-0.16246033 -0.23015594 -0.9528198 -0.7862778q-1.0537872 -0.74150085 -1.4213867 -1.1345291q-0.3675995 -0.3930359 -0.45469666 -0.8620682q-0.08709717 -0.46903992 0.09277344 -0.93556213q0.16300964 -0.42279053 0.48742676 -0.6995735q0.33003235 -0.29135895 0.755249 -0.3952713q0.32089233 -0.09391785 0.78862 -0.04745102q0.48791504 0.03750992 0.9835663 0.22872925q0.72888184 0.2812004 1.1985321 0.71360016q0.48983765 0.42343903 0.6117096 0.8891449q0.13645935 0.47132874 0.0024108887 1.1230164l-1.1058044 -0.25914q0.1182251 -0.5238037 -0.1158905 -0.91558075q-0.2284851 -0.40634918 -0.8553314 -0.64818573q-0.72888184 -0.28120422 -1.1451569 -0.15708923q-0.41064453 0.10953522 -0.539917 0.4448471q-0.078704834 0.20410919 -0.00932312 0.41509247q0.06373596 0.22556305 0.29574585 0.4490509q0.13787842 0.12017822 0.8463745 0.6279831q1.0190277 0.7448349 1.3832855 1.1030807q0.3788452 0.3638687 0.48051453 0.8385315q0.12188721 0.46570587 -0.08609009 1.005127q-0.2079773 0.5394211 -0.7085571 0.8822174q-0.4860077 0.3484192 -1.1703033 0.38587952q-0.6842804 0.037460327 -1.4277496 -0.24936676q-1.2245331 -0.47241974 -1.66922 -1.2301407q-0.4446869 -0.7577133 -0.23176575 -1.8311539z" fill-rule="nonzero"></path></g></svg>

