<svg version="1.1" viewBox="0.0 0.0 461.8582677165354 131.0682414698163" fill="none" stroke="none" stroke-linecap="square" stroke-miterlimit="10" xmlns:xlink="http://www.w3.org/1999/xlink" xmlns="http://www.w3.org/2000/svg"><clipPath id="p.0"><path d="m0 0l461.85828 0l0 131.06824l-461.85828 0l0 -131.06824z" clip-rule="nonzero"/></clipPath><g clip-path="url(#p.0)"><path fill="#000000" fill-opacity="0.0" d="m0 0l461.85828 0l0 131.06824l-461.85828 0z" fill-rule="evenodd"/><path fill="#ffe599" d="m190.8924 15.682415l165.25983 0l0 41.76378l-165.25983 0z" fill-rule="evenodd"/><path stroke="#000000" stroke-width="1.0" stroke-linejoin="round" stroke-linecap="butt" d="m190.8924 15.682415l165.25983 0l0 41.76378l-165.25983 0z" fill-rule="evenodd"/><path fill="#000000" d="m210.54367 34.80804q0 3.03125 0.125 3.84375l0.046875 0.296875q0.15625 0.515625 1.625 0.515625q0.734375 0 1.171875 -0.046875q0.4375 -0.0625 0.9375 -0.265625q0.921875 -0.375 1.40625 -1.84375l0.4375 0.1875q-0.296875 0.890625 -0.390625 2.546875l-6.390625 0q-0.921875 0 -1.921875 0.046875l-0.046875 -0.46875q0.8125 -0.15625 1.09375 -0.28125q0.296875 -0.125 0.328125 -0.40625q0.140625 -0.921875 0.140625 -3.40625q0 -4.03125 -0.09375 -5.015625l-0.03125 -0.328125q-0.03125 -0.28125 -0.296875 -0.40625q-0.25 -0.125 -1.015625 -0.28125l0.046875 -0.46875q1.0 0.0625 3.78125 0.0625q2.796875 0 4.109375 -0.109375l0 0.25q0 1.265625 0.1875 2.34375l-0.4375 0.203125q-0.40625 -1.3125 -0.984375 -1.65625q-0.578125 -0.359375 -2.171875 -0.359375q-0.71875 0 -1.078125 0.0625q-0.359375 0.0625 -0.40625 0.28125q-0.15625 1.046875 -0.171875 4.0625q2.03125 0 2.4375 -0.09375q0.40625 -0.09375 0.53125 -0.34375q0.125 -0.265625 0.28125 -1.09375l0.5625 0.0625q-0.125 0.921875 -0.125 1.78125q0 0.84375 0.125 1.78125l-0.5625 0.078125q-0.15625 -0.828125 -0.28125 -1.078125q-0.125 -0.265625 -0.53125 -0.359375q-0.40625 -0.09375 -2.4375 -0.09375zm8.399902 4.5q0 0.3125 1.0 0.3125l-0.09375 0.46875q-0.75 -0.046875 -1.359375 -0.046875l-1.546875 0.046875l0.046875 -0.46875q0.421875 0 0.609375 -0.109375q0.203125 -0.109375 0.40625 -0.328125l2.140625 -2.6875l-1.953125 -2.84375q-0.296875 -0.4375 -0.921875 -0.4375l-0.046875 -0.46875q1.265625 0.046875 1.859375 0.046875l1.359375 -0.046875l0.046875 0.46875q-0.890625 0 -0.890625 0.3125q0 0.078125 1.4375 2.109375q1.484375 -1.984375 1.484375 -2.09375q0 -0.328125 -0.828125 -0.328125l-0.046875 -0.46875q0.78125 0.046875 1.390625 0.046875l1.3125 -0.046875l0.046875 0.46875q-0.578125 0.046875 -0.96875 0.546875l-1.9375 2.5l2.09375 2.875q0.34375 0.484375 1.09375 0.484375l-0.046875 0.46875q-1.28125 -0.046875 -1.875 -0.046875l-1.53125 0.046875l0.046875 -0.46875q0.84375 0 0.84375 -0.328125q0 -0.109375 -1.53125 -2.171875q-1.640625 2.109375 -1.640625 2.1875zm10.482895 -2.625q-1.3125 0.03125 -2.0 0.5q-0.6875 0.453125 -0.6875 1.0q0 0.546875 0.28125 0.796875q0.28125 0.25 0.90625 0.25q0.625 0 1.5 -0.53125l0 -2.015625zm1.171875 3.5q-0.96875 0 -1.125 -1.03125q-1.40625 1.03125 -2.4375 1.03125q-0.6875 0 -1.171875 -0.421875q-0.46875 -0.421875 -0.46875 -1.3125q0 -0.90625 0.953125 -1.625q0.953125 -0.71875 3.078125 -0.859375l0 -1.484375q0 -0.453125 -0.328125 -0.6875q-0.328125 -0.25 -0.921875 -0.25q-0.59375 0 -0.953125 0.328125q-0.34375 0.328125 -0.34375 0.84375q0 0.1875 0.046875 0.4375l-0.34375 0.15625q-0.328125 -0.171875 -0.609375 -0.46875q-0.28125 -0.3125 -0.28125 -0.453125q0 -0.140625 0.21875 -0.390625q0.21875 -0.265625 0.578125 -0.5625q0.375 -0.3125 0.984375 -0.53125q0.625 -0.21875 1.390625 -0.21875q0.765625 0 1.25 0.375q0.484375 0.375 0.484375 1.359375q0 0.984375 0.09375 4.15625q0.015625 0.765625 0.578125 0.765625q0.234375 0 0.484375 -0.125l0.171875 0.40625q-0.609375 0.5625 -1.328125 0.5625zm8.827637 -3.796875q0 2.0625 0.109375 2.6875l0.046875 0.203125q0.015625 0.109375 0.359375 0.21875q0.34375 0.09375 0.671875 0.125l-0.046875 0.46875q-0.765625 -0.046875 -1.765625 -0.046875q-0.984375 0 -1.765625 0.046875l0.0625 -0.46875q0.296875 -0.03125 0.640625 -0.125q0.34375 -0.109375 0.359375 -0.21875q0.125 -0.5625 0.125 -2.890625l0 -1.5625q0 -0.625 -0.375 -0.859375q-0.359375 -0.234375 -0.875 -0.234375q-0.5 0 -0.796875 0.046875q-0.28125 0.03125 -0.515625 0.09375q-0.296875 0.078125 -0.828125 0.296875l0 2.21875q0 1.96875 0.125 2.6875l0.046875 0.203125q0.015625 0.109375 0.359375 0.21875q0.34375 0.09375 0.671875 0.125l-0.046875 0.46875q-0.765625 -0.046875 -1.765625 -0.046875q-0.984375 0 -1.75 0.046875l0.046875 -0.46875q0.296875 -0.03125 0.640625 -0.125q0.34375 -0.109375 0.359375 -0.21875q0.109375 -0.5625 0.109375 -2.25q0 -2.71875 -0.125 -3.328125l-1.015625 -0.296875l-0.03125 -0.421875q1.015625 0 2.109375 -0.28125l0.296875 0.140625q-0.015625 0.40625 -0.015625 0.765625q1.78125 -0.921875 3.03125 -0.921875q1.25 0 1.484375 0.9375q1.671875 -0.9375 3.03125 -0.9375q0.8125 0 1.21875 0.328125q0.421875 0.3125 0.421875 1.1875l0 2.1875q0 2.0625 0.109375 2.6875l0.046875 0.203125q0.015625 0.109375 0.359375 0.21875q0.34375 0.09375 0.671875 0.125l-0.046875 0.46875q-0.78125 -0.046875 -1.765625 -0.046875q-0.984375 0 -1.765625 0.046875l0.046875 -0.46875q0.3125 -0.03125 0.65625 -0.125q0.34375 -0.109375 0.359375 -0.21875q0.125 -0.5625 0.125 -2.890625l0 -1.5625q0 -0.625 -0.375 -0.859375q-0.359375 -0.234375 -1.296875 -0.234375q-0.9375 0 -1.734375 0.4375l0 2.21875zm10.15802 2.953125q1.28125 0 1.921875 -0.859375q0.640625 -0.859375 0.640625 -2.03125q0 -1.1875 -0.5625 -1.96875q-0.546875 -0.796875 -1.640625 -0.796875q-0.4375 0 -1.0 0.171875q-0.5625 0.15625 -0.828125 0.328125l0 4.890625q0.765625 0.265625 1.46875 0.265625zm-0.296875 4.90625q-0.765625 -0.046875 -1.859375 -0.046875q-1.09375 0 -1.859375 0.046875l0.046875 -0.453125q1.078125 -0.109375 1.109375 -0.3125q0.1875 -0.90625 0.1875 -3.890625q0 -4.796875 -0.09375 -5.609375l-0.03125 -0.28125l-1.03125 -0.296875l-0.03125 -0.421875q1.015625 0 2.109375 -0.28125l0.296875 0.140625l0 0.78125q1.25 -0.9375 2.546875 -0.9375q1.296875 0 2.09375 0.875q0.796875 0.859375 0.796875 2.703125q0 1.84375 -1.015625 2.890625q-1.0 1.03125 -2.453125 1.03125q-1.0625 0 -1.984375 -0.515625q0.015625 3.59375 0.09375 3.8125q0.03125 0.203125 1.125 0.3125l-0.046875 0.453125zm7.736038 -15.734375q-0.03125 2.0 -0.03125 5.859375q0 3.84375 0.171875 4.90625q0.015625 0.109375 0.421875 0.21875q0.40625 0.109375 0.703125 0.125l-0.046875 0.46875q-0.765625 -0.046875 -1.859375 -0.046875q-1.0781403 0 -1.8593903 0.046875l0.0625 -0.46875q0.328125 -0.03125 0.703125 -0.125q0.375 -0.109375 0.390625 -0.21875q0.109375 -1.046875 0.109375 -4.0q0 -4.8125 -0.09375 -5.640625l-0.03125 -0.265625l-1.015625 -0.296875l-0.03125 -0.421875q1.015625 0 2.1093903 -0.296875l0.296875 0.15625zm6.9613647 6.40625q0 -0.734375 -0.421875 -1.09375q-0.40625 -0.359375 -0.921875 -0.359375q-0.75 0 -1.296875 0.59375q-0.546875 0.59375 -0.71875 1.453125l3.3125 -0.125q0.046875 -0.234375 0.046875 -0.46875zm-1.390625 5.265625q-1.703125 0 -2.5625 -0.96875q-0.859375 -0.96875 -0.859375 -2.578125q0 -1.609375 0.953125 -2.78125q0.953125 -1.171875 2.875 -1.171875q0.96875 0 1.6875 0.6875q0.734375 0.6875 0.734375 2.046875l-0.546875 0.65625q-0.09375 -0.015625 -1.515625 -0.015625q-1.40625 0 -2.828125 0.109375l0 0.140625q0 1.46875 0.609375 2.203125q0.609375 0.71875 1.65625 0.71875q1.0625 0 2.234375 -0.515625l0.1875 0.484375q-1.234375 0.984375 -2.625 0.984375zm15.219025 -11.15625q1.0 0.0625 1.984375 0.0625q0.984375 0 2.0 -0.0625l0.046875 0.46875q-0.78125 0.15625 -1.046875 0.28125q-0.25 0.125 -0.265625 0.40625q-0.078125 1.734375 -0.171875 5.90625q-0.046875 1.875 -1.09375 3.015625q-1.046875 1.125 -3.265625 1.125q-1.0625 0 -1.8125 -0.171875q-0.75 -0.15625 -1.328125 -0.59375q-1.125 -0.84375 -1.15625 -3.203125q-0.0625 -4.015625 -0.125 -6.078125q0 -0.28125 -0.265625 -0.40625q-0.25 -0.125 -1.03125 -0.28125l0.046875 -0.46875q1.0 0.0625 2.09375 0.0625q1.109375 0 2.125 -0.0625l0.046875 0.46875q-0.765625 0.15625 -1.03125 0.28125q-0.25 0.125 -0.28125 0.40625q-0.140625 1.046875 -0.140625 3.203125q0 2.140625 0 2.5q0.015625 0.34375 0.046875 0.859375q0.03125 0.5 0.109375 0.78125q0.078125 0.265625 0.21875 0.609375q0.140625 0.34375 0.34375 0.515625q0.203125 0.171875 0.515625 0.34375q0.515625 0.328125 1.59375 0.328125q1.09375 0 1.78125 -0.328125q0.6875 -0.328125 1.03125 -0.984375q0.359375 -0.671875 0.484375 -1.453125q0.125 -0.78125 0.125 -2.125q0 -2.875 -0.09375 -3.890625l-0.03125 -0.359375q-0.046875 -0.375 -0.84375 -0.546875q-0.203125 -0.046875 -0.65625 -0.140625l0.046875 -0.46875zm7.035034 5.140625l-0.015625 2.21875q0 2.0625 0.125 2.6875l0.03125 0.203125q0.015625 0.109375 0.359375 0.21875q0.34375 0.09375 0.671875 0.125l-0.046875 0.46875q-0.765625 -0.046875 -1.765625 -0.046875q-0.984375 0 -1.75 0.046875l0.046875 -0.46875q0.296875 -0.03125 0.640625 -0.125q0.34375 -0.109375 0.359375 -0.21875q0.125 -0.5625 0.125 -2.25q0 -2.71875 -0.125 -3.328125l-1.015625 -0.296875l-0.03125 -0.421875q1.015625 0 2.109375 -0.28125l0.296875 0.140625l0 0.765625q1.78125 -0.921875 3.09375 -0.921875q0.796875 0 1.203125 0.328125q0.421875 0.3125 0.421875 1.1875l0 2.1875q0 2.0625 0.109375 2.6875l0.046875 0.203125q0.03125 0.109375 0.375 0.21875q0.34375 0.09375 0.65625 0.125l-0.046875 0.46875q-0.765625 -0.046875 -1.765625 -0.046875q-0.984375 0 -1.75 0.046875l0.046875 -0.46875q0.296875 -0.03125 0.640625 -0.125q0.34375 -0.109375 0.359375 -0.21875q0.125 -0.5625 0.125 -2.890625l0 -1.5625q0 -0.625 -0.375 -0.859375q-0.359375 -0.234375 -1.234375 -0.234375q-0.875 0 -1.921875 0.4375zm9.006897 -3.375q-0.234375 0.234375 -0.59375 0.234375q-0.34375 0 -0.59375 -0.234375q-0.234375 -0.25 -0.234375 -0.609375q0 -0.359375 0.234375 -0.59375q0.25 -0.25 0.59375 -0.25q0.359375 0 0.59375 0.25q0.25 0.234375 0.25 0.59375q0 0.359375 -0.25 0.609375zm0.0625 2.046875l-0.03125 3.546875q0 2.0625 0.125 2.6875l0.046875 0.203125q0.015625 0.109375 0.40625 0.21875q0.390625 0.09375 0.71875 0.125l-0.046875 0.46875q-0.765625 -0.046875 -1.875 -0.046875q-1.09375 0 -1.859375 0.046875l0.046875 -0.46875q0.328125 -0.03125 0.703125 -0.125q0.390625 -0.109375 0.40625 -0.21875q0.125 -0.5625 0.125 -2.25q0 -2.71875 -0.125 -3.328125l-1.015625 -0.296875l-0.03125 -0.421875q1.015625 0 2.109375 -0.28125l0.296875 0.140625zm5.649994 6.109375q1.703125 -5.1875 1.671875 -5.1875q0.015625 -0.03125 0.015625 -0.09375q0 -0.34375 -0.890625 -0.453125l-0.046875 -0.46875q0.546875 0.046875 1.15625 0.046875l1.625 -0.046875l0.0625 0.46875q-0.828125 0.109375 -1.015625 0.59375q-0.90625 2.109375 -2.234375 6.234375l-1.15625 0.140625q-1.296875 -4.0 -2.0 -5.671875l-0.25 -0.640625q-0.21875 -0.53125 -0.984375 -0.65625l-0.046875 -0.46875q1.109375 0.046875 1.703125 0.046875l1.65625 -0.046875l0.046875 0.46875q-0.484375 0.046875 -0.71875 0.1875q-0.234375 0.140625 -0.234375 0.28125q0 0.015625 0.296875 0.984375q0.3125 0.953125 1.34375 4.28125zm8.945282 -4.03125q0 -0.734375 -0.421875 -1.09375q-0.40625 -0.359375 -0.921875 -0.359375q-0.75 0 -1.296875 0.59375q-0.546875 0.59375 -0.71875 1.453125l3.3125 -0.125q0.046875 -0.234375 0.046875 -0.46875zm-1.390625 5.265625q-1.703125 0 -2.5625 -0.96875q-0.859375 -0.96875 -0.859375 -2.578125q0 -1.609375 0.953125 -2.78125q0.953125 -1.171875 2.875 -1.171875q0.96875 0 1.6875 0.6875q0.734375 0.6875 0.734375 2.046875l-0.546875 0.65625q-0.09375 -0.015625 -1.515625 -0.015625q-1.40625 0 -2.828125 0.109375l0 0.140625q0 1.46875 0.609375 2.203125q0.609375 0.71875 1.65625 0.71875q1.0625 0 2.234375 -0.515625l0.1875 0.484375q-1.234375 0.984375 -2.625 0.984375zm8.437744 -7.59375q0.125 0 0.421875 0.375q0.296875 0.375 0.390625 0.734375l-0.234375 0.3125q-0.578125 -0.21875 -1.203125 -0.21875q-0.625 0 -1.140625 0.515625q-0.515625 0.515625 -0.515625 1.671875q0.015625 2.8125 0.140625 3.28125q0.015625 0.125 0.453125 0.234375q0.453125 0.09375 0.9375 0.125l-0.0625 0.46875q-0.765625 -0.046875 -1.9375 -0.046875q-1.171875 0 -1.9375 0.046875l0.046875 -0.46875q0.3125 -0.03125 0.65625 -0.125q0.359375 -0.109375 0.375 -0.21875q0.125 -0.5625 0.125 -2.25q0 -2.71875 -0.125 -3.328125l-1.015625 -0.296875l-0.03125 -0.421875q1.015625 0 2.109375 -0.28125l0.296875 0.140625q-0.03125 0.25 -0.03125 1.3125q0.46875 -0.765625 1.171875 -1.15625q0.71875 -0.40625 1.109375 -0.40625zm5.875763 0.375l0.234375 0.125q0 1.03125 0.09375 1.578125l-0.421875 0.140625q-0.203125 -0.8125 -0.578125 -1.125q-0.375 -0.328125 -0.953125 -0.328125q-0.578125 0 -0.921875 0.3125q-0.328125 0.296875 -0.328125 0.71875q0 0.71875 0.828125 1.171875l1.640625 0.90625q1.046875 0.59375 1.046875 1.703125q0 0.8125 -0.65625 1.421875q-0.640625 0.59375 -1.84375 0.59375q-1.1875 0 -2.453125 -0.390625q0.1875 -1.125 0.1875 -1.84375l0.421875 -0.140625q0.140625 0.578125 0.203125 0.78125q0.078125 0.203125 0.265625 0.515625q0.1875 0.296875 0.46875 0.390625q0.296875 0.09375 0.84375 0.09375q0.5625 0 0.9375 -0.3125q0.375 -0.328125 0.375 -0.765625q0 -0.671875 -0.765625 -1.09375l-1.71875 -0.953125q-1.0625 -0.5625 -1.0625 -1.71875q0 -0.8125 0.625 -1.4375q0.625 -0.625 1.734375 -0.625q1.125 0 1.796875 0.28125zm3.971405 -2.171875q-0.234375 0.234375 -0.59375 0.234375q-0.34375 0 -0.59375 -0.234375q-0.234375 -0.25 -0.234375 -0.609375q0 -0.359375 0.234375 -0.59375q0.25 -0.25 0.59375 -0.25q0.359375 0 0.59375 0.25q0.25 0.234375 0.25 0.59375q0 0.359375 -0.25 0.609375zm0.0625 2.046875l-0.03125 3.546875q0 2.0625 0.125 2.6875l0.046875 0.203125q0.015625 0.109375 0.40625 0.21875q0.390625 0.09375 0.71875 0.125l-0.046875 0.46875q-0.765625 -0.046875 -1.875 -0.046875q-1.09375 0 -1.859375 0.046875l0.046875 -0.46875q0.328125 -0.03125 0.703125 -0.125q0.390625 -0.109375 0.40625 -0.21875q0.125 -0.5625 0.125 -2.25q0 -2.71875 -0.125 -3.328125l-1.015625 -0.296875l-0.03125 -0.421875q1.015625 0 2.109375 -0.28125l0.296875 0.140625zm4.649994 7.34375q-1.671875 0 -1.671875 -1.59375q0.015625 -1.40625 0.015625 -2.578125q0 -1.1875 -0.03125 -2.46875l-1.015625 0.015625l-0.046875 -0.171875l0.359375 -0.625q0.21875 0.046875 0.671875 0.0625l-0.0625 -1.46875l1.0625 -0.9375l0.296875 0.140625q-0.03125 1.1875 -0.03125 2.25l2.359375 -0.015625l0.078125 0.1875l-0.578125 0.640625q-0.546875 -0.0625 -1.859375 -0.078125l0 2.140625q0 2.0 0.046875 2.875q0.046875 0.71875 0.84375 0.71875q0.640625 0 1.40625 -0.375l0.203125 0.53125q-1.140625 0.75 -2.046875 0.75zm5.49765 -6.96875q-0.484375 0.046875 -0.71875 0.1875q-0.234375 0.140625 -0.234375 0.234375q0 0.09375 1.6875 5.3125q1.765625 -5.015625 1.765625 -5.28125q0 -0.34375 -0.875 -0.453125l-0.0625 -0.46875q0.546875 0.046875 1.15625 0.046875l1.640625 -0.046875l0.046875 0.46875q-0.828125 0.109375 -1.015625 0.59375q-0.6875 2.140625 -2.3125 6.234375q-1.234375 3.125 -2.359375 3.90625q-0.3125 0.21875 -0.484375 0.25q-0.171875 0.046875 -0.328125 0.046875q-0.15625 0 -0.453125 -0.375q-0.296875 -0.375 -0.390625 -0.734375l0.234375 -0.3125q0.296875 0.140625 0.71875 0.140625q1.15625 0 2.3125 -2.921875l-0.5625 -0.34375q-1.234375 -3.796875 -1.90625 -5.3125l-0.234375 -0.515625q-0.21875 -0.53125 -0.984375 -0.65625l-0.046875 -0.46875q1.109375 0.046875 1.703125 0.046875l1.65625 -0.046875l0.046875 0.46875z" fill-rule="nonzero"/><path fill="#a4c2f4" d="m12.266404 36.562992l0 0c0 -12.559042 20.538498 -22.740158 45.874016 -22.740158l0 0c25.335518 0 45.874016 10.181115 45.874016 22.740158l0 0c0 12.559044 -20.538498 22.740158 -45.874016 22.740158l0 0c-25.335518 0 -45.874016 -10.181114 -45.874016 -22.740158z" fill-rule="evenodd"/><path stroke="#000000" stroke-width="1.0" stroke-linejoin="round" stroke-linecap="butt" d="m12.266404 36.562992l0 0c0 -12.559042 20.538498 -22.740158 45.874016 -22.740158l0 0c25.335518 0 45.874016 10.181115 45.874016 22.740158l0 0c0 12.559044 -20.538498 22.740158 -45.874016 22.740158l0 0c-25.335518 0 -45.874016 -10.181114 -45.874016 -22.740158z" fill-rule="evenodd"/><path fill="#000000" d="m49.16906 42.28327l0 -9.546875l3.59375 0q0.953125 0 1.453125 0.09375q0.703125 0.125 1.171875 0.453125q0.484375 0.328125 0.765625 0.921875q0.296875 0.59375 0.296875 1.296875q0 1.21875 -0.78125 2.0625q-0.765625 0.84375 -2.796875 0.84375l-2.4375 0l0 3.875l-1.265625 0zm1.265625 -5.0l2.453125 0q1.234375 0 1.75 -0.453125q0.515625 -0.46875 0.515625 -1.28125q0 -0.609375 -0.3125 -1.03125q-0.296875 -0.421875 -0.796875 -0.5625q-0.3125 -0.09375 -1.171875 -0.09375l-2.4375 0l0 3.421875zm11.983505 4.140625q-0.65625 0.5625 -1.265625 0.796875q-0.59375 0.21875 -1.28125 0.21875q-1.140625 0 -1.75 -0.546875q-0.609375 -0.5625 -0.609375 -1.4375q0 -0.5 0.21875 -0.921875q0.234375 -0.421875 0.609375 -0.671875q0.375 -0.25 0.84375 -0.390625q0.34375 -0.078125 1.046875 -0.171875q1.421875 -0.171875 2.09375 -0.40625q0 -0.234375 0 -0.296875q0 -0.71875 -0.328125 -1.015625q-0.453125 -0.390625 -1.34375 -0.390625q-0.8125 0 -1.21875 0.296875q-0.390625 0.28125 -0.578125 1.015625l-1.140625 -0.15625q0.15625 -0.734375 0.515625 -1.1875q0.359375 -0.453125 1.03125 -0.6875q0.671875 -0.25 1.5625 -0.25q0.890625 0 1.4375 0.203125q0.5625 0.203125 0.8125 0.53125q0.265625 0.3125 0.375 0.796875q0.046875 0.296875 0.046875 1.078125l0 1.5625q0 1.625 0.078125 2.0625q0.078125 0.4375 0.296875 0.828125l-1.21875 0q-0.1875 -0.359375 -0.234375 -0.859375zm-0.09375 -2.609375q-0.640625 0.265625 -1.921875 0.4375q-0.71875 0.109375 -1.015625 0.25q-0.296875 0.125 -0.46875 0.375q-0.15625 0.25 -0.15625 0.546875q0 0.46875 0.34375 0.78125q0.359375 0.3125 1.046875 0.3125q0.671875 0 1.203125 -0.296875q0.53125 -0.296875 0.78125 -0.8125q0.1875 -0.390625 0.1875 -1.171875l0 -0.421875zm5.5531006 2.421875l0.171875 1.03125q-0.5 0.109375 -0.890625 0.109375q-0.640625 0 -1.0 -0.203125q-0.34375 -0.203125 -0.484375 -0.53125q-0.140625 -0.328125 -0.140625 -1.390625l0 -3.96875l-0.859375 0l0 -0.90625l0.859375 0l0 -1.71875l1.171875 -0.703125l0 2.421875l1.171875 0l0 0.90625l-1.171875 0l0 4.046875q0 0.5 0.046875 0.640625q0.0625 0.140625 0.203125 0.234375q0.140625 0.078125 0.40625 0.078125q0.203125 0 0.515625 -0.046875z" fill-rule="nonzero"/><path fill="#000000" fill-opacity="0.0" d="m104.014435 36.562992l86.86615 0" fill-rule="evenodd"/><path stroke="#000000" stroke-width="2.0" stroke-linejoin="round" stroke-linecap="butt" d="m104.014435 36.562992l74.86615 0" fill-rule="evenodd"/><path fill="#000000" stroke="#000000" stroke-width="2.0" stroke-linecap="butt" d="m178.88058 39.86646l9.076187 -3.3034668l-9.076187 -3.303463z" fill-rule="evenodd"/><path fill="#000000" fill-opacity="0.0" d="m100.54199 8.696851l77.00787 0l0 33.19685l-77.00787 0z" fill-rule="evenodd"/><path fill="#000000" d="m117.770515 29.637474q-0.65625 0.5625 -1.265625 0.796875q-0.59375 0.21875 -1.28125 0.21875q-1.140625 0 -1.75 -0.546875q-0.609375 -0.5625 -0.609375 -1.4375q0 -0.5 0.21875 -0.921875q0.234375 -0.421875 0.609375 -0.671875q0.375 -0.25 0.84375 -0.390625q0.34375 -0.078125 1.046875 -0.171875q1.421875 -0.171875 2.09375 -0.40625q0 -0.234375 0 -0.296875q0 -0.71875 -0.328125 -1.015625q-0.453125 -0.390625 -1.34375 -0.390625q-0.8125 0 -1.21875 0.296875q-0.390625 0.28125 -0.578125 1.015625l-1.140625 -0.15625q0.15625 -0.734375 0.515625 -1.1875q0.359375 -0.453125 1.03125 -0.6875q0.671875 -0.25 1.5625 -0.25q0.890625 0 1.4375 0.203125q0.5625 0.203125 0.8125 0.53125q0.265625 0.3125 0.375 0.796875q0.046875 0.296875 0.046875 1.078125l0 1.5625q0 1.625 0.078125 2.0625q0.078125 0.4375 0.296875 0.828125l-1.21875 0q-0.1875 -0.359375 -0.234375 -0.859375zm-0.09375 -2.609375q-0.640625 0.265625 -1.921875 0.4375q-0.71875 0.109375 -1.015625 0.25q-0.296875 0.125 -0.46875 0.375q-0.15625 0.25 -0.15625 0.546875q0 0.46875 0.34375 0.78125q0.359375 0.3125 1.046875 0.3125q0.671875 0 1.203125 -0.296875q0.53125 -0.296875 0.78125 -0.8125q0.1875 -0.390625 0.1875 -1.171875l0 -0.421875zm2.9749756 3.46875l0 -9.546875l1.171875 0l0 9.546875l-1.171875 0zm7.5079727 0l0 -1.015625q-0.8125076 1.171875 -2.1875076 1.171875q-0.609375 0 -1.140625 -0.234375q-0.53125 -0.234375 -0.796875 -0.578125q-0.25 -0.359375 -0.359375 -0.875q-0.0625 -0.34375 -0.0625 -1.09375l0 -4.28125l1.171875 0l0 3.828125q0 0.921875 0.0625 1.234375q0.109375 0.46875 0.46875 0.734375q0.359375 0.25 0.890625 0.25q0.515625 0 0.984375 -0.265625q0.46875 -0.265625 0.65625 -0.734375q0.18750763 -0.46875 0.18750763 -1.34375l0 -3.703125l1.171875 0l0 6.90625l-1.046875 0zm2.8812256 0l0 -6.90625l1.046875 0l0 0.96875q0.328125 -0.515625 0.859375 -0.8125q0.546875 -0.3125 1.234375 -0.3125q0.78125 0 1.265625 0.3125q0.484375 0.3125 0.6875 0.890625q0.828125 -1.203125 2.140625 -1.203125q1.03125 0 1.578125 0.578125q0.5625 0.5625 0.5625 1.734375l0 4.75l-1.171875 0l0 -4.359375q0 -0.703125 -0.125 -1.0q-0.109375 -0.3125 -0.40625 -0.5q-0.296875 -0.1875 -0.703125 -0.1875q-0.71875 0 -1.203125 0.484375q-0.484375 0.484375 -0.484375 1.546875l0 4.015625l-1.171875 0l0 -4.484375q0 -0.78125 -0.296875 -1.171875q-0.28125 -0.390625 -0.921875 -0.390625q-0.5 0 -0.921875 0.265625q-0.421875 0.25 -0.609375 0.75q-0.1875 0.5 -0.1875 1.453125l0 3.578125l-1.171875 0zm11.102432 0l0 -6.90625l1.0625 0l0 0.984375q0.75 -1.140625 2.1875 -1.140625q0.625 0 1.15625 0.21875q0.53125 0.21875 0.78125 0.59375q0.265625 0.359375 0.375 0.859375q0.0625 0.328125 0.0625 1.140625l0 4.25l-1.171875 0l0 -4.203125q0 -0.71875 -0.140625 -1.0625q-0.140625 -0.359375 -0.484375 -0.5625q-0.34375 -0.21875 -0.8125 -0.21875q-0.75 0 -1.296875 0.46875q-0.546875 0.46875 -0.546875 1.796875l0 3.78125l-1.171875 0zm7.4281006 -8.1875l0 -1.359375l1.171875 0l0 1.359375l-1.171875 0zm0 8.1875l0 -6.90625l1.171875 0l0 6.90625l-1.171875 0zm2.71109 -4.640625q0 -2.375 1.28125 -3.71875q1.28125 -1.34375 3.296875 -1.34375q1.3125 0 2.375 0.625q1.0625 0.625 1.609375 1.765625q0.5625 1.125 0.5625 2.5625q0 1.4375 -0.59375 2.59375q-0.578125 1.140625 -1.65625 1.734375q-1.0625 0.578125 -2.3125 0.578125q-1.34375 0 -2.40625 -0.640625q-1.0625 -0.65625 -1.609375 -1.78125q-0.546875 -1.125 -0.546875 -2.375zm1.3125 0.015625q0 1.71875 0.921875 2.71875q0.921875 0.984375 2.328125 0.984375q1.421875 0 2.34375 -1.0q0.921875 -1.0 0.921875 -2.84375q0 -1.15625 -0.40625 -2.03125q-0.390625 -0.875 -1.15625 -1.34375q-0.75 -0.484375 -1.6875 -0.484375q-1.34375 0 -2.3125 0.921875q-0.953125 0.921875 -0.953125 3.078125zm9.570175 4.625l0 -6.0l-1.03125 0l0 -0.90625l1.03125 0l0 -0.734375q0 -0.703125 0.125 -1.046875q0.171875 -0.453125 0.59375 -0.734375q0.421875 -0.28125 1.203125 -0.28125q0.484375 0 1.09375 0.109375l-0.1875 1.03125q-0.359375 -0.0625 -0.6875 -0.0625q-0.53125 0 -0.75 0.234375q-0.21875 0.21875 -0.21875 0.84375l0 0.640625l1.34375 0l0 0.90625l-1.34375 0l0 6.0l-1.171875 0z" fill-rule="nonzero"/><path fill="#a4c2f4" d="m186.22179 88.85171l0 0c0 -12.559044 20.538498 -22.740158 45.87401 -22.740158l0 0c25.33551 0 45.874023 10.181114 45.874023 22.740158l0 0c0 12.559044 -20.538513 22.740158 -45.874023 22.740158l0 0c-25.33551 0 -45.87401 -10.181114 -45.87401 -22.740158z" fill-rule="evenodd"/><path stroke="#000000" stroke-width="1.0" stroke-linejoin="round" stroke-linecap="butt" d="m186.22179 88.85171l0 0c0 -12.559044 20.538498 -22.740158 45.87401 -22.740158l0 0c25.33551 0 45.874023 10.181114 45.874023 22.740158l0 0c0 12.559044 -20.538513 22.740158 -45.874023 22.740158l0 0c-25.33551 0 -45.87401 -10.181114 -45.87401 -22.740158z" fill-rule="evenodd"/><path fill="#000000" d="m218.98721 91.50948l1.203125 -0.109375q0.078125 0.71875 0.390625 1.1875q0.3125 0.453125 0.953125 0.734375q0.65625 0.28125 1.46875 0.28125q0.71875 0 1.265625 -0.21875q0.5625 -0.21875 0.828125 -0.578125q0.265625 -0.375 0.265625 -0.828125q0 -0.453125 -0.265625 -0.78125q-0.25 -0.328125 -0.84375 -0.5625q-0.390625 -0.15625 -1.703125 -0.46875q-1.3125 -0.3125 -1.84375 -0.59375q-0.671875 -0.359375 -1.015625 -0.890625q-0.328125 -0.53125 -0.328125 -1.1875q0 -0.71875 0.40625 -1.34375q0.40625 -0.625 1.1875 -0.953125q0.796875 -0.328125 1.765625 -0.328125q1.046875 0 1.859375 0.34375q0.8125 0.34375 1.25 1.015625q0.4375 0.65625 0.46875 1.484375l-1.203125 0.09375q-0.109375 -0.90625 -0.671875 -1.359375q-0.5625 -0.46875 -1.65625 -0.46875q-1.140625 0 -1.671875 0.421875q-0.515625 0.421875 -0.515625 1.015625q0 0.515625 0.359375 0.84375q0.375 0.328125 1.90625 0.6875q1.546875 0.34375 2.109375 0.59375q0.84375 0.390625 1.234375 0.984375q0.390625 0.578125 0.390625 1.359375q0 0.75 -0.4375 1.4375q-0.421875 0.671875 -1.25 1.046875q-0.8125 0.359375 -1.828125 0.359375q-1.296875 0 -2.171875 -0.375q-0.875 -0.375 -1.375 -1.125q-0.5 -0.765625 -0.53125 -1.71875zm13.68663 2.203125q-0.65625 0.5625 -1.265625 0.796875q-0.59375 0.21875 -1.28125 0.21875q-1.140625 0 -1.75 -0.546875q-0.609375 -0.5625 -0.609375 -1.4375q0 -0.5 0.21875 -0.921875q0.234375 -0.421875 0.609375 -0.671875q0.375 -0.25 0.84375 -0.390625q0.34375 -0.078125 1.046875 -0.171875q1.421875 -0.171875 2.09375 -0.40625q0 -0.234375 0 -0.296875q0 -0.71875 -0.328125 -1.015625q-0.453125 -0.390625 -1.34375 -0.390625q-0.8125 0 -1.21875 0.296875q-0.390625 0.28125 -0.578125 1.015625l-1.140625 -0.15625q0.15625 -0.734375 0.515625 -1.1875q0.359375 -0.453125 1.03125 -0.6875q0.671875 -0.25 1.5625 -0.25q0.890625 0 1.4375 0.203125q0.5625 0.203125 0.8125 0.53125q0.265625 0.3125 0.375 0.796875q0.046875 0.296875 0.046875 1.078125l0 1.5625q0 1.625 0.078125 2.0625q0.078125 0.4375 0.296875 0.828125l-1.21875 0q-0.1875 -0.359375 -0.234375 -0.859375zm-0.09375 -2.609375q-0.640625 0.265625 -1.921875 0.4375q-0.71875 0.109375 -1.015625 0.25q-0.296875 0.125 -0.46875 0.375q-0.15625 0.25 -0.15625 0.546875q0 0.46875 0.34375 0.78125q0.359375 0.3125 1.046875 0.3125q0.671875 0 1.203125 -0.296875q0.53125 -0.296875 0.78125 -0.8125q0.1875 -0.390625 0.1875 -1.171875l0 -0.421875zm2.9906006 3.46875l0 -6.90625l1.046875 0l0 0.96875q0.328125 -0.515625 0.859375 -0.8125q0.546875 -0.3125 1.234375 -0.3125q0.78125 0 1.265625 0.3125q0.484375 0.3125 0.6875 0.890625q0.828125 -1.203125 2.140625 -1.203125q1.03125 0 1.578125 0.578125q0.5625 0.5625 0.5625 1.734375l0 4.75l-1.171875 0l0 -4.359375q0 -0.703125 -0.125 -1.0q-0.109375 -0.3125 -0.40625 -0.5q-0.296875 -0.1875 -0.703125 -0.1875q-0.71875 0 -1.203125 0.484375q-0.484375 0.484375 -0.484375 1.546875l0 4.015625l-1.171875 0l0 -4.484375q0 -0.78125 -0.296875 -1.171875q-0.28125 -0.390625 -0.921875 -0.390625q-0.5 0 -0.921875 0.265625q-0.421875 0.25 -0.609375 0.75q-0.1875 0.5 -0.1875 1.453125l0 3.578125l-1.171875 0z" fill-rule="nonzero"/><path fill="#000000" fill-opacity="0.0" d="m90.57825 52.64271l95.65355 36.22047" fill-rule="evenodd"/><path stroke="#000000" stroke-width="2.0" stroke-linejoin="round" stroke-linecap="butt" d="m90.57825 52.64271l84.43117 31.970974" fill-rule="evenodd"/><path fill="#000000" stroke="#000000" stroke-width="2.0" stroke-linecap="butt" d="m173.83957 87.70308l9.657883 0.12471771l-7.3181915 -6.303505z" fill-rule="evenodd"/><path fill="#ffe599" d="m369.82678 67.92913l85.00787 0l0 41.763786l-85.00787 0z" fill-rule="evenodd"/><path stroke="#000000" stroke-width="1.0" stroke-linejoin="round" stroke-linecap="butt" d="m369.82678 67.92913l85.00787 0l0 41.763786l-85.00787 0z" fill-rule="evenodd"/><path fill="#000000" d="m383.68027 81.336006l2.4375 0q1.75 0 2.671875 0.84375q0.9375 0.84375 0.9375 2.15625q0 1.296875 -1.15625 2.390625q-1.140625 1.078125 -3.0625 1.078125q-0.53125 0 -1.140625 -0.09375l0.125 3.46875q0.03125 0.296875 0.296875 0.421875q0.28125 0.109375 1.0625 0.265625l-0.046875 0.46875q-1.0 -0.046875 -2.1875 -0.046875q-1.1875 0 -2.1875 0.046875l-0.046875 -0.46875q0.8125 -0.15625 1.09375 -0.28125q0.296875 -0.125 0.328125 -0.40625q0.125 -0.9375 0.125 -3.421875q0 -4.015625 -0.09375 -5.0l-0.03125 -0.328125q-0.03125 -0.28125 -0.296875 -0.40625q-0.25 -0.125 -1.015625 -0.28125l0.046875 -0.46875q1.0 0.0625 2.140625 0.0625zm1.578125 5.796875q1.375 0 2.15625 -0.65625q0.78125 -0.65625 0.78125 -1.984375q0 -1.34375 -0.671875 -1.90625q-0.671875 -0.578125 -2.015625 -0.578125q-0.59375 0 -0.75 0.078125q-0.15625 0.078125 -0.234375 0.453125q-0.15625 0.84375 -0.15625 4.546875q0.46875 0.046875 0.890625 0.046875zm9.981628 -2.296875q0.125 0 0.421875 0.375q0.296875 0.375 0.390625 0.734375l-0.234375 0.3125q-0.578125 -0.21875 -1.203125 -0.21875q-0.625 0 -1.140625 0.515625q-0.515625 0.515625 -0.515625 1.671875q0.015625 2.8125 0.140625 3.28125q0.015625 0.125 0.453125 0.234375q0.453125 0.09375 0.9375 0.125l-0.0625 0.46875q-0.765625 -0.046875 -1.9375 -0.046875q-1.171875 0 -1.9375 0.046875l0.046875 -0.46875q0.3125 -0.03125 0.65625 -0.125q0.359375 -0.109375 0.375 -0.21875q0.125 -0.5625 0.125 -2.25q0 -2.71875 -0.125 -3.328125l-1.015625 -0.296875l-0.03125 -0.421875q1.015625 0 2.109375 -0.28125l0.296875 0.140625q-0.03125 0.25 -0.03125 1.3125q0.46875 -0.765625 1.171875 -1.15625q0.71875 -0.40625 1.109375 -0.40625zm5.188263 0.875q-0.65625 0 -1.140625 0.328125q-0.46875 0.328125 -0.6875 0.828125q-0.4375 0.90625 -0.4375 1.734375q0 1.3125 0.53125 2.1875q0.53125 0.875 1.65625 0.875q0.609375 0 1.078125 -0.28125q0.46875 -0.28125 0.703125 -0.71875q0.46875 -0.84375 0.5 -1.671875q0 -3.28125 -2.203125 -3.28125zm0.078125 -0.78125q1.828125 0 2.65625 0.9375q0.84375 0.921875 0.84375 2.578125q0 1.65625 -0.953125 2.828125q-0.953125 1.15625 -2.78125 1.15625q-1.828125 0 -2.65625 -0.921875q-0.828125 -0.921875 -0.828125 -2.5625q0 -1.640625 0.953125 -2.828125q0.953125 -1.1875 2.765625 -1.1875zm8.27652 7.40625q-0.765625 -0.046875 -1.890625 -0.046875q-1.125 0 -1.890625 0.046875l0.046875 -0.46875q0.3125 -0.03125 0.6875 -0.125q0.375 -0.109375 0.390625 -0.21875q0.125 0 0.125 -5.734375l-1.09375 0.015625l-0.046875 -0.171875l0.359375 -0.625q0.234375 0.03125 0.765625 0.0625q0 -1.03125 0.359375 -1.859375q0.375 -0.84375 0.875 -1.296875q0.5 -0.46875 1.09375 -0.796875q0.953125 -0.515625 1.53125 -0.515625q0.125 0 0.421875 0.390625q0.296875 0.375 0.390625 0.734375l-0.234375 0.3125q-0.6875 -0.3125 -1.375 -0.3125q-1.84375 0 -1.84375 3.328125l2.078125 -0.015625l0.078125 0.1875l-0.484375 0.625q-0.546875 -0.046875 -1.671875 -0.0625q0 4.453125 0.15625 5.734375q0.03125 0.109375 0.46875 0.21875q0.4375 0.109375 0.75 0.125l-0.046875 0.46875zm6.3060303 -5.171875q0 -0.734375 -0.421875 -1.09375q-0.40625 -0.359375 -0.921875 -0.359375q-0.75 0 -1.296875 0.59375q-0.546875 0.59375 -0.71875 1.453125l3.3125 -0.125q0.046875 -0.234375 0.046875 -0.46875zm-1.390625 5.265625q-1.703125 0 -2.5625 -0.96875q-0.859375 -0.96875 -0.859375 -2.578125q0 -1.609375 0.953125 -2.78125q0.953125 -1.171875 2.875 -1.171875q0.96875 0 1.6875 0.6875q0.734375 0.6875 0.734375 2.046875l-0.546875 0.65625q-0.09375 -0.015625 -1.515625 -0.015625q-1.40625 0 -2.828125 0.109375l0 0.140625q0 1.46875 0.609375 2.203125q0.609375 0.71875 1.65625 0.71875q1.0625 0 2.234375 -0.515625l0.1875 0.484375q-1.234375 0.984375 -2.625 0.984375zm8.281494 -7.21875l0.234375 0.125q0 1.03125 0.09375 1.578125l-0.421875 0.140625q-0.203125 -0.8125 -0.578125 -1.125q-0.375 -0.328125 -0.953125 -0.328125q-0.578125 0 -0.921875 0.3125q-0.328125 0.296875 -0.328125 0.71875q0 0.71875 0.828125 1.171875l1.640625 0.90625q1.046875 0.59375 1.046875 1.703125q0 0.8125 -0.65625 1.421875q-0.640625 0.59375 -1.84375 0.59375q-1.1875 0 -2.453125 -0.390625q0.1875 -1.125 0.1875 -1.84375l0.421875 -0.140625q0.140625 0.578125 0.203125 0.78125q0.078125 0.203125 0.265625 0.515625q0.1875 0.296875 0.46875 0.390625q0.296875 0.09375 0.84375 0.09375q0.5625 0 0.9375 -0.3125q0.375 -0.328125 0.375 -0.765625q0 -0.671875 -0.765625 -1.09375l-1.71875 -0.953125q-1.0625 -0.5625 -1.0625 -1.71875q0 -0.8125 0.625 -1.4375q0.625 -0.625 1.734375 -0.625q1.125 0 1.796875 0.28125zm6.11203 0l0.234375 0.125q0 1.03125 0.09375 1.578125l-0.421875 0.140625q-0.203125 -0.8125 -0.578125 -1.125q-0.375 -0.328125 -0.953125 -0.328125q-0.578125 0 -0.921875 0.3125q-0.328125 0.296875 -0.328125 0.71875q0 0.71875 0.828125 1.171875l1.640625 0.90625q1.046875 0.59375 1.046875 1.703125q0 0.8125 -0.65625 1.421875q-0.640625 0.59375 -1.84375 0.59375q-1.1875 0 -2.453125 -0.390625q0.1875 -1.125 0.1875 -1.84375l0.421875 -0.140625q0.140625 0.578125 0.203125 0.78125q0.078125 0.203125 0.265625 0.515625q0.1875 0.296875 0.46875 0.390625q0.296875 0.09375 0.84375 0.09375q0.5625 0 0.9375 -0.3125q0.375 -0.328125 0.375 -0.765625q0 -0.671875 -0.765625 -1.09375l-1.71875 -0.953125q-1.0625 -0.5625 -1.0625 -1.71875q0 -0.8125 0.625 -1.4375q0.625 -0.625 1.734375 -0.625q1.125 0 1.796875 0.28125zm5.4244995 0.5q-0.65625 0 -1.140625 0.328125q-0.46875 0.328125 -0.6875 0.828125q-0.4375 0.90625 -0.4375 1.734375q0 1.3125 0.53125 2.1875q0.53125 0.875 1.65625 0.875q0.609375 0 1.078125 -0.28125q0.46875 -0.28125 0.703125 -0.71875q0.46875 -0.84375 0.5 -1.671875q0 -3.28125 -2.203125 -3.28125zm0.078125 -0.78125q1.828125 0 2.65625 0.9375q0.84375 0.921875 0.84375 2.578125q0 1.65625 -0.953125 2.828125q-0.953125 1.15625 -2.78125 1.15625q-1.828125 0 -2.65625 -0.921875q-0.828125 -0.921875 -0.828125 -2.5625q0 -1.640625 0.953125 -2.828125q0.953125 -1.1875 2.765625 -1.1875zm9.229645 -0.09375q0.125 0 0.421875 0.375q0.296875 0.375 0.390625 0.734375l-0.234375 0.3125q-0.578125 -0.21875 -1.203125 -0.21875q-0.625 0 -1.140625 0.515625q-0.515625 0.515625 -0.515625 1.671875q0.015625 2.8125 0.140625 3.28125q0.015625 0.125 0.453125 0.234375q0.453125 0.09375 0.9375 0.125l-0.0625 0.46875q-0.765625 -0.046875 -1.9375 -0.046875q-1.171875 0 -1.9375 0.046875l0.046875 -0.46875q0.3125 -0.03125 0.65625 -0.125q0.359375 -0.109375 0.375 -0.21875q0.125 -0.5625 0.125 -2.25q0 -2.71875 -0.125 -3.328125l-1.015625 -0.296875l-0.03125 -0.421875q1.015625 0 2.109375 -0.28125l0.296875 0.140625q-0.03125 0.25 -0.03125 1.3125q0.46875 -0.765625 1.171875 -1.15625q0.71875 -0.40625 1.109375 -0.40625z" fill-rule="nonzero"/><path fill="#000000" fill-opacity="0.0" d="m277.96982 88.85171l91.84253 -0.03149414" fill-rule="evenodd"/><path stroke="#000000" stroke-width="2.0" stroke-linejoin="round" stroke-linecap="butt" d="m277.96982 88.85171l79.84253 -0.027389526" fill-rule="evenodd"/><path fill="#000000" stroke="#000000" stroke-width="2.0" stroke-linecap="butt" d="m357.81348 92.12779l9.075043 -3.3065796l-9.077301 -3.300354z" fill-rule="evenodd"/><path fill="#000000" fill-opacity="0.0" d="m279.1509 59.30315l77.00787 0l0 33.19685l-77.00787 0z" fill-rule="evenodd"/><path fill="#000000" d="m297.04733 72.91565l0 -1.359375l1.171875 0l0 1.359375l-1.171875 0zm-1.484375 10.875l0.21875 -1.0q0.359375 0.09375 0.546875 0.09375q0.359375 0 0.53125 -0.25q0.1875 -0.234375 0.1875 -1.1875l0 -7.25l1.171875 0l0 7.28125q0 1.28125 -0.328125 1.78125q-0.4375 0.65625 -1.40625 0.65625q-0.484375 0 -0.921875 -0.125zm4.007965 -6.140625q0 -1.921875 1.078125 -2.84375q0.890625 -0.765625 2.171875 -0.765625q1.421875 0 2.328125 0.9375q0.90625 0.921875 0.90625 2.578125q0 1.328125 -0.40625 2.09375q-0.390625 0.765625 -1.15625 1.1875q-0.765625 0.421875 -1.671875 0.421875q-1.453125 0 -2.359375 -0.921875q-0.890625 -0.9375 -0.890625 -2.6875zm1.203125 0q0 1.328125 0.578125 1.984375q0.59375 0.65625 1.46875 0.65625q0.875 0 1.453125 -0.65625q0.578125 -0.671875 0.578125 -2.03125q0 -1.28125 -0.59375 -1.9375q-0.578125 -0.65625 -1.4375 -0.65625q-0.875 0 -1.46875 0.65625q-0.578125 0.65625 -0.578125 1.984375zm7.7249756 3.453125l-1.078125 0l0 -9.546875l1.171875 0l0 3.40625q0.734375 -0.921875 1.890625 -0.921875q0.640625 0 1.203125 0.265625q0.578125 0.25 0.9375 0.71875q0.375 0.453125 0.578125 1.109375q0.203125 0.65625 0.203125 1.40625q0 1.78125 -0.875 2.75q-0.875 0.96875 -2.109375 0.96875q-1.21875 0 -1.921875 -1.015625l0 0.859375zm0 -3.5q0 1.234375 0.328125 1.78125q0.5625 0.90625 1.5 0.90625q0.765625 0 1.328125 -0.65625q0.5625 -0.671875 0.5625 -2.0q0 -1.34375 -0.546875 -1.984375q-0.53125 -0.65625 -1.296875 -0.65625q-0.765625 0 -1.328125 0.671875q-0.546875 0.671875 -0.546875 1.9375zm8.912476 3.5l0 -8.421875l-3.140625 0l0 -1.125l7.5625 0l0 1.125l-3.15625 0l0 8.421875l-1.265625 0zm5.5788574 -8.1875l0 -1.359375l1.171875 0l0 1.359375l-1.171875 0zm0 8.1875l0 -6.90625l1.171875 0l0 6.90625l-1.171875 0zm5.507965 -1.046875l0.171875 1.03125q-0.5 0.109375 -0.890625 0.109375q-0.640625 0 -1.0 -0.203125q-0.34375 -0.203125 -0.484375 -0.53125q-0.140625 -0.328125 -0.140625 -1.390625l0 -3.96875l-0.859375 0l0 -0.90625l0.859375 0l0 -1.71875l1.171875 -0.703125l0 2.421875l1.171875 0l0 0.90625l-1.171875 0l0 4.046875q0 0.5 0.046875 0.640625q0.0625 0.140625 0.203125 0.234375q0.140625 0.078125 0.40625 0.078125q0.203125 0 0.515625 -0.046875zm1.1248779 1.046875l0 -9.546875l1.171875 0l0 9.546875l-1.171875 0zm7.71109 -2.21875l1.203125 0.140625q-0.28125 1.0625 -1.0625 1.65625q-0.765625 0.578125 -1.96875 0.578125q-1.515625 0 -2.40625 -0.9375q-0.890625 -0.9375 -0.890625 -2.609375q0 -1.75 0.890625 -2.703125q0.90625 -0.96875 2.34375 -0.96875q1.390625 0 2.265625 0.9375q0.875 0.9375 0.875 2.65625q0 0.109375 0 0.3125l-5.15625 0q0.0625 1.140625 0.640625 1.75q0.578125 0.59375 1.4375 0.59375q0.65625 0 1.109375 -0.328125q0.453125 -0.34375 0.71875 -1.078125zm-3.84375 -1.90625l3.859375 0q-0.078125 -0.859375 -0.4375 -1.296875q-0.5625 -0.6875 -1.453125 -0.6875q-0.8125 0 -1.359375 0.546875q-0.546875 0.53125 -0.609375 1.4375z" fill-rule="nonzero"/><path fill="#000000" fill-opacity="0.0" d="m108.71644 30.3492l71.84252 27.716536l-11.937012 30.960632l-71.84252 -27.716537z" fill-rule="evenodd"/><path fill="#000000" d="m120.00316 58.069653l3.43441 -8.90773l1.0933304 0.42180252l-1.9617157 5.088047l3.5920334 -1.6287537l1.4140472 0.5455322l-3.3854828 1.4404831l1.1488342 5.0990143l-1.341156 -0.5174103l-0.85800934 -4.1159477l-1.0592957 0.44544983l-0.98366547 2.5513153l-1.0933304 -0.42180252zm6.2028275 2.3930244l2.4844742 -6.4438896l0.99128723 0.38243484l-0.35412598 0.9184723q1.1100616 -0.7943077 2.4512177 -0.27689743q0.5831146 0.22496414 1.000061 0.62028503q0.4169464 0.3953247 0.5152893 0.83520126q0.11854553 0.43092346 0.04071045 0.93681717q-0.0597229 0.32865524 -0.35202026 1.0867615l-1.5289001 3.9654694l-1.093338 -0.42180252l1.5120544 -3.9217339q0.25856018 -0.6706314 0.25102234 -1.0419846q-0.0019226074 -0.38593292 -0.2495575 -0.69918823q-0.24201965 -0.32783127 -0.6793518 -0.49655533q-0.69973755 -0.26995087 -1.3785858 -0.029426575q-0.67884827 0.2405281 -1.1566315 1.4797363l-1.3602753 3.5281029l-1.0933304 -0.42180252zm7.7497177 -0.7113838q0.691391 -1.7932091 2.028885 -2.2653084q1.106369 -0.393795 2.3017426 0.06737518q1.3265686 0.5117874 1.8348236 1.7127151q0.51387024 1.1863518 -0.081954956 2.73172q-0.4777832 1.2392082 -1.1322327 1.8073502q-0.63986206 0.5737686 -1.5059357 0.69181824q-0.86608887 0.11805725 -1.7115936 -0.20813751q-1.3557281 -0.52303314 -1.8695984 -1.7093849q-0.49368286 -1.1953049 0.13586426 -2.828148zm1.1224976 0.43305206q-0.4777832 1.2392082 -0.17448425 2.0596123q0.3178711 0.82603073 1.1342163 1.140976q0.8163605 0.31494522 1.5918121 -0.089279175q0.78108215 -0.41880798 1.2701111 -1.6871719q0.46092224 -1.1954727 0.14305115 -2.0215034q-0.30329895 -0.82040405 -1.1050873 -1.1297264q-0.8163452 -0.31494522 -1.6063843 0.08365631q-0.77545166 0.4042244 -1.2532349 1.6434364zm6.1544952 6.075573l0.5018921 -7.2087593l1.1370697 0.43867493l-0.4129181 4.111309l-0.14038086 1.53685q0.05392456 -0.09642792 0.8467865 -1.1973343l2.4762726 -3.3822594l1.1224976 0.43305206l-0.47683716 4.1033897l-0.15707397 1.3629379l0.86242676 -1.1075592l2.5266724 -3.2958298l1.0641785 0.4105568l-4.4962006 5.667774l-1.1370697 -0.43867493l0.4691162 -4.257103l0.17375183 -1.1890297l-3.2231293 4.45068l-1.1370544 -0.43867493zm8.089294 0.9101486l1.1462097 0.2412262q-0.15090942 0.6954193 0.12237549 1.2027893q0.2934723 0.4984131 1.0369263 0.7852402q0.7580414 0.29244995 1.2405396 0.12689209q0.4824829 -0.16555786 0.63986206 -0.5737686q0.14053345 -0.36447144 -0.110443115 -0.71250916q-0.16246033 -0.23014832 -0.96739197 -0.79190063q-1.0919037 -0.7729492 -1.4740906 -1.171608q-0.361969 -0.40760803 -0.4636383 -0.8822632q-0.08148193 -0.4836197 0.104003906 -0.9647217q0.16300964 -0.42279053 0.493042 -0.7141495q0.350235 -0.30031586 0.78108215 -0.41880798q0.32984924 -0.073711395 0.81777954 -0.036201477q0.48791504 0.03750992 0.9981384 0.23435211q0.7580414 0.29244995 1.2422638 0.73046875q0.48420715 0.4380188 0.61505127 0.92393494q0.13644409 0.47132874 -0.0032043457 1.1375885l-1.1203918 -0.26476288q0.1182251 -0.5238037 -0.12484741 -0.9357834q-0.23744202 -0.42655182 -0.8788605 -0.67401123q-0.7580414 -0.29244995 -1.1743164 -0.16833496q-0.41625977 0.12410736 -0.5455475 0.45942688q-0.08432007 0.21868134 -0.020568848 0.44424438q0.078323364 0.23118591 0.31033325 0.4546814q0.13787842 0.12017822 0.8553467 0.64818573q1.048172 0.7560806 1.4213867 1.1345291q0.39341736 0.36949158 0.5096741 0.8497772q0.116256714 0.48028564 -0.097351074 1.0342865q-0.21359253 0.55400085 -0.7197876 0.91137695q-0.5062103 0.3573761 -1.2196503 0.38358307q-0.6988678 0.031837463 -1.4569092 -0.2606125q-1.2536926 -0.48366547 -1.7073364 -1.261589q-0.4536438 -0.7779236 -0.24967957 -1.8715591z" fill-rule="nonzero"/></g></svg>