<svg viewBox="0 0 328.651 245.635" fill="none" stroke-linecap="square" stroke-miterlimit="10" xmlns="http://www.w3.org/2000/svg">
 <clipPath id="a">
  <path d="M0 0h328.65v245.635H0V0z"/>
 </clipPath>
 <g clip-path="url(#a)">
  <path fill="none" d="M0 0h328.65v245.635H0z"/>
  <path fill="#b4a7d6" d="M28.583 44.373c0-21.34 17.3-38.64 38.64-38.64h201.553a38.641 38.641 0 0 1 38.641 38.64v154.56c0 21.342-17.3 38.642-38.64 38.642H67.223c-21.341 0-38.641-17.3-38.641-38.641z" fill-rule="evenodd"/>
  <path stroke="#000" stroke-linejoin="round" stroke-linecap="butt" d="M28.583 44.373c0-21.34 17.3-38.64 38.64-38.64h201.553a38.641 38.641 0 0 1 38.641 38.64v154.56c0 21.342-17.3 38.642-38.64 38.642H67.223c-21.341 0-38.641-17.3-38.641-38.641z"/>
  <path fill="#000" d="m91.968 43.97-3.297-13.875 3.235-.125 1.859 9.672 1.938-9.547 2.625-.125-3.36 14h-3zm10.975.25q-1.875 0-2.86-1.484-.984-1.485-.984-3.954 0-2.5 1-3.968 1.016-1.485 2.938-1.485 1.828 0 2.797 1.485.969 1.468.969 3.968 0 .157-.063.22-.047.062-.047.077h-4.984q0 1.219.312 2.219.313 1 .97 1 .733 0 1.077-.844.36-.843.375-.875l1.985.735q-.391 1.343-1.25 2.125-.86.78-2.235.78zm1.281-6.656q0-1.11-.296-1.766-.297-.656-.938-.656-.312 0-.61.328-.296.312-.484.875-.187.547-.187 1.219h2.515zm4.163-3.875 2.609-.22v1.688q.562-.796 1.39-1.28.829-.5 2.11-.5v2.546q-.672 0-1.766.234-1.078.235-1.734.813v6.89l-2.61.22V33.688zm7.552-1.563v-2.703l2.61-.187v2.78l-2.61.11zm-.015 11.953V33.69l2.609-.22v10.392l-2.61.218zm5.406-8.64h-1.281l.094-1.97h1.187v-.187q0-1.109.14-1.78.141-.688.704-1.141.578-.47 1.766-.47 1.14 0 1.78.266v1.579h-.577q-.75 0-.969.406-.219.406-.219 1.14v.188h1.86l-.125 1.969h-1.735v8.422l-2.625.218v-8.64zm5.822-3.313v-2.703l2.61-.187v2.78l-2.61.11zm-.016 11.953V33.69l2.61-.22v10.392l-2.61.218zm6.625.14q-.671 0-1.218-.421-.547-.422-.844-1.14-.297-.72-.297-1.61 0-2.047 1.39-2.875 1.391-.828 3.235-.937 0-1.016-.125-1.5-.125-.485-.64-.485-.422 0-.657.344-.219.328-.265.86L131.777 36q.188-1.437 1.172-2.047 1-.625 2.312-.625 1.704 0 2.547.907.86.89.86 2.328v5.422q0 .89.28 1.875l-2.562.218-.296-1.281q-.344.594-1 1.016-.641.406-1.329.406zm1.204-1.874q.328 0 .53-.14.22-.157.532-.485v-2.922q-.922 0-1.484.516-.563.5-.563 1.562 0 .703.25 1.094.25.375.735.375zm10.724 1.875q-1.031 0-1.547-.422-.5-.422-.703-1.14l-.64 1.421-1.97-.218V30.314l2.61-.344v4.844q.469-.672 1.172-1.078.719-.407 1.5-.407 1.203 0 1.89 1.282.704 1.28.704 4.109 0 5.5-3.016 5.5zm-.969-1.875q.86 0 1.11-.906.265-.922.265-2.72 0-1.25-.109-1.905-.11-.657-.36-.938-.25-.297-.734-.297-.328 0-.781.25-.453.235-.672.453v3.329q0 1.484.36 2.109.375.625.921.625zm5.79 1.734V30.314l2.609-.344v13.89l-2.61.22zm8.234.14q-1.875 0-2.86-1.483-.984-1.485-.984-3.954 0-2.5 1-3.968 1.016-1.485 2.938-1.485 1.828 0 2.797 1.485.968 1.468.968 3.968 0 .157-.062.22-.047.062-.047.077h-4.984q0 1.219.312 2.219.313 1 .969 1 .734 0 1.078-.844.36-.843.375-.875l1.984.735q-.39 1.343-1.25 2.125-.859.78-2.234.78zm1.281-6.655q0-1.11-.297-1.766-.296-.656-.937-.656-.313 0-.61.328-.296.312-.484.875-.187.547-.187 1.219h2.515zm12.683 6.672q-2.406 0-3.39-2.188-.97-2.187-.97-5.375 0-1.719.438-3.297.454-1.594 1.454-2.625t2.53-1.031q1.173 0 2.048.734.89.719 1.359 1.89.484 1.157.484 2.423l-2.64.14q0-.843-.281-1.906-.282-1.078-1.125-1.078-.875 0-1.22 1.406-.327 1.39-.327 3.344 0 2.422.375 3.89.375 1.47 1.437 1.47.75 0 1.063-.891.312-.89.406-2.156l2.328.234q0 1.328-.453 2.484-.438 1.14-1.328 1.844-.89.688-2.188.688zm5.77-10.547 2.61-.22v1.688q.562-.796 1.39-1.28.828-.5 2.11-.5v2.546q-.672 0-1.766.234-1.078.235-1.735.813v6.89l-2.609.22V33.688zm10.881 10.53q-1.875 0-2.86-1.483-.984-1.485-.984-3.954 0-2.5 1-3.968 1.016-1.485 2.938-1.485 1.828 0 2.797 1.485.968 1.468.968 3.968 0 .157-.062.22-.047.062-.047.077h-4.984q0 1.219.312 2.219.313 1 .969 1 .734 0 1.078-.844.36-.843.375-.875l1.984.735q-.39 1.343-1.25 2.125-.859.78-2.234.78zm1.281-6.655q0-1.11-.297-1.766-.297-.656-.937-.656-.313 0-.61.328-.296.312-.484.875-.187.547-.187 1.219h2.515zm6.71 6.656q-3.016 0-3.016-5.5 0-2.844.75-4.11.75-1.28 2.328-1.28.672 0 1.28.452.626.438.907 1.079v-4.547l2.625-.344v13.89l-1.984.22-.64-1.423q-.188.704-.704 1.141-.5.422-1.547.422zm.984-1.875q.546 0 .906-.625t.36-2.11v-3.515q-.548-.844-1.266-.844-.625 0-.922.453-.282.438-.375 1.14-.078.704-.078 1.876 0 1.203.078 1.953.093.734.39 1.203.297.469.907.469zm9.476 1.875q-1.875 0-2.86-1.484-.984-1.485-.984-3.954 0-2.5 1-3.968 1.016-1.485 2.938-1.485 1.828 0 2.797 1.485.968 1.468.968 3.968 0 .157-.062.22-.047.062-.047.077h-4.984q0 1.219.312 2.219.313 1 .969 1 .734 0 1.078-.844.36-.843.375-.875l1.984.735q-.39 1.343-1.25 2.125-.859.78-2.234.78zm1.281-6.656q0-1.11-.297-1.766-.297-.656-.937-.656-.313 0-.61.328-.296.312-.484.875-.187.547-.187 1.219h2.515zm4.162-3.875 2.61-.22v1.345q.797-.72 1.562-1.094.781-.39 1.438-.39 1 0 1.625.718.625.719.625 1.938v7.875l-2.625.218v-7.11q0-1.39-.953-1.39-.313 0-.704.188-.375.187-.968.531v7.563l-2.61.218V33.69zm13.634 10.484q-1.265 0-2.14-.64-.875-.641-.875-2.282V35.44h-1.454l.11-1.97h1.406l.266-2.28 2.28-.313v2.594h2.157l-.11 1.969h-2.03v5.78q0 .563.28.813.282.235.813.235.313 0 1.016-.11v1.813q-.078.016-.594.11-.515.093-1.125.093zm3.154-12.047v-2.703l2.61-.187v2.78l-2.61.11zm-.016 11.953V33.69l2.61-.22v10.392l-2.61.218zm6.626.14q-.672 0-1.22-.421-.546-.422-.843-1.14-.297-.72-.297-1.61 0-2.047 1.39-2.875 1.392-.828 3.235-.937 0-1.016-.125-1.5-.125-.485-.64-.485-.422 0-.657.344-.218.328-.265.86L234.666 36q.188-1.437 1.172-2.047 1-.625 2.313-.625 1.703 0 2.547.907.859.89.859 2.328v5.422q0 .89.281 1.875l-2.562.218-.297-1.281q-.344.594-1 1.016-.64.406-1.328.406zm1.203-1.874q.328 0 .531-.14.219-.157.531-.485v-2.922q-.922 0-1.484.516-.563.5-.563 1.562 0 .703.25 1.094.25.375.735.375zm5.88 1.734V30.314l2.61-.344v13.89l-2.61.22z"/>
  <path fill="#b6d7a8" d="M45.724 172.706h241.89v41.764H45.724z" fill-rule="evenodd"/>
  <path stroke="#000" stroke-linejoin="round" stroke-linecap="butt" d="M45.724 172.706h241.89v41.764H45.724z"/>
  <path fill="#000" d="M141.41 186.113h2.438q1.75 0 2.672.844.938.843.938 2.156 0 1.297-1.157 2.39-1.14 1.079-3.062 1.079-.531 0-1.14-.094l.124 3.469q.032.297.297.422.281.109 1.063.265l-.047.469q-1-.047-2.188-.047-1.187 0-2.187.047l-.047-.469q.812-.156 1.094-.281.297-.125.328-.406.125-.938.125-3.422 0-4.016-.094-5l-.031-.328q-.031-.282-.297-.407-.25-.125-1.016-.28l.047-.47q1 .063 2.14.063zm1.579 5.797q1.375 0 2.156-.656.781-.657.781-1.985 0-1.344-.671-1.906-.672-.578-2.016-.578-.594 0-.75.078-.156.078-.234.453-.157.844-.157 4.547.47.047.891.047zm9.982-2.297q.125 0 .421.375.297.375.391.734l-.234.313q-.578-.219-1.203-.219-.625 0-1.141.516-.516.515-.516 1.672.016 2.812.141 3.28.016.126.453.235.453.094.938.125l-.063.469q-.766-.047-1.937-.047-1.172 0-1.938.047l.047-.469q.312-.031.656-.125.36-.11.375-.219.125-.562.125-2.25 0-2.718-.125-3.328l-1.015-.297-.032-.421q1.016 0 2.11-.282l.297.14q-.032.25-.032 1.313.47-.765 1.172-1.156.719-.406 1.11-.406zm5.188.875q-.656 0-1.14.328-.47.328-.688.828-.438.906-.438 1.735 0 1.312.531 2.187.532.875 1.657.875.61 0 1.078-.281.469-.281.703-.719.469-.844.5-1.672 0-3.281-2.203-3.281zm.078-.781q1.828 0 2.656.937.844.922.844 2.578 0 1.657-.953 2.828-.953 1.157-2.781 1.157-1.829 0-2.657-.922-.828-.922-.828-2.563 0-1.64.953-2.828.953-1.187 2.766-1.187zm8.386.78q-.656 0-1.14.329-.47.328-.688.828-.438.906-.438 1.735 0 1.312.532 2.187.53.875 1.656.875.61 0 1.078-.281.469-.281.703-.719.469-.844.5-1.672 0-3.281-2.203-3.281zm.078-.78q1.828 0 2.656.937.844.922.844 2.578 0 1.657-.953 2.828-.953 1.157-2.781 1.157-1.828 0-2.657-.922-.828-.922-.828-2.563 0-1.64.953-2.828.954-1.187 2.766-1.187zm8.277 7.406q-.766-.047-1.891-.047t-1.89.047l.046-.469q.313-.031.688-.125.375-.11.39-.219.125 0 .125-5.734l-1.093.016-.047-.172.359-.625q.234.031.766.062 0-1.031.359-1.86.375-.843.875-1.296.5-.469 1.094-.797.953-.515 1.531-.515.125 0 .422.39.297.375.39.735l-.234.312q-.687-.312-1.375-.312-1.844 0-1.844 3.328l2.079-.016.078.188-.485.625q-.547-.047-1.672-.063 0 4.453.157 5.734.03.11.468.22.438.109.75.124l-.046.469zm3.524-4.703q0 1.64.61 3.375.625 1.734 1.843 3.14l-.5.454q-1.843-1.5-2.656-3.344-.797-1.844-.797-3.625 0-3.875 3.453-6.688l.5.453q-2.453 2.875-2.453 6.235zm8.68-2.422.235.125q0 1.031.094 1.578l-.422.14q-.203-.812-.578-1.124-.375-.328-.954-.328-.578 0-.921.312-.329.297-.329.719 0 .719.829 1.172l1.64.906q1.047.594 1.047 1.703 0 .813-.656 1.422-.64.594-1.844.594-1.187 0-2.453-.391.187-1.125.187-1.844l.422-.14q.14.578.203.78.079.204.266.517.188.296.469.39.297.094.844.094.562 0 .937-.313.375-.328.375-.765 0-.672-.766-1.094l-1.718-.953q-1.063-.563-1.063-1.719 0-.812.625-1.437t1.735-.625q1.125 0 1.796.28zm4.894 2.422q0-3.36-2.453-6.235l.5-.453q3.453 2.813 3.453 6.688 0 1.781-.813 3.625-.812 1.844-2.64 3.344l-.5-.454q1.218-1.406 1.828-3.14.625-1.735.625-3.375z"/>
  <path fill="#ffe599" d="M45.724 119.087h241.89v41.764H45.724z" fill-rule="evenodd"/>
  <path stroke="#000" stroke-linejoin="round" stroke-linecap="butt" d="M45.724 119.087h241.89v41.764H45.724z"/>
  <path fill="#000" d="M143.44 142.853q1.5 0 2.454-.61.969-.624 1.281-1.671l.438.187q-.172.579-.375 2.141-1.953.734-3.844.734-2.625 0-4.172-1.421-1.531-1.438-1.531-3.985 0-2.547 1.515-4.219 1.532-1.671 4.172-1.671.735 0 1.641.125.922.125 1.25.125.344 0 .719-.094v.234q0 1.172.187 2.25l-.422.203q-.64-2.11-3.39-2.11-1.61 0-2.75 1.142-.578.562-.907 1.5-.328.921-.328 1.984 0 1.062.22 1.937.218.86.687 1.594.468.735 1.28 1.188.813.437 1.876.437zm7.482-10.937q-.031 2-.031 5.859 0 3.844.172 4.906.015.11.422.219.406.11.703.125l-.047.469q-.766-.047-1.86-.047-1.078 0-1.859.047l.063-.469q.328-.031.703-.125.375-.11.39-.219.11-1.047.11-4 0-4.812-.094-5.64l-.031-.266-1.016-.297-.031-.422q1.016 0 2.11-.297l.296.157zm6.212 8.172q-1.313.03-2 .5-.688.453-.688 1 0 .546.281.796.282.25.907.25t1.5-.53v-2.016zm1.171 3.5q-.968 0-1.125-1.032-1.406 1.032-2.437 1.032-.688 0-1.172-.422-.469-.422-.469-1.313 0-.906.953-1.625.954-.719 3.079-.86v-1.484q0-.453-.329-.687-.328-.25-.921-.25-.594 0-.954.328-.343.328-.343.844 0 .187.047.437l-.344.157q-.328-.172-.61-.47-.28-.312-.28-.452 0-.141.218-.391.219-.266.578-.562.375-.313.984-.532.625-.218 1.391-.218t1.25.375q.484.375.484 1.359t.094 4.156q.016.766.578.766.235 0 .485-.125l.172.406q-.61.563-1.329.563zm4.297-9.391q-.235.234-.594.234-.344 0-.594-.234-.234-.25-.234-.61 0-.359.234-.593.25-.25.594-.25.36 0 .594.25.25.234.25.594 0 .359-.25.609zm.062 2.047-.031 3.547q0 2.062.125 2.687l.047.203q.016.11.406.219.39.094.719.125l-.047.469q-.766-.047-1.875-.047-1.094 0-1.86.047l.048-.469q.328-.031.703-.125.39-.11.406-.219.125-.562.125-2.25 0-2.718-.125-3.328l-1.016-.297-.031-.422q1.016 0 2.11-.28l.296.14zm8.869 3.547q0 2.062.11 2.687l.046.203q.016.11.36.219.343.094.672.125l-.047.469q-.766-.047-1.766-.047-.984 0-1.766.047l.063-.469q.297-.031.64-.125.344-.11.36-.219.125-.562.125-2.89v-1.563q0-.625-.375-.86-.36-.234-.875-.234-.5 0-.797.047-.281.032-.516.094-.296.078-.828.297v2.219q0 1.968.125 2.687l.047.203q.016.11.36.219.343.094.671.125l-.046.469q-.766-.047-1.766-.047-.984 0-1.75.047l.047-.469q.297-.031.64-.125.344-.11.36-.219.11-.562.11-2.25 0-2.718-.126-3.328l-1.015-.297-.032-.422q1.016 0 2.11-.28l.297.14q-.016.406-.016.765 1.781-.921 3.031-.921 1.25 0 1.485.937 1.671-.937 3.03-.937.813 0 1.22.328.421.312.421 1.187v2.188q0 2.062.11 2.687l.047.203q.015.11.359.219.344.094.672.125l-.047.469q-.781-.047-1.766-.047-.984 0-1.765.047l.047-.469q.312-.031.656-.125.344-.11.36-.219.124-.562.124-2.89v-1.563q0-.625-.375-.86-.36-.234-1.297-.234-.937 0-1.734.438v2.219zm8.69-1q0 1.64.609 3.375.625 1.734 1.843 3.14l-.5.453q-1.843-1.5-2.656-3.343-.797-1.844-.797-3.625 0-3.875 3.453-6.688l.5.453q-2.453 2.875-2.453 6.235zm8.68-2.422.234.125q0 1.031.094 1.578l-.422.14q-.203-.812-.578-1.124-.375-.329-.954-.329-.578 0-.921.313-.329.297-.329.719 0 .718.829 1.172l1.64.906q1.047.594 1.047 1.703 0 .812-.656 1.422-.64.594-1.844.594-1.187 0-2.453-.391.187-1.125.187-1.844l.422-.14q.141.578.203.78.079.204.266.516.188.297.469.391.297.094.844.094.562 0 .937-.313.375-.328.375-.765 0-.672-.766-1.094l-1.718-.953q-1.063-.563-1.063-1.719 0-.812.625-1.437t1.735-.625q1.125 0 1.796.28zm4.893 2.422q0-3.36-2.453-6.235l.5-.453q3.453 2.813 3.453 6.688 0 1.78-.813 3.625-.812 1.843-2.64 3.343l-.5-.453q1.218-1.406 1.828-3.14.625-1.735.625-3.375z"/>
  <path fill="#d5a6bd" d="M45.724 65.468h241.89v41.764H45.724z" fill-rule="evenodd"/>
  <path stroke="#000" stroke-linejoin="round" stroke-linecap="butt" d="M45.724 65.468h241.89v41.764H45.724z"/>
  <path fill="#000" d="M104.145 89.234q1.5 0 2.453-.61.969-.624 1.281-1.671l.438.187q-.172.578-.375 2.14-1.953.735-3.844.735-2.625 0-4.172-1.422-1.531-1.437-1.531-3.984 0-2.547 1.515-4.219 1.532-1.672 4.172-1.672.735 0 1.64.125.923.125 1.25.125.345 0 .72-.093v.234q0 1.172.187 2.25l-.422.203q-.64-2.11-3.39-2.11-1.61 0-2.75 1.141-.578.563-.907 1.5-.328.922-.328 1.985 0 1.062.219 1.937.219.86.688 1.594.468.734 1.28 1.188.813.437 1.876.437zm9.794-6.86q.125 0 .421.376.297.375.391.734l-.234.313q-.578-.22-1.203-.22-.625 0-1.141.516t-.516 1.672q.016 2.813.14 3.282.017.125.454.234.453.094.938.125l-.063.469q-.766-.047-1.937-.047-1.172 0-1.938.047l.047-.47q.312-.03.656-.124.36-.11.375-.219.125-.562.125-2.25 0-2.719-.125-3.328l-1.015-.297-.032-.422q1.016 0 2.11-.281l.297.14q-.032.25-.032 1.313.47-.765 1.172-1.156.719-.406 1.11-.406zm6.328 2.329q0-.735-.421-1.094-.407-.36-.922-.36-.75 0-1.297.594-.547.594-.719 1.454l3.313-.125q.046-.235.046-.47zm-1.39 5.265q-1.703 0-2.563-.968-.86-.97-.86-2.578 0-1.61.954-2.782.953-1.172 2.875-1.172.969 0 1.688.688.734.687.734 2.047l-.547.656q-.094-.016-1.516-.016-1.406 0-2.828.11v.14q0 1.47.61 2.204.61.718 1.656.718 1.062 0 2.234-.515l.188.484q-1.235.984-2.625.984zm9.36-1.03q-1.11 1.03-2.422 1.03-1.313 0-2.157-.953-.828-.953-.828-2.718 0-1.766 1-2.797 1-1.047 2.469-1.047.797 0 1.922.562 0-2.968-.094-3.64l-.031-.22-1.031-.296-.032-.422q1.032 0 2.11-.297l.312.157q-.031 2-.031 5.671 0 3.657.031 4.188.031.516.125.656.11.14.328.203.328.094.782.125l-.047.469q-.578.047-1.75.281-.485-.203-.657-.953zm-1.516-5.516q-1.266 0-1.875.828-.594.828-.594 2.047 0 1.218.531 1.953.532.718 1.5.718.985 0 1.86-.562.078-1.281.078-4.688-.828-.296-1.5-.296zm9.594 1.28q0-.734-.421-1.093-.407-.36-.922-.36-.75 0-1.297.594-.547.594-.719 1.454l3.313-.125q.046-.235.046-.47zm-1.39 5.266q-1.703 0-2.563-.968-.859-.97-.859-2.578 0-1.61.953-2.782t2.875-1.172q.969 0 1.688.688.734.687.734 2.047l-.547.656q-.094-.016-1.516-.016-1.406 0-2.828.11v.14q0 1.47.61 2.204.61.718 1.656.718 1.062 0 2.234-.515l.188.484q-1.235.984-2.625.984zm6.094-6.015-.016 2.219q0 2.062.125 2.687l.031.203q.016.11.36.219.344.094.672.125l-.047.469q-.766-.047-1.766-.047-.984 0-1.75.047l.047-.47q.297-.03.64-.124.344-.11.36-.219.125-.562.125-2.25 0-2.719-.125-3.328l-1.016-.297-.03-.422q1.015 0 2.109-.281l.296.14v.766q1.782-.922 3.094-.922.797 0 1.203.329.422.312.422 1.187v2.188q0 2.062.11 2.687l.046.203q.032.11.375.219.344.094.657.125l-.047.469q-.766-.047-1.766-.047-.984 0-1.75.047l.047-.47q.297-.03.64-.124.344-.11.36-.219.125-.562.125-2.89v-1.563q0-.625-.375-.86-.36-.234-1.234-.234-.875 0-1.922.438zm9.32 6.015q-1.673 0-1.673-1.593.016-1.407.016-2.578 0-1.188-.031-2.47l-1.016.016-.047-.171.36-.625q.218.046.672.062l-.063-1.469 1.063-.937.296.14q-.03 1.188-.03 2.25l2.359-.015.078.187-.578.64q-.547-.062-1.86-.077v2.14q0 2 .047 2.875.047.72.844.72.64 0 1.406-.376l.203.531q-1.14.75-2.047.75zm4.919-9.39q-.235.234-.594.234-.344 0-.594-.234-.234-.25-.234-.61 0-.359.234-.593.25-.25.594-.25.36 0 .594.25.25.234.25.593 0 .36-.25.61zm.062 2.047-.031 3.547q0 2.062.125 2.687l.047.203q.016.11.406.219.39.094.719.125l-.047.469q-.766-.047-1.875-.047-1.094 0-1.86.047l.048-.47q.328-.03.703-.124.39-.11.406-.219.125-.562.125-2.25 0-2.719-.125-3.328l-1.016-.297-.031-.422q1.016 0 2.11-.281l.296.14zm6.182 3.843q-1.313.032-2 .5-.688.454-.688 1 0 .547.281.797.282.25.907.25t1.5-.531v-2.016zm1.171 3.5q-.968 0-1.125-1.03-1.406 1.03-2.437 1.03-.688 0-1.172-.421-.469-.422-.469-1.313 0-.906.953-1.625.954-.719 3.079-.86v-1.484q0-.453-.329-.687-.328-.25-.921-.25-.594 0-.954.328-.343.328-.343.844 0 .187.047.437l-.344.156q-.328-.171-.61-.468-.28-.313-.28-.453 0-.141.218-.391.219-.266.578-.563.375-.312.984-.53.625-.22 1.391-.22t1.25.375q.484.375.484 1.36 0 .984.094 4.156.016.766.578.766.235 0 .485-.125l.172.406q-.61.562-1.329.562zm4.281-11.671q-.031 2-.031 5.859 0 3.844.172 4.906.015.11.422.219.406.11.703.125l-.047.469q-.766-.047-1.86-.047-1.078 0-1.859.047l.063-.47q.328-.03.703-.124.375-.11.39-.219.11-1.047.11-4 0-4.812-.094-5.64l-.031-.266-1.016-.297-.031-.422q1.016 0 2.11-.297l.296.157zm8.68 3.109q-.172 4-.172 5.64l.063 1.672q.047.391.844.563.187.031.656.125l-.047.469q-1.016-.047-2.203-.047-1.172 0-1.844.047l-.047-.47q.766-.155 1.047-.28.297-.125.328-.407.313-2.593.313-6.625l-.063-2.125q-.03-.28-.297-.406-.25-.125-1.015-.281l.047-.469q1.015.063 2.78.063l3.813 9.437 3.813-9.437q1.812 0 2.828-.063l.047.469q-.766.156-1.031.281-.25.125-.297.438-.047.297-.047 1.047t.078 3.312q.156 3.172.25 4.063l.047.296q.031.297.297.422.265.11 1.062.266l-.062.469q-1-.047-2.188-.047-1.187 0-2.187.047l-.047-.47q.828-.155 1.125-.28.297-.125.297-.407.015-.515.015-2.265t-.203-5.047h-.093l-3.438 8.406-.984.172-3.422-8.578h-.063zm17.034 3.297q0-.735-.422-1.094-.407-.36-.922-.36-.75 0-1.297.594-.547.594-.719 1.454l3.313-.125q.047-.235.047-.47zm-1.391 5.265q-1.703 0-2.563-.968-.859-.97-.859-2.578 0-1.61.953-2.782t2.875-1.172q.969 0 1.688.688.734.687.734 2.047l-.547.656q-.094-.016-1.515-.016-1.407 0-2.829.11v.14q0 1.47.61 2.204.61.718 1.656.718 1.063 0 2.234-.515l.188.484q-1.234.984-2.625.984zm6.453 0q-1.672 0-1.672-1.593.016-1.407.016-2.578 0-1.188-.031-2.47l-1.016.016-.047-.171.36-.625q.218.046.672.062l-.063-1.469 1.063-.937.296.14q-.03 1.188-.03 2.25l2.359-.015.078.187-.578.64q-.547-.062-1.86-.077v2.14q0 2 .047 2.875.047.72.844.72.64 0 1.406-.376l.203.531q-1.14.75-2.047.75zm6.764-3.5q-1.313.032-2 .5-.688.454-.688 1 0 .547.281.797.282.25.907.25t1.5-.531v-2.016zm1.171 3.5q-.968 0-1.125-1.03-1.406 1.03-2.437 1.03-.688 0-1.172-.421-.469-.422-.469-1.313 0-.906.953-1.625.954-.719 3.079-.86v-1.484q0-.453-.329-.687-.328-.25-.921-.25-.594 0-.954.328-.343.328-.343.844 0 .187.047.437l-.344.156q-.328-.171-.61-.468-.28-.313-.28-.453 0-.141.218-.391.219-.266.578-.563.375-.312.984-.53.625-.22 1.391-.22t1.25.375q.484.375.484 1.36 0 .984.094 4.156.016.766.578.766.235 0 .485-.125l.172.406q-.61.562-1.329.562zm7.516-1.03q-1.11 1.03-2.422 1.03-1.313 0-2.157-.953-.828-.953-.828-2.718 0-1.766 1-2.797 1-1.047 2.47-1.047.796 0 1.921.562 0-2.968-.094-3.64l-.031-.22-1.031-.296-.032-.422q1.032 0 2.11-.297l.312.157q-.03 2-.03 5.671 0 3.657.03 4.188.032.516.125.656.11.14.328.203.329.094.782.125l-.047.469q-.578.047-1.75.281-.485-.203-.656-.953zm-1.516-5.516q-1.266 0-1.875.828-.594.828-.594 2.047 0 1.218.531 1.953.532.718 1.5.718.985 0 1.86-.562.078-1.281.078-4.688-.828-.296-1.5-.296zm8.845 3.046q-1.313.032-2 .5-.688.454-.688 1 0 .547.281.797.282.25.907.25t1.5-.531v-2.016zm1.172 3.5q-.97 0-1.125-1.03-1.407 1.03-2.438 1.03-.687 0-1.172-.421-.469-.422-.469-1.313 0-.906.954-1.625.953-.719 3.078-.86v-1.484q0-.453-.328-.687-.329-.25-.922-.25-.594 0-.953.328-.344.328-.344.844 0 .187.047.437l-.344.156q-.328-.171-.61-.468-.28-.313-.28-.453 0-.141.218-.391.219-.266.578-.563.375-.312.985-.53.625-.22 1.39-.22.766 0 1.25.375.485.375.485 1.36 0 .984.093 4.156.016.766.578.766.235 0 .485-.125l.172.406q-.61.562-1.328.562zm4.608 0q-1.671 0-1.671-1.593.015-1.407.015-2.578 0-1.188-.031-2.47l-1.016.016-.047-.171.36-.625q.219.046.672.062l-.063-1.469 1.063-.937.297.14q-.032 1.188-.032 2.25l2.36-.015.078.187-.578.64q-.547-.062-1.86-.077v2.14q0 2 .047 2.875.047.72.844.72.64 0 1.406-.376l.203.531q-1.14.75-2.047.75zm6.764-3.5q-1.313.032-2 .5-.688.454-.688 1 0 .547.281.797.282.25.907.25t1.5-.531v-2.016zm1.172 3.5q-.97 0-1.125-1.03-1.407 1.03-2.438 1.03-.687 0-1.172-.421-.469-.422-.469-1.313 0-.906.954-1.625.953-.719 3.078-.86v-1.484q0-.453-.328-.687-.329-.25-.922-.25-.594 0-.953.328-.344.328-.344.844 0 .187.047.437l-.344.156q-.328-.171-.61-.468-.28-.313-.28-.453 0-.141.218-.391.219-.266.578-.563.375-.312.985-.53.625-.22 1.39-.22.766 0 1.25.375.485.375.485 1.36 0 .984.093 4.156.016.766.578.766.235 0 .485-.125l.172.406q-.61.562-1.328.562z"/>
 </g>
</svg>
