<?xml version="1.0" encoding="UTF-8" standalone="no"?>
<svg
   xmlns:dc="http://purl.org/dc/elements/1.1/"
   xmlns:cc="http://creativecommons.org/ns#"
   xmlns:rdf="http://www.w3.org/1999/02/22-rdf-syntax-ns#"
   xmlns:svg="http://www.w3.org/2000/svg"
   xmlns="http://www.w3.org/2000/svg"
   version="1.1"
   viewBox="0.0 0.0 335 240"
   fill="none"
   stroke="none"
   stroke-linecap="square"
   stroke-miterlimit="10"
   id="svg3918">
  <metadata
     id="metadata3924">
    <rdf:RDF>
      <cc:Work
         rdf:about="">
        <dc:format>image/svg+xml</dc:format>
        <dc:type
           rdf:resource="http://purl.org/dc/dcmitype/StillImage" />
        <dc:title></dc:title>
      </cc:Work>
    </rdf:RDF>
  </metadata>
  <defs
     id="defs3922" />
  <clipPath
     id="p.0">
    <path
       d="m0 0l335.7848 0l0 287.16797l-335.7848 0l0 -287.16797z"
       clip-rule="nonzero"
       id="path3857" />
  </clipPath>
  <path
     style="fill:#000000;fill-opacity:0;fill-rule:evenodd"
     id="path3860"
     d="M 0,0 H 335.7848 V 287.16797 H 0 Z" />
  <path
     style="fill:#b4a7d6;fill-rule:evenodd;stroke-width:0.90544689"
     id="path3862"
     d="m 28.582678,43.518569 v 0 c 0,-20.868789 20.635267,-37.786284 46.090157,-37.786284 H 261.32714 v 0 c 12.22388,0 23.94709,3.981043 32.59067,11.067347 8.64359,7.086302 13.49951,16.697391 13.49951,26.71894 V 194.65917 c 0,20.86878 -20.63528,37.7863 -46.09018,37.7863 H 74.672835 c -25.454891,0 -46.090157,-16.91752 -46.090157,-37.7863 z" />
  <path
     style="fill-rule:evenodd;stroke:#000000;stroke-width:0.90492058;stroke-linecap:butt;stroke-linejoin:round"
     id="path3864"
     d="m 28.535138,43.414247 v 0 c 0,-20.837429 20.642304,-37.7295017 46.105874,-37.7295017 H 261.35896 v 0 c 12.22805,0 23.95526,3.9750606 32.60179,11.0507157 8.64653,7.075654 13.50411,16.6723 13.50411,26.67879 V 194.32773 c 0,20.83742 -20.64232,37.72951 -46.1059,37.72951 H 74.641012 c -25.463571,0 -46.105874,-16.89209 -46.105874,-37.72951 z" />
  <path
     style="fill:#000000;fill-rule:nonzero"
     id="path3866"
     d="m 91.96814,46.15163 -3.296875,-13.875 3.234375,-0.125 1.859375,9.671875 1.9375,-9.546875 2.625,-0.125 -3.359375,14 z m 10.97504,0.25 q -1.875,0 -2.85938,-1.484375 -0.984373,-1.484375 -0.984373,-3.953125 0,-2.5 1.000003,-3.96875 1.01562,-1.484375 2.9375,-1.484375 1.82812,0 2.79687,1.484375 0.96875,1.46875 0.96875,3.96875 0,0.15625 -0.0625,0.21875 -0.0469,0.0625 -0.0469,0.07813 h -4.98438 q 0,1.21875 0.3125,2.21875 0.3125,1 0.96875,1 0.73438,0 1.07813,-0.84375 0.35937,-0.84375 0.375,-0.875 l 1.98437,0.734375 q -0.39062,1.34375 -1.25,2.125 -0.85937,0.78125 -2.23437,0.78125 z m 1.28125,-6.65625 q 0,-1.109375 -0.29688,-1.765625 -0.29687,-0.65625 -0.9375,-0.65625 -0.3125,0 -0.60937,0.328125 -0.29688,0.3125 -0.48438,0.875 -0.1875,0.546875 -0.1875,1.21875 z m 4.16209,-3.875 2.60938,-0.21875 v 1.6875 q 0.5625,-0.796875 1.39062,-1.28125 0.82813,-0.5 2.10938,-0.5 v 2.546875 q -0.67188,0 -1.76563,0.234375 -1.07812,0.234375 -1.73437,0.8125 v 6.890625 l -2.60938,0.21875 z m 7.55275,-1.5625 v -2.703127 l 2.60938,-0.1875 v 2.781252 z m -0.0156,11.953125 V 35.87038 l 2.60937,-0.21875 v 10.390625 z m 5.4066,-8.640625 H 120.049 l 0.0937,-1.96875 h 1.1875 v -0.1875 q 0,-1.109375 0.14062,-1.78125 0.14063,-0.6875 0.70313,-1.140625 0.57812,-0.46875 1.76562,-0.46875 1.14063,0 1.78125,0.265625 v 1.578125 h -0.57812 q -0.75,0 -0.96875,0.40625 -0.21875,0.40625 -0.21875,1.140625 v 0.1875 h 1.85937 l -0.125,1.96875 h -1.73437 v 8.421875 l -2.625,0.21875 z m 5.82144,-3.3125 v -2.703127 l 2.60937,-0.1875 v 2.781252 z m -0.0156,11.953125 V 35.87038 l 2.60938,-0.21875 v 10.390625 z m 6.62535,0.140625 q -0.67187,0 -1.21875,-0.421875 -0.54687,-0.421875 -0.84375,-1.140625 -0.29687,-0.71875 -0.29687,-1.609375 0,-2.046875 1.39062,-2.875 1.39063,-0.828125 3.23438,-0.9375 0,-1.015625 -0.125,-1.5 -0.125,-0.484375 -0.64063,-0.484375 -0.42187,0 -0.65625,0.34375 -0.21875,0.328125 -0.26562,0.859375 l -2.5625,-0.453125 q 0.1875,-1.4375 1.17187,-2.046875 1,-0.625 2.3125,-0.625 1.70313,0 2.54688,0.90625 0.85937,0.890625 0.85937,2.328125 v 5.421875 q 0,0.890625 0.28125,1.875 l -2.5625,0.21875 -0.29687,-1.28125 q -0.34375,0.59375 -1,1.015625 -0.64063,0.40625 -1.32813,0.40625 z m 1.20313,-1.875 q 0.32812,0 0.53125,-0.140625 0.21875,-0.15625 0.53125,-0.484375 v -2.921875 q -0.92188,0 -1.48438,0.515625 -0.5625,0.5 -0.5625,1.5625 0,0.703125 0.25,1.09375 0.25,0.375 0.73438,0.375 z m 10.72459,1.875 q -1.03125,0 -1.54687,-0.421875 -0.5,-0.421875 -0.70313,-1.140625 l -0.64062,1.421875 -1.96875,-0.21875 V 32.49538 l 2.60937,-0.34375 v 4.84375 q 0.46875,-0.671875 1.17188,-1.078125 0.71875,-0.40625 1.5,-0.40625 1.20312,0 1.89062,1.28125 0.70313,1.28125 0.70313,4.109375 0,5.5 -3.01563,5.5 z m -0.96875,-1.875 q 0.85938,0 1.10938,-0.90625 0.26562,-0.921875 0.26562,-2.71875 0,-1.25 -0.10937,-1.90625 -0.10938,-0.65625 -0.35938,-0.9375 -0.25,-0.296875 -0.73437,-0.296875 -0.32813,0 -0.78125,0.25 -0.45313,0.234375 -0.67188,0.453125 v 3.328125 q 0,1.484375 0.35938,2.109375 0.375,0.625 0.92187,0.625 z m 5.78894,1.734375 V 32.49538 l 2.60938,-0.34375 v 13.890625 z m 8.23473,0.140625 q -1.875,0 -2.85938,-1.484375 -0.98437,-1.484375 -0.98437,-3.953125 0,-2.5 1,-3.96875 1.01562,-1.484375 2.9375,-1.484375 1.82812,0 2.79687,1.484375 0.96875,1.46875 0.96875,3.96875 0,0.15625 -0.0625,0.21875 -0.0469,0.0625 -0.0469,0.07813 h -4.98438 q 0,1.21875 0.3125,2.21875 0.3125,1 0.96875,1 0.73438,0 1.07813,-0.84375 0.35937,-0.84375 0.375,-0.875 l 1.98437,0.734375 q -0.39062,1.34375 -1.25,2.125 -0.85937,0.78125 -2.23437,0.78125 z m 1.28125,-6.65625 q 0,-1.109375 -0.29688,-1.765625 -0.29687,-0.65625 -0.9375,-0.65625 -0.3125,0 -0.60937,0.328125 -0.29688,0.3125 -0.48438,0.875 -0.1875,0.546875 -0.1875,1.21875 z m 12.68298,6.671875 q -2.40625,0 -3.39064,-2.1875 -0.96875,-2.1875 -0.96875,-5.375 0,-1.71875 0.4375,-3.296875 0.45313,-1.59375 1.45314,-2.625 1,-1.031252 2.53125,-1.031252 1.17188,0 2.04688,0.734377 0.89062,0.71875 1.35937,1.890625 0.48438,1.15625 0.48438,2.421875 l -2.64063,0.140625 q 0,-0.84375 -0.28125,-1.90625 -0.28125,-1.078125 -1.125,-1.078125 -0.875,0 -1.21875,1.40625 -0.32812,1.390625 -0.32812,3.34375 0,2.421875 0.375,3.890625 0.375,1.46875 1.4375,1.46875 0.75,0 1.0625,-0.890625 0.3125,-0.890625 0.40625,-2.15625 l 2.32812,0.234375 q 0,1.328125 -0.45312,2.484375 -0.4375,1.140625 -1.32813,1.84375 -0.89062,0.6875 -2.1875,0.6875 z m 5.76981,-10.546875 2.60937,-0.21875 v 1.6875 q 0.5625,-0.796875 1.39063,-1.28125 0.82812,-0.5 2.10937,-0.5 v 2.546875 q -0.67187,0 -1.76562,0.234375 -1.07813,0.234375 -1.73438,0.8125 v 6.890625 l -2.60937,0.21875 z m 10.88089,10.53125 q -1.875,0 -2.85938,-1.484375 -0.98437,-1.484375 -0.98437,-3.953125 0,-2.5 1,-3.96875 1.01562,-1.484375 2.9375,-1.484375 1.82812,0 2.79687,1.484375 0.96875,1.46875 0.96875,3.96875 0,0.15625 -0.0625,0.21875 -0.0469,0.0625 -0.0469,0.07813 h -4.98438 q 0,1.21875 0.3125,2.21875 0.3125,1 0.96875,1 0.73438,0 1.07813,-0.84375 0.35937,-0.84375 0.375,-0.875 l 1.98437,0.734375 q -0.39062,1.34375 -1.25,2.125 -0.85937,0.78125 -2.23437,0.78125 z m 1.28125,-6.65625 q 0,-1.109375 -0.29688,-1.765625 -0.29687,-0.65625 -0.9375,-0.65625 -0.3125,0 -0.60937,0.328125 -0.29688,0.3125 -0.48438,0.875 -0.1875,0.546875 -0.1875,1.21875 z m 6.70895,6.65625 q -3.01562,0 -3.01562,-5.5 0,-2.84375 0.75,-4.109375 0.75,-1.28125 2.32812,-1.28125 0.67188,0 1.28125,0.453125 0.625,0.4375 0.90625,1.078125 V 32.49538 l 2.625,-0.34375 v 13.890625 l -1.98437,0.21875 -0.64063,-1.421875 q -0.1875,0.703125 -0.70312,1.140625 -0.5,0.421875 -1.54688,0.421875 z m 0.98438,-1.875 q 0.54687,0 0.90625,-0.625 0.35937,-0.625 0.35937,-2.109375 V 38.27663 q -0.54687,-0.84375 -1.26562,-0.84375 -0.625,0 -0.92188,0.453125 -0.28125,0.4375 -0.375,1.140625 -0.0781,0.703125 -0.0781,1.875 0,1.203125 0.0781,1.953125 0.0937,0.734375 0.39063,1.203125 0.29687,0.46875 0.90625,0.46875 z m 9.47644,1.875 q -1.875,0 -2.85938,-1.484375 -0.98437,-1.484375 -0.98437,-3.953125 0,-2.5 1,-3.96875 1.01562,-1.484375 2.9375,-1.484375 1.82812,0 2.79687,1.484375 0.96875,1.46875 0.96875,3.96875 0,0.15625 -0.0625,0.21875 -0.0469,0.0625 -0.0469,0.07813 h -4.98438 q 0,1.21875 0.3125,2.21875 0.3125,1 0.96875,1 0.73438,0 1.07813,-0.84375 0.35937,-0.84375 0.375,-0.875 l 1.98437,0.734375 q -0.39062,1.34375 -1.25,2.125 -0.85937,0.78125 -2.23437,0.78125 z m 1.28125,-6.65625 q 0,-1.109375 -0.29688,-1.765625 -0.29687,-0.65625 -0.9375,-0.65625 -0.3125,0 -0.60937,0.328125 -0.29688,0.3125 -0.48438,0.875 -0.1875,0.546875 -0.1875,1.21875 z m 4.16211,-3.875 2.60937,-0.21875 v 1.34375 q 0.79688,-0.71875 1.5625,-1.09375 0.78125,-0.390625 1.4375,-0.390625 1,0 1.625,0.71875 0.625,0.71875 0.625,1.9375 v 7.875 l -2.625,0.21875 V 39.15163 q 0,-1.390625 -0.95312,-1.390625 -0.3125,0 -0.70313,0.1875 -0.375,0.1875 -0.96875,0.53125 v 7.5625 l -2.60937,0.21875 z m 13.63385,10.484375 q -1.26563,0 -2.14063,-0.640625 -0.875,-0.640625 -0.875,-2.28125 v -5.8125 h -1.45312 l 0.10937,-1.96875 h 1.40625 l 0.26563,-2.28125 2.28125,-0.3125 v 2.59375 h 2.15625 l -0.10938,1.96875 h -2.03125 v 5.78125 q 0,0.5625 0.28125,0.8125 0.28125,0.234375 0.8125,0.234375 0.3125,0 1.01563,-0.109375 v 1.8125 q -0.0781,0.01563 -0.59375,0.109375 -0.51563,0.09375 -1.125,0.09375 z M 230.041,34.30788 v -2.703127 l 2.60938,-0.1875 v 2.781252 z m -0.0156,11.953125 V 35.87038 l 2.60937,-0.21875 v 10.390625 z m 6.62534,0.140625 q -0.67188,0 -1.21875,-0.421875 -0.54688,-0.421875 -0.84375,-1.140625 -0.29688,-0.71875 -0.29688,-1.609375 0,-2.046875 1.39063,-2.875 1.39062,-0.828125 3.23437,-0.9375 0,-1.015625 -0.125,-1.5 -0.125,-0.484375 -0.64062,-0.484375 -0.42188,0 -0.65625,0.34375 -0.21875,0.328125 -0.26563,0.859375 l -2.5625,-0.453125 q 0.1875,-1.4375 1.17188,-2.046875 1,-0.625 2.3125,-0.625 1.70312,0 2.54687,0.90625 0.85938,0.890625 0.85938,2.328125 v 5.421875 q 0,0.890625 0.28125,1.875 l -2.5625,0.21875 -0.29688,-1.28125 q -0.34375,0.59375 -1,1.015625 -0.64062,0.40625 -1.32812,0.40625 z m 1.20312,-1.875 q 0.32813,0 0.53125,-0.140625 0.21875,-0.15625 0.53125,-0.484375 v -2.921875 q -0.92187,0 -1.48437,0.515625 -0.5625,0.5 -0.5625,1.5625 0,0.703125 0.25,1.09375 0.25,0.375 0.73437,0.375 z m 5.88086,1.734375 V 32.49538 l 2.60937,-0.34375 v 13.890625 z" />
  <path
     style="fill:#b6d7a8;fill-rule:evenodd"
     id="path3868"
     d="m 45.72441,160.70604 h 241.88976 v 41.76378 H 45.72441 Z" />
  <path
     style="fill-rule:evenodd;stroke:#000000;stroke-width:1;stroke-linecap:butt;stroke-linejoin:round"
     id="path3870"
     d="m 45.72441,160.70604 h 241.88976 v 41.76378 H 45.72441 Z" />
  <path
     style="fill:#ffe599;fill-rule:evenodd"
     id="path3874"
     d="M 49.809303,114.31441 H 291.69907 v 41.76378 H 49.809303 Z" />
  <path
     style="fill-rule:evenodd;stroke:#000000;stroke-width:1;stroke-linecap:butt;stroke-linejoin:round"
     id="path3876"
     d="M 49.809303,114.31441 H 291.69907 v 41.76378 H 49.809303 Z" />
  <path
     style="fill:#000000;fill-rule:nonzero"
     id="path3878"
     d="m 153.87776,138.08066 q 1.5,0 2.45312,-0.60938 0.96875,-0.625 1.28125,-1.67187 l 0.4375,0.1875 q -0.17187,0.57812 -0.375,2.14062 -1.95312,0.73438 -3.84375,0.73438 -2.625,0 -4.17187,-1.42188 -1.53125,-1.4375 -1.53125,-3.98437 0,-2.54688 1.51562,-4.21875 1.53125,-1.67188 4.17188,-1.67188 0.73437,0 1.64062,0.125 0.92188,0.125 1.25,0.125 0.34375,0 0.71875,-0.0937 v 0.23438 q 0,1.17187 0.1875,2.25 l -0.42187,0.20312 q -0.64063,-2.10937 -3.39063,-2.10937 -1.60937,0 -2.75,1.14062 -0.57812,0.5625 -0.90625,1.5 -0.32812,0.92188 -0.32812,1.98438 0,1.0625 0.21875,1.9375 0.21875,0.85937 0.6875,1.59375 0.46875,0.73437 1.28125,1.1875 0.8125,0.4375 1.875,0.4375 z m 7.48128,-10.9375 q -0.0312,2 -0.0312,5.85937 0,3.84375 0.17187,4.90625 0.0156,0.10938 0.42188,0.21875 0.40625,0.10938 0.70312,0.125 l -0.0469,0.46875 q -0.76563,-0.0469 -1.85938,-0.0469 -1.07812,0 -1.85937,0.0469 l 0.0625,-0.46875 q 0.32812,-0.0312 0.70312,-0.125 0.375,-0.10937 0.39063,-0.21875 0.10937,-1.04687 0.10937,-4 0,-4.8125 -0.0937,-5.64062 l -0.0312,-0.26563 -1.01562,-0.29687 -0.0312,-0.42188 q 1.01562,0 2.10937,-0.29687 z m 6.21138,8.17187 q -1.3125,0.0312 -2,0.5 -0.6875,0.45313 -0.6875,1 0,0.54688 0.28125,0.79688 0.28125,0.25 0.90625,0.25 0.625,0 1.5,-0.53125 z m 1.17187,3.5 q -0.96875,0 -1.125,-1.03125 -1.40625,1.03125 -2.4375,1.03125 -0.6875,0 -1.17187,-0.42187 -0.46875,-0.42188 -0.46875,-1.3125 0,-0.90625 0.95312,-1.625 0.95313,-0.71875 3.07813,-0.85938 v -1.48437 q 0,-0.45313 -0.32813,-0.6875 -0.32812,-0.25 -0.92187,-0.25 -0.59375,0 -0.95313,0.32812 -0.34375,0.32813 -0.34375,0.84375 0,0.1875 0.0469,0.4375 l -0.34375,0.15625 q -0.32813,-0.17187 -0.60938,-0.46875 -0.28125,-0.3125 -0.28125,-0.45312 0,-0.14063 0.21875,-0.39063 0.21875,-0.26562 0.57813,-0.5625 0.375,-0.3125 0.98437,-0.53125 0.625,-0.21875 1.39063,-0.21875 0.76562,0 1.25,0.375 0.48437,0.375 0.48437,1.35938 0,0.98437 0.0937,4.15625 0.0156,0.76562 0.57813,0.76562 0.23437,0 0.48437,-0.125 l 0.17188,0.40625 q -0.60938,0.5625 -1.32813,0.5625 z m 4.29639,-9.39062 q -0.23438,0.23437 -0.59375,0.23437 -0.34375,0 -0.59375,-0.23437 -0.23438,-0.25 -0.23438,-0.60938 0,-0.35937 0.23438,-0.59375 0.25,-0.25 0.59375,-0.25 0.35937,0 0.59375,0.25 0.25,0.23438 0.25,0.59375 0,0.35938 -0.25,0.60938 z m 0.0625,2.04687 -0.0312,3.54688 q 0,2.0625 0.125,2.6875 l 0.0469,0.20312 q 0.0156,0.10938 0.40625,0.21875 0.39063,0.0937 0.71875,0.125 l -0.0469,0.46875 q -0.76563,-0.0469 -1.875,-0.0469 -1.09375,0 -1.85938,0.0469 l 0.0469,-0.46875 q 0.32812,-0.0312 0.70312,-0.125 0.39063,-0.10937 0.40625,-0.21875 0.125,-0.5625 0.125,-2.25 0,-2.71875 -0.125,-3.32812 l -1.01562,-0.29688 -0.0312,-0.42187 q 1.01562,0 2.10937,-0.28125 z m 8.86876,3.54688 q 0,2.0625 0.10937,2.6875 l 0.0469,0.20312 q 0.0156,0.10938 0.35937,0.21875 0.34375,0.0937 0.67188,0.125 l -0.0469,0.46875 q -0.76562,-0.0469 -1.76562,-0.0469 -0.98438,0 -1.76563,0.0469 l 0.0625,-0.46875 q 0.29688,-0.0312 0.64063,-0.125 0.34375,-0.10937 0.35937,-0.21875 0.125,-0.5625 0.125,-2.89062 v -1.5625 q 0,-0.625 -0.375,-0.85938 -0.35937,-0.23437 -0.875,-0.23437 -0.5,0 -0.79687,0.0469 -0.28125,0.0312 -0.51563,0.0937 -0.29687,0.0781 -0.82812,0.29688 v 2.21875 q 0,1.96875 0.125,2.6875 l 0.0469,0.20312 q 0.0156,0.10938 0.35938,0.21875 0.34375,0.0937 0.67187,0.125 l -0.0469,0.46875 q -0.76563,-0.0469 -1.76563,-0.0469 -0.98437,0 -1.75,0.0469 l 0.0469,-0.46875 q 0.29687,-0.0312 0.64062,-0.125 0.34375,-0.10937 0.35938,-0.21875 0.10937,-0.5625 0.10937,-2.25 0,-2.71875 -0.125,-3.32812 l -1.01562,-0.29688 -0.0312,-0.42187 q 1.01562,0 2.10937,-0.28125 l 0.29688,0.14062 q -0.0156,0.40625 -0.0156,0.76563 1.78125,-0.92188 3.03125,-0.92188 1.25,0 1.48438,0.9375 1.67187,-0.9375 3.03125,-0.9375 0.8125,0 1.21875,0.32813 0.42187,0.3125 0.42187,1.1875 v 2.1875 q 0,2.0625 0.10938,2.6875 l 0.0469,0.20312 q 0.0156,0.10938 0.35938,0.21875 0.34375,0.0937 0.67187,0.125 l -0.0469,0.46875 q -0.78125,-0.0469 -1.76563,-0.0469 -0.98437,0 -1.76562,0.0469 l 0.0469,-0.46875 q 0.3125,-0.0312 0.65625,-0.125 0.34375,-0.10937 0.35938,-0.21875 0.125,-0.5625 0.125,-2.89062 v -1.5625 q 0,-0.625 -0.375,-0.85938 -0.35938,-0.23437 -1.29688,-0.23437 -0.9375,0 -1.73437,0.4375 z m 11.01739,-3.42188 0.23438,0.125 q 0,1.03125 0.0937,1.57813 l -0.42188,0.14062 q -0.20312,-0.8125 -0.57812,-1.125 -0.375,-0.32812 -0.95313,-0.32812 -0.57812,0 -0.92187,0.3125 -0.32813,0.29687 -0.32813,0.71875 0,0.71875 0.82813,1.17187 l 1.64062,0.90625 q 1.04688,0.59375 1.04688,1.70313 0,0.8125 -0.65625,1.42187 -0.64063,0.59375 -1.84375,0.59375 -1.1875,0 -2.45313,-0.39062 0.1875,-1.125 0.1875,-1.84375 l 0.42188,-0.14063 q 0.14062,0.57813 0.20312,0.78125 0.0781,0.20313 0.26563,0.51563 0.1875,0.29687 0.46875,0.39062 0.29687,0.0937 0.84375,0.0937 0.5625,0 0.9375,-0.3125 0.375,-0.32812 0.375,-0.76562 0,-0.67188 -0.76563,-1.09375 l -1.71875,-0.95313 q -1.0625,-0.5625 -1.0625,-1.71875 0,-0.8125 0.625,-1.4375 0.625,-0.625 1.73438,-0.625 1.125,0 1.79687,0.28125 z" />
  <path
     style="fill:#ffe599;fill-rule:evenodd"
     id="path3880"
     d="M 47.766857,112.27196 H 289.65662 v 41.76378 H 47.766857 Z" />
  <path
     style="fill-rule:evenodd;stroke:#000000;stroke-width:1;stroke-linecap:butt;stroke-linejoin:round"
     id="path3882"
     d="M 47.766857,112.27196 H 289.65662 v 41.76378 H 47.766857 Z" />
  <path
     style="fill:#000000;fill-rule:nonzero"
     id="path3884"
     d="m 151.83533,136.03821 q 1.5,0 2.45312,-0.60938 0.96875,-0.625 1.28125,-1.67187 l 0.4375,0.1875 q -0.17187,0.57812 -0.375,2.14062 -1.95312,0.73438 -3.84375,0.73438 -2.625,0 -4.17187,-1.42188 -1.53125,-1.4375 -1.53125,-3.98437 0,-2.54688 1.51562,-4.21875 1.53125,-1.67188 4.17188,-1.67188 0.73437,0 1.64062,0.125 0.92188,0.125 1.25,0.125 0.34375,0 0.71875,-0.0937 v 0.23438 q 0,1.17187 0.1875,2.25 l -0.42187,0.20312 q -0.64063,-2.10937 -3.39063,-2.10937 -1.60937,0 -2.75,1.14062 -0.57812,0.5625 -0.90625,1.5 -0.32812,0.92188 -0.32812,1.98438 0,1.0625 0.21875,1.9375 0.21875,0.85937 0.6875,1.59375 0.46875,0.73437 1.28125,1.1875 0.8125,0.4375 1.875,0.4375 z m 7.48128,-10.9375 q -0.0312,2 -0.0312,5.85937 0,3.84375 0.17187,4.90625 0.0156,0.10938 0.42188,0.21875 0.40625,0.10938 0.70312,0.125 l -0.0469,0.46875 q -0.76563,-0.0469 -1.85938,-0.0469 -1.07812,0 -1.85937,0.0469 l 0.0625,-0.46875 q 0.32812,-0.0312 0.70312,-0.125 0.375,-0.10937 0.39063,-0.21875 0.10937,-1.04687 0.10937,-4 0,-4.8125 -0.0937,-5.64062 l -0.0312,-0.26563 -1.01562,-0.29687 -0.0312,-0.42188 q 1.01562,0 2.10937,-0.29687 z m 6.21138,8.17187 q -1.3125,0.0312 -2,0.5 -0.6875,0.45313 -0.6875,1 0,0.54688 0.28125,0.79688 0.28125,0.25 0.90625,0.25 0.625,0 1.5,-0.53125 z m 1.17187,3.5 q -0.96875,0 -1.125,-1.03125 -1.40625,1.03125 -2.4375,1.03125 -0.6875,0 -1.17187,-0.42187 -0.46875,-0.42188 -0.46875,-1.3125 0,-0.90625 0.95312,-1.625 0.95313,-0.71875 3.07813,-0.85938 v -1.48437 q 0,-0.45313 -0.32813,-0.6875 -0.32812,-0.25 -0.92187,-0.25 -0.59375,0 -0.95313,0.32812 -0.34375,0.32813 -0.34375,0.84375 0,0.1875 0.0469,0.4375 l -0.34375,0.15625 q -0.32813,-0.17187 -0.60938,-0.46875 -0.28125,-0.3125 -0.28125,-0.45312 0,-0.14063 0.21875,-0.39063 0.21875,-0.26562 0.57813,-0.5625 0.375,-0.3125 0.98437,-0.53125 0.625,-0.21875 1.39063,-0.21875 0.76562,0 1.25,0.375 0.48437,0.375 0.48437,1.35938 0,0.98437 0.0937,4.15625 0.0156,0.76562 0.57813,0.76562 0.23437,0 0.48437,-0.125 l 0.17188,0.40625 q -0.60938,0.5625 -1.32813,0.5625 z m 4.29639,-9.39062 q -0.23438,0.23437 -0.59375,0.23437 -0.34375,0 -0.59375,-0.23437 -0.23438,-0.25 -0.23438,-0.60938 0,-0.35937 0.23438,-0.59375 0.25,-0.25 0.59375,-0.25 0.35937,0 0.59375,0.25 0.25,0.23438 0.25,0.59375 0,0.35938 -0.25,0.60938 z m 0.0625,2.04687 -0.0312,3.54688 q 0,2.0625 0.125,2.6875 l 0.0469,0.20312 q 0.0156,0.10938 0.40625,0.21875 0.39063,0.0937 0.71875,0.125 l -0.0469,0.46875 q -0.76563,-0.0469 -1.875,-0.0469 -1.09375,0 -1.85938,0.0469 l 0.0469,-0.46875 q 0.32812,-0.0312 0.70312,-0.125 0.39063,-0.10937 0.40625,-0.21875 0.125,-0.5625 0.125,-2.25 0,-2.71875 -0.125,-3.32812 l -1.01562,-0.29688 -0.0312,-0.42187 q 1.01562,0 2.10937,-0.28125 z m 8.86876,3.54688 q 0,2.0625 0.10937,2.6875 l 0.0469,0.20312 q 0.0156,0.10938 0.35937,0.21875 0.34375,0.0937 0.67188,0.125 l -0.0469,0.46875 q -0.76562,-0.0469 -1.76562,-0.0469 -0.98438,0 -1.76563,0.0469 l 0.0625,-0.46875 q 0.29688,-0.0312 0.64063,-0.125 0.34375,-0.10937 0.35937,-0.21875 0.125,-0.5625 0.125,-2.89062 v -1.5625 q 0,-0.625 -0.375,-0.85938 -0.35937,-0.23437 -0.875,-0.23437 -0.5,0 -0.79687,0.0469 -0.28125,0.0312 -0.51563,0.0937 -0.29687,0.0781 -0.82812,0.29688 v 2.21875 q 0,1.96875 0.125,2.6875 l 0.0469,0.20312 q 0.0156,0.10938 0.35938,0.21875 0.34375,0.0937 0.67187,0.125 l -0.0469,0.46875 q -0.76563,-0.0469 -1.76563,-0.0469 -0.98437,0 -1.75,0.0469 l 0.0469,-0.46875 q 0.29687,-0.0312 0.64062,-0.125 0.34375,-0.10937 0.35938,-0.21875 0.10937,-0.5625 0.10937,-2.25 0,-2.71875 -0.125,-3.32812 l -1.01562,-0.29688 -0.0312,-0.42187 q 1.01562,0 2.10937,-0.28125 l 0.29688,0.14062 q -0.0156,0.40625 -0.0156,0.76563 1.78125,-0.92188 3.03125,-0.92188 1.25,0 1.48438,0.9375 1.67187,-0.9375 3.03125,-0.9375 0.8125,0 1.21875,0.32813 0.42187,0.3125 0.42187,1.1875 v 2.1875 q 0,2.0625 0.10938,2.6875 l 0.0469,0.20312 q 0.0156,0.10938 0.35938,0.21875 0.34375,0.0937 0.67187,0.125 l -0.0469,0.46875 q -0.78125,-0.0469 -1.76563,-0.0469 -0.98437,0 -1.76562,0.0469 l 0.0469,-0.46875 q 0.3125,-0.0312 0.65625,-0.125 0.34375,-0.10937 0.35938,-0.21875 0.125,-0.5625 0.125,-2.89062 v -1.5625 q 0,-0.625 -0.375,-0.85938 -0.35938,-0.23437 -1.29688,-0.23437 -0.9375,0 -1.73437,0.4375 z m 11.01739,-3.42188 0.23438,0.125 q 0,1.03125 0.0937,1.57813 l -0.42188,0.14062 q -0.20312,-0.8125 -0.57812,-1.125 -0.375,-0.32812 -0.95313,-0.32812 -0.57812,0 -0.92187,0.3125 -0.32813,0.29687 -0.32813,0.71875 0,0.71875 0.82813,1.17187 l 1.64062,0.90625 q 1.04688,0.59375 1.04688,1.70313 0,0.8125 -0.65625,1.42187 -0.64063,0.59375 -1.84375,0.59375 -1.1875,0 -2.45313,-0.39062 0.1875,-1.125 0.1875,-1.84375 l 0.42188,-0.14063 q 0.14062,0.57813 0.20312,0.78125 0.0781,0.20313 0.26563,0.51563 0.1875,0.29687 0.46875,0.39062 0.29687,0.0937 0.84375,0.0937 0.5625,0 0.9375,-0.3125 0.375,-0.32812 0.375,-0.76562 0,-0.67188 -0.76563,-1.09375 l -1.71875,-0.95313 q -1.0625,-0.5625 -1.0625,-1.71875 0,-0.8125 0.625,-1.4375 0.625,-0.625 1.73438,-0.625 1.125,0 1.79687,0.28125 z" />
  <path
     style="fill:#ffe599;fill-rule:evenodd"
     id="path3886"
     d="m 45.72441,110.22952 h 241.88976 v 41.76377 H 45.72441 Z" />
  <path
     style="fill-rule:evenodd;stroke:#000000;stroke-width:1;stroke-linecap:butt;stroke-linejoin:round"
     id="path3888"
     d="m 45.72441,110.22952 h 241.88976 v 41.76377 H 45.72441 Z" />
  <path
     style="fill:#000000;fill-rule:nonzero"
     id="path3890"
     d="m 149.79288,133.99576 q 1.5,0 2.45312,-0.60938 0.96875,-0.625 1.28125,-1.67187 l 0.4375,0.1875 q -0.17187,0.57812 -0.375,2.14062 -1.95312,0.73438 -3.84375,0.73438 -2.625,0 -4.17187,-1.42188 -1.53125,-1.4375 -1.53125,-3.98437 0,-2.54687 1.51562,-4.21874 1.53125,-1.67188 4.17188,-1.67188 0.73437,0 1.64062,0.125 0.92188,0.125 1.25,0.125 0.34375,0 0.71875,-0.0937 v 0.23438 q 0,1.17187 0.1875,2.25 l -0.42187,0.20312 q -0.64063,-2.10937 -3.39063,-2.10937 -1.60937,0 -2.75,1.14062 -0.57812,0.5625 -0.90625,1.5 -0.32812,0.92188 -0.32812,1.98437 0,1.0625 0.21875,1.9375 0.21875,0.85937 0.6875,1.59375 0.46875,0.73437 1.28125,1.1875 0.8125,0.4375 1.875,0.4375 z m 7.48128,-10.93749 q -0.0312,2 -0.0312,5.85937 0,3.84375 0.17187,4.90625 0.0156,0.10937 0.42188,0.21875 0.40625,0.10937 0.70312,0.125 l -0.0469,0.46875 q -0.76563,-0.0469 -1.85938,-0.0469 -1.07812,0 -1.85937,0.0469 l 0.0625,-0.46875 q 0.32812,-0.0312 0.70312,-0.125 0.375,-0.10938 0.39063,-0.21875 0.10937,-1.04688 0.10937,-4 0,-4.8125 -0.0937,-5.64062 l -0.0312,-0.26563 -1.01562,-0.29687 -0.0312,-0.42188 q 1.01562,0 2.10937,-0.29687 z m 6.21138,8.17186 q -1.3125,0.0312 -2,0.5 -0.6875,0.45313 -0.6875,1 0,0.54688 0.28125,0.79688 0.28125,0.25 0.90625,0.25 0.625,0 1.5,-0.53125 z m 1.17187,3.5 q -0.96875,0 -1.125,-1.03125 -1.40625,1.03125 -2.4375,1.03125 -0.6875,0 -1.17187,-0.42187 -0.46875,-0.42188 -0.46875,-1.3125 0,-0.90625 0.95312,-1.625 0.95313,-0.71875 3.07813,-0.85938 v -1.48437 q 0,-0.45313 -0.32813,-0.6875 -0.32812,-0.25 -0.92187,-0.25 -0.59375,0 -0.95313,0.32812 -0.34375,0.32813 -0.34375,0.84375 0,0.1875 0.0469,0.4375 l -0.34375,0.15625 q -0.32813,-0.17187 -0.60938,-0.46875 -0.28125,-0.3125 -0.28125,-0.45312 0,-0.14063 0.21875,-0.39063 0.21875,-0.26562 0.57813,-0.56249 0.375,-0.3125 0.98437,-0.53125 0.625,-0.21875 1.39063,-0.21875 0.76562,0 1.25,0.375 0.48437,0.375 0.48437,1.35937 0,0.98437 0.0937,4.15625 0.0156,0.76562 0.57813,0.76562 0.23437,0 0.48437,-0.125 l 0.17188,0.40625 q -0.60938,0.5625 -1.32813,0.5625 z m 4.29639,-9.39061 q -0.23438,0.23437 -0.59375,0.23437 -0.34375,0 -0.59375,-0.23437 -0.23438,-0.25 -0.23438,-0.60938 0,-0.35937 0.23438,-0.59375 0.25,-0.25 0.59375,-0.25 0.35937,0 0.59375,0.25 0.25,0.23438 0.25,0.59375 0,0.35938 -0.25,0.60938 z m 0.0625,2.04687 -0.0312,3.54687 q 0,2.0625 0.125,2.6875 l 0.0469,0.20313 q 0.0156,0.10937 0.40625,0.21875 0.39063,0.0937 0.71875,0.125 l -0.0469,0.46875 q -0.76563,-0.0469 -1.875,-0.0469 -1.09375,0 -1.85938,0.0469 l 0.0469,-0.46875 q 0.32812,-0.0312 0.70312,-0.125 0.39063,-0.10938 0.40625,-0.21875 0.125,-0.5625 0.125,-2.25 0,-2.71875 -0.125,-3.32813 l -1.01562,-0.29687 -0.0312,-0.42187 q 1.01562,0 2.10937,-0.28125 z m 8.86876,3.54687 q 0,2.0625 0.10937,2.6875 l 0.0469,0.20313 q 0.0156,0.10937 0.35937,0.21875 0.34375,0.0937 0.67188,0.125 l -0.0469,0.46875 q -0.76562,-0.0469 -1.76562,-0.0469 -0.98438,0 -1.76563,0.0469 l 0.0625,-0.46875 q 0.29688,-0.0312 0.64063,-0.125 0.34375,-0.10938 0.35937,-0.21875 0.125,-0.5625 0.125,-2.89063 v -1.5625 q 0,-0.625 -0.375,-0.85937 -0.35937,-0.23438 -0.875,-0.23438 -0.5,0 -0.79687,0.0469 -0.28125,0.0312 -0.51563,0.0937 -0.29687,0.0781 -0.82812,0.29687 v 2.21875 q 0,1.96875 0.125,2.6875 l 0.0469,0.20313 q 0.0156,0.10937 0.35938,0.21875 0.34375,0.0937 0.67187,0.125 l -0.0469,0.46875 q -0.76563,-0.0469 -1.76563,-0.0469 -0.98437,0 -1.75,0.0469 l 0.0469,-0.46875 q 0.29687,-0.0312 0.64062,-0.125 0.34375,-0.10938 0.35938,-0.21875 0.10937,-0.5625 0.10937,-2.25 0,-2.71875 -0.125,-3.32813 l -1.01562,-0.29687 -0.0312,-0.42187 q 1.01562,0 2.10937,-0.28125 l 0.29688,0.14062 q -0.0156,0.40625 -0.0156,0.76562 1.78125,-0.92187 3.03125,-0.92187 1.25,0 1.48438,0.9375 1.67187,-0.9375 3.03125,-0.9375 0.8125,0 1.21875,0.32813 0.42187,0.3125 0.42187,1.18749 v 2.1875 q 0,2.0625 0.10938,2.6875 l 0.0469,0.20313 q 0.0156,0.10937 0.35938,0.21875 0.34375,0.0937 0.67187,0.125 l -0.0469,0.46875 q -0.78125,-0.0469 -1.76563,-0.0469 -0.98437,0 -1.76562,0.0469 l 0.0469,-0.46875 q 0.3125,-0.0312 0.65625,-0.125 0.34375,-0.10938 0.35938,-0.21875 0.125,-0.5625 0.125,-2.89063 v -1.5625 q 0,-0.625 -0.375,-0.85937 -0.35938,-0.23438 -1.29688,-0.23438 -0.9375,0 -1.73437,0.4375 z m 11.01739,-3.42187 0.23438,0.125 q 0,1.03125 0.0937,1.57812 l -0.42188,0.14063 q -0.20312,-0.8125 -0.57812,-1.125 -0.375,-0.32812 -0.95313,-0.32812 -0.57812,0 -0.92187,0.31249 -0.32813,0.29688 -0.32813,0.71875 0,0.71875 0.82813,1.17188 l 1.64062,0.90625 q 1.04688,0.59375 1.04688,1.70312 0,0.8125 -0.65625,1.42188 -0.64063,0.59375 -1.84375,0.59375 -1.1875,0 -2.45313,-0.39063 0.1875,-1.125 0.1875,-1.84375 l 0.42188,-0.14062 q 0.14062,0.57812 0.20312,0.78125 0.0781,0.20312 0.26563,0.51562 0.1875,0.29688 0.46875,0.39063 0.29687,0.0937 0.84375,0.0937 0.5625,0 0.9375,-0.3125 0.375,-0.32813 0.375,-0.76563 0,-0.67187 -0.76563,-1.09375 l -1.71875,-0.95312 q -1.0625,-0.5625 -1.0625,-1.71875 0,-0.8125 0.625,-1.4375 0.625,-0.625 1.73438,-0.625 1.125,0 1.79687,0.28125 z" />
  <g
     id="g3963">
    <path
       d="M 47.767307,64.13272 H 289.65708 V 105.8965 H 47.767307 Z"
       id="path3892"
       style="fill:#d5a6bd;fill-rule:evenodd" />
    <path
       d="M 47.767307,64.13272 H 289.65708 V 105.8965 H 47.767307 Z"
       id="path3894"
       style="fill-rule:evenodd;stroke:#000000;stroke-width:1;stroke-linecap:butt;stroke-linejoin:round" />
    <path
       d="m 106.18768,87.89897 q 1.5,0 2.45312,-0.609375 0.96875,-0.625 1.28125,-1.671875 l 0.4375,0.1875 q -0.17187,0.578125 -0.375,2.140625 -1.95312,0.734375 -3.84375,0.734375 -2.625,0 -4.17187,-1.421875 -1.53125,-1.4375 -1.53125,-3.984375 0,-2.546875 1.51562,-4.21875 1.53125,-1.671875 4.17188,-1.671875 0.73437,0 1.64062,0.125 0.92188,0.125 1.25,0.125 0.34375,0 0.71875,-0.09375 v 0.234375 q 0,1.171875 0.1875,2.25 l -0.42187,0.203125 q -0.64063,-2.109375 -3.39063,-2.109375 -1.60937,0 -2.75,1.140625 -0.57812,0.5625 -0.90625,1.5 -0.32812,0.921875 -0.32812,1.984375 0,1.0625 0.21875,1.9375 0.21875,0.859375 0.6875,1.59375 0.46875,0.734375 1.28125,1.1875 0.8125,0.4375 1.875,0.4375 z m 9.79377,-6.859375 q 0.125,0 0.42188,0.375 0.29687,0.375 0.39062,0.734375 l -0.23437,0.3125 q -0.57813,-0.21875 -1.20313,-0.21875 -0.625,0 -1.14062,0.515625 -0.51563,0.515625 -0.51563,1.671875 0.0156,2.8125 0.14063,3.28125 0.0156,0.125 0.45312,0.234375 0.45313,0.09375 0.9375,0.125 l -0.0625,0.46875 q -0.76562,-0.04687 -1.9375,-0.04687 -1.17187,0 -1.9375,0.04687 l 0.0469,-0.46875 q 0.3125,-0.03125 0.65625,-0.125 0.35937,-0.109375 0.375,-0.21875 0.125,-0.5625 0.125,-2.25 0,-2.71875 -0.125,-3.328125 l -1.01563,-0.296875 -0.0312,-0.421875 q 1.01563,0 2.10938,-0.28125 l 0.29687,0.140625 q -0.0312,0.25 -0.0312,1.3125 0.46875,-0.765625 1.17188,-1.15625 0.71875,-0.40625 1.10937,-0.40625 z m 6.32889,2.328125 q 0,-0.734375 -0.42187,-1.09375 -0.40625,-0.359375 -0.92188,-0.359375 -0.75,0 -1.29687,0.59375 -0.54688,0.59375 -0.71875,1.453125 l 3.3125,-0.125 q 0.0469,-0.234375 0.0469,-0.46875 z m -1.39062,5.265625 q -1.70313,0 -2.5625,-0.96875 -0.85938,-0.96875 -0.85938,-2.578125 0,-1.609375 0.95313,-2.78125 0.95312,-1.171875 2.875,-1.171875 0.96875,0 1.6875,0.6875 0.73437,0.6875 0.73437,2.046875 l -0.54687,0.65625 q -0.0937,-0.01563 -1.51563,-0.01563 -1.40625,0 -2.82812,0.109375 v 0.140625 q 0,1.46875 0.60937,2.203125 0.60938,0.71875 1.65625,0.71875 1.0625,0 2.23438,-0.515625 l 0.1875,0.484375 q -1.23438,0.984375 -2.625,0.984375 z m 9.35964,-1.03125 q -1.10938,1.03125 -2.42189,1.03125 -1.3125,0 -2.15625,-0.953125 -0.82812,-0.953125 -0.82812,-2.71875 0,-1.765625 1,-2.796875 1,-1.046875 2.46876,-1.046875 0.79687,0 1.92187,0.5625 0,-2.96875 -0.0937,-3.640625 l -0.0312,-0.21875 -1.03125,-0.296875 -0.0312,-0.421875 q 1.03125,0 2.10938,-0.296875 l 0.3125,0.15625 q -0.0312,2 -0.0312,5.671875 0,3.65625 0.0312,4.1875 0.0312,0.515625 0.125,0.65625 0.10937,0.140625 0.32812,0.203125 0.32813,0.09375 0.78125,0.125 l -0.0469,0.46875 q -0.57813,0.04687 -1.75,0.28125 -0.48438,-0.203125 -0.65625,-0.953125 z m -1.51563,-5.515625 q -1.26563,0 -1.87501,0.828125 -0.59375,0.828125 -0.59375,2.046875 0,1.21875 0.53125,1.953125 0.53125,0.71875 1.50001,0.71875 0.98438,0 1.85938,-0.5625 0.0781,-1.28125 0.0781,-4.6875 -0.82812,-0.296875 -1.5,-0.296875 z m 9.59465,1.28125 q 0,-0.734375 -0.42187,-1.09375 -0.40625,-0.359375 -0.92188,-0.359375 -0.75,0 -1.29687,0.59375 -0.54688,0.59375 -0.71875,1.453125 l 3.3125,-0.125 q 0.0469,-0.234375 0.0469,-0.46875 z m -1.39062,5.265625 q -1.70313,0 -2.5625,-0.96875 -0.85938,-0.96875 -0.85938,-2.578125 0,-1.609375 0.95313,-2.78125 0.95312,-1.171875 2.875,-1.171875 0.96875,0 1.6875,0.6875 0.73437,0.6875 0.73437,2.046875 l -0.54687,0.65625 q -0.0937,-0.01563 -1.51563,-0.01563 -1.40625,0 -2.82812,0.109375 v 0.140625 q 0,1.46875 0.60937,2.203125 0.60938,0.71875 1.65625,0.71875 1.0625,0 2.23438,-0.515625 l 0.1875,0.484375 q -1.23438,0.984375 -2.625,0.984375 z m 6.09401,-6.015625 -0.0156,2.21875 q 0,2.0625 0.125,2.6875 l 0.0312,0.203125 q 0.0156,0.109375 0.35938,0.21875 0.34375,0.09375 0.67187,0.125 l -0.0469,0.46875 q -0.76563,-0.04687 -1.76563,-0.04687 -0.98437,0 -1.75,0.04687 l 0.0469,-0.46875 q 0.29687,-0.03125 0.64062,-0.125 0.34375,-0.109375 0.35938,-0.21875 0.125,-0.5625 0.125,-2.25 0,-2.71875 -0.125,-3.328125 l -1.01563,-0.296875 -0.0312,-0.421875 q 1.01563,0 2.10938,-0.28125 l 0.29687,0.140625 v 0.765625 q 1.78125,-0.921875 3.09375,-0.921875 0.79688,0 1.20313,0.328125 0.42187,0.3125 0.42187,1.1875 v 2.1875 q 0,2.0625 0.10938,2.6875 l 0.0469,0.203125 q 0.0312,0.109375 0.375,0.21875 0.34375,0.09375 0.65625,0.125 l -0.0469,0.46875 q -0.76563,-0.04687 -1.76563,-0.04687 -0.98437,0 -1.75,0.04687 l 0.0469,-0.46875 q 0.29687,-0.03125 0.64062,-0.125 0.34375,-0.109375 0.35938,-0.21875 0.125,-0.5625 0.125,-2.890625 v -1.5625 q 0,-0.625 -0.375,-0.859375 -0.35938,-0.234375 -1.23438,-0.234375 -0.875,0 -1.92187,0.4375 z m 9.31939,6.015625 q -1.67187,0 -1.67187,-1.59375 0.0156,-1.40625 0.0156,-2.578125 0,-1.1875 -0.0312,-2.46875 l -1.01562,0.01563 -0.0469,-0.171875 0.35938,-0.625 q 0.21875,0.04687 0.67187,0.0625 l -0.0625,-1.46875 1.0625,-0.9375 0.29688,0.140625 q -0.0312,1.1875 -0.0312,2.25 l 2.35937,-0.01563 0.0781,0.1875 -0.57813,0.640625 q -0.54687,-0.0625 -1.85937,-0.07813 v 2.140625 q 0,2 0.0469,2.875 0.0469,0.71875 0.84375,0.71875 0.64063,0 1.40625,-0.375 l 0.20313,0.53125 q -1.14063,0.75 -2.04688,0.75 z m 4.91951,-9.390625 q -0.23437,0.234375 -0.59375,0.234375 -0.34375,0 -0.59375,-0.234375 -0.23437,-0.25 -0.23437,-0.609375 0,-0.359375 0.23437,-0.59375 0.25,-0.25 0.59375,-0.25 0.35938,0 0.59375,0.25 0.25,0.234375 0.25,0.59375 0,0.359375 -0.25,0.609375 z m 0.0625,2.046875 -0.0312,3.546875 q 0,2.0625 0.125,2.6875 l 0.0469,0.203125 q 0.0156,0.109375 0.40625,0.21875 0.39062,0.09375 0.71875,0.125 l -0.0469,0.46875 q -0.76562,-0.04687 -1.875,-0.04687 -1.09375,0 -1.85937,0.04687 l 0.0469,-0.46875 q 0.32813,-0.03125 0.70313,-0.125 0.39062,-0.109375 0.40625,-0.21875 0.125,-0.5625 0.125,-2.25 0,-2.71875 -0.125,-3.328125 l -1.01563,-0.296875 -0.0312,-0.421875 q 1.01563,0 2.10938,-0.28125 z m 6.18126,3.84375 q -1.3125,0.03125 -2,0.5 -0.6875,0.453125 -0.6875,1 0,0.546875 0.28125,0.796875 0.28125,0.25 0.90625,0.25 0.625,0 1.5,-0.53125 z m 1.17188,3.5 q -0.96875,0 -1.125,-1.03125 -1.40625,1.03125 -2.4375,1.03125 -0.6875,0 -1.17188,-0.421875 -0.46875,-0.421875 -0.46875,-1.3125 0,-0.90625 0.95313,-1.625 0.95312,-0.71875 3.07812,-0.859375 V 82.93022 q 0,-0.453125 -0.32812,-0.6875 -0.32813,-0.25 -0.92188,-0.25 -0.59375,0 -0.95312,0.328125 -0.34375,0.328125 -0.34375,0.84375 0,0.1875 0.0469,0.4375 l -0.34375,0.15625 q -0.32812,-0.171875 -0.60937,-0.46875 -0.28125,-0.3125 -0.28125,-0.453125 0,-0.140625 0.21875,-0.390625 0.21875,-0.265625 0.57812,-0.5625 0.375,-0.3125 0.98438,-0.53125 0.625,-0.21875 1.39062,-0.21875 0.76563,0 1.25,0.375 0.48438,0.375 0.48438,1.359375 0,0.984375 0.0937,4.15625 0.0156,0.765625 0.57812,0.765625 0.23438,0 0.48438,-0.125 l 0.17187,0.40625 q -0.60937,0.5625 -1.32812,0.5625 z m 4.28076,-11.671875 q -0.0312,2 -0.0312,5.859375 0,3.84375 0.17187,4.90625 0.0156,0.109375 0.42188,0.21875 0.40625,0.109375 0.70312,0.125 l -0.0469,0.46875 q -0.76563,-0.04687 -1.85938,-0.04687 -1.07812,0 -1.85937,0.04687 l 0.0625,-0.46875 q 0.32812,-0.03125 0.70312,-0.125 0.375,-0.109375 0.39063,-0.21875 0.10937,-1.046875 0.10937,-4 0,-4.8125 -0.0937,-5.640625 l -0.0312,-0.265625 -1.01562,-0.296875 -0.0312,-0.421875 q 1.01562,0 2.10937,-0.296875 z m 8.68014,3.109375 q -0.17187,4 -0.17187,5.640625 l 0.0625,1.671875 q 0.0469,0.390625 0.84375,0.5625 0.1875,0.03125 0.65625,0.125 l -0.0469,0.46875 q -1.01562,-0.04687 -2.20312,-0.04687 -1.17188,0 -1.84375,0.04687 l -0.0469,-0.46875 q 0.76563,-0.15625 1.04688,-0.28125 0.29687,-0.125 0.32812,-0.40625 0.3125,-2.59375 0.3125,-6.625 l -0.0625,-2.125 q -0.0312,-0.28125 -0.29687,-0.40625 -0.25,-0.125 -1.01563,-0.28125 l 0.0469,-0.46875 q 1.01562,0.0625 2.78125,0.0625 l 3.8125,9.4375 3.8125,-9.4375 q 1.8125,0 2.82812,-0.0625 l 0.0469,0.46875 q -0.76563,0.15625 -1.03125,0.28125 -0.25,0.125 -0.29688,0.4375 -0.0469,0.296875 -0.0469,1.046875 0,0.75 0.0781,3.3125 0.15625,3.171875 0.25,4.0625 l 0.0469,0.296875 q 0.0312,0.296875 0.29687,0.421875 0.26563,0.109375 1.0625,0.265625 l -0.0625,0.46875 q -1,-0.04687 -2.1875,-0.04687 -1.1875,0 -2.1875,0.04687 l -0.0469,-0.46875 q 0.82812,-0.15625 1.125,-0.28125 0.29687,-0.125 0.29687,-0.40625 0.0156,-0.515625 0.0156,-2.265625 0,-1.75 -0.20313,-5.046875 h -0.0937 l -3.4375,8.40625 -0.98437,0.171875 -3.42188,-8.578125 z m 17.03327,3.296875 q 0,-0.734375 -0.42188,-1.09375 -0.40625,-0.359375 -0.92187,-0.359375 -0.75,0 -1.29688,0.59375 -0.54687,0.59375 -0.71875,1.453125 l 3.3125,-0.125 q 0.0469,-0.234375 0.0469,-0.46875 z m -1.39063,5.265625 q -1.70312,0 -2.5625,-0.96875 -0.85937,-0.96875 -0.85937,-2.578125 0,-1.609375 0.95312,-2.78125 0.95313,-1.171875 2.875,-1.171875 0.96875,0 1.6875,0.6875 0.73438,0.6875 0.73438,2.046875 l -0.54688,0.65625 q -0.0937,-0.01563 -1.51562,-0.01563 -1.40625,0 -2.82813,0.109375 v 0.140625 q 0,1.46875 0.60938,2.203125 0.60937,0.71875 1.65625,0.71875 1.0625,0 2.23437,-0.515625 l 0.1875,0.484375 q -1.23437,0.984375 -2.625,0.984375 z m 6.4534,0 q -1.67187,0 -1.67187,-1.59375 0.0156,-1.40625 0.0156,-2.578125 0,-1.1875 -0.0312,-2.46875 l -1.01562,0.01563 -0.0469,-0.171875 0.35938,-0.625 q 0.21875,0.04687 0.67187,0.0625 l -0.0625,-1.46875 1.0625,-0.9375 0.29688,0.140625 q -0.0312,1.1875 -0.0312,2.25 l 2.35937,-0.01563 0.0781,0.1875 -0.57813,0.640625 q -0.54687,-0.0625 -1.85937,-0.07813 v 2.140625 q 0,2 0.0469,2.875 0.0469,0.71875 0.84375,0.71875 0.64063,0 1.40625,-0.375 l 0.20313,0.53125 q -1.14063,0.75 -2.04688,0.75 z m 6.76325,-3.5 q -1.3125,0.03125 -2,0.5 -0.6875,0.453125 -0.6875,1 0,0.546875 0.28125,0.796875 0.28125,0.25 0.90625,0.25 0.625,0 1.5,-0.53125 z m 1.17187,3.5 q -0.96875,0 -1.125,-1.03125 -1.40625,1.03125 -2.4375,1.03125 -0.6875,0 -1.17187,-0.421875 -0.46875,-0.421875 -0.46875,-1.3125 0,-0.90625 0.95312,-1.625 0.95313,-0.71875 3.07813,-0.859375 V 82.93022 q 0,-0.453125 -0.32813,-0.6875 -0.32812,-0.25 -0.92187,-0.25 -0.59375,0 -0.95313,0.328125 -0.34375,0.328125 -0.34375,0.84375 0,0.1875 0.0469,0.4375 l -0.34375,0.15625 q -0.32813,-0.171875 -0.60938,-0.46875 -0.28125,-0.3125 -0.28125,-0.453125 0,-0.140625 0.21875,-0.390625 0.21875,-0.265625 0.57813,-0.5625 0.375,-0.3125 0.98437,-0.53125 0.625,-0.21875 1.39063,-0.21875 0.76562,0 1.25,0.375 0.48437,0.375 0.48437,1.359375 0,0.984375 0.0937,4.15625 0.0156,0.765625 0.57813,0.765625 0.23437,0 0.48437,-0.125 l 0.17188,0.40625 q -0.60938,0.5625 -1.32813,0.5625 z m 7.51514,-1.03125 q -1.10938,1.03125 -2.42188,1.03125 -1.3125,0 -2.15625,-0.953125 -0.82812,-0.953125 -0.82812,-2.71875 0,-1.765625 1,-2.796875 1,-1.046875 2.46875,-1.046875 0.79687,0 1.92187,0.5625 0,-2.96875 -0.0937,-3.640625 l -0.0312,-0.21875 -1.03125,-0.296875 -0.0312,-0.421875 q 1.03125,0 2.10938,-0.296875 l 0.3125,0.15625 q -0.0312,2 -0.0312,5.671875 0,3.65625 0.0312,4.1875 0.0312,0.515625 0.125,0.65625 0.10937,0.140625 0.32812,0.203125 0.32813,0.09375 0.78125,0.125 l -0.0469,0.46875 q -0.57813,0.04687 -1.75,0.28125 -0.48438,-0.203125 -0.65625,-0.953125 z m -1.51563,-5.515625 q -1.26562,0 -1.875,0.828125 -0.59375,0.828125 -0.59375,2.046875 0,1.21875 0.53125,1.953125 0.53125,0.71875 1.5,0.71875 0.98438,0 1.85938,-0.5625 0.0781,-1.28125 0.0781,-4.6875 -0.82812,-0.296875 -1.5,-0.296875 z m 8.84467,3.046875 q -1.3125,0.03125 -2,0.5 -0.6875,0.453125 -0.6875,1 0,0.546875 0.28125,0.796875 0.28125,0.25 0.90625,0.25 0.625,0 1.5,-0.53125 z m 1.17188,3.5 q -0.96875,0 -1.125,-1.03125 -1.40625,1.03125 -2.4375,1.03125 -0.6875,0 -1.17188,-0.421875 -0.46875,-0.421875 -0.46875,-1.3125 0,-0.90625 0.95313,-1.625 0.95312,-0.71875 3.07812,-0.859375 V 82.93022 q 0,-0.453125 -0.32812,-0.6875 -0.32813,-0.25 -0.92188,-0.25 -0.59375,0 -0.95312,0.328125 -0.34375,0.328125 -0.34375,0.84375 0,0.1875 0.0469,0.4375 l -0.34375,0.15625 q -0.32812,-0.171875 -0.60937,-0.46875 -0.28125,-0.3125 -0.28125,-0.453125 0,-0.140625 0.21875,-0.390625 0.21875,-0.265625 0.57812,-0.5625 0.375,-0.3125 0.98438,-0.53125 0.625,-0.21875 1.39062,-0.21875 0.76563,0 1.25,0.375 0.48438,0.375 0.48438,1.359375 0,0.984375 0.0937,4.15625 0.0156,0.765625 0.57812,0.765625 0.23438,0 0.48438,-0.125 l 0.17187,0.40625 q -0.60937,0.5625 -1.32812,0.5625 z m 4.60888,0 q -1.67187,0 -1.67187,-1.59375 0.0156,-1.40625 0.0156,-2.578125 0,-1.1875 -0.0312,-2.46875 l -1.01562,0.01563 -0.0469,-0.171875 0.35938,-0.625 q 0.21875,0.04687 0.67187,0.0625 l -0.0625,-1.46875 1.0625,-0.9375 0.29688,0.140625 q -0.0312,1.1875 -0.0312,2.25 l 2.35937,-0.01563 0.0781,0.1875 -0.57813,0.640625 q -0.54687,-0.0625 -1.85937,-0.07813 v 2.140625 q 0,2 0.0469,2.875 0.0469,0.71875 0.84375,0.71875 0.64063,0 1.40625,-0.375 l 0.20313,0.53125 q -1.14063,0.75 -2.04688,0.75 z m 6.76325,-3.5 q -1.3125,0.03125 -2,0.5 -0.6875,0.453125 -0.6875,1 0,0.546875 0.28125,0.796875 0.28125,0.25 0.90625,0.25 0.625,0 1.5,-0.53125 z m 1.17187,3.5 q -0.96875,0 -1.125,-1.03125 -1.40625,1.03125 -2.4375,1.03125 -0.6875,0 -1.17187,-0.421875 -0.46875,-0.421875 -0.46875,-1.3125 0,-0.90625 0.95312,-1.625 0.95313,-0.71875 3.07813,-0.859375 V 82.93022 q 0,-0.453125 -0.32813,-0.6875 -0.32812,-0.25 -0.92187,-0.25 -0.59375,0 -0.95313,0.328125 -0.34375,0.328125 -0.34375,0.84375 0,0.1875 0.0469,0.4375 l -0.34375,0.15625 q -0.32813,-0.171875 -0.60938,-0.46875 -0.28125,-0.3125 -0.28125,-0.453125 0,-0.140625 0.21875,-0.390625 0.21875,-0.265625 0.57813,-0.5625 0.375,-0.3125 0.98437,-0.53125 0.625,-0.21875 1.39063,-0.21875 0.76562,0 1.25,0.375 0.48437,0.375 0.48437,1.359375 0,0.984375 0.0937,4.15625 0.0156,0.765625 0.57813,0.765625 0.23437,0 0.48437,-0.125 l 0.17188,0.40625 q -0.60938,0.5625 -1.32813,0.5625 z"
       id="path3896"
       style="fill:#000000;fill-rule:nonzero" />
    <path
       d="M 45.72441,61.037327 H 287.61417 V 102.80111 H 45.72441 Z"
       id="path3904"
       style="fill:#d5a6bd;fill-rule:evenodd" />
    <path
       d="M 45.72441,61.037327 H 287.61417 V 102.80111 H 45.72441 Z"
       id="path3906"
       style="fill-rule:evenodd;stroke:#000000;stroke-width:1;stroke-linecap:butt;stroke-linejoin:round" />
    <path
       d="m 104.14478,84.80358 q 1.5,0 2.45312,-0.609375 0.96875,-0.625 1.28125,-1.671875 l 0.4375,0.1875 q -0.17187,0.578125 -0.375,2.140625 -1.95312,0.734375 -3.84375,0.734375 -2.625,0 -4.17187,-1.421875 -1.53125,-1.4375 -1.53125,-3.984375 0,-2.546875 1.515625,-4.21875 1.531245,-1.671875 4.171875,-1.671875 0.73437,0 1.64062,0.125 0.92188,0.125 1.25,0.125 0.34375,0 0.71875,-0.09375 v 0.234375 q 0,1.171875 0.1875,2.25 l -0.42187,0.203125 q -0.64063,-2.109375 -3.39063,-2.109375 -1.60937,0 -2.75,1.140625 -0.57812,0.5625 -0.90625,1.5 -0.32812,0.921875 -0.32812,1.984375 0,1.0625 0.21875,1.9375 0.21875,0.859375 0.6875,1.59375 0.46875,0.734375 1.28125,1.1875 0.8125,0.4375 1.875,0.4375 z m 9.79378,-6.859375 q 0.125,0 0.42187,0.375 0.29688,0.375 0.39063,0.734375 l -0.23438,0.3125 q -0.57812,-0.21875 -1.20312,-0.21875 -0.625,0 -1.14063,0.515625 -0.51562,0.515625 -0.51562,1.671875 0.0156,2.8125 0.14062,3.28125 0.0156,0.125 0.45313,0.234375 0.45312,0.09375 0.9375,0.125 l -0.0625,0.46875 q -0.76563,-0.04687 -1.9375,-0.04687 -1.17188,0 -1.9375,0.04687 l 0.0469,-0.46875 q 0.3125,-0.03125 0.65625,-0.125 0.35938,-0.109375 0.375,-0.21875 0.125,-0.5625 0.125,-2.25 0,-2.71875 -0.125,-3.328125 l -1.01562,-0.296875 -0.0312,-0.421875 q 1.01562,0 2.10937,-0.28125 l 0.29688,0.140625 q -0.0312,0.25 -0.0312,1.3125 0.46875,-0.765625 1.17187,-1.15625 0.71875,-0.40625 1.10938,-0.40625 z m 6.32889,2.328125 q 0,-0.734375 -0.42188,-1.09375 -0.40625,-0.359375 -0.92187,-0.359375 -0.75,0 -1.29688,0.59375 -0.54687,0.59375 -0.71875,1.453125 l 3.3125,-0.125 q 0.0469,-0.234375 0.0469,-0.46875 z m -1.39063,5.265625 q -1.70312,0 -2.5625,-0.96875 -0.85937,-0.96875 -0.85937,-2.578125 0,-1.609375 0.95312,-2.78125 0.95313,-1.171875 2.875,-1.171875 0.96875,0 1.6875,0.6875 0.73438,0.6875 0.73438,2.046875 l -0.54688,0.65625 q -0.0937,-0.01563 -1.51562,-0.01563 -1.40625,0 -2.82813,0.109375 v 0.140625 q 0,1.46875 0.60938,2.203125 0.60937,0.71875 1.65625,0.71875 1.0625,0 2.23437,-0.515625 l 0.1875,0.484375 q -1.23437,0.984375 -2.625,0.984375 z m 9.35963,-1.03125 q -1.10937,1.03125 -2.42187,1.03125 -1.3125,0 -2.15625,-0.953125 -0.82813,-0.953125 -0.82813,-2.71875 0,-1.765625 1,-2.796875 1,-1.046875 2.46875,-1.046875 0.79688,0 1.92187,0.5625 0,-2.96875 -0.0937,-3.640625 l -0.0312,-0.21875 -1.03124,-0.296875 -0.0312,-0.421875 q 1.03124,0 2.10937,-0.296875 l 0.3125,0.15625 q -0.0312,2 -0.0312,5.671875 0,3.65625 0.0312,4.1875 0.0312,0.515625 0.125,0.65625 0.10937,0.140625 0.32812,0.203125 0.32813,0.09375 0.78125,0.125 l -0.0469,0.46875 q -0.57813,0.04687 -1.75,0.28125 -0.48438,-0.203125 -0.65625,-0.953125 z m -1.51562,-5.515625 q -1.26563,0 -1.875,0.828125 -0.59375,0.828125 -0.59375,2.046875 0,1.21875 0.53125,1.953125 0.53125,0.71875 1.5,0.71875 0.98437,0 1.85937,-0.5625 0.0781,-1.28125 0.0781,-4.6875 -0.82812,-0.296875 -1.49999,-0.296875 z m 9.59464,1.28125 q 0,-0.734375 -0.42187,-1.09375 -0.40625,-0.359375 -0.92188,-0.359375 -0.75,0 -1.29687,0.59375 -0.54688,0.59375 -0.71875,1.453125 l 3.3125,-0.125 q 0.0469,-0.234375 0.0469,-0.46875 z m -1.39062,5.265625 q -1.70313,0 -2.5625,-0.96875 -0.85938,-0.96875 -0.85938,-2.578125 0,-1.609375 0.95313,-2.78125 0.95312,-1.171875 2.875,-1.171875 0.96875,0 1.6875,0.6875 0.73437,0.6875 0.73437,2.046875 l -0.54687,0.65625 q -0.0937,-0.01563 -1.51563,-0.01563 -1.40625,0 -2.82812,0.109375 v 0.140625 q 0,1.46875 0.60937,2.203125 0.60938,0.71875 1.65625,0.71875 1.0625,0 2.23438,-0.515625 l 0.1875,0.484375 q -1.23438,0.984375 -2.625,0.984375 z m 6.09401,-6.015625 -0.0156,2.21875 q 0,2.0625 0.125,2.6875 l 0.0312,0.203125 q 0.0156,0.109375 0.35938,0.21875 0.34375,0.09375 0.67187,0.125 l -0.0469,0.46875 q -0.76563,-0.04687 -1.76563,-0.04687 -0.98437,0 -1.75,0.04687 l 0.0469,-0.46875 q 0.29687,-0.03125 0.64062,-0.125 0.34375,-0.109375 0.35938,-0.21875 0.125,-0.5625 0.125,-2.25 0,-2.71875 -0.125,-3.328125 l -1.01563,-0.296875 -0.0312,-0.421875 q 1.01563,0 2.10938,-0.28125 l 0.29687,0.140625 v 0.765625 q 1.78125,-0.921875 3.09375,-0.921875 0.79688,0 1.20313,0.328125 0.42187,0.3125 0.42187,1.1875 v 2.1875 q 0,2.0625 0.10938,2.6875 l 0.0469,0.203125 q 0.0312,0.109375 0.375,0.21875 0.34375,0.09375 0.65625,0.125 l -0.0469,0.46875 q -0.76563,-0.04687 -1.76563,-0.04687 -0.98437,0 -1.75,0.04687 l 0.0469,-0.46875 q 0.29687,-0.03125 0.64062,-0.125 0.34375,-0.109375 0.35938,-0.21875 0.125,-0.5625 0.125,-2.890625 v -1.5625 q 0,-0.625 -0.375,-0.859375 -0.35938,-0.234375 -1.23438,-0.234375 -0.875,0 -1.92187,0.4375 z m 9.31939,6.015625 q -1.67187,0 -1.67187,-1.59375 0.0156,-1.40625 0.0156,-2.578125 0,-1.1875 -0.0312,-2.46875 l -1.01562,0.01563 -0.0469,-0.171875 0.35938,-0.625 q 0.21875,0.04687 0.67187,0.0625 l -0.0625,-1.46875 1.0625,-0.9375 0.29688,0.140625 q -0.0312,1.1875 -0.0312,2.25 l 2.35937,-0.01563 0.0781,0.1875 -0.57813,0.640625 q -0.54687,-0.0625 -1.85937,-0.07813 v 2.140625 q 0,2 0.0469,2.875 0.0469,0.71875 0.84375,0.71875 0.64063,0 1.40625,-0.375 l 0.20313,0.53125 q -1.14063,0.75 -2.04688,0.75 z m 4.91951,-9.390625 q -0.23437,0.234375 -0.59375,0.234375 -0.34375,0 -0.59375,-0.234375 -0.23437,-0.25 -0.23437,-0.609375 0,-0.359375 0.23437,-0.59375 0.25,-0.25 0.59375,-0.25 0.35938,0 0.59375,0.25 0.25,0.234375 0.25,0.59375 0,0.359375 -0.25,0.609375 z m 0.0625,2.046875 -0.0312,3.546875 q 0,2.0625 0.125,2.6875 l 0.0469,0.203125 q 0.0156,0.109375 0.40625,0.21875 0.39062,0.09375 0.71875,0.125 l -0.0469,0.46875 q -0.76562,-0.04687 -1.875,-0.04687 -1.09375,0 -1.85937,0.04687 l 0.0469,-0.46875 q 0.32813,-0.03125 0.70313,-0.125 0.39062,-0.109375 0.40625,-0.21875 0.125,-0.5625 0.125,-2.25 0,-2.71875 -0.125,-3.328125 l -1.01563,-0.296875 -0.0312,-0.421875 q 1.01563,0 2.10938,-0.28125 z m 6.18126,3.84375 q -1.3125,0.03125 -2,0.5 -0.6875,0.453125 -0.6875,1 0,0.546875 0.28125,0.796875 0.28125,0.25 0.90625,0.25 0.625,0 1.5,-0.53125 z m 1.17188,3.5 q -0.96875,0 -1.125,-1.03125 -1.40625,1.03125 -2.4375,1.03125 -0.6875,0 -1.17188,-0.421875 -0.46875,-0.421875 -0.46875,-1.3125 0,-0.90625 0.95313,-1.625 0.95312,-0.71875 3.07812,-0.859375 V 79.83483 q 0,-0.453125 -0.32812,-0.6875 -0.32813,-0.25 -0.92188,-0.25 -0.59375,0 -0.95312,0.328125 -0.34375,0.328125 -0.34375,0.84375 0,0.1875 0.0469,0.4375 l -0.34375,0.15625 q -0.32812,-0.171875 -0.60937,-0.46875 -0.28125,-0.3125 -0.28125,-0.453125 0,-0.140625 0.21875,-0.390625 0.21875,-0.265625 0.57812,-0.5625 0.375,-0.3125 0.98438,-0.53125 0.625,-0.21875 1.39062,-0.21875 0.76563,0 1.25,0.375 0.48438,0.375 0.48438,1.359375 0,0.984375 0.0937,4.15625 0.0156,0.765625 0.57812,0.765625 0.23438,0 0.48438,-0.125 l 0.17187,0.40625 q -0.60937,0.5625 -1.32812,0.5625 z m 4.28076,-11.671875 q -0.0312,2 -0.0312,5.859375 0,3.84375 0.17187,4.90625 0.0156,0.109375 0.42188,0.21875 0.40625,0.109375 0.70312,0.125 l -0.0469,0.46875 q -0.76563,-0.04687 -1.85938,-0.04687 -1.07812,0 -1.85937,0.04687 l 0.0625,-0.46875 q 0.32812,-0.03125 0.70312,-0.125 0.375,-0.109375 0.39063,-0.21875 0.10937,-1.046875 0.10937,-4 0,-4.8125 -0.0937,-5.640625 l -0.0312,-0.265625 -1.01562,-0.296875 -0.0312,-0.421875 q 1.01562,0 2.10937,-0.296875 z m 8.68016,3.109375 q -0.17187,4 -0.17187,5.640625 l 0.0625,1.671875 q 0.0469,0.390625 0.84375,0.5625 0.1875,0.03125 0.65625,0.125 l -0.0469,0.46875 q -1.01562,-0.04687 -2.20312,-0.04687 -1.1719,0 -1.84377,0.04687 l -0.0469,-0.46875 q 0.76563,-0.15625 1.0469,-0.28125 0.29687,-0.125 0.32812,-0.40625 0.3125,-2.59375 0.3125,-6.625 l -0.0625,-2.125 q -0.0312,-0.28125 -0.29687,-0.40625 -0.25,-0.125 -1.01565,-0.28125 l 0.0469,-0.46875 q 1.01564,0.0625 2.78127,0.0625 l 3.8125,9.4375 3.8125,-9.4375 q 1.8125,0 2.82812,-0.0625 l 0.0469,0.46875 q -0.76563,0.15625 -1.03125,0.28125 -0.25,0.125 -0.29688,0.4375 -0.0469,0.296875 -0.0469,1.046875 0,0.75 0.0781,3.3125 0.15625,3.171875 0.25,4.0625 l 0.0469,0.296875 q 0.0312,0.296875 0.29687,0.421875 0.26563,0.109375 1.0625,0.265625 l -0.0625,0.46875 q -1,-0.04687 -2.1875,-0.04687 -1.1875,0 -2.1875,0.04687 l -0.0469,-0.46875 q 0.82812,-0.15625 1.125,-0.28125 0.29687,-0.125 0.29687,-0.40625 0.0156,-0.515625 0.0156,-2.265625 0,-1.75 -0.20313,-5.046875 h -0.0937 l -3.4375,8.40625 -0.98437,0.171875 -3.42188,-8.578125 z m 17.03326,3.296875 q 0,-0.734375 -0.42187,-1.09375 -0.40625,-0.359375 -0.92188,-0.359375 -0.75,0 -1.29687,0.59375 -0.54688,0.59375 -0.71875,1.453125 l 3.3125,-0.125 q 0.0469,-0.234375 0.0469,-0.46875 z m -1.39062,5.265625 q -1.70313,0 -2.5625,-0.96875 -0.85938,-0.96875 -0.85938,-2.578125 0,-1.609375 0.95313,-2.78125 0.95312,-1.171875 2.875,-1.171875 0.96875,0 1.6875,0.6875 0.73437,0.6875 0.73437,2.046875 l -0.54687,0.65625 q -0.0937,-0.01563 -1.51563,-0.01563 -1.40625,0 -2.82812,0.109375 v 0.140625 q 0,1.46875 0.60937,2.203125 0.60938,0.71875 1.65625,0.71875 1.0625,0 2.23438,-0.515625 l 0.1875,0.484375 q -1.23438,0.984375 -2.625,0.984375 z m 6.4534,0 q -1.67188,0 -1.67188,-1.59375 0.0156,-1.40625 0.0156,-2.578125 0,-1.1875 -0.0312,-2.46875 l -1.01563,0.01563 -0.0469,-0.171875 0.35937,-0.625 q 0.21875,0.04687 0.67188,0.0625 l -0.0625,-1.46875 1.0625,-0.9375 0.29687,0.140625 q -0.0312,1.1875 -0.0312,2.25 l 2.35938,-0.01563 0.0781,0.1875 -0.57812,0.640625 q -0.54688,-0.0625 -1.85938,-0.07813 v 2.140625 q 0,2 0.0469,2.875 0.0469,0.71875 0.84375,0.71875 0.64062,0 1.40625,-0.375 l 0.20312,0.53125 q -1.14062,0.75 -2.04687,0.75 z m 6.76324,-3.5 q -1.3125,0.03125 -2,0.5 -0.6875,0.453125 -0.6875,1 0,0.546875 0.28125,0.796875 0.28125,0.25 0.90625,0.25 0.625,0 1.5,-0.53125 z m 1.17188,3.5 q -0.96875,0 -1.125,-1.03125 -1.40625,1.03125 -2.4375,1.03125 -0.6875,0 -1.17188,-0.421875 -0.46875,-0.421875 -0.46875,-1.3125 0,-0.90625 0.95313,-1.625 0.95312,-0.71875 3.07812,-0.859375 V 79.83483 q 0,-0.453125 -0.32812,-0.6875 -0.32813,-0.25 -0.92188,-0.25 -0.59375,0 -0.95312,0.328125 -0.34375,0.328125 -0.34375,0.84375 0,0.1875 0.0469,0.4375 l -0.34375,0.15625 q -0.32812,-0.171875 -0.60937,-0.46875 -0.28125,-0.3125 -0.28125,-0.453125 0,-0.140625 0.21875,-0.390625 0.21875,-0.265625 0.57812,-0.5625 0.375,-0.3125 0.98438,-0.53125 0.625,-0.21875 1.39062,-0.21875 0.76563,0 1.25,0.375 0.48438,0.375 0.48438,1.359375 0,0.984375 0.0937,4.15625 0.0156,0.765625 0.57812,0.765625 0.23438,0 0.48438,-0.125 l 0.17187,0.40625 q -0.60937,0.5625 -1.32812,0.5625 z m 7.51514,-1.03125 q -1.10938,1.03125 -2.42188,1.03125 -1.3125,0 -2.15625,-0.953125 -0.82812,-0.953125 -0.82812,-2.71875 0,-1.765625 1,-2.796875 1,-1.046875 2.46875,-1.046875 0.79687,0 1.92187,0.5625 0,-2.96875 -0.0937,-3.640625 l -0.0312,-0.21875 -1.03125,-0.296875 -0.0312,-0.421875 q 1.03125,0 2.10938,-0.296875 l 0.3125,0.15625 q -0.0312,2 -0.0312,5.671875 0,3.65625 0.0312,4.1875 0.0312,0.515625 0.125,0.65625 0.10937,0.140625 0.32812,0.203125 0.32813,0.09375 0.78125,0.125 l -0.0469,0.46875 q -0.57813,0.04687 -1.75,0.28125 -0.48438,-0.203125 -0.65625,-0.953125 z m -1.51563,-5.515625 q -1.26562,0 -1.875,0.828125 -0.59375,0.828125 -0.59375,2.046875 0,1.21875 0.53125,1.953125 0.53125,0.71875 1.5,0.71875 0.98438,0 1.85938,-0.5625 0.0781,-1.28125 0.0781,-4.6875 -0.82812,-0.296875 -1.5,-0.296875 z m 8.84467,3.046875 q -1.3125,0.03125 -2,0.5 -0.6875,0.453125 -0.6875,1 0,0.546875 0.28125,0.796875 0.28125,0.25 0.90625,0.25 0.625,0 1.5,-0.53125 z m 1.17187,3.5 q -0.96875,0 -1.125,-1.03125 -1.40625,1.03125 -2.4375,1.03125 -0.6875,0 -1.17187,-0.421875 -0.46875,-0.421875 -0.46875,-1.3125 0,-0.90625 0.95312,-1.625 0.95313,-0.71875 3.07813,-0.859375 V 79.83483 q 0,-0.453125 -0.32813,-0.6875 -0.32812,-0.25 -0.92187,-0.25 -0.59375,0 -0.95313,0.328125 -0.34375,0.328125 -0.34375,0.84375 0,0.1875 0.0469,0.4375 l -0.34375,0.15625 q -0.32813,-0.171875 -0.60938,-0.46875 -0.28125,-0.3125 -0.28125,-0.453125 0,-0.140625 0.21875,-0.390625 0.21875,-0.265625 0.57813,-0.5625 0.375,-0.3125 0.98437,-0.53125 0.625,-0.21875 1.39063,-0.21875 0.76562,0 1.25,0.375 0.48437,0.375 0.48437,1.359375 0,0.984375 0.0937,4.15625 0.0156,0.765625 0.57813,0.765625 0.23437,0 0.48437,-0.125 l 0.17188,0.40625 q -0.60938,0.5625 -1.32813,0.5625 z m 4.60889,0 q -1.67188,0 -1.67188,-1.59375 0.0156,-1.40625 0.0156,-2.578125 0,-1.1875 -0.0312,-2.46875 l -1.01563,0.01563 -0.0469,-0.171875 0.35937,-0.625 q 0.21875,0.04687 0.67188,0.0625 l -0.0625,-1.46875 1.0625,-0.9375 0.29687,0.140625 q -0.0312,1.1875 -0.0312,2.25 l 2.35938,-0.01563 0.0781,0.1875 -0.57812,0.640625 q -0.54688,-0.0625 -1.85938,-0.07813 v 2.140625 q 0,2 0.0469,2.875 0.0469,0.71875 0.84375,0.71875 0.64062,0 1.40625,-0.375 l 0.20312,0.53125 q -1.14062,0.75 -2.04687,0.75 z m 6.76324,-3.5 q -1.3125,0.03125 -2,0.5 -0.6875,0.453125 -0.6875,1 0,0.546875 0.28125,0.796875 0.28125,0.25 0.90625,0.25 0.625,0 1.5,-0.53125 z m 1.17188,3.5 q -0.96875,0 -1.125,-1.03125 -1.40625,1.03125 -2.4375,1.03125 -0.6875,0 -1.17188,-0.421875 -0.46875,-0.421875 -0.46875,-1.3125 0,-0.90625 0.95313,-1.625 0.95312,-0.71875 3.07812,-0.859375 V 79.83483 q 0,-0.453125 -0.32812,-0.6875 -0.32813,-0.25 -0.92188,-0.25 -0.59375,0 -0.95312,0.328125 -0.34375,0.328125 -0.34375,0.84375 0,0.1875 0.0469,0.4375 l -0.34375,0.15625 q -0.32812,-0.171875 -0.60937,-0.46875 -0.28125,-0.3125 -0.28125,-0.453125 0,-0.140625 0.21875,-0.390625 0.21875,-0.265625 0.57812,-0.5625 0.375,-0.3125 0.98438,-0.53125 0.625,-0.21875 1.39062,-0.21875 0.76563,0 1.25,0.375 0.48438,0.375 0.48438,1.359375 0,0.984375 0.0937,4.15625 0.0156,0.765625 0.57812,0.765625 0.23438,0 0.48438,-0.125 l 0.17187,0.40625 q -0.60937,0.5625 -1.32812,0.5625 z"
       id="path3908"
       style="fill:#000000;fill-rule:nonzero" />
    <path
       d="m 43.2078,58.99316 h 241.88977 v 41.76378 H 43.2078 Z"
       id="path3898"
       style="fill:#d5a6bd;fill-rule:evenodd" />
    <path
       d="m 43.2078,58.99316 h 241.88977 v 41.76378 H 43.2078 Z"
       id="path3900"
       style="fill-rule:evenodd;stroke:#000000;stroke-width:1;stroke-linecap:butt;stroke-linejoin:round" />
    <path
       d="m 101.62817,82.759415 q 1.5,0 2.45313,-0.609375 0.96875,-0.625 1.28125,-1.671875 l 0.4375,0.1875 q -0.17188,0.578125 -0.375,2.140625 -1.95313,0.734375 -3.84375,0.734375 -2.625001,0 -4.171876,-1.421875 -1.53125,-1.4375 -1.53125,-3.984375 0,-2.546875 1.515625,-4.21875 1.53125,-1.671875 4.171871,-1.671875 0.73438,0 1.64063,0.125 0.92187,0.125 1.25,0.125 0.34375,0 0.71875,-0.09375 v 0.234375 q 0,1.171875 0.1875,2.25 l -0.42188,0.203125 q -0.64062,-2.109375 -3.39062,-2.109375 -1.609376,0 -2.750001,1.140625 -0.578125,0.5625 -0.90625,1.5 -0.328125,0.921875 -0.328125,1.984375 0,1.0625 0.21875,1.9375 0.21875,0.859375 0.6875,1.59375 0.46875,0.734375 1.28125,1.1875 0.812496,0.4375 1.874996,0.4375 z m 9.79378,-6.859375 q 0.125,0 0.42188,0.375 0.29687,0.375 0.39062,0.734375 l -0.23437,0.3125 q -0.57813,-0.21875 -1.20313,-0.21875 -0.625,0 -1.14062,0.515625 -0.51563,0.515625 -0.51563,1.671875 0.0156,2.8125 0.14063,3.28125 0.0156,0.125 0.45312,0.234375 0.45313,0.09375 0.9375,0.125 l -0.0625,0.46875 q -0.76562,-0.04687 -1.9375,-0.04687 -1.17187,0 -1.9375,0.04687 l 0.0469,-0.46875 q 0.3125,-0.03125 0.65625,-0.125 0.35937,-0.109375 0.375,-0.21875 0.125,-0.5625 0.125,-2.25 0,-2.71875 -0.125,-3.328125 l -1.01563,-0.296875 -0.0312,-0.421875 q 1.01563,0 2.10938,-0.28125 l 0.29687,0.140625 q -0.0312,0.25 -0.0312,1.3125 0.46875,-0.765625 1.17188,-1.15625 0.71875,-0.40625 1.10937,-0.40625 z m 6.32889,2.328125 q 0,-0.734375 -0.42188,-1.09375 -0.40625,-0.359375 -0.92187,-0.359375 -0.75,0 -1.29688,0.59375 -0.54687,0.59375 -0.71875,1.453125 l 3.3125,-0.125 q 0.0469,-0.234375 0.0469,-0.46875 z m -1.39063,5.265625 q -1.70312,0 -2.5625,-0.96875 -0.85937,-0.96875 -0.85937,-2.578125 0,-1.609375 0.95312,-2.78125 0.95313,-1.171875 2.875,-1.171875 0.96875,0 1.6875,0.6875 0.73438,0.6875 0.73438,2.046875 l -0.54688,0.65625 q -0.0937,-0.01563 -1.51562,-0.01563 -1.40625,0 -2.82813,0.109375 v 0.140625 q 0,1.46875 0.60938,2.203125 0.60937,0.71875 1.65625,0.71875 1.0625,0 2.23437,-0.515625 l 0.1875,0.484375 q -1.23437,0.984375 -2.625,0.984375 z m 9.35964,-1.03125 q -1.10938,1.03125 -2.42188,1.03125 -1.3125,0 -2.15625,-0.953125 -0.82812,-0.953125 -0.82812,-2.71875 0,-1.765625 1,-2.796875 1,-1.046875 2.46875,-1.046875 0.79687,0 1.92187,0.5625 0,-2.96875 -0.0937,-3.640625 l -0.0312,-0.21875 -1.03125,-0.296875 -0.0312,-0.421875 q 1.03125,0 2.10938,-0.296875 l 0.3125,0.15625 q -0.0312,2 -0.0312,5.671875 0,3.65625 0.0312,4.1875 0.0312,0.515625 0.125,0.65625 0.10937,0.140625 0.32812,0.203125 0.32813,0.09375 0.78125,0.125 l -0.0469,0.46875 q -0.57813,0.04687 -1.75,0.28125 -0.48438,-0.203125 -0.65625,-0.953125 z m -1.51563,-5.515625 q -1.26562,0 -1.875,0.828125 -0.59375,0.828125 -0.59375,2.046875 0,1.21875 0.53125,1.953125 0.53125,0.71875 1.5,0.71875 0.98438,0 1.85938,-0.5625 0.0781,-1.28125 0.0781,-4.6875 -0.82812,-0.296875 -1.5,-0.296875 z m 9.59465,1.28125 q 0,-0.734375 -0.42187,-1.09375 -0.40625,-0.359375 -0.92188,-0.359375 -0.75,0 -1.29687,0.59375 -0.54688,0.59375 -0.71875,1.453125 l 3.3125,-0.125 q 0.0469,-0.234375 0.0469,-0.46875 z m -1.39062,5.265625 q -1.70313,0 -2.5625,-0.96875 -0.85938,-0.96875 -0.85938,-2.578125 0,-1.609375 0.95313,-2.78125 0.95312,-1.171875 2.875,-1.171875 0.96875,0 1.6875,0.6875 0.73437,0.6875 0.73437,2.046875 l -0.54687,0.65625 q -0.0937,-0.01563 -1.51563,-0.01563 -1.40625,0 -2.82812,0.109375 v 0.140625 q 0,1.46875 0.60937,2.203125 0.60938,0.71875 1.65625,0.71875 1.0625,0 2.23438,-0.515625 l 0.1875,0.484375 q -1.23438,0.984375 -2.625,0.984375 z m 6.09401,-6.015625 -0.0156,2.21875 q 0,2.0625 0.125,2.6875 l 0.0312,0.203125 q 0.0156,0.109375 0.35938,0.21875 0.34375,0.09375 0.67187,0.125 l -0.0469,0.46875 q -0.76563,-0.04687 -1.76563,-0.04687 -0.98437,0 -1.75,0.04687 l 0.0469,-0.46875 q 0.29687,-0.03125 0.64062,-0.125 0.34375,-0.109375 0.35938,-0.21875 0.125,-0.5625 0.125,-2.25 0,-2.71875 -0.125,-3.328125 l -1.01563,-0.296875 -0.0312,-0.421875 q 1.01563,0 2.10938,-0.28125 l 0.29687,0.140625 v 0.765625 q 1.78125,-0.921875 3.09375,-0.921875 0.79688,0 1.20313,0.328125 0.42187,0.3125 0.42187,1.1875 v 2.1875 q 0,2.0625 0.10938,2.6875 l 0.0469,0.203125 q 0.0312,0.109375 0.375,0.21875 0.34375,0.09375 0.65625,0.125 l -0.0469,0.46875 q -0.76563,-0.04687 -1.76563,-0.04687 -0.98437,0 -1.75,0.04687 l 0.0469,-0.46875 q 0.29687,-0.03125 0.64062,-0.125 0.34375,-0.109375 0.35938,-0.21875 0.125,-0.5625 0.125,-2.890625 v -1.5625 q 0,-0.625 -0.375,-0.859375 -0.35938,-0.234375 -1.23438,-0.234375 -0.875,0 -1.92187,0.4375 z m 9.31939,6.015625 q -1.67187,0 -1.67187,-1.59375 0.0156,-1.40625 0.0156,-2.578125 0,-1.1875 -0.0312,-2.46875 l -1.01562,0.01563 -0.0469,-0.171875 0.35938,-0.625 q 0.21875,0.04687 0.67187,0.0625 l -0.0625,-1.46875 1.0625,-0.9375 0.29688,0.140625 q -0.0312,1.1875 -0.0312,2.25 l 2.35937,-0.01563 0.0781,0.1875 -0.57813,0.640625 q -0.54687,-0.0625 -1.85937,-0.07813 v 2.140625 q 0,2 0.0469,2.875 0.0469,0.71875 0.84375,0.71875 0.64063,0 1.40625,-0.375 l 0.20313,0.53125 q -1.14063,0.75 -2.04688,0.75 z m 4.91951,-9.390625 q -0.23437,0.234375 -0.59375,0.234375 -0.34375,0 -0.59375,-0.234375 -0.23437,-0.25 -0.23437,-0.609375 0,-0.359375 0.23437,-0.59375 0.25,-0.25 0.59375,-0.25 0.35938,0 0.59375,0.25 0.25,0.234375 0.25,0.59375 0,0.359375 -0.25,0.609375 z m 0.0625,2.046875 -0.0312,3.546875 q 0,2.0625 0.125,2.6875 l 0.0469,0.203125 q 0.0156,0.109375 0.40625,0.21875 0.39062,0.09375 0.71875,0.125 l -0.0469,0.46875 q -0.76562,-0.04687 -1.875,-0.04687 -1.09375,0 -1.85937,0.04687 l 0.0469,-0.46875 q 0.32813,-0.03125 0.70313,-0.125 0.39062,-0.109375 0.40625,-0.21875 0.125,-0.5625 0.125,-2.25 0,-2.71875 -0.125,-3.328125 l -1.01563,-0.296875 -0.0312,-0.421875 q 1.01563,0 2.10938,-0.28125 z m 6.18126,3.84375 q -1.3125,0.03125 -2,0.5 -0.6875,0.453125 -0.6875,1 0,0.546875 0.28125,0.796875 0.28125,0.25 0.90625,0.25 0.625,0 1.5,-0.53125 z m 1.17188,3.5 q -0.96875,0 -1.125,-1.03125 -1.40625,1.03125 -2.4375,1.03125 -0.6875,0 -1.17188,-0.421875 -0.46875,-0.421875 -0.46875,-1.3125 0,-0.90625 0.95313,-1.625 0.95312,-0.71875 3.07812,-0.859375 v -1.484375 q 0,-0.453125 -0.32812,-0.6875 -0.32813,-0.25 -0.92188,-0.25 -0.59375,0 -0.95312,0.328125 -0.34375,0.328125 -0.34375,0.84375 0,0.1875 0.0469,0.4375 l -0.34375,0.15625 q -0.32812,-0.171875 -0.60937,-0.46875 -0.28125,-0.3125 -0.28125,-0.453125 0,-0.140625 0.21875,-0.390625 0.21875,-0.265625 0.57812,-0.5625 0.375,-0.3125 0.98438,-0.53125 0.625,-0.21875 1.39062,-0.21875 0.76563,0 1.25,0.375 0.48438,0.375 0.48438,1.359375 0,0.984375 0.0937,4.15625 0.0156,0.765625 0.57812,0.765625 0.23438,0 0.48438,-0.125 l 0.17187,0.40625 q -0.60937,0.5625 -1.32812,0.5625 z m 4.28076,-11.671875 q -0.0312,2 -0.0312,5.859375 0,3.84375 0.17188,4.90625 0.0156,0.109375 0.42187,0.21875 0.40625,0.109375 0.70313,0.125 l -0.0469,0.46875 q -0.76562,-0.04687 -1.85937,-0.04687 -1.07813,0 -1.85938,0.04687 l 0.0625,-0.46875 q 0.32813,-0.03125 0.70313,-0.125 0.375,-0.109375 0.39062,-0.21875 0.10938,-1.046875 0.10938,-4 0,-4.8125 -0.0937,-5.640625 l -0.0312,-0.265625 -1.01563,-0.296875 -0.0312,-0.421875 q 1.01563,0 2.10938,-0.296875 z m 8.68015,3.109375 q -0.17188,4 -0.17188,5.640625 l 0.0625,1.671875 q 0.0469,0.390625 0.84375,0.5625 0.1875,0.03125 0.65625,0.125 l -0.0469,0.46875 q -1.01563,-0.04687 -2.20313,-0.04687 -1.17187,0 -1.84375,0.04687 l -0.0469,-0.46875 q 0.76562,-0.15625 1.04687,-0.28125 0.29688,-0.125 0.32813,-0.40625 0.3125,-2.59375 0.3125,-6.625 l -0.0625,-2.125 q -0.0312,-0.28125 -0.29688,-0.40625 -0.25,-0.125 -1.01562,-0.28125 l 0.0469,-0.46875 q 1.01563,0.0625 2.78125,0.0625 l 3.8125,9.4375 3.8125,-9.4375 q 1.8125,0 2.82813,-0.0625 l 0.0469,0.46875 q -0.76562,0.15625 -1.03125,0.28125 -0.25,0.125 -0.29687,0.4375 -0.0469,0.296875 -0.0469,1.046875 0,0.75 0.0781,3.3125 0.15625,3.171875 0.25,4.0625 l 0.0469,0.296875 q 0.0312,0.296875 0.29688,0.421875 0.26562,0.109375 1.0625,0.265625 l -0.0625,0.46875 q -1,-0.04687 -2.1875,-0.04687 -1.1875,0 -2.1875,0.04687 l -0.0469,-0.46875 q 0.82813,-0.15625 1.125,-0.28125 0.29688,-0.125 0.29688,-0.40625 0.0156,-0.515625 0.0156,-2.265625 0,-1.75 -0.20312,-5.046875 h -0.0937 l -3.4375,8.40625 -0.98438,0.171875 -3.42187,-8.578125 z m 17.03326,3.296875 q 0,-0.734375 -0.42188,-1.09375 -0.40625,-0.359375 -0.92187,-0.359375 -0.75,0 -1.29688,0.59375 -0.54687,0.59375 -0.71875,1.453125 l 3.3125,-0.125 q 0.0469,-0.234375 0.0469,-0.46875 z m -1.39063,5.265625 q -1.70312,0 -2.5625,-0.96875 -0.85937,-0.96875 -0.85937,-2.578125 0,-1.609375 0.95312,-2.78125 0.95313,-1.171875 2.875,-1.171875 0.96875,0 1.6875,0.6875 0.73438,0.6875 0.73438,2.046875 l -0.54688,0.65625 q -0.0937,-0.01563 -1.51562,-0.01563 -1.40625,0 -2.82813,0.109375 v 0.140625 q 0,1.46875 0.60938,2.203125 0.60937,0.71875 1.65625,0.71875 1.0625,0 2.23437,-0.515625 l 0.1875,0.484375 q -1.23437,0.984375 -2.625,0.984375 z m 6.4534,0 q -1.67187,0 -1.67187,-1.59375 0.0156,-1.40625 0.0156,-2.578125 0,-1.1875 -0.0312,-2.46875 l -1.01562,0.01563 -0.0469,-0.171875 0.35938,-0.625 q 0.21875,0.04687 0.67187,0.0625 l -0.0625,-1.46875 1.0625,-0.9375 0.29688,0.140625 q -0.0312,1.1875 -0.0312,2.25 l 2.35937,-0.01563 0.0781,0.1875 -0.57813,0.640625 q -0.54687,-0.0625 -1.85937,-0.07813 v 2.140625 q 0,2 0.0469,2.875 0.0469,0.71875 0.84375,0.71875 0.64063,0 1.40625,-0.375 l 0.20313,0.53125 q -1.14063,0.75 -2.04688,0.75 z m 6.76325,-3.5 q -1.3125,0.03125 -2,0.5 -0.6875,0.453125 -0.6875,1 0,0.546875 0.28125,0.796875 0.28125,0.25 0.90625,0.25 0.625,0 1.5,-0.53125 z m 1.17187,3.5 q -0.96875,0 -1.125,-1.03125 -1.40625,1.03125 -2.4375,1.03125 -0.6875,0 -1.17187,-0.421875 -0.46875,-0.421875 -0.46875,-1.3125 0,-0.90625 0.95312,-1.625 0.95313,-0.71875 3.07813,-0.859375 v -1.484375 q 0,-0.453125 -0.32813,-0.6875 -0.32812,-0.25 -0.92187,-0.25 -0.59375,0 -0.95313,0.328125 -0.34375,0.328125 -0.34375,0.84375 0,0.1875 0.0469,0.4375 l -0.34375,0.15625 q -0.32813,-0.171875 -0.60938,-0.46875 -0.28125,-0.3125 -0.28125,-0.453125 0,-0.140625 0.21875,-0.390625 0.21875,-0.265625 0.57813,-0.5625 0.375,-0.3125 0.98437,-0.53125 0.625,-0.21875 1.39063,-0.21875 0.76562,0 1.25,0.375 0.48437,0.375 0.48437,1.359375 0,0.984375 0.0937,4.15625 0.0156,0.765625 0.57813,0.765625 0.23437,0 0.48437,-0.125 l 0.17188,0.40625 q -0.60938,0.5625 -1.32813,0.5625 z m 7.51514,-1.03125 q -1.10937,1.03125 -2.42187,1.03125 -1.3125,0 -2.15625,-0.953125 -0.82813,-0.953125 -0.82813,-2.71875 0,-1.765625 1,-2.796875 1,-1.046875 2.46875,-1.046875 0.79688,0 1.92188,0.5625 0,-2.96875 -0.0937,-3.640625 l -0.0312,-0.21875 -1.03125,-0.296875 -0.0312,-0.421875 q 1.03125,0 2.10937,-0.296875 l 0.3125,0.15625 q -0.0312,2 -0.0312,5.671875 0,3.65625 0.0312,4.1875 0.0312,0.515625 0.125,0.65625 0.10938,0.140625 0.32813,0.203125 0.32812,0.09375 0.78125,0.125 l -0.0469,0.46875 q -0.57812,0.04687 -1.75,0.28125 -0.48437,-0.203125 -0.65625,-0.953125 z m -1.51562,-5.515625 q -1.26563,0 -1.875,0.828125 -0.59375,0.828125 -0.59375,2.046875 0,1.21875 0.53125,1.953125 0.53125,0.71875 1.5,0.71875 0.98437,0 1.85937,-0.5625 0.0781,-1.28125 0.0781,-4.6875 -0.82813,-0.296875 -1.5,-0.296875 z m 8.84466,3.046875 q -1.3125,0.03125 -2,0.5 -0.6875,0.453125 -0.6875,1 0,0.546875 0.28125,0.796875 0.28125,0.25 0.90625,0.25 0.625,0 1.5,-0.53125 z m 1.17188,3.5 q -0.96875,0 -1.125,-1.03125 -1.40625,1.03125 -2.4375,1.03125 -0.6875,0 -1.17188,-0.421875 -0.46875,-0.421875 -0.46875,-1.3125 0,-0.90625 0.95313,-1.625 0.95312,-0.71875 3.07812,-0.859375 v -1.484375 q 0,-0.453125 -0.32812,-0.6875 -0.32813,-0.25 -0.92188,-0.25 -0.59375,0 -0.95312,0.328125 -0.34375,0.328125 -0.34375,0.84375 0,0.1875 0.0469,0.4375 l -0.34375,0.15625 q -0.32812,-0.171875 -0.60937,-0.46875 -0.28125,-0.3125 -0.28125,-0.453125 0,-0.140625 0.21875,-0.390625 0.21875,-0.265625 0.57812,-0.5625 0.375,-0.3125 0.98438,-0.53125 0.625,-0.21875 1.39062,-0.21875 0.76563,0 1.25,0.375 0.48438,0.375 0.48438,1.359375 0,0.984375 0.0937,4.15625 0.0156,0.765625 0.57812,0.765625 0.23438,0 0.48438,-0.125 l 0.17187,0.40625 q -0.60937,0.5625 -1.32812,0.5625 z m 4.60888,0 q -1.67187,0 -1.67187,-1.59375 0.0156,-1.40625 0.0156,-2.578125 0,-1.1875 -0.0312,-2.46875 l -1.01562,0.01563 -0.0469,-0.171875 0.35938,-0.625 q 0.21875,0.04687 0.67187,0.0625 l -0.0625,-1.46875 1.0625,-0.9375 0.29688,0.140625 q -0.0312,1.1875 -0.0312,2.25 l 2.35937,-0.01563 0.0781,0.1875 -0.57813,0.640625 q -0.54687,-0.0625 -1.85937,-0.07813 v 2.140625 q 0,2 0.0469,2.875 0.0469,0.71875 0.84375,0.71875 0.64063,0 1.40625,-0.375 l 0.20313,0.53125 q -1.14063,0.75 -2.04688,0.75 z m 6.76325,-3.5 q -1.3125,0.03125 -2,0.5 -0.6875,0.453125 -0.6875,1 0,0.546875 0.28125,0.796875 0.28125,0.25 0.90625,0.25 0.625,0 1.5,-0.53125 z m 1.17187,3.5 q -0.96875,0 -1.125,-1.03125 -1.40625,1.03125 -2.4375,1.03125 -0.6875,0 -1.17187,-0.421875 -0.46875,-0.421875 -0.46875,-1.3125 0,-0.90625 0.95312,-1.625 0.95313,-0.71875 3.07813,-0.859375 v -1.484375 q 0,-0.453125 -0.32813,-0.6875 -0.32812,-0.25 -0.92187,-0.25 -0.59375,0 -0.95313,0.328125 -0.34375,0.328125 -0.34375,0.84375 0,0.1875 0.0469,0.4375 l -0.34375,0.15625 q -0.32813,-0.171875 -0.60938,-0.46875 -0.28125,-0.3125 -0.28125,-0.453125 0,-0.140625 0.21875,-0.390625 0.21875,-0.265625 0.57813,-0.5625 0.375,-0.3125 0.98437,-0.53125 0.625,-0.21875 1.39063,-0.21875 0.76562,0 1.25,0.375 0.48437,0.375 0.48437,1.359375 0,0.984375 0.0937,4.15625 0.0156,0.765625 0.57813,0.765625 0.23437,0 0.48437,-0.125 l 0.17188,0.40625 q -0.60938,0.5625 -1.32813,0.5625 z"
       id="path3902"
       style="fill:#000000;fill-rule:nonzero" />
  </g>
  <g
     transform="translate(2.1404682,0.80267559)"
     aria-label="Proof"
     style="font-style:normal;font-variant:normal;font-weight:normal;font-stretch:normal;font-size:16px;line-height:1.25;font-family:'Abyssinica SIL';-inkscape-font-specification:'Abyssinica SIL';letter-spacing:0px;word-spacing:0px;fill:#000000;fill-opacity:1;stroke:none"
     id="text3986">
    <path
       d="m 184.31548,174.22598 q 0,0.24219 -0.10157,0.40625 -0.0937,0.15625 -0.22656,0.25782 -0.125,0.0937 -0.25,0.14062 -0.11719,0.0469 -0.16406,0.0547 -0.0156,-0.0156 -0.13281,-0.0937 -0.10938,-0.0859 -0.27344,-0.19531 -0.15625,-0.11719 -0.34375,-0.24219 -0.17969,-0.125 -0.33594,-0.23438 -0.15625,-0.11718 -0.26562,-0.1875 -0.10938,-0.0781 -0.11719,-0.0859 -0.17188,0.0937 -0.34375,0.26562 -0.16406,0.17188 -0.30469,0.46094 -0.13281,0.28906 -0.21875,0.70312 -0.0781,0.40625 -0.0781,0.96875 v 1.02344 h 1.98437 v 0.82031 h -1.98437 v 5.74219 q 0,0.14844 0.0937,0.25 0.10156,0.0937 0.24218,0.10156 l 0.94532,0.0469 v 0.625 h -3.89063 v -0.625 l 0.78906,-0.0469 q 0.14063,-0.0156 0.23438,-0.10937 0.10156,-0.0937 0.10156,-0.24219 v -5.74219 h -1.02344 v -0.5625 l 1.02344,-0.28906 q 0,-0.39844 0.0234,-0.71094 0.0312,-0.32031 0.0937,-0.59375 0.0703,-0.28125 0.17187,-0.53906 0.10157,-0.26562 0.25,-0.55469 0.23438,-0.45312 0.53907,-0.78125 0.3125,-0.33593 0.66406,-0.55468 0.35937,-0.21875 0.74219,-0.32813 0.39062,-0.10937 0.78125,-0.10937 0.33593,0 0.59375,0.0781 0.25781,0.0781 0.42968,0.21094 0.17969,0.13281 0.26563,0.30469 0.0859,0.17187 0.0859,0.36718 z m -6.78907,6.98438 q 0,0.85156 -0.27343,1.59375 -0.26563,0.73437 -0.76563,1.28125 -0.49219,0.53906 -1.20312,0.85156 -0.70313,0.3125 -1.57813,0.3125 -0.875,0 -1.57812,-0.30469 -0.70313,-0.3125 -1.19532,-0.85156 -0.49218,-0.53906 -0.75781,-1.27344 -0.25781,-0.74218 -0.25781,-1.60937 0,-0.85156 0.26562,-1.59375 0.26563,-0.74219 0.76563,-1.28906 0.5,-0.55469 1.20312,-0.86719 0.71094,-0.3125 1.60157,-0.3125 0.89062,0 1.59375,0.32031 0.70312,0.32031 1.1875,0.875 0.48437,0.54688 0.73437,1.28906 0.25781,0.73438 0.25781,1.57813 z m -1.66406,-0.0156 q 0,-0.65625 -0.13281,-1.25781 -0.125,-0.60156 -0.39063,-1.0625 -0.26562,-0.46094 -0.66406,-0.73437 -0.39844,-0.27344 -0.9375,-0.27344 -0.55469,0 -0.96094,0.27344 -0.40625,0.27343 -0.67187,0.73437 -0.25781,0.46094 -0.38281,1.0625 -0.125,0.60156 -0.125,1.25781 0,0.64844 0.125,1.25 0.13281,0.60157 0.39843,1.0625 0.26563,0.46094 0.66407,0.74219 0.39843,0.27344 0.9375,0.27344 0.54687,0 0.95312,-0.27344 0.40625,-0.27344 0.66406,-0.73437 0.26563,-0.46094 0.39063,-1.0625 0.13281,-0.60157 0.13281,-1.25782 z m -7.05469,0.0156 q 0,0.85156 -0.27343,1.59375 -0.26563,0.73437 -0.76563,1.28125 -0.49219,0.53906 -1.20312,0.85156 -0.70313,0.3125 -1.57813,0.3125 -0.875,0 -1.57812,-0.30469 -0.70313,-0.3125 -1.19532,-0.85156 -0.49218,-0.53906 -0.75781,-1.27344 -0.25781,-0.74218 -0.25781,-1.60937 0,-0.85156 0.26562,-1.59375 0.26563,-0.74219 0.76563,-1.28906 0.5,-0.55469 1.20312,-0.86719 0.71094,-0.3125 1.60157,-0.3125 0.89062,0 1.59375,0.32031 0.70312,0.32031 1.1875,0.875 0.48437,0.54688 0.73437,1.28906 0.25781,0.73438 0.25781,1.57813 z m -1.66406,-0.0156 q 0,-0.65625 -0.13281,-1.25781 -0.125,-0.60156 -0.39063,-1.0625 -0.26562,-0.46094 -0.66406,-0.73437 -0.39844,-0.27344 -0.9375,-0.27344 -0.55469,0 -0.96094,0.27344 -0.40625,0.27343 -0.67187,0.73437 -0.25781,0.46094 -0.38281,1.0625 -0.125,0.60156 -0.125,1.25781 0,0.64844 0.125,1.25 0.13281,0.60157 0.39843,1.0625 0.26563,0.46094 0.66407,0.74219 0.39843,0.27344 0.9375,0.27344 0.54687,0 0.95312,-0.27344 0.40625,-0.27344 0.66406,-0.73437 0.26563,-0.46094 0.39063,-1.0625 0.13281,-0.60157 0.13281,-1.25782 z m -7.27344,-2.21878 q -0.15625,-0.17968 -0.35937,-0.30468 -0.20313,-0.13282 -0.5,-0.13282 -0.39063,0 -0.78906,0.26563 -0.39844,0.25781 -0.8125,0.72656 v 4.5 q 0,0.14844 0.0937,0.25 0.0937,0.0937 0.24218,0.10156 l 1.05469,0.0469 v 0.625 h -4 v -0.60938 l 0.78906,-0.0625 q 0.14063,-0.0156 0.23438,-0.10937 0.10156,-0.0937 0.10156,-0.24219 V 178.476 h -1.15625 v -0.52343 l 1.98438,-0.60938 h 0.65625 v 1.42188 q 0.17187,-0.1875 0.41406,-0.46094 0.25,-0.28125 0.53125,-0.53906 0.28125,-0.25782 0.57812,-0.4375 0.30469,-0.17969 0.58594,-0.17969 0.125,0 0.26563,0.0234 0.14062,0.0234 0.27343,0.0625 0.13282,0.0312 0.24219,0.0781 0.11719,0.0391 0.19531,0.0781 v 1.58593 z m -6.10937,-1.42968 q 0,0.88281 -0.32813,1.53906 -0.32031,0.64844 -0.88281,1.08594 -0.55469,0.4375 -1.3125,0.65625 -0.75,0.21093 -1.60937,0.21093 h -0.0469 q -0.15625,0 -0.34375,-0.008 -0.17969,-0.008 -0.35156,-0.0156 -0.16406,-0.0156 -0.28906,-0.0234 -0.11719,-0.008 -0.14844,-0.0156 v 2.97657 q 0,0.11718 0.0781,0.22656 0.0859,0.10937 0.25782,0.125 l 1.05468,0.0625 v 0.6875 h -4.20312 v -0.6875 l 0.84375,-0.0625 q 0.17187,-0.0156 0.25781,-0.125 0.0937,-0.10938 0.0937,-0.22656 v -8.53125 q 0,-0.11719 -0.0937,-0.22657 -0.0859,-0.10937 -0.25781,-0.125 l -0.96094,-0.0625 v -0.6875 h 3.82813 q 1.13281,0 1.96093,0.17188 0.83594,0.17187 1.375,0.55469 0.54688,0.38281 0.8125,1 0.26563,0.60937 0.26563,1.5 z m -1.66406,0.0234 q 0,-0.58593 -0.15625,-1.03906 -0.15625,-0.46094 -0.5,-0.77344 -0.33594,-0.32031 -0.875,-0.48437 -0.53907,-0.17188 -1.30469,-0.17188 -0.10938,0 -0.25,0.008 -0.14063,0 -0.26563,0 -0.14062,0.008 -0.29687,0.008 v 5.03906 q 0.0156,0 0.11719,0.0156 0.10156,0.008 0.23437,0.0312 0.13281,0.0156 0.28125,0.0312 0.14844,0.008 0.26563,0.008 h 0.0469 q 0.61719,0 1.11719,-0.15625 0.5,-0.16406 0.85156,-0.49219 0.35156,-0.32812 0.53906,-0.82812 0.19532,-0.50782 0.19532,-1.19532 z"
       id="path84" />
  </g>
</svg>
