<?xml version="1.0" standalone="yes"?>

<svg version="1.1" viewBox="0.0 0.0 335.78477690288713 287.1679790026247" fill="none" stroke="none" stroke-linecap="square" stroke-miterlimit="10" xmlns:xlink="http://www.w3.org/1999/xlink" xmlns="http://www.w3.org/2000/svg"><clipPath id="p.0"><path d="m0 0l335.7848 0l0 287.16797l-335.7848 0l0 -287.16797z" clip-rule="nonzero"/></clipPath><g clip-path="url(#p.0)"><path fill="#000000" fill-opacity="0.0" d="m0 0l335.7848 0l0 287.16797l-335.7848 0z" fill-rule="evenodd"/><path fill="#b4a7d6" d="m28.582678 43.349834l0 0c0 -20.7756 16.841951 -37.61755 37.617546 -37.61755l203.59955 0c9.976807 0 19.544952 3.9632664 26.59961 11.017924c7.0546875 7.054661 11.017944 16.622831 11.017944 26.599627l0 150.46568c0 20.775604 -16.84195 37.617554 -37.617554 37.617554l-203.59955 0l0 0c-20.775597 0 -37.617546 -16.84195 -37.617546 -37.617554z" fill-rule="evenodd"/><path stroke="#000000" stroke-width="1.0" stroke-linejoin="round" stroke-linecap="butt" d="m28.582678 43.349834l0 0c0 -20.7756 16.841951 -37.61755 37.617546 -37.61755l203.59955 0c9.976807 0 19.544952 3.9632664 26.59961 11.017924c7.0546875 7.054661 11.017944 16.622831 11.017944 26.599627l0 150.46568c0 20.775604 -16.84195 37.617554 -37.617554 37.617554l-203.59955 0l0 0c-20.775597 0 -37.617546 -16.84195 -37.617546 -37.617554z" fill-rule="evenodd"/><path fill="#000000" d="m91.96814 43.670086l-3.296875 -13.875l3.234375 -0.125l1.859375 9.671875l1.9375 -9.546875l2.625 -0.125l-3.359375 14.0l-3.0 0zm10.975037 0.25q-1.875 0 -2.859375 -1.484375q-0.984375 -1.484375 -0.984375 -3.953125q0 -2.5 1.0 -3.96875q1.015625 -1.484375 2.9375 -1.484375q1.828125 0 2.796875 1.484375q0.96875 1.46875 0.96875 3.96875q0 0.15625 -0.0625 0.21875q-0.046875 0.0625 -0.046875 0.078125l-4.984375 0q0 1.21875 0.3125 2.21875q0.3125 1.0 0.96875 1.0q0.734375 0 1.078125 -0.84375q0.359375 -0.84375 0.375 -0.875l1.984375 0.734375q-0.390625 1.34375 -1.25 2.125q-0.859375 0.78125 -2.234375 0.78125zm1.28125 -6.65625q0 -1.109375 -0.296875 -1.765625q-0.296875 -0.65625 -0.9375 -0.65625q-0.3125 0 -0.609375 0.328125q-0.296875 0.3125 -0.484375 0.875q-0.1875 0.546875 -0.1875 1.21875l2.515625 0zm4.162094 -3.875l2.609375 -0.21875l0 1.6875q0.5625 -0.796875 1.390625 -1.28125q0.828125 -0.5 2.109375 -0.5l0 2.546875q-0.671875 0 -1.765625 0.234375q-1.078125 0.234375 -1.734375 0.8125l0 6.890625l-2.609375 0.21875l0 -10.390625zm7.5527496 -1.5625l0 -2.703125l2.609375 -0.1875l0 2.78125l-2.609375 0.109375zm-0.015625 11.953125l0 -10.390625l2.609375 -0.21875l0 10.390625l-2.609375 0.21875zm5.406601 -8.640625l-1.28125 0l0.09375 -1.96875l1.1875 0l0 -0.1875q0 -1.109375 0.140625 -1.78125q0.140625 -0.6875 0.703125 -1.140625q0.578125 -0.46875 1.765625 -0.46875q1.140625 0 1.78125 0.265625l0 1.578125l-0.578125 0q-0.75 0 -0.96875 0.40625q-0.21875 0.40625 -0.21875 1.140625l0 0.1875l1.859375 0l-0.125 1.96875l-1.734375 0l0 8.421875l-2.625 0.21875l0 -8.640625zm5.8214417 -3.3125l0 -2.703125l2.609375 -0.1875l0 2.78125l-2.609375 0.109375zm-0.015625 11.953125l0 -10.390625l2.609375 -0.21875l0 10.390625l-2.609375 0.21875zm6.625351 0.140625q-0.671875 0 -1.21875 -0.421875q-0.546875 -0.421875 -0.84375 -1.140625q-0.296875 -0.71875 -0.296875 -1.609375q0 -2.046875 1.390625 -2.875q1.390625 -0.828125 3.234375 -0.9375q0 -1.015625 -0.125 -1.5q-0.125 -0.484375 -0.640625 -0.484375q-0.421875 0 -0.65625 0.34375q-0.21875 0.328125 -0.265625 0.859375l-2.5625 -0.453125q0.1875 -1.4375 1.171875 -2.046875q1.0 -0.625 2.3125 -0.625q1.703125 0 2.546875 0.90625q0.859375 0.890625 0.859375 2.328125l0 5.421875q0 0.890625 0.28125 1.875l-2.5625 0.21875l-0.296875 -1.28125q-0.34375 0.59375 -1.0 1.015625q-0.640625 0.40625 -1.328125 0.40625zm1.203125 -1.875q0.328125 0 0.53125 -0.140625q0.21875 -0.15625 0.53125 -0.484375l0 -2.921875q-0.921875 0 -1.484375 0.515625q-0.5625 0.5 -0.5625 1.5625q0 0.703125 0.25 1.09375q0.25 0.375 0.734375 0.375zm10.724594 1.875q-1.03125 0 -1.546875 -0.421875q-0.5 -0.421875 -0.703125 -1.140625l-0.640625 1.421875l-1.96875 -0.21875l0 -13.546875l2.609375 -0.34375l0 4.84375q0.46875 -0.671875 1.171875 -1.078125q0.71875 -0.40625 1.5 -0.40625q1.203125 0 1.890625 1.28125q0.703125 1.28125 0.703125 4.109375q0 5.5 -3.015625 5.5zm-0.96875 -1.875q0.859375 0 1.109375 -0.90625q0.265625 -0.921875 0.265625 -2.71875q0 -1.25 -0.109375 -1.90625q-0.109375 -0.65625 -0.359375 -0.9375q-0.25 -0.296875 -0.734375 -0.296875q-0.328125 0 -0.78125 0.25q-0.453125 0.234375 -0.671875 0.453125l0 3.328125q0 1.484375 0.359375 2.109375q0.375 0.625 0.921875 0.625zm5.7889404 1.734375l0 -13.765625l2.609375 -0.34375l0 13.890625l-2.609375 0.21875zm8.234726 0.140625q-1.875 0 -2.859375 -1.484375q-0.984375 -1.484375 -0.984375 -3.953125q0 -2.5 1.0 -3.96875q1.015625 -1.484375 2.9375 -1.484375q1.828125 0 2.796875 1.484375q0.96875 1.46875 0.96875 3.96875q0 0.15625 -0.0625 0.21875q-0.046875 0.0625 -0.046875 0.078125l-4.984375 0q0 1.21875 0.3125 2.21875q0.3125 1.0 0.96875 1.0q0.734375 0 1.078125 -0.84375q0.359375 -0.84375 0.375 -0.875l1.984375 0.734375q-0.390625 1.34375 -1.25 2.125q-0.859375 0.78125 -2.234375 0.78125zm1.28125 -6.65625q0 -1.109375 -0.296875 -1.765625q-0.296875 -0.65625 -0.9375 -0.65625q-0.3125 0 -0.609375 0.328125q-0.296875 0.3125 -0.484375 0.875q-0.1875 0.546875 -0.1875 1.21875l2.515625 0zm12.682968 6.671875q-2.40625 0 -3.390625 -2.1875q-0.96875 -2.1875 -0.96875 -5.375q0 -1.71875 0.4375 -3.296875q0.453125 -1.59375 1.453125 -2.625q1.0 -1.03125 2.53125 -1.03125q1.171875 0 2.046875 0.734375q0.890625 0.71875 1.359375 1.890625q0.484375 1.15625 0.484375 2.421875l-2.640625 0.140625q0 -0.84375 -0.28125 -1.90625q-0.28125 -1.078125 -1.125 -1.078125q-0.875 0 -1.21875 1.40625q-0.328125 1.390625 -0.328125 3.34375q0 2.421875 0.375 3.890625q0.375 1.46875 1.4375 1.46875q0.75 0 1.0625 -0.890625q0.3125 -0.890625 0.40625 -2.15625l2.328125 0.234375q0 1.328125 -0.453125 2.484375q-0.4375 1.140625 -1.328125 1.84375q-0.890625 0.6875 -2.1875 0.6875zm5.769821 -10.546875l2.609375 -0.21875l0 1.6875q0.5625 -0.796875 1.390625 -1.28125q0.828125 -0.5 2.109375 -0.5l0 2.546875q-0.671875 0 -1.765625 0.234375q-1.078125 0.234375 -1.734375 0.8125l0 6.890625l-2.609375 0.21875l0 -10.390625zm10.880875 10.53125q-1.875 0 -2.859375 -1.484375q-0.984375 -1.484375 -0.984375 -3.953125q0 -2.5 1.0 -3.96875q1.015625 -1.484375 2.9375 -1.484375q1.828125 0 2.796875 1.484375q0.96875 1.46875 0.96875 3.96875q0 0.15625 -0.0625 0.21875q-0.046875 0.0625 -0.046875 0.078125l-4.984375 0q0 1.21875 0.3125 2.21875q0.3125 1.0 0.96875 1.0q0.734375 0 1.078125 -0.84375q0.359375 -0.84375 0.375 -0.875l1.984375 0.734375q-0.390625 1.34375 -1.25 2.125q-0.859375 0.78125 -2.234375 0.78125zm1.28125 -6.65625q0 -1.109375 -0.296875 -1.765625q-0.296875 -0.65625 -0.9375 -0.65625q-0.3125 0 -0.609375 0.328125q-0.296875 0.3125 -0.484375 0.875q-0.1875 0.546875 -0.1875 1.21875l2.515625 0zm6.708969 6.65625q-3.015625 0 -3.015625 -5.5q0 -2.84375 0.75 -4.109375q0.75 -1.28125 2.328125 -1.28125q0.671875 0 1.28125 0.453125q0.625 0.4375 0.90625 1.078125l0 -4.546875l2.625 -0.34375l0 13.890625l-1.984375 0.21875l-0.640625 -1.421875q-0.1875 0.703125 -0.703125 1.140625q-0.5 0.421875 -1.546875 0.421875zm0.984375 -1.875q0.546875 0 0.90625 -0.625q0.359375 -0.625 0.359375 -2.109375l0 -3.515625q-0.546875 -0.84375 -1.265625 -0.84375q-0.625 0 -0.921875 0.453125q-0.28125 0.4375 -0.375 1.140625q-0.078125 0.703125 -0.078125 1.875q0 1.203125 0.078125 1.953125q0.09375 0.734375 0.390625 1.203125q0.296875 0.46875 0.90625 0.46875zm9.47644 1.875q-1.875 0 -2.859375 -1.484375q-0.984375 -1.484375 -0.984375 -3.953125q0 -2.5 1.0 -3.96875q1.015625 -1.484375 2.9375 -1.484375q1.828125 0 2.796875 1.484375q0.96875 1.46875 0.96875 3.96875q0 0.15625 -0.0625 0.21875q-0.046875 0.0625 -0.046875 0.078125l-4.984375 0q0 1.21875 0.3125 2.21875q0.3125 1.0 0.96875 1.0q0.734375 0 1.078125 -0.84375q0.359375 -0.84375 0.375 -0.875l1.984375 0.734375q-0.390625 1.34375 -1.25 2.125q-0.859375 0.78125 -2.234375 0.78125zm1.28125 -6.65625q0 -1.109375 -0.296875 -1.765625q-0.296875 -0.65625 -0.9375 -0.65625q-0.3125 0 -0.609375 0.328125q-0.296875 0.3125 -0.484375 0.875q-0.1875 0.546875 -0.1875 1.21875l2.515625 0zm4.162094 -3.875l2.609375 -0.21875l0 1.34375q0.796875 -0.71875 1.5625 -1.09375q0.78125 -0.390625 1.4375 -0.390625q1.0 0 1.625 0.71875q0.625 0.71875 0.625 1.9375l0 7.875l-2.625 0.21875l0 -7.109375q0 -1.390625 -0.953125 -1.390625q-0.3125 0 -0.703125 0.1875q-0.375 0.1875 -0.96875 0.53125l0 7.5625l-2.609375 0.21875l0 -10.390625zm13.63385 10.484375q-1.265625 0 -2.140625 -0.640625q-0.875 -0.640625 -0.875 -2.28125l0 -5.8125l-1.453125 0l0.109375 -1.96875l1.40625 0l0.265625 -2.28125l2.28125 -0.3125l0 2.59375l2.15625 0l-0.109375 1.96875l-2.03125 0l0 5.78125q0 0.5625 0.28125 0.8125q0.28125 0.234375 0.8125 0.234375q0.3125 0 1.015625 -0.109375l0 1.8125q-0.078125 0.015625 -0.59375 0.109375q-0.515625 0.09375 -1.125 0.09375zm3.1537476 -12.046875l0 -2.703125l2.609375 -0.1875l0 2.78125l-2.609375 0.109375zm-0.015625 11.953125l0 -10.390625l2.609375 -0.21875l0 10.390625l-2.609375 0.21875zm6.625351 0.140625q-0.671875 0 -1.21875 -0.421875q-0.546875 -0.421875 -0.84375 -1.140625q-0.296875 -0.71875 -0.296875 -1.609375q0 -2.046875 1.390625 -2.875q1.390625 -0.828125 3.234375 -0.9375q0 -1.015625 -0.125 -1.5q-0.125 -0.484375 -0.640625 -0.484375q-0.421875 0 -0.65625 0.34375q-0.21875 0.328125 -0.265625 0.859375l-2.5625 -0.453125q0.1875 -1.4375 1.171875 -2.046875q1.0 -0.625 2.3125 -0.625q1.703125 0 2.546875 0.90625q0.859375 0.890625 0.859375 2.328125l0 5.421875q0 0.890625 0.28125 1.875l-2.5625 0.21875l-0.296875 -1.28125q-0.34375 0.59375 -1.0 1.015625q-0.640625 0.40625 -1.328125 0.40625zm1.203125 -1.875q0.328125 0 0.53125 -0.140625q0.21875 -0.15625 0.53125 -0.484375l0 -2.921875q-0.921875 0 -1.484375 0.515625q-0.5625 0.5 -0.5625 1.5625q0 0.703125 0.25 1.09375q0.25 0.375 0.734375 0.375zm5.880844 1.734375l0 -13.765625l2.609375 -0.34375l0 13.890625l-2.609375 0.21875z" fill-rule="nonzero"/><path fill="#b6d7a8" d="m45.72441 164.70604l241.88976 0l0 41.76378l-241.88976 0z" fill-rule="evenodd"/><path stroke="#000000" stroke-width="1.0" stroke-linejoin="round" stroke-linecap="butt" d="m45.72441 164.70604l241.88976 0l0 41.76378l-241.88976 0z" fill-rule="evenodd"/><path fill="#000000" d="m150.81888 178.11292l2.4375 0q1.75 0 2.671875 0.84375q0.9375 0.84375 0.9375 2.15625q0 1.296875 -1.15625 2.390625q-1.140625 1.078125 -3.0625 1.078125q-0.53125 0 -1.140625 -0.09375l0.125 3.46875q0.03125 0.296875 0.296875 0.421875q0.28125 0.109375 1.0625 0.265625l-0.046875 0.46875q-1.0 -0.046875 -2.1875 -0.046875q-1.1875 0 -2.1875 0.046875l-0.046875 -0.46875q0.8125 -0.15625 1.09375 -0.28125q0.296875 -0.125 0.328125 -0.40625q0.125 -0.9375 0.125 -3.421875q0 -4.015625 -0.09375 -5.0l-0.03125 -0.328125q-0.03125 -0.28125 -0.296875 -0.40625q-0.25 -0.125 -1.015625 -0.28125l0.046875 -0.46875q1.0 0.0625 2.140625 0.0625zm1.578125 5.796875q1.375 0 2.15625 -0.65625q0.78125 -0.65625 0.78125 -1.984375q0 -1.34375 -0.671875 -1.90625q-0.671875 -0.578125 -2.015625 -0.578125q-0.59375 0 -0.75 0.078125q-0.15625 0.078125 -0.234375 0.453125q-0.15625 0.84375 -0.15625 4.546875q0.46875 0.046875 0.890625 0.046875zm9.981644 -2.296875q0.125 0 0.421875 0.375q0.296875 0.375 0.390625 0.734375l-0.234375 0.3125q-0.578125 -0.21875 -1.203125 -0.21875q-0.625 0 -1.140625 0.515625q-0.515625 0.515625 -0.515625 1.671875q0.015625 2.8125 0.140625 3.28125q0.015625 0.125 0.453125 0.234375q0.453125 0.09375 0.9375 0.125l-0.0625 0.46875q-0.765625 -0.046875 -1.9375 -0.046875q-1.171875 0 -1.9375 0.046875l0.046875 -0.46875q0.3125 -0.03125 0.65625 -0.125q0.359375 -0.109375 0.375 -0.21875q0.125 -0.5625 0.125 -2.25q0 -2.71875 -0.125 -3.328125l-1.015625 -0.296875l-0.03125 -0.421875q1.015625 0 2.109375 -0.28125l0.296875 0.140625q-0.03125 0.25 -0.03125 1.3125q0.46875 -0.765625 1.171875 -1.15625q0.71875 -0.40625 1.109375 -0.40625zm5.188263 0.875q-0.65625 0 -1.140625 0.328125q-0.46875 0.328125 -0.6875 0.828125q-0.4375 0.90625 -0.4375 1.734375q0 1.3125 0.53125 2.1875q0.53125 0.875 1.65625 0.875q0.609375 0 1.078125 -0.28125q0.46875 -0.28125 0.703125 -0.71875q0.46875 -0.84375 0.5 -1.671875q0 -3.28125 -2.203125 -3.28125zm0.078125 -0.78125q1.828125 0 2.65625 0.9375q0.84375 0.921875 0.84375 2.578125q0 1.65625 -0.953125 2.828125q-0.953125 1.15625 -2.78125 1.15625q-1.828125 0 -2.65625 -0.921875q-0.828125 -0.921875 -0.828125 -2.5625q0 -1.640625 0.953125 -2.828125q0.953125 -1.1875 2.765625 -1.1875zm8.385895 0.78125q-0.65625 0 -1.140625 0.328125q-0.46875 0.328125 -0.6875 0.828125q-0.4375 0.90625 -0.4375 1.734375q0 1.3125 0.53125 2.1875q0.53125 0.875 1.65625 0.875q0.609375 0 1.078125 -0.28125q0.46875 -0.28125 0.703125 -0.71875q0.46875 -0.84375 0.5 -1.671875q0 -3.28125 -2.203125 -3.28125zm0.078125 -0.78125q1.828125 0 2.65625 0.9375q0.84375 0.921875 0.84375 2.578125q0 1.65625 -0.953125 2.828125q-0.953125 1.15625 -2.78125 1.15625q-1.828125 0 -2.65625 -0.921875q-0.828125 -0.921875 -0.828125 -2.5625q0 -1.640625 0.953125 -2.828125q0.953125 -1.1875 2.765625 -1.1875zm8.27652 7.40625q-0.765625 -0.046875 -1.890625 -0.046875q-1.125 0 -1.890625 0.046875l0.046875 -0.46875q0.3125 -0.03125 0.6875 -0.125q0.375 -0.109375 0.390625 -0.21875q0.125 0 0.125 -5.734375l-1.09375 0.015625l-0.046875 -0.171875l0.359375 -0.625q0.234375 0.03125 0.765625 0.0625q0 -1.03125 0.359375 -1.859375q0.375 -0.84375 0.875 -1.296875q0.5 -0.46875 1.09375 -0.796875q0.953125 -0.515625 1.53125 -0.515625q0.125 0 0.421875 0.390625q0.296875 0.375 0.390625 0.734375l-0.234375 0.3125q-0.6875 -0.3125 -1.375 -0.3125q-1.84375 0 -1.84375 3.328125l2.078125 -0.015625l0.078125 0.1875l-0.484375 0.625q-0.546875 -0.046875 -1.671875 -0.0625q0 4.453125 0.15625 5.734375q0.03125 0.109375 0.46875 0.21875q0.4375 0.109375 0.75 0.125l-0.046875 0.46875z" fill-rule="nonzero"/><path fill="#ffe599" d="m49.809303 114.31441l241.88977 0l0 41.76378l-241.88977 0z" fill-rule="evenodd"/><path stroke="#000000" stroke-width="1.0" stroke-linejoin="round" stroke-linecap="butt" d="m49.809303 114.31441l241.88977 0l0 41.76378l-241.88977 0z" fill-rule="evenodd"/><path fill="#000000" d="m153.87776 138.08066q1.5 0 2.453125 -0.609375q0.96875 -0.625 1.28125 -1.671875l0.4375 0.1875q-0.171875 0.578125 -0.375 2.140625q-1.953125 0.734375 -3.84375 0.734375q-2.625 0 -4.171875 -1.421875q-1.53125 -1.4375 -1.53125 -3.984375q0 -2.546875 1.515625 -4.21875q1.53125 -1.671875 4.171875 -1.671875q0.734375 0 1.640625 0.125q0.921875 0.125 1.25 0.125q0.34375 0 0.71875 -0.09375l0 0.234375q0 1.171875 0.1875 2.25l-0.421875 0.203125q-0.640625 -2.109375 -3.390625 -2.109375q-1.609375 0 -2.75 1.140625q-0.578125 0.5625 -0.90625 1.5q-0.328125 0.921875 -0.328125 1.984375q0 1.0625 0.21875 1.9375q0.21875 0.859375 0.6875 1.59375q0.46875 0.734375 1.28125 1.1875q0.8125 0.4375 1.875 0.4375zm7.4812775 -10.9375q-0.03125 2.0 -0.03125 5.859375q0 3.84375 0.171875 4.90625q0.015625 0.109375 0.421875 0.21875q0.40625 0.109375 0.703125 0.125l-0.046875 0.46875q-0.765625 -0.046875 -1.859375 -0.046875q-1.078125 0 -1.859375 0.046875l0.0625 -0.46875q0.328125 -0.03125 0.703125 -0.125q0.375 -0.109375 0.390625 -0.21875q0.109375 -1.046875 0.109375 -4.0q0 -4.8125 -0.09375 -5.640625l-0.03125 -0.265625l-1.015625 -0.296875l-0.03125 -0.421875q1.015625 0 2.109375 -0.296875l0.296875 0.15625zm6.21138 8.171875q-1.3125 0.03125 -2.0 0.5q-0.6875 0.453125 -0.6875 1.0q0 0.546875 0.28125 0.796875q0.28125 0.25 0.90625 0.25q0.625 0 1.5 -0.53125l0 -2.015625zm1.171875 3.5q-0.96875 0 -1.125 -1.03125q-1.40625 1.03125 -2.4375 1.03125q-0.6875 0 -1.171875 -0.421875q-0.46875 -0.421875 -0.46875 -1.3125q0 -0.90625 0.953125 -1.625q0.953125 -0.71875 3.078125 -0.859375l0 -1.484375q0 -0.453125 -0.328125 -0.6875q-0.328125 -0.25 -0.921875 -0.25q-0.59375 0 -0.953125 0.328125q-0.34375 0.328125 -0.34375 0.84375q0 0.1875 0.046875 0.4375l-0.34375 0.15625q-0.328125 -0.171875 -0.609375 -0.46875q-0.28125 -0.3125 -0.28125 -0.453125q0 -0.140625 0.21875 -0.390625q0.21875 -0.265625 0.578125 -0.5625q0.375 -0.3125 0.984375 -0.53125q0.625 -0.21875 1.390625 -0.21875q0.765625 0 1.25 0.375q0.484375 0.375 0.484375 1.359375q0 0.984375 0.09375 4.15625q0.015625 0.765625 0.578125 0.765625q0.234375 0 0.484375 -0.125l0.171875 0.40625q-0.609375 0.5625 -1.328125 0.5625zm4.2963867 -9.390625q-0.234375 0.234375 -0.59375 0.234375q-0.34375 0 -0.59375 -0.234375q-0.234375 -0.25 -0.234375 -0.609375q0 -0.359375 0.234375 -0.59375q0.25 -0.25 0.59375 -0.25q0.359375 0 0.59375 0.25q0.25 0.234375 0.25 0.59375q0 0.359375 -0.25 0.609375zm0.0625 2.046875l-0.03125 3.546875q0 2.0625 0.125 2.6875l0.046875 0.203125q0.015625 0.109375 0.40625 0.21875q0.390625 0.09375 0.71875 0.125l-0.046875 0.46875q-0.765625 -0.046875 -1.875 -0.046875q-1.09375 0 -1.859375 0.046875l0.046875 -0.46875q0.328125 -0.03125 0.703125 -0.125q0.390625 -0.109375 0.40625 -0.21875q0.125 -0.5625 0.125 -2.25q0 -2.71875 -0.125 -3.328125l-1.015625 -0.296875l-0.03125 -0.421875q1.015625 0 2.109375 -0.28125l0.296875 0.140625zm8.868759 3.546875q0 2.0625 0.109375 2.6875l0.046875 0.203125q0.015625 0.109375 0.359375 0.21875q0.34375 0.09375 0.671875 0.125l-0.046875 0.46875q-0.765625 -0.046875 -1.765625 -0.046875q-0.984375 0 -1.765625 0.046875l0.0625 -0.46875q0.296875 -0.03125 0.640625 -0.125q0.34375 -0.109375 0.359375 -0.21875q0.125 -0.5625 0.125 -2.890625l0 -1.5625q0 -0.625 -0.375 -0.859375q-0.359375 -0.234375 -0.875 -0.234375q-0.5 0 -0.796875 0.046875q-0.28125 0.03125 -0.515625 0.09375q-0.296875 0.078125 -0.828125 0.296875l0 2.21875q0 1.96875 0.125 2.6875l0.046875 0.203125q0.015625 0.109375 0.359375 0.21875q0.34375 0.09375 0.671875 0.125l-0.046875 0.46875q-0.765625 -0.046875 -1.765625 -0.046875q-0.984375 0 -1.75 0.046875l0.046875 -0.46875q0.296875 -0.03125 0.640625 -0.125q0.34375 -0.109375 0.359375 -0.21875q0.109375 -0.5625 0.109375 -2.25q0 -2.71875 -0.125 -3.328125l-1.015625 -0.296875l-0.03125 -0.421875q1.015625 0 2.109375 -0.28125l0.296875 0.140625q-0.015625 0.40625 -0.015625 0.765625q1.78125 -0.921875 3.03125 -0.921875q1.25 0 1.484375 0.9375q1.671875 -0.9375 3.03125 -0.9375q0.8125 0 1.21875 0.328125q0.421875 0.3125 0.421875 1.1875l0 2.1875q0 2.0625 0.109375 2.6875l0.046875 0.203125q0.015625 0.109375 0.359375 0.21875q0.34375 0.09375 0.671875 0.125l-0.046875 0.46875q-0.78125 -0.046875 -1.765625 -0.046875q-0.984375 0 -1.765625 0.046875l0.046875 -0.46875q0.3125 -0.03125 0.65625 -0.125q0.34375 -0.109375 0.359375 -0.21875q0.125 -0.5625 0.125 -2.890625l0 -1.5625q0 -0.625 -0.375 -0.859375q-0.359375 -0.234375 -1.296875 -0.234375q-0.9375 0 -1.734375 0.4375l0 2.21875zm11.017395 -3.421875l0.234375 0.125q0 1.03125 0.09375 1.578125l-0.421875 0.140625q-0.203125 -0.8125 -0.578125 -1.125q-0.375 -0.328125 -0.953125 -0.328125q-0.578125 0 -0.921875 0.3125q-0.328125 0.296875 -0.328125 0.71875q0 0.71875 0.828125 1.171875l1.640625 0.90625q1.046875 0.59375 1.046875 1.703125q0 0.8125 -0.65625 1.421875q-0.640625 0.59375 -1.84375 0.59375q-1.1875 0 -2.453125 -0.390625q0.1875 -1.125 0.1875 -1.84375l0.421875 -0.140625q0.140625 0.578125 0.203125 0.78125q0.078125 0.203125 0.265625 0.515625q0.1875 0.296875 0.46875 0.390625q0.296875 0.09375 0.84375 0.09375q0.5625 0 0.9375 -0.3125q0.375 -0.328125 0.375 -0.765625q0 -0.671875 -0.765625 -1.09375l-1.71875 -0.953125q-1.0625 -0.5625 -1.0625 -1.71875q0 -0.8125 0.625 -1.4375q0.625 -0.625 1.734375 -0.625q1.125 0 1.796875 0.28125z" fill-rule="nonzero"/><path fill="#ffe599" d="m47.766857 112.27196l241.88976 0l0 41.76378l-241.88976 0z" fill-rule="evenodd"/><path stroke="#000000" stroke-width="1.0" stroke-linejoin="round" stroke-linecap="butt" d="m47.766857 112.27196l241.88976 0l0 41.76378l-241.88976 0z" fill-rule="evenodd"/><path fill="#000000" d="m151.83533 136.03821q1.5 0 2.453125 -0.609375q0.96875 -0.625 1.28125 -1.671875l0.4375 0.1875q-0.171875 0.578125 -0.375 2.140625q-1.953125 0.734375 -3.84375 0.734375q-2.625 0 -4.171875 -1.421875q-1.53125 -1.4375 -1.53125 -3.984375q0 -2.546875 1.515625 -4.21875q1.53125 -1.671875 4.171875 -1.671875q0.734375 0 1.640625 0.125q0.921875 0.125 1.25 0.125q0.34375 0 0.71875 -0.09375l0 0.234375q0 1.171875 0.1875 2.25l-0.421875 0.203125q-0.640625 -2.109375 -3.390625 -2.109375q-1.609375 0 -2.75 1.140625q-0.578125 0.5625 -0.90625 1.5q-0.328125 0.921875 -0.328125 1.984375q0 1.0625 0.21875 1.9375q0.21875 0.859375 0.6875 1.59375q0.46875 0.734375 1.28125 1.1875q0.8125 0.4375 1.875 0.4375zm7.4812775 -10.9375q-0.03125 2.0 -0.03125 5.859375q0 3.84375 0.171875 4.90625q0.015625 0.109375 0.421875 0.21875q0.40625 0.109375 0.703125 0.125l-0.046875 0.46875q-0.765625 -0.046875 -1.859375 -0.046875q-1.078125 0 -1.859375 0.046875l0.0625 -0.46875q0.328125 -0.03125 0.703125 -0.125q0.375 -0.109375 0.390625 -0.21875q0.109375 -1.046875 0.109375 -4.0q0 -4.8125 -0.09375 -5.640625l-0.03125 -0.265625l-1.015625 -0.296875l-0.03125 -0.421875q1.015625 0 2.109375 -0.296875l0.296875 0.15625zm6.21138 8.171875q-1.3125 0.03125 -2.0 0.5q-0.6875 0.453125 -0.6875 1.0q0 0.546875 0.28125 0.796875q0.28125 0.25 0.90625 0.25q0.625 0 1.5 -0.53125l0 -2.015625zm1.171875 3.5q-0.96875 0 -1.125 -1.03125q-1.40625 1.03125 -2.4375 1.03125q-0.6875 0 -1.171875 -0.421875q-0.46875 -0.421875 -0.46875 -1.3125q0 -0.90625 0.953125 -1.625q0.953125 -0.71875 3.078125 -0.859375l0 -1.484375q0 -0.453125 -0.328125 -0.6875q-0.328125 -0.25 -0.921875 -0.25q-0.59375 0 -0.953125 0.328125q-0.34375 0.328125 -0.34375 0.84375q0 0.1875 0.046875 0.4375l-0.34375 0.15625q-0.328125 -0.171875 -0.609375 -0.46875q-0.28125 -0.3125 -0.28125 -0.453125q0 -0.140625 0.21875 -0.390625q0.21875 -0.265625 0.578125 -0.5625q0.375 -0.3125 0.984375 -0.53125q0.625 -0.21875 1.390625 -0.21875q0.765625 0 1.25 0.375q0.484375 0.375 0.484375 1.359375q0 0.984375 0.09375 4.15625q0.015625 0.765625 0.578125 0.765625q0.234375 0 0.484375 -0.125l0.171875 0.40625q-0.609375 0.5625 -1.328125 0.5625zm4.2963867 -9.390625q-0.234375 0.234375 -0.59375 0.234375q-0.34375 0 -0.59375 -0.234375q-0.234375 -0.25 -0.234375 -0.609375q0 -0.359375 0.234375 -0.59375q0.25 -0.25 0.59375 -0.25q0.359375 0 0.59375 0.25q0.25 0.234375 0.25 0.59375q0 0.359375 -0.25 0.609375zm0.0625 2.046875l-0.03125 3.546875q0 2.0625 0.125 2.6875l0.046875 0.203125q0.015625 0.109375 0.40625 0.21875q0.390625 0.09375 0.71875 0.125l-0.046875 0.46875q-0.765625 -0.046875 -1.875 -0.046875q-1.09375 0 -1.859375 0.046875l0.046875 -0.46875q0.328125 -0.03125 0.703125 -0.125q0.390625 -0.109375 0.40625 -0.21875q0.125 -0.5625 0.125 -2.25q0 -2.71875 -0.125 -3.328125l-1.015625 -0.296875l-0.03125 -0.421875q1.015625 0 2.109375 -0.28125l0.296875 0.140625zm8.868759 3.546875q0 2.0625 0.109375 2.6875l0.046875 0.203125q0.015625 0.109375 0.359375 0.21875q0.34375 0.09375 0.671875 0.125l-0.046875 0.46875q-0.765625 -0.046875 -1.765625 -0.046875q-0.984375 0 -1.765625 0.046875l0.0625 -0.46875q0.296875 -0.03125 0.640625 -0.125q0.34375 -0.109375 0.359375 -0.21875q0.125 -0.5625 0.125 -2.890625l0 -1.5625q0 -0.625 -0.375 -0.859375q-0.359375 -0.234375 -0.875 -0.234375q-0.5 0 -0.796875 0.046875q-0.28125 0.03125 -0.515625 0.09375q-0.296875 0.078125 -0.828125 0.296875l0 2.21875q0 1.96875 0.125 2.6875l0.046875 0.203125q0.015625 0.109375 0.359375 0.21875q0.34375 0.09375 0.671875 0.125l-0.046875 0.46875q-0.765625 -0.046875 -1.765625 -0.046875q-0.984375 0 -1.75 0.046875l0.046875 -0.46875q0.296875 -0.03125 0.640625 -0.125q0.34375 -0.109375 0.359375 -0.21875q0.109375 -0.5625 0.109375 -2.25q0 -2.71875 -0.125 -3.328125l-1.015625 -0.296875l-0.03125 -0.421875q1.015625 0 2.109375 -0.28125l0.296875 0.140625q-0.015625 0.40625 -0.015625 0.765625q1.78125 -0.921875 3.03125 -0.921875q1.25 0 1.484375 0.9375q1.671875 -0.9375 3.03125 -0.9375q0.8125 0 1.21875 0.328125q0.421875 0.3125 0.421875 1.1875l0 2.1875q0 2.0625 0.109375 2.6875l0.046875 0.203125q0.015625 0.109375 0.359375 0.21875q0.34375 0.09375 0.671875 0.125l-0.046875 0.46875q-0.78125 -0.046875 -1.765625 -0.046875q-0.984375 0 -1.765625 0.046875l0.046875 -0.46875q0.3125 -0.03125 0.65625 -0.125q0.34375 -0.109375 0.359375 -0.21875q0.125 -0.5625 0.125 -2.890625l0 -1.5625q0 -0.625 -0.375 -0.859375q-0.359375 -0.234375 -1.296875 -0.234375q-0.9375 0 -1.734375 0.4375l0 2.21875zm11.017395 -3.421875l0.234375 0.125q0 1.03125 0.09375 1.578125l-0.421875 0.140625q-0.203125 -0.8125 -0.578125 -1.125q-0.375 -0.328125 -0.953125 -0.328125q-0.578125 0 -0.921875 0.3125q-0.328125 0.296875 -0.328125 0.71875q0 0.71875 0.828125 1.171875l1.640625 0.90625q1.046875 0.59375 1.046875 1.703125q0 0.8125 -0.65625 1.421875q-0.640625 0.59375 -1.84375 0.59375q-1.1875 0 -2.453125 -0.390625q0.1875 -1.125 0.1875 -1.84375l0.421875 -0.140625q0.140625 0.578125 0.203125 0.78125q0.078125 0.203125 0.265625 0.515625q0.1875 0.296875 0.46875 0.390625q0.296875 0.09375 0.84375 0.09375q0.5625 0 0.9375 -0.3125q0.375 -0.328125 0.375 -0.765625q0 -0.671875 -0.765625 -1.09375l-1.71875 -0.953125q-1.0625 -0.5625 -1.0625 -1.71875q0 -0.8125 0.625 -1.4375q0.625 -0.625 1.734375 -0.625q1.125 0 1.796875 0.28125z" fill-rule="nonzero"/><path fill="#ffe599" d="m45.72441 110.229515l241.88976 0l0 41.76377l-241.88976 0z" fill-rule="evenodd"/><path stroke="#000000" stroke-width="1.0" stroke-linejoin="round" stroke-linecap="butt" d="m45.72441 110.229515l241.88976 0l0 41.76377l-241.88976 0z" fill-rule="evenodd"/><path fill="#000000" d="m152.84888 133.99576q1.5 0 2.453125 -0.609375q0.96875 -0.625 1.28125 -1.671875l0.4375 0.1875q-0.171875 0.578125 -0.375 2.140625q-1.953125 0.734375 -3.84375 0.734375q-2.625 0 -4.171875 -1.421875q-1.53125 -1.4375 -1.53125 -3.984375q0 -2.5468674 1.515625 -4.2187424q1.53125 -1.671875 4.171875 -1.671875q0.734375 0 1.640625 0.125q0.921875 0.125 1.25 0.125q0.34375 0 0.71875 -0.09375l0 0.234375q0 1.171875 0.1875 2.25l-0.421875 0.203125q-0.640625 -2.109375 -3.390625 -2.109375q-1.609375 0 -2.75 1.140625q-0.578125 0.5625 -0.90625 1.5q-0.328125 0.921875 -0.328125 1.9843674q0 1.0625 0.21875 1.9375q0.21875 0.859375 0.6875 1.59375q0.46875 0.734375 1.28125 1.1875q0.8125 0.4375 1.875 0.4375zm7.4812775 -10.937492q-0.03125 2.0 -0.03125 5.8593674q0 3.84375 0.171875 4.90625q0.015625 0.109375 0.421875 0.21875q0.40625 0.109375 0.703125 0.125l-0.046875 0.46875q-0.765625 -0.046875 -1.859375 -0.046875q-1.078125 0 -1.859375 0.046875l0.0625 -0.46875q0.328125 -0.03125 0.703125 -0.125q0.375 -0.109375 0.390625 -0.21875q0.109375 -1.046875 0.109375 -4.0q0 -4.8124924 -0.09375 -5.6406174l-0.03125 -0.265625l-1.015625 -0.296875l-0.03125 -0.421875q1.015625 0 2.109375 -0.296875l0.296875 0.15625zm6.21138 8.171867q-1.3125 0.03125 -2.0 0.5q-0.6875 0.453125 -0.6875 1.0q0 0.546875 0.28125 0.796875q0.28125 0.25 0.90625 0.25q0.625 0 1.5 -0.53125l0 -2.015625zm1.171875 3.5q-0.96875 0 -1.125 -1.03125q-1.40625 1.03125 -2.4375 1.03125q-0.6875 0 -1.171875 -0.421875q-0.46875 -0.421875 -0.46875 -1.3125q0 -0.90625 0.953125 -1.625q0.953125 -0.71875 3.078125 -0.859375l0 -1.484375q0 -0.453125 -0.328125 -0.6875q-0.328125 -0.25 -0.921875 -0.25q-0.59375 0 -0.953125 0.328125q-0.34375 0.328125 -0.34375 0.84375q0 0.1875 0.046875 0.4375l-0.34375 0.15625q-0.328125 -0.171875 -0.609375 -0.46875q-0.28125 -0.3125 -0.28125 -0.453125q0 -0.140625 0.21875 -0.390625q0.21875 -0.265625 0.578125 -0.5624924q0.375 -0.3125 0.984375 -0.53125q0.625 -0.21875 1.390625 -0.21875q0.765625 0 1.25 0.375q0.484375 0.375 0.484375 1.3593674q0 0.984375 0.09375 4.15625q0.015625 0.765625 0.578125 0.765625q0.234375 0 0.484375 -0.125l0.171875 0.40625q-0.609375 0.5625 -1.328125 0.5625zm4.2963867 -9.390617q-0.234375 0.234375 -0.59375 0.234375q-0.34375 0 -0.59375 -0.234375q-0.234375 -0.25 -0.234375 -0.609375q0 -0.359375 0.234375 -0.59375q0.25 -0.25 0.59375 -0.25q0.359375 0 0.59375 0.25q0.25 0.234375 0.25 0.59375q0 0.359375 -0.25 0.609375zm0.0625 2.046875l-0.03125 3.5468674q0 2.0625 0.125 2.6875l0.046875 0.203125q0.015625 0.109375 0.40625 0.21875q0.390625 0.09375 0.71875 0.125l-0.046875 0.46875q-0.765625 -0.046875 -1.875 -0.046875q-1.09375 0 -1.859375 0.046875l0.046875 -0.46875q0.328125 -0.03125 0.703125 -0.125q0.390625 -0.109375 0.40625 -0.21875q0.125 -0.5625 0.125 -2.25q0 -2.71875 -0.125 -3.328125l-1.015625 -0.29686737l-0.03125 -0.421875q1.015625 0 2.109375 -0.28125l0.296875 0.140625zm8.868759 3.5468674q0 2.0625 0.109375 2.6875l0.046875 0.203125q0.015625 0.109375 0.359375 0.21875q0.34375 0.09375 0.671875 0.125l-0.046875 0.46875q-0.765625 -0.046875 -1.765625 -0.046875q-0.984375 0 -1.765625 0.046875l0.0625 -0.46875q0.296875 -0.03125 0.640625 -0.125q0.34375 -0.109375 0.359375 -0.21875q0.125 -0.5625 0.125 -2.890625l0 -1.5625q0 -0.625 -0.375 -0.859375q-0.359375 -0.234375 -0.875 -0.234375q-0.5 0 -0.796875 0.046875q-0.28125 0.03125 -0.515625 0.09375q-0.296875 0.078125 -0.828125 0.296875l0 2.21875q0 1.96875 0.125 2.6875l0.046875 0.203125q0.015625 0.109375 0.359375 0.21875q0.34375 0.09375 0.671875 0.125l-0.046875 0.46875q-0.765625 -0.046875 -1.765625 -0.046875q-0.984375 0 -1.75 0.046875l0.046875 -0.46875q0.296875 -0.03125 0.640625 -0.125q0.34375 -0.109375 0.359375 -0.21875q0.109375 -0.5625 0.109375 -2.25q0 -2.71875 -0.125 -3.328125l-1.015625 -0.29686737l-0.03125 -0.421875q1.015625 0 2.109375 -0.28125l0.296875 0.140625q-0.015625 0.40625 -0.015625 0.7656174q1.78125 -0.9218674 3.03125 -0.9218674q1.25 0 1.484375 0.9374924q1.671875 -0.9374924 3.03125 -0.9374924q0.8125 0 1.21875 0.328125q0.421875 0.3125 0.421875 1.1874924l0 2.1875q0 2.0625 0.109375 2.6875l0.046875 0.203125q0.015625 0.109375 0.359375 0.21875q0.34375 0.09375 0.671875 0.125l-0.046875 0.46875q-0.78125 -0.046875 -1.765625 -0.046875q-0.984375 0 -1.765625 0.046875l0.046875 -0.46875q0.3125 -0.03125 0.65625 -0.125q0.34375 -0.109375 0.359375 -0.21875q0.125 -0.5625 0.125 -2.890625l0 -1.5625q0 -0.625 -0.375 -0.859375q-0.359375 -0.234375 -1.296875 -0.234375q-0.9375 0 -1.734375 0.4375l0 2.21875z" fill-rule="nonzero"/><path fill="#d5a6bd" d="m49.809303 61.552666l241.88977 0l0 41.76378l-241.88977 0z" fill-rule="evenodd"/><path stroke="#000000" stroke-width="1.0" stroke-linejoin="round" stroke-linecap="butt" d="m49.809303 61.552666l241.88977 0l0 41.76378l-241.88977 0z" fill-rule="evenodd"/><path fill="#000000" d="m108.229675 85.31892q1.5 0 2.453125 -0.609375q0.96875 -0.625 1.28125 -1.671875l0.4375 0.1875q-0.171875 0.578125 -0.375 2.140625q-1.953125 0.734375 -3.84375 0.734375q-2.625 0 -4.171875 -1.421875q-1.53125 -1.4375 -1.53125 -3.984375q0 -2.546875 1.515625 -4.21875q1.53125 -1.671875 4.171875 -1.671875q0.734375 0 1.640625 0.125q0.921875 0.125 1.25 0.125q0.34375 0 0.71875 -0.09375l0 0.234375q0 1.171875 0.1875 2.25l-0.421875 0.203125q-0.640625 -2.109375 -3.390625 -2.109375q-1.609375 0 -2.75 1.140625q-0.578125 0.5625 -0.90625 1.5q-0.328125 0.921875 -0.328125 1.984375q0 1.0625 0.21875 1.9375q0.21875 0.859375 0.6875 1.59375q0.46875 0.734375 1.28125 1.1875q0.8125 0.4375 1.875 0.4375zm9.793777 -6.859375q0.125 0 0.421875 0.375q0.296875 0.375 0.390625 0.734375l-0.234375 0.3125q-0.578125 -0.21875 -1.203125 -0.21875q-0.625 0 -1.140625 0.515625q-0.515625 0.515625 -0.515625 1.671875q0.015625 2.8125 0.140625 3.28125q0.015625 0.125 0.453125 0.234375q0.453125 0.09375 0.9375 0.125l-0.0625 0.46875q-0.765625 -0.046875 -1.9375 -0.046875q-1.171875 0 -1.9375 0.046875l0.046875 -0.46875q0.3125 -0.03125 0.65625 -0.125q0.359375 -0.109375 0.375 -0.21875q0.125 -0.5625 0.125 -2.25q0 -2.71875 -0.125 -3.328125l-1.015625 -0.296875l-0.03125 -0.421875q1.015625 0 2.109375 -0.28125l0.296875 0.140625q-0.03125 0.25 -0.03125 1.3125q0.46875 -0.765625 1.171875 -1.15625q0.71875 -0.40625 1.109375 -0.40625zm6.328888 2.328125q0 -0.734375 -0.421875 -1.09375q-0.40625 -0.359375 -0.921875 -0.359375q-0.75 0 -1.296875 0.59375q-0.546875 0.59375 -0.71875 1.453125l3.3125 -0.125q0.046875 -0.234375 0.046875 -0.46875zm-1.390625 5.265625q-1.703125 0 -2.5625 -0.96875q-0.859375 -0.96875 -0.859375 -2.578125q0 -1.609375 0.953125 -2.78125q0.953125 -1.171875 2.875 -1.171875q0.96875 0 1.6875 0.6875q0.734375 0.6875 0.734375 2.046875l-0.546875 0.65625q-0.09375 -0.015625 -1.515625 -0.015625q-1.40625 0 -2.828125 0.109375l0 0.140625q0 1.46875 0.609375 2.203125q0.609375 0.71875 1.65625 0.71875q1.0625 0 2.234375 -0.515625l0.1875 0.484375q-1.234375 0.984375 -2.625 0.984375zm9.359634 -1.03125q-1.109375 1.03125 -2.421875 1.03125q-1.3125 0 -2.15625 -0.953125q-0.828125 -0.953125 -0.828125 -2.71875q0 -1.765625 1.0 -2.796875q1.0 -1.046875 2.46875 -1.046875q0.796875 0 1.921875 0.5625q0 -2.96875 -0.09375 -3.640625l-0.03125 -0.21875l-1.03125 -0.296875l-0.03125 -0.421875q1.03125 0 2.109375 -0.296875l0.3125 0.15625q-0.03125 2.0 -0.03125 5.671875q0 3.65625 0.03125 4.1875q0.03125 0.515625 0.125 0.65625q0.109375 0.140625 0.328125 0.203125q0.328125 0.09375 0.78125 0.125l-0.046875 0.46875q-0.578125 0.046875 -1.75 0.28125q-0.484375 -0.203125 -0.65625 -0.953125zm-1.515625 -5.515625q-1.265625 0 -1.875 0.828125q-0.59375 0.828125 -0.59375 2.046875q0 1.21875 0.53125 1.953125q0.53125 0.71875 1.5 0.71875q0.984375 0 1.859375 -0.5625q0.078125 -1.28125 0.078125 -4.6875q-0.828125 -0.296875 -1.5 -0.296875zm9.59465 1.28125q0 -0.734375 -0.421875 -1.09375q-0.40625 -0.359375 -0.921875 -0.359375q-0.75 0 -1.296875 0.59375q-0.546875 0.59375 -0.71875 1.453125l3.3125 -0.125q0.046875 -0.234375 0.046875 -0.46875zm-1.390625 5.265625q-1.703125 0 -2.5625 -0.96875q-0.859375 -0.96875 -0.859375 -2.578125q0 -1.609375 0.953125 -2.78125q0.953125 -1.171875 2.875 -1.171875q0.96875 0 1.6875 0.6875q0.734375 0.6875 0.734375 2.046875l-0.546875 0.65625q-0.09375 -0.015625 -1.515625 -0.015625q-1.40625 0 -2.828125 0.109375l0 0.140625q0 1.46875 0.609375 2.203125q0.609375 0.71875 1.65625 0.71875q1.0625 0 2.234375 -0.515625l0.1875 0.484375q-1.234375 0.984375 -2.625 0.984375zm6.0940094 -6.015625l-0.015625 2.21875q0 2.0625 0.125 2.6875l0.03125 0.203125q0.015625 0.109375 0.359375 0.21875q0.34375 0.09375 0.671875 0.125l-0.046875 0.46875q-0.765625 -0.046875 -1.765625 -0.046875q-0.984375 0 -1.75 0.046875l0.046875 -0.46875q0.296875 -0.03125 0.640625 -0.125q0.34375 -0.109375 0.359375 -0.21875q0.125 -0.5625 0.125 -2.25q0 -2.71875 -0.125 -3.328125l-1.015625 -0.296875l-0.03125 -0.421875q1.015625 0 2.109375 -0.28125l0.296875 0.140625l0 0.765625q1.78125 -0.921875 3.09375 -0.921875q0.796875 0 1.203125 0.328125q0.421875 0.3125 0.421875 1.1875l0 2.1875q0 2.0625 0.109375 2.6875l0.046875 0.203125q0.03125 0.109375 0.375 0.21875q0.34375 0.09375 0.65625 0.125l-0.046875 0.46875q-0.765625 -0.046875 -1.765625 -0.046875q-0.984375 0 -1.75 0.046875l0.046875 -0.46875q0.296875 -0.03125 0.640625 -0.125q0.34375 -0.109375 0.359375 -0.21875q0.125 -0.5625 0.125 -2.890625l0 -1.5625q0 -0.625 -0.375 -0.859375q-0.359375 -0.234375 -1.234375 -0.234375q-0.875 0 -1.921875 0.4375zm9.319397 6.015625q-1.671875 0 -1.671875 -1.59375q0.015625 -1.40625 0.015625 -2.578125q0 -1.1875 -0.03125 -2.46875l-1.015625 0.015625l-0.046875 -0.171875l0.359375 -0.625q0.21875 0.046875 0.671875 0.0625l-0.0625 -1.46875l1.0625 -0.9375l0.296875 0.140625q-0.03125 1.1875 -0.03125 2.25l2.359375 -0.015625l0.078125 0.1875l-0.578125 0.640625q-0.546875 -0.0625 -1.859375 -0.078125l0 2.140625q0 2.0 0.046875 2.875q0.046875 0.71875 0.84375 0.71875q0.640625 0 1.40625 -0.375l0.203125 0.53125q-1.140625 0.75 -2.046875 0.75zm4.91951 -9.390625q-0.234375 0.234375 -0.59375 0.234375q-0.34375 0 -0.59375 -0.234375q-0.234375 -0.25 -0.234375 -0.609375q0 -0.359375 0.234375 -0.59375q0.25 -0.25 0.59375 -0.25q0.359375 0 0.59375 0.25q0.25 0.234375 0.25 0.59375q0 0.359375 -0.25 0.609375zm0.0625 2.046875l-0.03125 3.546875q0 2.0625 0.125 2.6875l0.046875 0.203125q0.015625 0.109375 0.40625 0.21875q0.390625 0.09375 0.71875 0.125l-0.046875 0.46875q-0.765625 -0.046875 -1.875 -0.046875q-1.09375 0 -1.859375 0.046875l0.046875 -0.46875q0.328125 -0.03125 0.703125 -0.125q0.390625 -0.109375 0.40625 -0.21875q0.125 -0.5625 0.125 -2.25q0 -2.71875 -0.125 -3.328125l-1.015625 -0.296875l-0.03125 -0.421875q1.015625 0 2.109375 -0.28125l0.296875 0.140625zm6.181259 3.84375q-1.3125 0.03125 -2.0 0.5q-0.6875 0.453125 -0.6875 1.0q0 0.546875 0.28125 0.796875q0.28125 0.25 0.90625 0.25q0.625 0 1.5 -0.53125l0 -2.015625zm1.171875 3.5q-0.96875 0 -1.125 -1.03125q-1.40625 1.03125 -2.4375 1.03125q-0.6875 0 -1.171875 -0.421875q-0.46875 -0.421875 -0.46875 -1.3125q0 -0.90625 0.953125 -1.625q0.953125 -0.71875 3.078125 -0.859375l0 -1.484375q0 -0.453125 -0.328125 -0.6875q-0.328125 -0.25 -0.921875 -0.25q-0.59375 0 -0.953125 0.328125q-0.34375 0.328125 -0.34375 0.84375q0 0.1875 0.046875 0.4375l-0.34375 0.15625q-0.328125 -0.171875 -0.609375 -0.46875q-0.28125 -0.3125 -0.28125 -0.453125q0 -0.140625 0.21875 -0.390625q0.21875 -0.265625 0.578125 -0.5625q0.375 -0.3125 0.984375 -0.53125q0.625 -0.21875 1.390625 -0.21875q0.765625 0 1.25 0.375q0.484375 0.375 0.484375 1.359375q0 0.984375 0.09375 4.15625q0.015625 0.765625 0.578125 0.765625q0.234375 0 0.484375 -0.125l0.171875 0.40625q-0.609375 0.5625 -1.328125 0.5625zm4.2807617 -11.671875q-0.03125 2.0 -0.03125 5.859375q0 3.84375 0.171875 4.90625q0.015625 0.109375 0.421875 0.21875q0.40625 0.109375 0.703125 0.125l-0.046875 0.46875q-0.765625 -0.046875 -1.859375 -0.046875q-1.078125 0 -1.859375 0.046875l0.0625 -0.46875q0.328125 -0.03125 0.703125 -0.125q0.375 -0.109375 0.390625 -0.21875q0.109375 -1.046875 0.109375 -4.0q0 -4.8125 -0.09375 -5.640625l-0.03125 -0.265625l-1.015625 -0.296875l-0.03125 -0.421875q1.015625 0 2.109375 -0.296875l0.296875 0.15625zm8.680145 3.109375q-0.171875 4.0 -0.171875 5.640625l0.0625 1.671875q0.046875 0.390625 0.84375 0.5625q0.1875 0.03125 0.65625 0.125l-0.046875 0.46875q-1.015625 -0.046875 -2.203125 -0.046875q-1.171875 0 -1.84375 0.046875l-0.046875 -0.46875q0.765625 -0.15625 1.046875 -0.28125q0.296875 -0.125 0.328125 -0.40625q0.3125 -2.59375 0.3125 -6.625l-0.0625 -2.125q-0.03125 -0.28125 -0.296875 -0.40625q-0.25 -0.125 -1.015625 -0.28125l0.046875 -0.46875q1.015625 0.0625 2.78125 0.0625l3.8125 9.4375l3.8125 -9.4375q1.8125 0 2.828125 -0.0625l0.046875 0.46875q-0.765625 0.15625 -1.03125 0.28125q-0.25 0.125 -0.296875 0.4375q-0.046875 0.296875 -0.046875 1.046875q0 0.75 0.078125 3.3125q0.15625 3.171875 0.25 4.0625l0.046875 0.296875q0.03125 0.296875 0.296875 0.421875q0.265625 0.109375 1.0625 0.265625l-0.0625 0.46875q-1.0 -0.046875 -2.1875 -0.046875q-1.1875 0 -2.1875 0.046875l-0.046875 -0.46875q0.828125 -0.15625 1.125 -0.28125q0.296875 -0.125 0.296875 -0.40625q0.015625 -0.515625 0.015625 -2.265625q0 -1.75 -0.203125 -5.046875l-0.09375 0l-3.4375 8.40625l-0.984375 0.171875l-3.421875 -8.578125l-0.0625 0zm17.033264 3.296875q0 -0.734375 -0.421875 -1.09375q-0.40625 -0.359375 -0.921875 -0.359375q-0.75 0 -1.296875 0.59375q-0.546875 0.59375 -0.71875 1.453125l3.3125 -0.125q0.046875 -0.234375 0.046875 -0.46875zm-1.390625 5.265625q-1.703125 0 -2.5625 -0.96875q-0.859375 -0.96875 -0.859375 -2.578125q0 -1.609375 0.953125 -2.78125q0.953125 -1.171875 2.875 -1.171875q0.96875 0 1.6875 0.6875q0.734375 0.6875 0.734375 2.046875l-0.546875 0.65625q-0.09375 -0.015625 -1.515625 -0.015625q-1.40625 0 -2.828125 0.109375l0 0.140625q0 1.46875 0.609375 2.203125q0.609375 0.71875 1.65625 0.71875q1.0625 0 2.234375 -0.515625l0.1875 0.484375q-1.234375 0.984375 -2.625 0.984375zm6.4533997 0q-1.671875 0 -1.671875 -1.59375q0.015625 -1.40625 0.015625 -2.578125q0 -1.1875 -0.03125 -2.46875l-1.015625 0.015625l-0.046875 -0.171875l0.359375 -0.625q0.21875 0.046875 0.671875 0.0625l-0.0625 -1.46875l1.0625 -0.9375l0.296875 0.140625q-0.03125 1.1875 -0.03125 2.25l2.359375 -0.015625l0.078125 0.1875l-0.578125 0.640625q-0.546875 -0.0625 -1.859375 -0.078125l0 2.140625q0 2.0 0.046875 2.875q0.046875 0.71875 0.84375 0.71875q0.640625 0 1.40625 -0.375l0.203125 0.53125q-1.140625 0.75 -2.046875 0.75zm6.7632446 -3.5q-1.3125 0.03125 -2.0 0.5q-0.6875 0.453125 -0.6875 1.0q0 0.546875 0.28125 0.796875q0.28125 0.25 0.90625 0.25q0.625 0 1.5 -0.53125l0 -2.015625zm1.171875 3.5q-0.96875 0 -1.125 -1.03125q-1.40625 1.03125 -2.4375 1.03125q-0.6875 0 -1.171875 -0.421875q-0.46875 -0.421875 -0.46875 -1.3125q0 -0.90625 0.953125 -1.625q0.953125 -0.71875 3.078125 -0.859375l0 -1.484375q0 -0.453125 -0.328125 -0.6875q-0.328125 -0.25 -0.921875 -0.25q-0.59375 0 -0.953125 0.328125q-0.34375 0.328125 -0.34375 0.84375q0 0.1875 0.046875 0.4375l-0.34375 0.15625q-0.328125 -0.171875 -0.609375 -0.46875q-0.28125 -0.3125 -0.28125 -0.453125q0 -0.140625 0.21875 -0.390625q0.21875 -0.265625 0.578125 -0.5625q0.375 -0.3125 0.984375 -0.53125q0.625 -0.21875 1.390625 -0.21875q0.765625 0 1.25 0.375q0.484375 0.375 0.484375 1.359375q0 0.984375 0.09375 4.15625q0.015625 0.765625 0.578125 0.765625q0.234375 0 0.484375 -0.125l0.171875 0.40625q-0.609375 0.5625 -1.328125 0.5625zm7.5151367 -1.03125q-1.109375 1.03125 -2.421875 1.03125q-1.3125 0 -2.15625 -0.953125q-0.828125 -0.953125 -0.828125 -2.71875q0 -1.765625 1.0 -2.796875q1.0 -1.046875 2.46875 -1.046875q0.796875 0 1.921875 0.5625q0 -2.96875 -0.09375 -3.640625l-0.03125 -0.21875l-1.03125 -0.296875l-0.03125 -0.421875q1.03125 0 2.109375 -0.296875l0.3125 0.15625q-0.03125 2.0 -0.03125 5.671875q0 3.65625 0.03125 4.1875q0.03125 0.515625 0.125 0.65625q0.109375 0.140625 0.328125 0.203125q0.328125 0.09375 0.78125 0.125l-0.046875 0.46875q-0.578125 0.046875 -1.75 0.28125q-0.484375 -0.203125 -0.65625 -0.953125zm-1.515625 -5.515625q-1.265625 0 -1.875 0.828125q-0.59375 0.828125 -0.59375 2.046875q0 1.21875 0.53125 1.953125q0.53125 0.71875 1.5 0.71875q0.984375 0 1.859375 -0.5625q0.078125 -1.28125 0.078125 -4.6875q-0.828125 -0.296875 -1.5 -0.296875zm8.844666 3.046875q-1.3125 0.03125 -2.0 0.5q-0.6875 0.453125 -0.6875 1.0q0 0.546875 0.28125 0.796875q0.28125 0.25 0.90625 0.25q0.625 0 1.5 -0.53125l0 -2.015625zm1.171875 3.5q-0.96875 0 -1.125 -1.03125q-1.40625 1.03125 -2.4375 1.03125q-0.6875 0 -1.171875 -0.421875q-0.46875 -0.421875 -0.46875 -1.3125q0 -0.90625 0.953125 -1.625q0.953125 -0.71875 3.078125 -0.859375l0 -1.484375q0 -0.453125 -0.328125 -0.6875q-0.328125 -0.25 -0.921875 -0.25q-0.59375 0 -0.953125 0.328125q-0.34375 0.328125 -0.34375 0.84375q0 0.1875 0.046875 0.4375l-0.34375 0.15625q-0.328125 -0.171875 -0.609375 -0.46875q-0.28125 -0.3125 -0.28125 -0.453125q0 -0.140625 0.21875 -0.390625q0.21875 -0.265625 0.578125 -0.5625q0.375 -0.3125 0.984375 -0.53125q0.625 -0.21875 1.390625 -0.21875q0.765625 0 1.25 0.375q0.484375 0.375 0.484375 1.359375q0 0.984375 0.09375 4.15625q0.015625 0.765625 0.578125 0.765625q0.234375 0 0.484375 -0.125l0.171875 0.40625q-0.609375 0.5625 -1.328125 0.5625zm4.6088867 0q-1.671875 0 -1.671875 -1.59375q0.015625 -1.40625 0.015625 -2.578125q0 -1.1875 -0.03125 -2.46875l-1.015625 0.015625l-0.046875 -0.171875l0.359375 -0.625q0.21875 0.046875 0.671875 0.0625l-0.0625 -1.46875l1.0625 -0.9375l0.296875 0.140625q-0.03125 1.1875 -0.03125 2.25l2.359375 -0.015625l0.078125 0.1875l-0.578125 0.640625q-0.546875 -0.0625 -1.859375 -0.078125l0 2.140625q0 2.0 0.046875 2.875q0.046875 0.71875 0.84375 0.71875q0.640625 0 1.40625 -0.375l0.203125 0.53125q-1.140625 0.75 -2.046875 0.75zm6.7632446 -3.5q-1.3125 0.03125 -2.0 0.5q-0.6875 0.453125 -0.6875 1.0q0 0.546875 0.28125 0.796875q0.28125 0.25 0.90625 0.25q0.625 0 1.5 -0.53125l0 -2.015625zm1.171875 3.5q-0.96875 0 -1.125 -1.03125q-1.40625 1.03125 -2.4375 1.03125q-0.6875 0 -1.171875 -0.421875q-0.46875 -0.421875 -0.46875 -1.3125q0 -0.90625 0.953125 -1.625q0.953125 -0.71875 3.078125 -0.859375l0 -1.484375q0 -0.453125 -0.328125 -0.6875q-0.328125 -0.25 -0.921875 -0.25q-0.59375 0 -0.953125 0.328125q-0.34375 0.328125 -0.34375 0.84375q0 0.1875 0.046875 0.4375l-0.34375 0.15625q-0.328125 -0.171875 -0.609375 -0.46875q-0.28125 -0.3125 -0.28125 -0.453125q0 -0.140625 0.21875 -0.390625q0.21875 -0.265625 0.578125 -0.5625q0.375 -0.3125 0.984375 -0.53125q0.625 -0.21875 1.390625 -0.21875q0.765625 0 1.25 0.375q0.484375 0.375 0.484375 1.359375q0 0.984375 0.09375 4.15625q0.015625 0.765625 0.578125 0.765625q0.234375 0 0.484375 -0.125l0.171875 0.40625q-0.609375 0.5625 -1.328125 0.5625z" fill-rule="nonzero"/><path fill="#d5a6bd" d="m47.766857 59.51022l241.88976 0l0 41.763783l-241.88976 0z" fill-rule="evenodd"/><path stroke="#000000" stroke-width="1.0" stroke-linejoin="round" stroke-linecap="butt" d="m47.766857 59.51022l241.88976 0l0 41.763783l-241.88976 0z" fill-rule="evenodd"/><path fill="#000000" d="m106.187225 83.276474q1.5 0 2.453125 -0.609375q0.96875 -0.625 1.28125 -1.671875l0.4375 0.1875q-0.171875 0.578125 -0.375 2.140625q-1.953125 0.734375 -3.84375 0.734375q-2.625 0 -4.171875 -1.421875q-1.53125 -1.4375 -1.53125 -3.984375q0 -2.546875 1.515625 -4.21875q1.53125 -1.671875 4.171875 -1.671875q0.734375 0 1.640625 0.125q0.921875 0.125 1.25 0.125q0.34375 0 0.71875 -0.09375l0 0.234375q0 1.171875 0.1875 2.25l-0.421875 0.203125q-0.640625 -2.109375 -3.390625 -2.109375q-1.609375 0 -2.75 1.140625q-0.578125 0.5625 -0.90625 1.5q-0.328125 0.921875 -0.328125 1.984375q0 1.0625 0.21875 1.9375q0.21875 0.859375 0.6875 1.59375q0.46875 0.734375 1.28125 1.1875q0.8125 0.4375 1.875 0.4375zm9.793777 -6.859375q0.125 0 0.421875 0.375q0.296875 0.375 0.390625 0.734375l-0.234375 0.3125q-0.578125 -0.21875 -1.203125 -0.21875q-0.625 0 -1.140625 0.515625q-0.515625 0.515625 -0.515625 1.671875q0.015625 2.8125 0.140625 3.28125q0.015625 0.125 0.453125 0.234375q0.453125 0.09375 0.9375 0.125l-0.0625 0.46875q-0.765625 -0.046875 -1.9375 -0.046875q-1.171875 0 -1.9375 0.046875l0.046875 -0.46875q0.3125 -0.03125 0.65625 -0.125q0.359375 -0.109375 0.375 -0.21875q0.125 -0.5625 0.125 -2.25q0 -2.71875 -0.125 -3.328125l-1.015625 -0.296875l-0.03125 -0.421875q1.015625 0 2.109375 -0.28125l0.296875 0.140625q-0.03125 0.25 -0.03125 1.3125q0.46875 -0.765625 1.171875 -1.15625q0.71875 -0.40625 1.109375 -0.40625zm6.328888 2.328125q0 -0.734375 -0.421875 -1.09375q-0.40625 -0.359375 -0.921875 -0.359375q-0.75 0 -1.296875 0.59375q-0.546875 0.59375 -0.71875 1.453125l3.3125 -0.125q0.046875 -0.234375 0.046875 -0.46875zm-1.390625 5.265625q-1.703125 0 -2.5625 -0.96875q-0.859375 -0.96875 -0.859375 -2.578125q0 -1.609375 0.953125 -2.78125q0.953125 -1.171875 2.875 -1.171875q0.96875 0 1.6875 0.6875q0.734375 0.6875 0.734375 2.046875l-0.546875 0.65625q-0.09375 -0.015625 -1.515625 -0.015625q-1.40625 0 -2.828125 0.109375l0 0.140625q0 1.46875 0.609375 2.203125q0.609375 0.71875 1.65625 0.71875q1.0625 0 2.234375 -0.515625l0.1875 0.484375q-1.234375 0.984375 -2.625 0.984375zm9.359634 -1.03125q-1.109375 1.03125 -2.421875 1.03125q-1.3125 0 -2.15625 -0.953125q-0.828125 -0.953125 -0.828125 -2.71875q0 -1.765625 1.0 -2.796875q1.0 -1.046875 2.46875 -1.046875q0.796875 0 1.921875 0.5625q0 -2.96875 -0.09375 -3.640625l-0.03125 -0.21875l-1.03125 -0.296875l-0.03125 -0.421875q1.03125 0 2.109375 -0.296875l0.3125 0.15625q-0.03125 2.0 -0.03125 5.671875q0 3.65625 0.03125 4.1875q0.03125 0.515625 0.125 0.65625q0.109375 0.140625 0.328125 0.203125q0.328125 0.09375 0.78125 0.125l-0.046875 0.46875q-0.578125 0.046875 -1.75 0.28125q-0.484375 -0.203125 -0.65625 -0.953125zm-1.515625 -5.515625q-1.265625 0 -1.875 0.828125q-0.59375 0.828125 -0.59375 2.046875q0 1.21875 0.53125 1.953125q0.53125 0.71875 1.5 0.71875q0.984375 0 1.859375 -0.5625q0.078125 -1.28125 0.078125 -4.6875q-0.828125 -0.296875 -1.5 -0.296875zm9.59465 1.28125q0 -0.734375 -0.421875 -1.09375q-0.40625 -0.359375 -0.921875 -0.359375q-0.75 0 -1.296875 0.59375q-0.546875 0.59375 -0.71875 1.453125l3.3125 -0.125q0.046875 -0.234375 0.046875 -0.46875zm-1.390625 5.265625q-1.703125 0 -2.5625 -0.96875q-0.859375 -0.96875 -0.859375 -2.578125q0 -1.609375 0.953125 -2.78125q0.953125 -1.171875 2.875 -1.171875q0.96875 0 1.6875 0.6875q0.734375 0.6875 0.734375 2.046875l-0.546875 0.65625q-0.09375 -0.015625 -1.515625 -0.015625q-1.40625 0 -2.828125 0.109375l0 0.140625q0 1.46875 0.609375 2.203125q0.609375 0.71875 1.65625 0.71875q1.0625 0 2.234375 -0.515625l0.1875 0.484375q-1.234375 0.984375 -2.625 0.984375zm6.0940094 -6.015625l-0.015625 2.21875q0 2.0625 0.125 2.6875l0.03125 0.203125q0.015625 0.109375 0.359375 0.21875q0.34375 0.09375 0.671875 0.125l-0.046875 0.46875q-0.765625 -0.046875 -1.765625 -0.046875q-0.984375 0 -1.75 0.046875l0.046875 -0.46875q0.296875 -0.03125 0.640625 -0.125q0.34375 -0.109375 0.359375 -0.21875q0.125 -0.5625 0.125 -2.25q0 -2.71875 -0.125 -3.328125l-1.015625 -0.296875l-0.03125 -0.421875q1.015625 0 2.109375 -0.28125l0.296875 0.140625l0 0.765625q1.78125 -0.921875 3.09375 -0.921875q0.796875 0 1.203125 0.328125q0.421875 0.3125 0.421875 1.1875l0 2.1875q0 2.0625 0.109375 2.6875l0.046875 0.203125q0.03125 0.109375 0.375 0.21875q0.34375 0.09375 0.65625 0.125l-0.046875 0.46875q-0.765625 -0.046875 -1.765625 -0.046875q-0.984375 0 -1.75 0.046875l0.046875 -0.46875q0.296875 -0.03125 0.640625 -0.125q0.34375 -0.109375 0.359375 -0.21875q0.125 -0.5625 0.125 -2.890625l0 -1.5625q0 -0.625 -0.375 -0.859375q-0.359375 -0.234375 -1.234375 -0.234375q-0.875 0 -1.921875 0.4375zm9.319397 6.015625q-1.671875 0 -1.671875 -1.59375q0.015625 -1.40625 0.015625 -2.578125q0 -1.1875 -0.03125 -2.46875l-1.015625 0.015625l-0.046875 -0.171875l0.359375 -0.625q0.21875 0.046875 0.671875 0.0625l-0.0625 -1.46875l1.0625 -0.9375l0.296875 0.140625q-0.03125 1.1875 -0.03125 2.25l2.359375 -0.015625l0.078125 0.1875l-0.578125 0.640625q-0.546875 -0.0625 -1.859375 -0.078125l0 2.140625q0 2.0 0.046875 2.875q0.046875 0.71875 0.84375 0.71875q0.640625 0 1.40625 -0.375l0.203125 0.53125q-1.140625 0.75 -2.046875 0.75zm4.91951 -9.390625q-0.234375 0.234375 -0.59375 0.234375q-0.34375 0 -0.59375 -0.234375q-0.234375 -0.25 -0.234375 -0.609375q0 -0.359375 0.234375 -0.59375q0.25 -0.25 0.59375 -0.25q0.359375 0 0.59375 0.25q0.25 0.234375 0.25 0.59375q0 0.359375 -0.25 0.609375zm0.0625 2.046875l-0.03125 3.546875q0 2.0625 0.125 2.6875l0.046875 0.203125q0.015625 0.109375 0.40625 0.21875q0.390625 0.09375 0.71875 0.125l-0.046875 0.46875q-0.765625 -0.046875 -1.875 -0.046875q-1.09375 0 -1.859375 0.046875l0.046875 -0.46875q0.328125 -0.03125 0.703125 -0.125q0.390625 -0.109375 0.40625 -0.21875q0.125 -0.5625 0.125 -2.25q0 -2.71875 -0.125 -3.328125l-1.015625 -0.296875l-0.03125 -0.421875q1.015625 0 2.109375 -0.28125l0.296875 0.140625zm6.181259 3.84375q-1.3125 0.03125 -2.0 0.5q-0.6875 0.453125 -0.6875 1.0q0 0.546875 0.28125 0.796875q0.28125 0.25 0.90625 0.25q0.625 0 1.5 -0.53125l0 -2.015625zm1.171875 3.5q-0.96875 0 -1.125 -1.03125q-1.40625 1.03125 -2.4375 1.03125q-0.6875 0 -1.171875 -0.421875q-0.46875 -0.421875 -0.46875 -1.3125q0 -0.90625 0.953125 -1.625q0.953125 -0.71875 3.078125 -0.859375l0 -1.484375q0 -0.453125 -0.328125 -0.6875q-0.328125 -0.25 -0.921875 -0.25q-0.59375 0 -0.953125 0.328125q-0.34375 0.328125 -0.34375 0.84375q0 0.1875 0.046875 0.4375l-0.34375 0.15625q-0.328125 -0.171875 -0.609375 -0.46875q-0.28125 -0.3125 -0.28125 -0.453125q0 -0.140625 0.21875 -0.390625q0.21875 -0.265625 0.578125 -0.5625q0.375 -0.3125 0.984375 -0.53125q0.625 -0.21875 1.390625 -0.21875q0.765625 0 1.25 0.375q0.484375 0.375 0.484375 1.359375q0 0.984375 0.09375 4.15625q0.015625 0.765625 0.578125 0.765625q0.234375 0 0.484375 -0.125l0.171875 0.40625q-0.609375 0.5625 -1.328125 0.5625zm4.2807617 -11.671875q-0.03125 2.0 -0.03125 5.859375q0 3.84375 0.171875 4.90625q0.015625 0.109375 0.421875 0.21875q0.40625 0.109375 0.703125 0.125l-0.046875 0.46875q-0.765625 -0.046875 -1.859375 -0.046875q-1.078125 0 -1.859375 0.046875l0.0625 -0.46875q0.328125 -0.03125 0.703125 -0.125q0.375 -0.109375 0.390625 -0.21875q0.109375 -1.046875 0.109375 -4.0q0 -4.8125 -0.09375 -5.640625l-0.03125 -0.265625l-1.015625 -0.296875l-0.03125 -0.421875q1.015625 0 2.109375 -0.296875l0.296875 0.15625zm8.6801605 3.109375q-0.171875 4.0 -0.171875 5.640625l0.0625 1.671875q0.046875 0.390625 0.84375 0.5625q0.1875 0.03125 0.65625 0.125l-0.046875 0.46875q-1.015625 -0.046875 -2.203125 -0.046875q-1.1718903 0 -1.8437653 0.046875l-0.046875 -0.46875q0.765625 -0.15625 1.0468903 -0.28125q0.296875 -0.125 0.328125 -0.40625q0.3125 -2.59375 0.3125 -6.625l-0.0625 -2.125q-0.03125 -0.28125 -0.296875 -0.40625q-0.25 -0.125 -1.0156403 -0.28125l0.046875 -0.46875q1.0156403 0.0625 2.7812653 0.0625l3.8125 9.4375l3.8125 -9.4375q1.8125 0 2.828125 -0.0625l0.046875 0.46875q-0.765625 0.15625 -1.03125 0.28125q-0.25 0.125 -0.296875 0.4375q-0.046875 0.296875 -0.046875 1.046875q0 0.75 0.078125 3.3125q0.15625 3.171875 0.25 4.0625l0.046875 0.296875q0.03125 0.296875 0.296875 0.421875q0.265625 0.109375 1.0625 0.265625l-0.0625 0.46875q-1.0 -0.046875 -2.1875 -0.046875q-1.1875 0 -2.1875 0.046875l-0.046875 -0.46875q0.828125 -0.15625 1.125 -0.28125q0.296875 -0.125 0.296875 -0.40625q0.015625 -0.515625 0.015625 -2.265625q0 -1.75 -0.203125 -5.046875l-0.09375 0l-3.4375 8.40625l-0.984375 0.171875l-3.421875 -8.578125l-0.0625 0zm17.033264 3.296875q0 -0.734375 -0.421875 -1.09375q-0.40625 -0.359375 -0.921875 -0.359375q-0.75 0 -1.296875 0.59375q-0.546875 0.59375 -0.71875 1.453125l3.3125 -0.125q0.046875 -0.234375 0.046875 -0.46875zm-1.390625 5.265625q-1.703125 0 -2.5625 -0.96875q-0.859375 -0.96875 -0.859375 -2.578125q0 -1.609375 0.953125 -2.78125q0.953125 -1.171875 2.875 -1.171875q0.96875 0 1.6875 0.6875q0.734375 0.6875 0.734375 2.046875l-0.546875 0.65625q-0.09375 -0.015625 -1.515625 -0.015625q-1.40625 0 -2.828125 0.109375l0 0.140625q0 1.46875 0.609375 2.203125q0.609375 0.71875 1.65625 0.71875q1.0625 0 2.234375 -0.515625l0.1875 0.484375q-1.234375 0.984375 -2.625 0.984375zm6.4533997 0q-1.671875 0 -1.671875 -1.59375q0.015625 -1.40625 0.015625 -2.578125q0 -1.1875 -0.03125 -2.46875l-1.015625 0.015625l-0.046875 -0.171875l0.359375 -0.625q0.21875 0.046875 0.671875 0.0625l-0.0625 -1.46875l1.0625 -0.9375l0.296875 0.140625q-0.03125 1.1875 -0.03125 2.25l2.359375 -0.015625l0.078125 0.1875l-0.578125 0.640625q-0.546875 -0.0625 -1.859375 -0.078125l0 2.140625q0 2.0 0.046875 2.875q0.046875 0.71875 0.84375 0.71875q0.640625 0 1.40625 -0.375l0.203125 0.53125q-1.140625 0.75 -2.046875 0.75zm6.7632446 -3.5q-1.3125 0.03125 -2.0 0.5q-0.6875 0.453125 -0.6875 1.0q0 0.546875 0.28125 0.796875q0.28125 0.25 0.90625 0.25q0.625 0 1.5 -0.53125l0 -2.015625zm1.171875 3.5q-0.96875 0 -1.125 -1.03125q-1.40625 1.03125 -2.4375 1.03125q-0.6875 0 -1.171875 -0.421875q-0.46875 -0.421875 -0.46875 -1.3125q0 -0.90625 0.953125 -1.625q0.953125 -0.71875 3.078125 -0.859375l0 -1.484375q0 -0.453125 -0.328125 -0.6875q-0.328125 -0.25 -0.921875 -0.25q-0.59375 0 -0.953125 0.328125q-0.34375 0.328125 -0.34375 0.84375q0 0.1875 0.046875 0.4375l-0.34375 0.15625q-0.328125 -0.171875 -0.609375 -0.46875q-0.28125 -0.3125 -0.28125 -0.453125q0 -0.140625 0.21875 -0.390625q0.21875 -0.265625 0.578125 -0.5625q0.375 -0.3125 0.984375 -0.53125q0.625 -0.21875 1.390625 -0.21875q0.765625 0 1.25 0.375q0.484375 0.375 0.484375 1.359375q0 0.984375 0.09375 4.15625q0.015625 0.765625 0.578125 0.765625q0.234375 0 0.484375 -0.125l0.171875 0.40625q-0.609375 0.5625 -1.328125 0.5625zm7.5151367 -1.03125q-1.109375 1.03125 -2.421875 1.03125q-1.3125 0 -2.15625 -0.953125q-0.828125 -0.953125 -0.828125 -2.71875q0 -1.765625 1.0 -2.796875q1.0 -1.046875 2.46875 -1.046875q0.796875 0 1.921875 0.5625q0 -2.96875 -0.09375 -3.640625l-0.03125 -0.21875l-1.03125 -0.296875l-0.03125 -0.421875q1.03125 0 2.109375 -0.296875l0.3125 0.15625q-0.03125 2.0 -0.03125 5.671875q0 3.65625 0.03125 4.1875q0.03125 0.515625 0.125 0.65625q0.109375 0.140625 0.328125 0.203125q0.328125 0.09375 0.78125 0.125l-0.046875 0.46875q-0.578125 0.046875 -1.75 0.28125q-0.484375 -0.203125 -0.65625 -0.953125zm-1.515625 -5.515625q-1.265625 0 -1.875 0.828125q-0.59375 0.828125 -0.59375 2.046875q0 1.21875 0.53125 1.953125q0.53125 0.71875 1.5 0.71875q0.984375 0 1.859375 -0.5625q0.078125 -1.28125 0.078125 -4.6875q-0.828125 -0.296875 -1.5 -0.296875zm8.844666 3.046875q-1.3125 0.03125 -2.0 0.5q-0.6875 0.453125 -0.6875 1.0q0 0.546875 0.28125 0.796875q0.28125 0.25 0.90625 0.25q0.625 0 1.5 -0.53125l0 -2.015625zm1.171875 3.5q-0.96875 0 -1.125 -1.03125q-1.40625 1.03125 -2.4375 1.03125q-0.6875 0 -1.171875 -0.421875q-0.46875 -0.421875 -0.46875 -1.3125q0 -0.90625 0.953125 -1.625q0.953125 -0.71875 3.078125 -0.859375l0 -1.484375q0 -0.453125 -0.328125 -0.6875q-0.328125 -0.25 -0.921875 -0.25q-0.59375 0 -0.953125 0.328125q-0.34375 0.328125 -0.34375 0.84375q0 0.1875 0.046875 0.4375l-0.34375 0.15625q-0.328125 -0.171875 -0.609375 -0.46875q-0.28125 -0.3125 -0.28125 -0.453125q0 -0.140625 0.21875 -0.390625q0.21875 -0.265625 0.578125 -0.5625q0.375 -0.3125 0.984375 -0.53125q0.625 -0.21875 1.390625 -0.21875q0.765625 0 1.25 0.375q0.484375 0.375 0.484375 1.359375q0 0.984375 0.09375 4.15625q0.015625 0.765625 0.578125 0.765625q0.234375 0 0.484375 -0.125l0.171875 0.40625q-0.609375 0.5625 -1.328125 0.5625zm4.6088867 0q-1.671875 0 -1.671875 -1.59375q0.015625 -1.40625 0.015625 -2.578125q0 -1.1875 -0.03125 -2.46875l-1.015625 0.015625l-0.046875 -0.171875l0.359375 -0.625q0.21875 0.046875 0.671875 0.0625l-0.0625 -1.46875l1.0625 -0.9375l0.296875 0.140625q-0.03125 1.1875 -0.03125 2.25l2.359375 -0.015625l0.078125 0.1875l-0.578125 0.640625q-0.546875 -0.0625 -1.859375 -0.078125l0 2.140625q0 2.0 0.046875 2.875q0.046875 0.71875 0.84375 0.71875q0.640625 0 1.40625 -0.375l0.203125 0.53125q-1.140625 0.75 -2.046875 0.75zm6.7632446 -3.5q-1.3125 0.03125 -2.0 0.5q-0.6875 0.453125 -0.6875 1.0q0 0.546875 0.28125 0.796875q0.28125 0.25 0.90625 0.25q0.625 0 1.5 -0.53125l0 -2.015625zm1.171875 3.5q-0.96875 0 -1.125 -1.03125q-1.40625 1.03125 -2.4375 1.03125q-0.6875 0 -1.171875 -0.421875q-0.46875 -0.421875 -0.46875 -1.3125q0 -0.90625 0.953125 -1.625q0.953125 -0.71875 3.078125 -0.859375l0 -1.484375q0 -0.453125 -0.328125 -0.6875q-0.328125 -0.25 -0.921875 -0.25q-0.59375 0 -0.953125 0.328125q-0.34375 0.328125 -0.34375 0.84375q0 0.1875 0.046875 0.4375l-0.34375 0.15625q-0.328125 -0.171875 -0.609375 -0.46875q-0.28125 -0.3125 -0.28125 -0.453125q0 -0.140625 0.21875 -0.390625q0.21875 -0.265625 0.578125 -0.5625q0.375 -0.3125 0.984375 -0.53125q0.625 -0.21875 1.390625 -0.21875q0.765625 0 1.25 0.375q0.484375 0.375 0.484375 1.359375q0 0.984375 0.09375 4.15625q0.015625 0.765625 0.578125 0.765625q0.234375 0 0.484375 -0.125l0.171875 0.40625q-0.609375 0.5625 -1.328125 0.5625z" fill-rule="nonzero"/><path fill="#d5a6bd" d="m45.72441 57.467773l241.88976 0l0 41.76378l-241.88976 0z" fill-rule="evenodd"/><path stroke="#000000" stroke-width="1.0" stroke-linejoin="round" stroke-linecap="butt" d="m45.72441 57.467773l241.88976 0l0 41.76378l-241.88976 0z" fill-rule="evenodd"/><path fill="#000000" d="m104.14478 81.234024q1.5 0 2.453125 -0.609375q0.96875 -0.625 1.28125 -1.671875l0.4375 0.1875q-0.171875 0.578125 -0.375 2.140625q-1.953125 0.734375 -3.84375 0.734375q-2.625 0 -4.171875 -1.421875q-1.53125 -1.4375 -1.53125 -3.984375q0 -2.546875 1.515625 -4.21875q1.53125 -1.671875 4.171875 -1.671875q0.734375 0 1.640625 0.125q0.921875 0.125 1.25 0.125q0.34375 0 0.71875 -0.09375l0 0.234375q0 1.171875 0.1875 2.25l-0.421875 0.203125q-0.640625 -2.109375 -3.390625 -2.109375q-1.609375 0 -2.75 1.140625q-0.578125 0.5625 -0.90625 1.5q-0.328125 0.921875 -0.328125 1.984375q0 1.0625 0.21875 1.9375q0.21875 0.859375 0.6875 1.59375q0.46875 0.734375 1.28125 1.1875q0.8125 0.4375 1.875 0.4375zm9.793777 -6.859375q0.125 0 0.421875 0.375q0.296875 0.375 0.390625 0.734375l-0.234375 0.3125q-0.578125 -0.21875 -1.203125 -0.21875q-0.625 0 -1.140625 0.515625q-0.515625 0.515625 -0.515625 1.671875q0.015625 2.8125 0.140625 3.28125q0.015625 0.125 0.453125 0.234375q0.453125 0.09375 0.9375 0.125l-0.0625 0.46875q-0.765625 -0.046875 -1.9375 -0.046875q-1.171875 0 -1.9375 0.046875l0.046875 -0.46875q0.3125 -0.03125 0.65625 -0.125q0.359375 -0.109375 0.375 -0.21875q0.125 -0.5625 0.125 -2.25q0 -2.71875 -0.125 -3.328125l-1.015625 -0.296875l-0.03125 -0.421875q1.015625 0 2.109375 -0.28125l0.296875 0.140625q-0.03125 0.25 -0.03125 1.3125q0.46875 -0.765625 1.171875 -1.15625q0.71875 -0.40625 1.109375 -0.40625zm6.328888 2.328125q0 -0.734375 -0.421875 -1.09375q-0.40625 -0.359375 -0.921875 -0.359375q-0.75 0 -1.296875 0.59375q-0.546875 0.59375 -0.71875 1.453125l3.3125 -0.125q0.046875 -0.234375 0.046875 -0.46875zm-1.390625 5.265625q-1.703125 0 -2.5625 -0.96875q-0.859375 -0.96875 -0.859375 -2.578125q0 -1.609375 0.953125 -2.78125q0.953125 -1.171875 2.875 -1.171875q0.96875 0 1.6875 0.6875q0.734375 0.6875 0.734375 2.046875l-0.546875 0.65625q-0.09375 -0.015625 -1.515625 -0.015625q-1.40625 0 -2.828125 0.109375l0 0.140625q0 1.46875 0.609375 2.203125q0.609375 0.71875 1.65625 0.71875q1.0625 0 2.234375 -0.515625l0.1875 0.484375q-1.234375 0.984375 -2.625 0.984375zm9.359627 -1.03125q-1.1093674 1.03125 -2.4218674 1.03125q-1.3125 0 -2.15625 -0.953125q-0.828125 -0.953125 -0.828125 -2.71875q0 -1.765625 1.0 -2.796875q1.0 -1.046875 2.46875 -1.046875q0.796875 0 1.9218674 0.5625q0 -2.96875 -0.09375 -3.640625l-0.03125 -0.21875l-1.0312424 -0.296875l-0.03125 -0.421875q1.0312424 0 2.1093674 -0.296875l0.3125 0.15625q-0.03125 2.0 -0.03125 5.671875q0 3.65625 0.03125 4.1875q0.03125 0.515625 0.125 0.65625q0.109375 0.140625 0.328125 0.203125q0.328125 0.09375 0.78125 0.125l-0.046875 0.46875q-0.578125 0.046875 -1.75 0.28125q-0.484375 -0.203125 -0.65625 -0.953125zm-1.5156174 -5.515625q-1.265625 0 -1.875 0.828125q-0.59375 0.828125 -0.59375 2.046875q0 1.21875 0.53125 1.953125q0.53125 0.71875 1.5 0.71875q0.984375 0 1.8593674 -0.5625q0.078125 -1.28125 0.078125 -4.6875q-0.8281174 -0.296875 -1.4999924 -0.296875zm9.594643 1.28125q0 -0.734375 -0.421875 -1.09375q-0.40625 -0.359375 -0.921875 -0.359375q-0.75 0 -1.296875 0.59375q-0.546875 0.59375 -0.71875 1.453125l3.3125 -0.125q0.046875 -0.234375 0.046875 -0.46875zm-1.390625 5.265625q-1.703125 0 -2.5625 -0.96875q-0.859375 -0.96875 -0.859375 -2.578125q0 -1.609375 0.953125 -2.78125q0.953125 -1.171875 2.875 -1.171875q0.96875 0 1.6875 0.6875q0.734375 0.6875 0.734375 2.046875l-0.546875 0.65625q-0.09375 -0.015625 -1.515625 -0.015625q-1.40625 0 -2.828125 0.109375l0 0.140625q0 1.46875 0.609375 2.203125q0.609375 0.71875 1.65625 0.71875q1.0625 0 2.234375 -0.515625l0.1875 0.484375q-1.234375 0.984375 -2.625 0.984375zm6.0940094 -6.015625l-0.015625 2.21875q0 2.0625 0.125 2.6875l0.03125 0.203125q0.015625 0.109375 0.359375 0.21875q0.34375 0.09375 0.671875 0.125l-0.046875 0.46875q-0.765625 -0.046875 -1.765625 -0.046875q-0.984375 0 -1.75 0.046875l0.046875 -0.46875q0.296875 -0.03125 0.640625 -0.125q0.34375 -0.109375 0.359375 -0.21875q0.125 -0.5625 0.125 -2.25q0 -2.71875 -0.125 -3.328125l-1.015625 -0.296875l-0.03125 -0.421875q1.015625 0 2.109375 -0.28125l0.296875 0.140625l0 0.765625q1.78125 -0.921875 3.09375 -0.921875q0.796875 0 1.203125 0.328125q0.421875 0.3125 0.421875 1.1875l0 2.1875q0 2.0625 0.109375 2.6875l0.046875 0.203125q0.03125 0.109375 0.375 0.21875q0.34375 0.09375 0.65625 0.125l-0.046875 0.46875q-0.765625 -0.046875 -1.765625 -0.046875q-0.984375 0 -1.75 0.046875l0.046875 -0.46875q0.296875 -0.03125 0.640625 -0.125q0.34375 -0.109375 0.359375 -0.21875q0.125 -0.5625 0.125 -2.890625l0 -1.5625q0 -0.625 -0.375 -0.859375q-0.359375 -0.234375 -1.234375 -0.234375q-0.875 0 -1.921875 0.4375zm9.319397 6.015625q-1.671875 0 -1.671875 -1.59375q0.015625 -1.40625 0.015625 -2.578125q0 -1.1875 -0.03125 -2.46875l-1.015625 0.015625l-0.046875 -0.171875l0.359375 -0.625q0.21875 0.046875 0.671875 0.0625l-0.0625 -1.46875l1.0625 -0.9375l0.296875 0.140625q-0.03125 1.1875 -0.03125 2.25l2.359375 -0.015625l0.078125 0.1875l-0.578125 0.640625q-0.546875 -0.0625 -1.859375 -0.078125l0 2.140625q0 2.0 0.046875 2.875q0.046875 0.71875 0.84375 0.71875q0.640625 0 1.40625 -0.375l0.203125 0.53125q-1.140625 0.75 -2.046875 0.75zm4.91951 -9.390625q-0.234375 0.234375 -0.59375 0.234375q-0.34375 0 -0.59375 -0.234375q-0.234375 -0.25 -0.234375 -0.609375q0 -0.359375 0.234375 -0.59375q0.25 -0.25 0.59375 -0.25q0.359375 0 0.59375 0.25q0.25 0.234375 0.25 0.59375q0 0.359375 -0.25 0.609375zm0.0625 2.046875l-0.03125 3.546875q0 2.0625 0.125 2.6875l0.046875 0.203125q0.015625 0.109375 0.40625 0.21875q0.390625 0.09375 0.71875 0.125l-0.046875 0.46875q-0.765625 -0.046875 -1.875 -0.046875q-1.09375 0 -1.859375 0.046875l0.046875 -0.46875q0.328125 -0.03125 0.703125 -0.125q0.390625 -0.109375 0.40625 -0.21875q0.125 -0.5625 0.125 -2.25q0 -2.71875 -0.125 -3.328125l-1.015625 -0.296875l-0.03125 -0.421875q1.015625 0 2.109375 -0.28125l0.296875 0.140625zm6.181259 3.84375q-1.3125 0.03125 -2.0 0.5q-0.6875 0.453125 -0.6875 1.0q0 0.546875 0.28125 0.796875q0.28125 0.25 0.90625 0.25q0.625 0 1.5 -0.53125l0 -2.015625zm1.171875 3.5q-0.96875 0 -1.125 -1.03125q-1.40625 1.03125 -2.4375 1.03125q-0.6875 0 -1.171875 -0.421875q-0.46875 -0.421875 -0.46875 -1.3125q0 -0.90625 0.953125 -1.625q0.953125 -0.71875 3.078125 -0.859375l0 -1.484375q0 -0.453125 -0.328125 -0.6875q-0.328125 -0.25 -0.921875 -0.25q-0.59375 0 -0.953125 0.328125q-0.34375 0.328125 -0.34375 0.84375q0 0.1875 0.046875 0.4375l-0.34375 0.15625q-0.328125 -0.171875 -0.609375 -0.46875q-0.28125 -0.3125 -0.28125 -0.453125q0 -0.140625 0.21875 -0.390625q0.21875 -0.265625 0.578125 -0.5625q0.375 -0.3125 0.984375 -0.53125q0.625 -0.21875 1.390625 -0.21875q0.765625 0 1.25 0.375q0.484375 0.375 0.484375 1.359375q0 0.984375 0.09375 4.15625q0.015625 0.765625 0.578125 0.765625q0.234375 0 0.484375 -0.125l0.171875 0.40625q-0.609375 0.5625 -1.328125 0.5625zm4.2807617 -11.671875q-0.03125 2.0 -0.03125 5.859375q0 3.84375 0.171875 4.90625q0.015625 0.109375 0.421875 0.21875q0.40625 0.109375 0.703125 0.125l-0.046875 0.46875q-0.765625 -0.046875 -1.859375 -0.046875q-1.078125 0 -1.859375 0.046875l0.0625 -0.46875q0.328125 -0.03125 0.703125 -0.125q0.375 -0.109375 0.390625 -0.21875q0.109375 -1.046875 0.109375 -4.0q0 -4.8125 -0.09375 -5.640625l-0.03125 -0.265625l-1.015625 -0.296875l-0.03125 -0.421875q1.015625 0 2.109375 -0.296875l0.296875 0.15625zm8.6801605 3.109375q-0.171875 4.0 -0.171875 5.640625l0.0625 1.671875q0.046875 0.390625 0.84375 0.5625q0.1875 0.03125 0.65625 0.125l-0.046875 0.46875q-1.015625 -0.046875 -2.203125 -0.046875q-1.1718903 0 -1.8437653 0.046875l-0.046875 -0.46875q0.765625 -0.15625 1.0468903 -0.28125q0.296875 -0.125 0.328125 -0.40625q0.3125 -2.59375 0.3125 -6.625l-0.0625 -2.125q-0.03125 -0.28125 -0.296875 -0.40625q-0.25 -0.125 -1.0156403 -0.28125l0.046875 -0.46875q1.0156403 0.0625 2.7812653 0.0625l3.8125 9.4375l3.8125 -9.4375q1.8125 0 2.828125 -0.0625l0.046875 0.46875q-0.765625 0.15625 -1.03125 0.28125q-0.25 0.125 -0.296875 0.4375q-0.046875 0.296875 -0.046875 1.046875q0 0.75 0.078125 3.3125q0.15625 3.171875 0.25 4.0625l0.046875 0.296875q0.03125 0.296875 0.296875 0.421875q0.265625 0.109375 1.0625 0.265625l-0.0625 0.46875q-1.0 -0.046875 -2.1875 -0.046875q-1.1875 0 -2.1875 0.046875l-0.046875 -0.46875q0.828125 -0.15625 1.125 -0.28125q0.296875 -0.125 0.296875 -0.40625q0.015625 -0.515625 0.015625 -2.265625q0 -1.75 -0.203125 -5.046875l-0.09375 0l-3.4375 8.40625l-0.984375 0.171875l-3.421875 -8.578125l-0.0625 0zm17.033264 3.296875q0 -0.734375 -0.421875 -1.09375q-0.40625 -0.359375 -0.921875 -0.359375q-0.75 0 -1.296875 0.59375q-0.546875 0.59375 -0.71875 1.453125l3.3125 -0.125q0.046875 -0.234375 0.046875 -0.46875zm-1.390625 5.265625q-1.703125 0 -2.5625 -0.96875q-0.859375 -0.96875 -0.859375 -2.578125q0 -1.609375 0.953125 -2.78125q0.953125 -1.171875 2.875 -1.171875q0.96875 0 1.6875 0.6875q0.734375 0.6875 0.734375 2.046875l-0.546875 0.65625q-0.09375 -0.015625 -1.515625 -0.015625q-1.40625 0 -2.828125 0.109375l0 0.140625q0 1.46875 0.609375 2.203125q0.609375 0.71875 1.65625 0.71875q1.0625 0 2.234375 -0.515625l0.1875 0.484375q-1.234375 0.984375 -2.625 0.984375zm6.4533997 0q-1.671875 0 -1.671875 -1.59375q0.015625 -1.40625 0.015625 -2.578125q0 -1.1875 -0.03125 -2.46875l-1.015625 0.015625l-0.046875 -0.171875l0.359375 -0.625q0.21875 0.046875 0.671875 0.0625l-0.0625 -1.46875l1.0625 -0.9375l0.296875 0.140625q-0.03125 1.1875 -0.03125 2.25l2.359375 -0.015625l0.078125 0.1875l-0.578125 0.640625q-0.546875 -0.0625 -1.859375 -0.078125l0 2.140625q0 2.0 0.046875 2.875q0.046875 0.71875 0.84375 0.71875q0.640625 0 1.40625 -0.375l0.203125 0.53125q-1.140625 0.75 -2.046875 0.75zm6.7632446 -3.5q-1.3125 0.03125 -2.0 0.5q-0.6875 0.453125 -0.6875 1.0q0 0.546875 0.28125 0.796875q0.28125 0.25 0.90625 0.25q0.625 0 1.5 -0.53125l0 -2.015625zm1.171875 3.5q-0.96875 0 -1.125 -1.03125q-1.40625 1.03125 -2.4375 1.03125q-0.6875 0 -1.171875 -0.421875q-0.46875 -0.421875 -0.46875 -1.3125q0 -0.90625 0.953125 -1.625q0.953125 -0.71875 3.078125 -0.859375l0 -1.484375q0 -0.453125 -0.328125 -0.6875q-0.328125 -0.25 -0.921875 -0.25q-0.59375 0 -0.953125 0.328125q-0.34375 0.328125 -0.34375 0.84375q0 0.1875 0.046875 0.4375l-0.34375 0.15625q-0.328125 -0.171875 -0.609375 -0.46875q-0.28125 -0.3125 -0.28125 -0.453125q0 -0.140625 0.21875 -0.390625q0.21875 -0.265625 0.578125 -0.5625q0.375 -0.3125 0.984375 -0.53125q0.625 -0.21875 1.390625 -0.21875q0.765625 0 1.25 0.375q0.484375 0.375 0.484375 1.359375q0 0.984375 0.09375 4.15625q0.015625 0.765625 0.578125 0.765625q0.234375 0 0.484375 -0.125l0.171875 0.40625q-0.609375 0.5625 -1.328125 0.5625zm7.5151367 -1.03125q-1.109375 1.03125 -2.421875 1.03125q-1.3125 0 -2.15625 -0.953125q-0.828125 -0.953125 -0.828125 -2.71875q0 -1.765625 1.0 -2.796875q1.0 -1.046875 2.46875 -1.046875q0.796875 0 1.921875 0.5625q0 -2.96875 -0.09375 -3.640625l-0.03125 -0.21875l-1.03125 -0.296875l-0.03125 -0.421875q1.03125 0 2.109375 -0.296875l0.3125 0.15625q-0.03125 2.0 -0.03125 5.671875q0 3.65625 0.03125 4.1875q0.03125 0.515625 0.125 0.65625q0.109375 0.140625 0.328125 0.203125q0.328125 0.09375 0.78125 0.125l-0.046875 0.46875q-0.578125 0.046875 -1.75 0.28125q-0.484375 -0.203125 -0.65625 -0.953125zm-1.515625 -5.515625q-1.265625 0 -1.875 0.828125q-0.59375 0.828125 -0.59375 2.046875q0 1.21875 0.53125 1.953125q0.53125 0.71875 1.5 0.71875q0.984375 0 1.859375 -0.5625q0.078125 -1.28125 0.078125 -4.6875q-0.828125 -0.296875 -1.5 -0.296875zm8.844666 3.046875q-1.3125 0.03125 -2.0 0.5q-0.6875 0.453125 -0.6875 1.0q0 0.546875 0.28125 0.796875q0.28125 0.25 0.90625 0.25q0.625 0 1.5 -0.53125l0 -2.015625zm1.171875 3.5q-0.96875 0 -1.125 -1.03125q-1.40625 1.03125 -2.4375 1.03125q-0.6875 0 -1.171875 -0.421875q-0.46875 -0.421875 -0.46875 -1.3125q0 -0.90625 0.953125 -1.625q0.953125 -0.71875 3.078125 -0.859375l0 -1.484375q0 -0.453125 -0.328125 -0.6875q-0.328125 -0.25 -0.921875 -0.25q-0.59375 0 -0.953125 0.328125q-0.34375 0.328125 -0.34375 0.84375q0 0.1875 0.046875 0.4375l-0.34375 0.15625q-0.328125 -0.171875 -0.609375 -0.46875q-0.28125 -0.3125 -0.28125 -0.453125q0 -0.140625 0.21875 -0.390625q0.21875 -0.265625 0.578125 -0.5625q0.375 -0.3125 0.984375 -0.53125q0.625 -0.21875 1.390625 -0.21875q0.765625 0 1.25 0.375q0.484375 0.375 0.484375 1.359375q0 0.984375 0.09375 4.15625q0.015625 0.765625 0.578125 0.765625q0.234375 0 0.484375 -0.125l0.171875 0.40625q-0.609375 0.5625 -1.328125 0.5625zm4.6088867 0q-1.671875 0 -1.671875 -1.59375q0.015625 -1.40625 0.015625 -2.578125q0 -1.1875 -0.03125 -2.46875l-1.015625 0.015625l-0.046875 -0.171875l0.359375 -0.625q0.21875 0.046875 0.671875 0.0625l-0.0625 -1.46875l1.0625 -0.9375l0.296875 0.140625q-0.03125 1.1875 -0.03125 2.25l2.359375 -0.015625l0.078125 0.1875l-0.578125 0.640625q-0.546875 -0.0625 -1.859375 -0.078125l0 2.140625q0 2.0 0.046875 2.875q0.046875 0.71875 0.84375 0.71875q0.640625 0 1.40625 -0.375l0.203125 0.53125q-1.140625 0.75 -2.046875 0.75zm6.7632446 -3.5q-1.3125 0.03125 -2.0 0.5q-0.6875 0.453125 -0.6875 1.0q0 0.546875 0.28125 0.796875q0.28125 0.25 0.90625 0.25q0.625 0 1.5 -0.53125l0 -2.015625zm1.171875 3.5q-0.96875 0 -1.125 -1.03125q-1.40625 1.03125 -2.4375 1.03125q-0.6875 0 -1.171875 -0.421875q-0.46875 -0.421875 -0.46875 -1.3125q0 -0.90625 0.953125 -1.625q0.953125 -0.71875 3.078125 -0.859375l0 -1.484375q0 -0.453125 -0.328125 -0.6875q-0.328125 -0.25 -0.921875 -0.25q-0.59375 0 -0.953125 0.328125q-0.34375 0.328125 -0.34375 0.84375q0 0.1875 0.046875 0.4375l-0.34375 0.15625q-0.328125 -0.171875 -0.609375 -0.46875q-0.28125 -0.3125 -0.28125 -0.453125q0 -0.140625 0.21875 -0.390625q0.21875 -0.265625 0.578125 -0.5625q0.375 -0.3125 0.984375 -0.53125q0.625 -0.21875 1.390625 -0.21875q0.765625 0 1.25 0.375q0.484375 0.375 0.484375 1.359375q0 0.984375 0.09375 4.15625q0.015625 0.765625 0.578125 0.765625q0.234375 0 0.484375 -0.125l0.171875 0.40625q-0.609375 0.5625 -1.328125 0.5625z" fill-rule="nonzero"/></g></svg>