<?xml version="1.0" standalone="yes"?>
<svg version="1.1" viewBox="0 0 960 720" fill="none" xmlns="http://www.w3.org/2000/svg">
	<defs>
		<marker id="arrow" viewBox="0 0 6 4" refX="1" refY="2" fill="#000"
      markerWidth="6" markerHeight="4" orient="auto">
    <path d="M0 0v4l6 -2z" />
    </marker>
		<symbol id="gone" viewBox="-40 -40 960 720">
			<g transform="rotate(-45)">
				<circle r="25" fill="red"/>
				<circle r="15" fill="#fff"/>
				<rect x="-15" y="-5" width="30" height="10" fill="red"/>
				<rect class="none" x="-17" y="-4.5" width="34" height="9" fill="red"/>
			</g>
    </symbol>
		<style><![CDATA[
			path.link {stroke:#000;stroke-width:4;marker-end: url(#arrow)}
			rect, circle {stroke:#000;stroke-width:1px}
			rect.none {stroke:none}
			text {fill:#000;font-size:14px;font-family:sans-serif}
			text[aria-level ='1']{font-size:2em;font-weight:bold;font-style:italic}
			text[aria-level = '2']{font-size:1.5em;font-weight:bold}
			#background {fill:#fff;width:100%;height:100%;stroke:none}
		]]></style>
	</defs>
<rect id="background"/>

<text x="225" y="35" role="heading" aria-level="1">Life of a single Verifiable Credential</text>

<rect fill="#dfd" x="20" y="300" width="115" height="85"/>
<text role="heading" aria-level="2" x="40" y="345">Issuer</text>

<path class="link" d="m140 320l245 -60"/>
<text x="200" y="270" role="heading" aria-level="2">Issue</text>
<text x="190" y="285">exactly once</text>

<path class="link" d="m70 390l320 210" stroke-dasharray="15 3"/>
<text x="140" y="510" role="heading" aria-level="2">Revoke</text>
<text x="150" y="525">up to once</text>

<rect fill="#def" x="450" y="220" width="115" height="85"/>
<rect fill="#def" x="430" y="200" width="115" height="85"/>
<rect fill="#def" x="410" y="180" width="115" height="85"/>
<text role="heading" aria-level="2" x="425" y="240">Holders</text>

<path class="link" d="m405 210l-175 -80" stroke-dasharray="15 3"/>
<text x="270" y="120" role="heading" aria-level="2">Delete</text>
<text x="250" y="135">up to once per Holder</text>
<use href="#gone" x="140" y="80"/>

<path class="link" d="m430 175c100 -100 120 -100 125 10"/>
<text x="550" y="120" role="heading" aria-level="2">Transfer</text>
<text x="560" y="135">Repeateable</text>

<path class="link" d="m550 215c30 0 30 5 145 40"/>
<text x="610" y="210" role="heading" aria-level="2">Present</text>
<text x="620" y="225">repeatable</text>

<rect fill="#fe9" x="755" y="285" width="115" height="85"/>
<rect fill="#fe9" x="735" y="265" width="115" height="85"/>
<rect fill="#fe9" x="715" y="245" width="115" height="85"/>
<text role="heading" aria-level="2"  x="720" y="300">Verifiers</text>

<path class="link" d="m855 275c30 -10 45 -40 50 100c-10 200 -200 220 -335 225"/>
<text x="740" y="620" role="heading" aria-level="2">Verify</text>
<text x="740" y="635">repeatable</text>

<path class="link" d="m710 318l-550 20"/>
<text x="390" y="370" role="heading" aria-level="2">Check Status</text>
<text x="380" y="385" font-weight="bold">Does not preserve privacy</text>
<text x="430" y="400">repeatable</text>

<path class="link" d="m730 345c-200 30 -240 140 -250 195"/>
<text x="540" y="480" role="heading" aria-level="2">Check Status</text>
<text x="540" y="495" font-weight="bold">MAY preserve privacy</text>
<text x="580" y="510">repeatable</text>

<rect fill="#fcc" x="410" y="570" width="135" height="85"/>
<text role="heading" aria-level="2" x="430" y="620">Registry</text>

</svg>
