<svg viewBox="0 0 734.648 325.874" fill="none" stroke-linecap="square" stroke-miterlimit="10" xmlns="http://www.w3.org/2000/svg">
 <clipPath id="a">
  <path d="M0 0h734.648v325.874H0V0z"/>
 </clipPath>
 <g clip-path="url(#a)">
  <path fill="none" d="M0 0h734.648v325.874H0z"/>
  <path fill="#b6d7a8" d="M14.58 45.318c0-8.477 6.872-15.35 15.35-15.35h86.655a15.35 15.35 0 0 1 15.35 15.35v61.396c0 8.477-6.873 15.349-15.35 15.349H29.929c-8.477 0-15.349-6.872-15.349-15.35z" fill-rule="evenodd"/>
  <path stroke="#000" stroke-width="2" stroke-linejoin="round" stroke-linecap="butt" d="M14.58 45.318c0-8.477 6.872-15.35 15.35-15.35h86.655a15.35 15.35 0 0 1 15.35 15.35v61.396c0 8.477-6.873 15.349-15.35 15.349H29.929c-8.477 0-15.349-6.872-15.349-15.35z"/>
  <path fill="#000" d="M50.289 75.045V61.17l2.734-.234v13.89l-2.734.22zm8.307.14q-1.547 0-2.5-.702-.937-.704-1.219-1.954l2.032-.671q.078.359.28.64.423.61 1.25.61.47 0 .891-.204.422-.203.422-.64 0-.578-.797-.89l-2.203-.891q-.875-.375-1.343-1.125-.47-.75-.47-1.829 0-1 .5-1.734t1.313-1.11q.813-.39 1.735-.39 1.172 0 2.156.688 1 .687 1.344 1.859l-2.172.672q-.078-.328-.266-.64-.406-.626-1.047-.626-.453 0-.797.219-.328.203-.328.61 0 .484.907.906l1.875.765q.984.453 1.53 1.172.563.703.563 1.906 0 1.078-.515 1.844-.516.75-1.36 1.14-.843.376-1.78.376zm8.414 0q-1.547 0-2.5-.702-.937-.704-1.219-1.954l2.032-.671q.078.359.28.64.423.61 1.25.61.47 0 .891-.204.422-.203.422-.64 0-.578-.797-.89l-2.203-.891q-.875-.375-1.343-1.125-.47-.75-.47-1.829 0-1 .5-1.734t1.313-1.11q.813-.39 1.735-.39 1.172 0 2.156.688 1 .687 1.344 1.859l-2.172.672q-.078-.328-.266-.64-.406-.626-1.047-.626-.453 0-.797.219-.328.203-.328.61 0 .484.907.906l1.875.765q.984.453 1.53 1.172.563.703.563 1.906 0 1.078-.515 1.844-.516.75-1.36 1.14-.843.376-1.781.376zm7.539 0q-1.016 0-1.672-.718-.656-.719-.656-1.938v-7.875l2.61-.218v7.031q0 .75.234 1.078.25.313.765.313.39 0 .828-.188.454-.203.813-.625v-7.39l2.625-.22v10.391l-2.625.22V73.7q-.656.75-1.438 1.125-.765.36-1.484.36zm11.15 0q-1.876 0-2.86-1.484t-.984-3.953q0-2.5 1-3.969 1.015-1.484 2.937-1.484 1.828 0 2.797 1.484.969 1.47.969 3.97 0 .155-.063.218-.047.062-.047.078h-4.984q0 1.219.313 2.219.312 1 .968 1 .735 0 1.078-.844.36-.844.375-.875l1.985.734q-.39 1.344-1.25 2.125-.86.782-2.235.782zm1.28-6.656q0-1.109-.296-1.765-.297-.656-.938-.656-.312 0-.609.328-.297.312-.484.875-.188.547-.188 1.218h2.516zm4.163-3.875 2.61-.218v1.687q.562-.797 1.39-1.281.828-.5 2.11-.5v2.547q-.673 0-1.766.234-1.079.235-1.735.813v6.89l-2.61.22V64.653zM61.351 83.613q-.28.78-.718 2.843-.719 3.344-.813 4.157l-.015.28q-.032.235.171.345.22.093.844.234l-.14.39q-.829-.046-1.813-.046t-1.844.047l.063-.391q.703-.14.953-.234.266-.11.36-.344.25-.781.687-2.844.719-3.36.812-4.172l.047-.265q.016-.25-.172-.344-.187-.11-.812-.235l.125-.39q.828.047 1.75.047t1.765-.047l-.046.39q-.657.125-.891.235-.234.094-.313.344zm5.2 2.312.171.094q-.187.86-.203 1.312l-.375.125q-.031-.672-.281-.937-.25-.281-.735-.281-.468 0-.812.265-.328.25-.406.594-.125.594.484.984l1.203.75q.781.485.578 1.422-.14.688-.797 1.188-.656.5-1.656.5-.984 0-1.969-.344.36-.922.485-1.531l.375-.11q.015.47.031.641.031.172.125.437.11.25.328.329.219.078.688.078.468 0 .828-.266.36-.266.437-.64.125-.563-.422-.907l-1.265-.797q-.781-.468-.578-1.422.14-.687.765-1.203.625-.515 1.563-.515.937 0 1.437.234zm5.09 0 .173.094q-.188.86-.204 1.312l-.375.125q-.03-.672-.28-.937-.25-.281-.735-.281-.469 0-.813.265-.328.25-.406.594-.125.594.484.984l1.204.75q.78.485.578 1.422-.141.688-.797 1.188t-1.656.5q-.985 0-1.97-.344.36-.922.485-1.531l.375-.11q.016.47.031.641.032.172.125.437.11.25.329.329.218.078.687.078.469 0 .828-.266.36-.266.438-.64.125-.563-.422-.907l-1.266-.797q-.781-.468-.578-1.422.14-.687.766-1.203.625-.515 1.562-.515.938 0 1.438.234zm2.186 6.016q-1.36 0-1.063-1.39l.375-1.782q.39-1.797.39-2.235l-.75-.25.063-.343q.782 0 1.735-.25l.234.125q-.562 2.39-.969 4.328-.203.906.891.906.453 0 1-.156.562-.156.906-.344.203-.719.406-1.687.391-1.813.391-2.329l-.781-.25.047-.343q.843 0 1.797-.25l.25.125q-.266 1-.75 3.312l-.282 1.547q-.062.234.094.36.156.124.313.156.171.031.484.047l-.125.39q-.5.047-1.516.235-.359-.172-.375-.797-1.468.875-2.765.875zm10.268-4.39q.125-.61-.157-.907-.265-.313-.687-.313-.625 0-1.188.5-.562.5-.875 1.22l2.797-.11q.063-.203.11-.39zM82 91.94q-1.406 0-1.953-.813-.547-.812-.266-2.14.297-1.344 1.281-2.313 1-.984 2.594-.984.813 0 1.297.578.5.562.266 1.687l-.578.547h-1.266q-1.172 0-2.375.094l-.031.11q-.25 1.218.125 1.827.375.594 1.25.594t1.953-.422l.078.407q-1.219.828-2.375.828zm8.18-6.016.172.094q-.188.86-.203 1.312l-.375.125q-.032-.672-.282-.937-.25-.281-.734-.281-.469 0-.812.265-.329.25-.407.594-.125.594.485.984l1.203.75q.781.485.578 1.422-.14.688-.797 1.188-.656.5-1.656.5-.985 0-1.969-.344.36-.922.484-1.531l.375-.11q.016.47.032.641.031.172.125.437.11.25.328.329.219.078.687.078.47 0 .828-.266.36-.266.438-.64.125-.563-.422-.907l-1.266-.797q-.78-.468-.578-1.422.141-.687.766-1.203.625-.515 1.562-.515.938 0 1.438.234z"/>
  <path fill="#b6d7a8" d="M537.01 44.667c0-8.657 7.018-15.675 15.675-15.675h151.643a15.675 15.675 0 0 1 15.675 15.675v62.698c0 8.656-7.018 15.674-15.675 15.674H552.685c-8.657 0-15.675-7.018-15.675-15.674z" fill-rule="evenodd"/>
  <path stroke="#000" stroke-width="2" stroke-linejoin="round" stroke-linecap="butt" d="M537.01 44.667c0-8.657 7.018-15.675 15.675-15.675h151.643a15.675 15.675 0 0 1 15.675 15.675v62.698c0 8.656-7.018 15.674-15.675 15.674H552.685c-8.657 0-15.675-7.018-15.675-15.674z"/>
  <path fill="#000" d="m602.604 74.936-3.297-13.875 3.235-.125 1.859 9.672 1.937-9.547 2.625-.125-3.359 14h-3zm10.975.25q-1.875 0-2.86-1.485-.984-1.484-.984-3.953 0-2.5 1-3.969 1.016-1.484 2.938-1.484 1.828 0 2.797 1.484.968 1.47.968 3.97 0 .155-.062.218-.047.062-.047.078h-4.984q0 1.219.312 2.219.313 1 .969 1 .734 0 1.078-.844.36-.844.375-.875l1.984.734q-.39 1.344-1.25 2.125-.859.782-2.234.782zm1.281-6.657q0-1.109-.297-1.765-.296-.656-.937-.656-.313 0-.61.328-.296.312-.484.875-.187.547-.187 1.218h2.515zm4.162-3.875 2.61-.218v1.687q.562-.797 1.39-1.281.829-.5 2.11-.5v2.547q-.672 0-1.766.234-1.078.235-1.734.813v6.89l-2.61.22V64.653zm7.553-1.562v-2.703l2.61-.188v2.782l-2.61.109zm-.015 11.953v-10.39l2.609-.22v10.391l-2.61.22zm5.406-8.64h-1.281l.094-1.97h1.187v-.187q0-1.11.14-1.781.141-.688.704-1.14.578-.47 1.766-.47 1.14 0 1.78.266v1.578h-.577q-.75 0-.97.407-.218.406-.218 1.14v.188h1.86l-.125 1.968h-1.735v8.422l-2.625.22v-8.642zm5.822-3.313v-2.703l2.609-.188v2.782l-2.61.109zm-.016 11.953v-10.39l2.61-.22v10.391l-2.61.22zm8.25.14q-1.875 0-2.859-1.484t-.984-3.953q0-2.5 1-3.969 1.015-1.484 2.937-1.484 1.828 0 2.797 1.484.969 1.47.969 3.97 0 .155-.063.218-.047.062-.047.078h-4.984q0 1.219.312 2.219.313 1 .97 1 .734 0 1.077-.844.36-.844.375-.875l1.985.734q-.39 1.344-1.25 2.125-.86.782-2.235.782zm1.282-6.656q0-1.109-.297-1.765-.297-.656-.938-.656-.312 0-.61.328-.296.312-.484.875-.187.547-.187 1.218h2.516zm4.162-3.875 2.61-.218v1.687q.562-.797 1.39-1.281.828-.5 2.11-.5v2.547q-.673 0-1.767.234-1.078.235-1.734.813v6.89l-2.61.22V64.653zM582.924 91.863q-.843-.047-1.859-.047-1 0-1.86.047l.063-.391q.703-.14.953-.234.266-.11.36-.344.25-.781.687-2.844.719-3.36.813-4.172l.047-.265q.015-.25-.172-.344-.188-.11-.813-.235l.125-.39q.828.047 1.781.047h2.297q1.297 0 1.844.61.547.608.344 1.515-.344 1.625-2.328 2.515l1.515 3.907q.282.171 1.063.234l-.14.39-2.266.079-1.422-4.422q-.453.031-1.375.031-.532 2.469-.563 3.14l.016.204q-.047.234.172.344.218.093.86.234l-.142.39zm3.391-7.047q.328-1.563-1.875-1.563-.484 0-.64.047-.141.047-.22.234-.312.797-.89 3.5 1.469 0 2.125-.14 1.203-.656 1.5-2.078zm6.794 2.734q.125-.61-.156-.906-.266-.313-.688-.313-.625 0-1.187.5-.563.5-.875 1.22l2.797-.11q.062-.203.109-.39zm-2.094 4.39q-1.406 0-1.953-.812-.547-.812-.266-2.14.297-1.344 1.282-2.313 1-.984 2.593-.984.813 0 1.297.578.5.562.266 1.687l-.578.547h-1.266q-1.172 0-2.375.094l-.031.11q-.25 1.218.125 1.828.375.593 1.25.593t1.953-.422l.078.407q-1.219.828-2.375.828zm7.774-5.53q-.953 0-1.687.78-.735.782-.938 1.75-.203.954.11 1.579.312.625 1.109.625.797 0 1.719-.406.656-3.079.765-4.11-.547-.219-1.078-.219zm2.375-.704q-.36 1.625-1.047 4.86-.687 3.234-.734 4.11 0 .171.797.265l-.125.375q-.625-.032-1.5-.032-.86 0-1.516.032l.125-.375q.922-.094.984-.266.235-.687.829-3.453-.657.406-1.172.578-.5.156-1.094.156-1.094 0-1.547-.859-.453-.875-.172-2.188.281-1.328 1.36-2.28 1.078-.954 2.328-.954.953 0 1.593.406l.672-.484.219.11zm2.269 6.235q-1.36 0-1.063-1.39l.375-1.782q.391-1.797.391-2.235l-.75-.25.062-.343q.782 0 1.735-.25l.234.125q-.562 2.39-.969 4.328-.203.906.891.906.453 0 1-.156.563-.156.906-.344.203-.719.407-1.687.39-1.813.39-2.329l-.781-.25.047-.343q.844 0 1.797-.25l.25.125q-.266 1-.75 3.312l-.282 1.547q-.062.234.094.36.156.124.313.156.172.031.484.047l-.125.39q-.5.047-1.516.235-.359-.172-.375-.797-1.468.875-2.765.875zm10.268-4.39q.125-.61-.156-.907-.266-.313-.688-.313-.625 0-1.187.5-.563.5-.875 1.22l2.796-.11q.063-.203.11-.39zm-2.094 4.39q-1.406 0-1.953-.813-.547-.812-.266-2.14.297-1.344 1.282-2.313 1-.984 2.593-.984.813 0 1.297.578.5.562.266 1.687l-.578.547h-1.266q-1.172 0-2.375.094l-.031.11q-.25 1.218.125 1.828.375.593 1.25.593t1.953-.422l.078.407q-1.219.828-2.375.828zm8.18-6.016.172.094q-.188.86-.203 1.312l-.375.125q-.031-.672-.281-.937-.25-.281-.735-.281-.469 0-.812.265-.328.25-.407.594-.125.594.485.984l1.203.75q.781.485.578 1.422-.14.688-.797 1.188-.656.5-1.656.5-.984 0-1.969-.344.36-.922.485-1.531l.375-.11q.015.47.03.641.032.172.126.438.11.25.328.328.219.078.687.078.47 0 .829-.266t.437-.64q.125-.563-.422-.907l-1.265-.797q-.782-.468-.579-1.422.141-.687.766-1.203.625-.515 1.563-.515.937 0 1.437.234zm2.279 6.016q-1.375 0-1.078-1.344.25-1.172.453-2.14l.422-2.047-.875.015v-.156l.406-.516q.188.031.563.047l.203-1.219 1.047-.797.234.125q-.25.985-.438 1.875h1.97l.03.157-.593.531q-.453-.047-1.532-.063l-.39 1.782q-.344 1.672-.453 2.39-.078.594.578.594.531 0 1.234-.312l.078.453q-1.093.625-1.86.625zm7.17-6.016.173.094q-.188.86-.204 1.312l-.375.125q-.03-.672-.28-.937-.25-.281-.735-.281-.469 0-.813.265-.328.25-.406.594-.125.594.484.984l1.204.75q.78.485.578 1.422-.14.688-.797 1.188-.656.5-1.656.5-.985 0-1.97-.344.36-.922.485-1.531l.375-.11q.016.47.031.641.032.172.125.438.11.25.329.328.218.078.687.078.469 0 .828-.266.36-.266.438-.64.125-.563-.422-.907l-1.266-.797q-.781-.468-.578-1.422.14-.687.766-1.203.625-.515 1.562-.515.938 0 1.438.234zm.608 5.328q.062-.297.312-.469.266-.187.61-.187.359 0 .562.344.203.328.094.86-.11.53-.719 1.093-.594.562-1.656.875l-.047-.281q1.578-.657 1.812-1.766-.218.203-.484.203t-.406-.187q-.14-.188-.078-.485zm13.168-8.61q.813.048 1.625.048.813 0 1.657-.047l-.047.39q-.61.125-.891.266-.281.125-.437.39-3.172 5.423-4.516 8.126l-1.344.125-1.062-8.328q-.063-.235-.25-.344-.188-.11-.782-.235l.141-.39q.828.047 1.75.047t1.781-.047l-.062.39q-.953.172-1.156.329-.094.062-.11.156-.015.094.11 1.234.14 1.125.359 3.031.234 1.891.36 2.875h.062q.484-.921 1.547-2.921 2.172-4.063 2.187-4.22.031-.155-.219-.25-.234-.109-.843-.234l.14-.39zm6.715 4.907q.125-.61-.157-.906-.265-.313-.687-.313-.625 0-1.188.5-.562.5-.875 1.22l2.797-.11q.063-.203.11-.39zm-2.094 4.39q-1.406 0-1.953-.812-.547-.812-.266-2.14.297-1.344 1.281-2.313 1-.984 2.594-.984.813 0 1.297.578.5.562.266 1.687l-.579.547h-1.265q-1.172 0-2.375.094l-.031.11q-.25 1.218.125 1.828.375.593 1.25.593t1.953-.422l.078.407q-1.219.828-2.375.828zM656 85.614q.11 0 .282.312.187.313.218.61l-.265.25q-.438-.188-.953-.188-.516 0-1.047.438-.516.437-.719 1.39-.484 2.344-.453 2.734-.016.11.328.204.344.078.75.109l-.14.39q-.61-.046-1.594-.046-.985 0-1.641.047l.14-.391q.266-.031.563-.11.313-.093.36-.187.203-.469.5-1.86.484-2.265.484-2.78l-.797-.25.047-.344q.844 0 1.797-.25l.25.125q-.078.203-.266 1.093.516-.64 1.172-.968.672-.328.984-.328zm3.447-1.5q-.25.203-.547.203-.281 0-.437-.203-.157-.22-.094-.516.062-.297.297-.5.25-.203.531-.203.297 0 .453.203.172.203.11.5-.063.297-.313.516zm-.297 1.703-.672 2.953q-.36 1.719-.36 2.234l-.015.172q-.015.094.297.188.313.078.594.109l-.14.39q-.626-.046-1.548-.046-.906 0-1.562.047l.125-.391q.281-.031.61-.11.343-.093.39-.187.203-.469.5-1.86.484-2.265.484-2.78l-.812-.25.062-.344q.844 0 1.797-.25l.25.125zm3.43 6.047q-.624-.047-1.562-.047-.937 0-1.593.047l.125-.391q.265-.031.593-.11.329-.093.375-.187.11 0 1.125-4.766l-.937.016v-.156l.406-.516q.188.031.64.047.188-.86.626-1.547.453-.703.953-1.078.5-.39 1.047-.656.89-.438 1.375-.438.11 0 .281.313.188.312.203.625l-.265.25q-.5-.25-1.079-.25-1.53 0-2.125 2.765h1.735l.031.157-.516.515q-.453-.03-1.375-.047-.796 3.704-.875 4.766-.03.094.313.188.36.093.625.109l-.125.39zm4.744-7.75q-.25.203-.547.203-.281 0-.438-.203-.156-.22-.093-.516.062-.297.297-.5.25-.203.53-.203.298 0 .454.203.172.203.11.5-.063.297-.313.516zm-.297 1.703-.672 2.953q-.36 1.719-.36 2.234l-.015.172q-.016.094.297.188.312.078.594.109l-.14.39q-.626-.046-1.548-.046-.906 0-1.562.047l.125-.391q.281-.031.61-.11.343-.093.39-.187.203-.469.5-1.86.484-2.265.484-2.78l-.812-.25.062-.344q.844 0 1.797-.25l.25.125zm5.384 1.734q.125-.61-.156-.906-.266-.313-.688-.313-.625 0-1.187.5-.563.5-.875 1.22l2.797-.11q.062-.203.109-.39zm-2.094 4.39q-1.406 0-1.953-.812-.547-.812-.266-2.14.297-1.344 1.282-2.313 1-.984 2.593-.984.813 0 1.297.578.5.562.266 1.687l-.578.547h-1.266q-1.172 0-2.375.094l-.031.11q-.25 1.218.125 1.828.375.593 1.25.593t1.953-.422l.078.407q-1.219.828-2.375.828zm8.18-6.015.172.094q-.187.86-.203 1.312l-.375.125q-.031-.672-.281-.937-.25-.281-.735-.281-.468 0-.812.265-.328.25-.406.594-.125.594.484.984l1.203.75q.781.485.578 1.422-.14.688-.797 1.188-.656.5-1.656.5-.984 0-1.969-.344.36-.922.485-1.531l.375-.11q.015.47.031.641.031.172.125.438.11.25.328.328.219.078.688.078.468 0 .828-.266.36-.266.437-.64.125-.563-.422-.907l-1.265-.797q-.781-.468-.578-1.422.14-.687.765-1.203.625-.515 1.563-.515.937 0 1.437.234z"/>
  <path fill="#b6d7a8" d="M275.606 44.667c0-8.657 7.018-15.675 15.675-15.675h86.383a15.675 15.675 0 0 1 15.675 15.675v62.698c0 8.656-7.018 15.674-15.675 15.674H291.28c-8.657 0-15.675-7.018-15.675-15.674z" fill-rule="evenodd"/>
  <path stroke="#000" stroke-width="2" stroke-linejoin="round" stroke-linecap="butt" d="M275.606 44.667c0-8.657 7.018-15.675 15.675-15.675h86.383a15.675 15.675 0 0 1 15.675 15.675v62.698c0 8.656-7.018 15.674-15.675 15.674H291.28c-8.657 0-15.675-7.018-15.675-15.674z"/>
  <path fill="#000" d="M310.412 67.045V53.17l2.735-.234v5.672h2.61V53.17l2.75-.234v13.89l-2.75.22v-5.938h-2.61v5.718l-2.735.22zm13.943.14q-1.875 0-2.89-1.5-1.016-1.5-1.016-3.968 0-2.469 1-3.938 1.016-1.484 2.906-1.484 1.891 0 2.922 1.484 1.032 1.47 1.032 3.938 0 2.453-1.032 3.969-1.03 1.5-2.922 1.5zm0-1.952q.844 0 1.079-1.016.25-1.031.25-2.531 0-1.485-.25-2.5-.235-1.032-1.079-1.032-.828 0-1.062.97-.219.968-.219 2.359 0 1.718.219 2.734.234 1.016 1.062 1.016zm5.751 1.812V53.28l2.61-.343v13.89l-2.61.22zm7.438.14q-3.015 0-3.015-5.5 0-2.843.75-4.109.75-1.28 2.328-1.28.672 0 1.281.452.625.438.906 1.078V53.28l2.625-.343v13.89l-1.984.22-.64-1.423q-.188.703-.704 1.14-.5.423-1.547.423zm.985-1.874q.547 0 .906-.625.36-.625.36-2.11v-3.515q-.548-.844-1.266-.844-.625 0-.922.453-.281.438-.375 1.14-.078.704-.078 1.876 0 1.203.078 1.953.094.734.39 1.203.297.469.907.469zm9.476 1.875q-1.875 0-2.86-1.485-.984-1.484-.984-3.953 0-2.5 1-3.969 1.016-1.484 2.938-1.484 1.828 0 2.797 1.484.968 1.47.968 3.97 0 .155-.062.218-.047.062-.047.078h-4.984q0 1.219.312 2.219.313 1 .969 1 .734 0 1.078-.844.36-.844.375-.875l1.984.734q-.39 1.344-1.25 2.125-.859.782-2.234.782zm1.281-6.657q0-1.109-.297-1.765-.296-.656-.937-.656-.313 0-.61.328-.296.312-.484.875-.187.547-.187 1.218h2.515zm4.162-3.875 2.61-.218v1.687q.562-.797 1.39-1.281.829-.5 2.11-.5v2.547q-.672 0-1.766.234-1.078.235-1.734.813v6.89l-2.61.22V56.653zM311.595 83.863q-.812-.047-1.625-.047-.812 0-1.656.047l.047-.391q.625-.125.906-.266.297-.14.438-.39l4.375-8.11 1.187-.14 1.328 8.328q.032.234.235.344.203.109.78.234l-.14.39q-.812-.046-1.812-.046-.985 0-1.828.047l.047-.391q.984-.188 1.156-.344.094-.078.11-.14.015-.079-.22-2.391h-3l-1.234 2.36q-.047.171.203.28.25.11.844.235l-.14.39zm2.75-7.907h-.047q-.156.313-.39.766-.235.438-.719 1.39-.484.938-.969 1.86h2.625l-.5-4.016zm8.953 7.094q-1.297.89-2.61.89-1.296 0-1.827-.827-.516-.829-.235-2.157t1.297-2.297q1.031-.968 2.484-.968.61 0 1.032.187.437.188.593.39.172.204.141.329-.11.531-.516.969h-.328q-.062-.438-.375-.797-.297-.36-.89-.36-.828 0-1.438.735-.594.734-.828 1.812-.234 1.078.156 1.641.407.547 1.344.547.938 0 1.938-.531l.062.437zm5.108-4.64q-.954 0-1.688.78-.734.782-.937 1.75-.204.954.109 1.579.312.625 1.11.625.796 0 1.718-.406.656-3.079.766-4.11-.547-.219-1.078-.219zm2.375-.704q-.36 1.625-1.047 4.86-.688 3.234-.735 4.11 0 .171.797.265l-.125.375q-.625-.032-1.5-.032-.86 0-1.515.032l.125-.375q.921-.094.984-.266.234-.687.828-3.453-.656.406-1.172.578-.5.156-1.094.156-1.093 0-1.546-.859-.454-.875-.172-2.188.28-1.328 1.36-2.28 1.077-.954 2.327-.954.953 0 1.594.406l.672-.484.219.11zm2.268 6.235q-1.359 0-1.062-1.39l.375-1.782q.39-1.797.39-2.235l-.75-.25.063-.343q.781 0 1.734-.25l.235.125q-.563 2.39-.969 4.328-.203.906.89.906.454 0 1-.156.563-.156.907-.344.203-.719.406-1.687.39-1.813.39-2.329l-.78-.25.046-.343q.844 0 1.797-.25l.25.125q-.265 1-.75 3.312l-.281 1.547q-.062.234.094.36.156.124.312.156.172.031.485.047l-.125.39q-.5.047-1.516.235-.36-.172-.375-.797-1.469.875-2.766.875zm8.846-7.828q-.25.203-.546.203-.282 0-.438-.203-.156-.22-.094-.516.063-.297.297-.5.25-.203.531-.203.297 0 .454.203.171.203.109.5-.063.297-.313.516zm-.296 1.703-.672 2.953q-.36 1.719-.36 2.234l-.015.172q-.016.094.297.188.312.078.593.109l-.14.39q-.625-.046-1.547-.046-.906 0-1.563.047l.125-.391q.282-.031.61-.11.343-.093.39-.187.203-.469.5-1.86.485-2.265.485-2.78l-.813-.25.063-.344q.843 0 1.797-.25l.25.125zm5.54-.203q.11 0 .281.312.188.313.219.61l-.266.25q-.437-.188-.953-.188t-1.047.438q-.515.437-.719 1.39-.484 2.344-.453 2.734-.015.11.328.204.344.078.75.109l-.14.39q-.61-.046-1.594-.046-.984 0-1.64.047l.14-.391q.266-.031.563-.11.312-.093.359-.187.203-.469.5-1.86.484-2.265.484-2.78l-.797-.25.047-.344q.844 0 1.797-.25l.25.125q-.078.203-.265 1.093.515-.64 1.171-.968.672-.328.985-.328zm4.868 1.937q.125-.61-.156-.906-.266-.313-.688-.313-.625 0-1.187.5-.563.5-.875 1.22l2.797-.11q.062-.203.11-.39zm-2.094 4.39q-1.406 0-1.953-.812-.547-.812-.265-2.14.297-1.344 1.281-2.313 1-.984 2.594-.984.812 0 1.297.578.5.562.265 1.687l-.578.547h-1.266q-1.171 0-2.375.094l-.03.11q-.25 1.218.124 1.828.375.593 1.25.593t1.953-.422l.078.407q-1.218.828-2.375.828zm8.18-6.015.172.094q-.187.86-.203 1.312l-.375.125q-.03-.672-.28-.937-.25-.281-.735-.281-.47 0-.813.265-.328.25-.406.594-.125.594.484.984l1.203.75q.782.485.579 1.422-.141.688-.797 1.188-.657.5-1.657.5-.984 0-1.968-.344.36-.922.484-1.531l.375-.11q.016.47.031.641.032.172.125.438.11.25.328.328.22.078.688.078.469 0 .828-.266.36-.266.438-.64.125-.563-.422-.907l-1.266-.797q-.781-.468-.578-1.422.14-.687.766-1.203.625-.515 1.562-.515.938 0 1.438.234zm.608 5.328q.062-.297.312-.469.266-.187.61-.187.359 0 .562.344.203.328.094.86-.11.53-.72 1.093-.593.562-1.655.875l-.047-.281q1.578-.657 1.812-1.766-.218.203-.484.203t-.406-.187q-.141-.188-.078-.485zM297.585 92.925q-.062-.969-.468-1.328-.391-.36-1.157-.36-.75 0-1.234.376-.469.359-.594.89-.172.86.594 1.453l1.813 1.375q1.187.907.921 2.141-.218 1-1.171 1.75-.938.734-2.47.734-1.515 0-2.53-.484.453-1.094.625-1.969l.406-.156q-.047 1.094.281 1.516.344.406 1.234.406.907 0 1.47-.438.577-.437.718-1.047.172-.812-.594-1.375l-1.828-1.39q-1.062-.797-.797-2.047.203-.984 1.125-1.688.922-.718 2.14-.718.407 0 .86.11.469.093.719.093t.61-.078l-.032.187q-.219.985-.25 1.89l-.39.157zm2.585 7.016q-1.375 0-1.079-1.344.25-1.172.454-2.14l.421-2.047-.875.015v-.156l.407-.516q.187.031.562.047l.203-1.219 1.047-.797.235.125q-.25.985-.438 1.875h1.969l.031.157-.594.531q-.453-.047-1.531-.063l-.39 1.782q-.344 1.672-.454 2.39-.078.594.578.594.532 0 1.235-.312l.078.453q-1.094.625-1.86.625zm6.53-5.61q-.547 0-1.016.282-.453.265-.734.687-.516.75-.657 1.453-.234 1.094.047 1.828.282.72 1.219.72.516 0 .938-.235.437-.235.718-.61.547-.687.719-1.39.594-2.735-1.234-2.735zm.187-.64q1.516 0 2.047.781.531.766.234 2.14-.28 1.376-1.296 2.36-1 .969-2.516.969t-2.047-.766q-.531-.766-.234-2.14.297-1.376 1.297-2.36t2.515-.984zm7.691-.078q.11 0 .282.312.187.313.218.61l-.265.25q-.438-.188-.953-.188-.516 0-1.047.438-.516.437-.72 1.39-.483 2.344-.452 2.734-.016.11.328.204.344.078.75.109l-.14.39q-.61-.046-1.594-.046-.985 0-1.641.047l.14-.391q.266-.031.563-.11.313-.093.36-.187.203-.469.5-1.86.484-2.265.484-2.78l-.797-.25.047-.344q.844 0 1.797-.25l.25.125q-.078.203-.266 1.093.516-.64 1.172-.968.672-.328.984-.328zm4.869 1.937q.125-.61-.156-.906-.266-.313-.688-.313-.625 0-1.187.5-.563.5-.875 1.22l2.796-.11q.063-.203.11-.39zm-2.094 4.39q-1.406 0-1.953-.812-.547-.812-.266-2.14.297-1.344 1.282-2.313 1-.984 2.593-.984.813 0 1.297.578.5.562.266 1.687l-.578.547h-1.266q-1.172 0-2.375.094l-.031.11q-.25 1.218.125 1.828.375.593 1.25.593t1.953-.422l.078.407q-1.219.828-2.375.828zm8.18-6.015.172.094q-.188.86-.203 1.312l-.375.125q-.031-.672-.281-.937-.25-.281-.735-.281-.469 0-.812.265-.328.25-.407.594-.125.594.485.984l1.203.75q.781.485.578 1.422-.14.688-.797 1.188-.656.5-1.656.5-.984 0-1.969-.344.36-.922.485-1.531l.375-.11q.015.47.03.641.032.172.126.438.11.25.328.328.219.078.687.078.47 0 .829-.266t.437-.64q.125-.563-.422-.907l-1.265-.797q-.782-.468-.579-1.422.141-.687.766-1.203.625-.515 1.563-.515.937 0 1.437.234zm.607 5.328q.063-.297.313-.469.265-.187.609-.187.36 0 .562.344.204.328.094.86-.11.53-.719 1.093-.593.562-1.656.875l-.047-.281q1.578-.657 1.813-1.766-.219.203-.485.203-.265 0-.406-.187-.14-.188-.078-.485zm9.544-8.562h2.015q1.469 0 2.094.703.625.703.39 1.797-.234 1.078-1.39 1.984-1.14.906-2.734.906-.438 0-.938-.078l-.5 2.89q-.031.235.172.345.219.093.844.234l-.14.39q-.829-.046-1.813-.046-.985 0-1.844.047l.062-.391q.704-.14.954-.234.265-.11.359-.344.25-.781.687-2.844.72-3.36.813-4.172l.047-.265q.015-.25-.172-.344-.188-.11-.813-.235l.125-.39q.829.047 1.782.047zm.265 4.828q1.157 0 1.922-.547.766-.547 1-1.656.25-1.11-.219-1.578-.468-.485-1.578-.485-.5 0-.64.063-.141.062-.266.39-.281.688-.937 3.782.375.03.718.03zm8.724-1.906q.11 0 .281.312.188.313.22.61l-.267.25q-.437-.188-.953-.188-.515 0-1.047.438-.515.437-.718 1.39-.485 2.344-.453 2.734-.016.11.328.204.343.078.75.109l-.14.39q-.61-.046-1.595-.046-.984 0-1.64.047l.14-.391q.266-.031.563-.11.312-.093.36-.187.202-.469.5-1.86.484-2.265.484-2.78l-.797-.25.047-.344q.843 0 1.796-.25l.25.125q-.078.203-.265 1.093.515-.64 1.172-.968.672-.328.984-.328zm4.869 1.937q.125-.61-.157-.906-.265-.313-.687-.313-.625 0-1.188.5-.562.5-.875 1.22l2.797-.11q.063-.203.11-.39zm-2.094 4.39q-1.406 0-1.953-.812-.547-.812-.266-2.14.297-1.344 1.281-2.313 1-.984 2.594-.984.813 0 1.297.578.5.562.266 1.687l-.579.547h-1.265q-1.172 0-2.375.094l-.031.11q-.25 1.218.125 1.828.375.593 1.25.593t1.953-.422l.078.407q-1.219.828-2.375.828zm8.18-6.015.172.094q-.188.86-.203 1.312l-.375.125q-.032-.672-.282-.937-.25-.281-.734-.281-.469 0-.812.265-.329.25-.407.594-.125.594.485.984l1.203.75q.781.485.578 1.422-.14.688-.797 1.188-.656.5-1.656.5-.985 0-1.969-.344.36-.922.484-1.531l.375-.11q.016.47.032.641.03.172.125.438.109.25.328.328.219.078.687.078.469 0 .828-.266.36-.266.438-.64.125-.563-.422-.907l-1.266-.797q-.78-.468-.578-1.422.14-.687.766-1.203.625-.515 1.562-.515.938 0 1.438.234zm5.122 1.625q.125-.61-.156-.906-.265-.313-.687-.313-.625 0-1.188.5-.562.5-.875 1.22l2.797-.11q.063-.203.11-.39zm-2.093 4.39q-1.407 0-1.953-.812-.547-.812-.266-2.14.297-1.344 1.281-2.313 1-.984 2.594-.984.812 0 1.297.578.5.562.265 1.687l-.578.547h-1.265q-1.172 0-2.375.094l-.032.11q-.25 1.218.125 1.828.375.593 1.25.593t1.954-.422l.078.407q-1.219.828-2.375.828zm6.164-5.015-.422 1.844q-.36 1.719-.36 2.234l-.015.172q-.015.094.25.188.282.078.547.109l-.14.39q-.625-.046-1.454-.046-.812 0-1.468.047l.125-.391q.25-.031.547-.11.312-.093.359-.187.203-.469.5-1.86.484-2.265.484-2.78l-.812-.25.062-.344q.844 0 1.797-.25l.235.125-.141.64q1.64-.765 2.734-.765.672 0 .953.265.297.266.141 1l-.39 1.813q-.36 1.719-.376 2.234l.016.172q-.031.094.234.188.282.078.547.109l-.125.39q-.625-.046-1.453-.046-.828 0-1.484.047l.14-.391q.25-.031.547-.11.297-.093.344-.187.203-.469.61-2.406l.28-1.297q.11-.516-.156-.719-.25-.203-.984-.203t-1.672.375zm6.667 5.016q-1.375 0-1.078-1.344.25-1.172.453-2.14l.422-2.047-.875.015v-.156l.406-.516q.188.031.563.047l.203-1.219 1.047-.797.234.125q-.25.985-.437 1.875h1.968l.032.157-.594.531q-.453-.047-1.531-.063l-.391 1.782q-.344 1.672-.453 2.39-.078.594.578.594.531 0 1.234-.312l.078.453q-1.093.625-1.859.625zm7.17-6.016.173.094q-.188.86-.203 1.312l-.375.125q-.032-.672-.282-.937-.25-.281-.734-.281-.469 0-.813.265-.328.25-.406.594-.125.594.485.984l1.203.75q.78.485.578 1.422-.14.688-.797 1.188-.656.5-1.656.5-.985 0-1.97-.344.36-.922.485-1.531l.375-.11q.016.47.032.641.03.172.125.438.109.25.328.328.218.078.687.078.469 0 .828-.266.36-.266.438-.64.125-.563-.422-.907l-1.266-.797q-.781-.468-.578-1.422.14-.687.766-1.203.625-.515 1.562-.515.938 0 1.438.234z"/>
  <path fill="#b6d7a8" d="M198.168 240.105c0-7.39 5.99-13.38 13.38-13.38h245.523a13.38 13.38 0 0 1 13.38 13.38v53.522c0 7.39-5.99 13.38-13.38 13.38H211.549c-7.39 0-13.381-5.99-13.381-13.38z" fill-rule="evenodd"/>
  <path stroke="#000" stroke-width="2" stroke-linejoin="round" stroke-linecap="butt" d="M198.168 240.105c0-7.39 5.99-13.38 13.38-13.38h245.523a13.38 13.38 0 0 1 13.38 13.38v53.522c0 7.39-5.99 13.38-13.38 13.38H211.549c-7.39 0-13.381-5.99-13.381-13.38z"/>
  <path fill="#000" d="m246.114 265.786-3.297-13.875 3.234-.125 1.86 9.672 1.937-9.547 2.625-.125-3.359 14h-3zm10.975.25q-1.875 0-2.86-1.484-.984-1.485-.984-3.953 0-2.5 1-3.97 1.016-1.483 2.938-1.483 1.828 0 2.797 1.484.968 1.469.968 3.969 0 .156-.062.218-.047.063-.047.079h-4.984q0 1.218.312 2.218.313 1 .969 1 .734 0 1.078-.843.36-.844.375-.875l1.984.734q-.39 1.344-1.25 2.125-.859.781-2.234.781zm1.281-6.656q0-1.11-.297-1.766-.296-.656-.937-.656-.313 0-.61.328-.296.313-.484.875-.187.547-.187 1.219h2.515zm4.162-3.875 2.61-.219v1.688q.562-.797 1.39-1.282.828-.5 2.11-.5v2.547q-.672 0-1.766.235-1.078.234-1.734.812v6.89l-2.61.22v-10.391zm7.553-1.563v-2.703l2.61-.187v2.781l-2.61.11zm-.016 11.954v-10.391l2.61-.219v10.39l-2.61.22zm5.407-8.641h-1.281l.094-1.969h1.187v-.187q0-1.11.14-1.782.141-.687.704-1.14.578-.469 1.765-.469 1.141 0 1.782.266v1.578h-.578q-.75 0-.97.406-.218.406-.218 1.14v.188h1.86l-.126 1.969h-1.734v8.422l-2.625.219v-8.641zm5.822-3.313v-2.703l2.609-.187v2.781l-2.61.11zm-.016 11.954v-10.391l2.61-.219v10.39l-2.61.22zm6.625.14q-.672 0-1.218-.422-.547-.422-.844-1.14-.297-.72-.297-1.61 0-2.047 1.39-2.875 1.391-.828 3.235-.937 0-1.016-.125-1.5-.125-.485-.64-.485-.423 0-.657.344-.219.328-.266.86l-2.562-.454q.187-1.437 1.172-2.046 1-.625 2.312-.625 1.703 0 2.547.906.86.89.86 2.328v5.422q0 .89.28 1.875l-2.562.219-.297-1.282q-.343.594-1 1.016-.64.406-1.328.406zm1.203-1.875q.329 0 .532-.14.218-.157.53-.485v-2.922q-.921 0-1.483.516-.563.5-.563 1.562 0 .704.25 1.094.25.375.734.375zm10.725 1.875q-1.031 0-1.547-.422-.5-.422-.703-1.14l-.64 1.422-1.97-.22V252.13l2.61-.344v4.844q.469-.672 1.172-1.078.719-.406 1.5-.406 1.203 0 1.89 1.28.704 1.282.704 4.11 0 5.5-3.016 5.5zm-.969-1.875q.86 0 1.11-.906.265-.922.265-2.719 0-1.25-.11-1.906-.109-.656-.359-.938-.25-.296-.734-.296-.328 0-.781.25-.453.234-.672.453v3.328q0 1.484.36 2.11.374.624.921.624zm5.79 1.735V252.13l2.609-.344v13.89l-2.61.22zm8.234.14q-1.875 0-2.86-1.484-.984-1.485-.984-3.953 0-2.5 1-3.97 1.016-1.483 2.938-1.483 1.828 0 2.797 1.484.968 1.469.968 3.969 0 .156-.062.218-.047.063-.047.079h-4.984q0 1.218.312 2.218.313 1 .969 1 .734 0 1.078-.843.36-.844.375-.875l1.984.734q-.39 1.344-1.25 2.125-.86.781-2.234.781zm1.281-6.656q0-1.11-.297-1.766-.297-.656-.937-.656-.313 0-.61.328-.296.313-.484.875-.187.547-.187 1.219h2.515zm8.886-7.594h2.86q2.765 0 4.125 1.766 1.359 1.75 1.359 5.297 0 1.875-.516 3.453-.5 1.562-1.625 2.531-1.109.953-2.843.953h-3.36v-14zm3.11 11.813q1.421 0 1.968-1.22.547-1.218.547-3.015v-.625q0-1.297-.156-2.281-.156-1-.734-1.734-.563-.75-1.704-.75h-.312v9.625h.39zm8.773 2.437q-.672 0-1.22-.422-.546-.422-.843-1.14-.297-.72-.297-1.61 0-2.047 1.39-2.875 1.392-.828 3.235-.937 0-1.016-.125-1.5-.125-.485-.64-.485-.422 0-.657.344-.218.328-.265.86l-2.563-.454q.188-1.437 1.172-2.046 1-.625 2.313-.625 1.703 0 2.547.906.859.89.859 2.328v5.422q0 .89.281 1.875l-2.562.219-.297-1.282q-.344.594-1 1.016-.64.406-1.328.406zm1.203-1.875q.328 0 .531-.14.219-.157.531-.485v-2.922q-.922 0-1.484.516-.563.5-.563 1.562 0 .704.25 1.094.25.375.735.375zm9.443 1.828q-1.265 0-2.14-.64-.875-.641-.875-2.282v-5.812h-1.454l.11-1.969h1.406l.266-2.281 2.28-.313v2.594h2.157l-.11 1.969h-2.03v5.781q0 .563.28.813.282.234.813.234.313 0 1.016-.11v1.813q-.078.016-.594.11-.515.093-1.125.093zm4.857.047q-.672 0-1.219-.422t-.843-1.14q-.297-.72-.297-1.61 0-2.047 1.39-2.875 1.39-.828 3.235-.937 0-1.016-.125-1.5-.125-.485-.641-.485-.422 0-.656.344-.219.328-.266.86l-2.562-.454q.187-1.437 1.172-2.046 1-.625 2.312-.625 1.703 0 2.547.906.86.89.86 2.328v5.422q0 .89.28 1.875l-2.562.219-.297-1.282q-.344.594-1 1.016-.64.406-1.328.406zm1.203-1.875q.328 0 .531-.14.22-.157.532-.485v-2.922q-.922 0-1.485.516-.562.5-.562 1.562 0 .704.25 1.094.25.375.734.375zm14.37-4.515h-1.062v6.03l-2.719.22V251.91l3.313-.125q2.406 0 3.765.969 1.36.953 1.36 2.937 0 1.313-.516 2.157-.5.828-1.469 1.39l1.25 3.047 1.266 3.016-2.687.734-2.5-6.39zm-.124-2.016q.968 0 1.515-.39.547-.407.547-1.532 0-1.734-1.719-1.734h-1.28v3.656h.937zm10.056 8.406q-1.875 0-2.86-1.484-.984-1.485-.984-3.953 0-2.5 1-3.97 1.016-1.483 2.938-1.483 1.828 0 2.797 1.484.968 1.469.968 3.969 0 .156-.062.218-.047.063-.047.079h-4.984q0 1.218.312 2.218.313 1 .969 1 .734 0 1.078-.843.36-.844.375-.875l1.984.734q-.39 1.344-1.25 2.125-.859.781-2.234.781zm1.281-6.656q0-1.11-.297-1.766-.296-.656-.937-.656-.313 0-.61.328-.296.313-.484.875-.187.547-.187 1.219h2.515zm7.725 9.672q-2.094 0-3.25-.594-1.156-.578-1.156-1.61 0-.702.515-1.202.531-.5 1.328-.797-.703-.203-1.062-.516-.344-.312-.344-.922 0-.719.5-1.297.5-.593 1.328-1-1.687-.968-1.687-2.703 0-1.031.562-1.765.578-.75 1.485-1.125.906-.375 1.89-.375 1.469 0 2.61.796.562-.515 1.125-.843.578-.344 1.437-.344v1.734q-1.078 0-1.656.266.219.578.297.922.093.328.093.719 0 1.265-.859 2.218-.86.938-2.797.938l-.703-.016q-.156-.015-.406-.015-.235.062-.469.328-.219.25-.219.515 0 .266.188.453.187.188.469.22l2.984.343q2.594.297 2.594 2.516 0 1.734-1.344 2.437-1.328.719-3.453.719zm.078-9q.578 0 .89-.438.313-.437.313-1.234 0-.828-.344-1.234-.328-.407-.843-.407-.579 0-.922.469-.328.469-.328 1.156 0 .625.28 1.157.282.53.954.53zm.031 7.094q2.125 0 2.125-1.157 0-.312-.172-.453-.156-.156-.53-.219-.36-.078-1.173-.125l-1.562-.14q-.328.125-.578.422-.235.28-.235.625 0 .515.531.78.532.267 1.594.267zm6.27-13.204v-2.703l2.608-.187v2.781l-2.609.11zm-.017 11.954v-10.391l2.61-.219v10.39l-2.61.22zm8.032.14q-1.547 0-2.5-.703-.937-.703-1.219-1.953l2.032-.672q.078.36.28.64.423.61 1.25.61.47 0 .891-.203.422-.203.422-.64 0-.579-.797-.891l-2.203-.891q-.875-.375-1.343-1.125-.47-.75-.47-1.828 0-1 .5-1.734.5-.735 1.313-1.11.813-.39 1.735-.39 1.172 0 2.156.687 1 .688 1.344 1.86l-2.172.671q-.078-.328-.266-.64-.406-.625-1.047-.625-.453 0-.797.218-.328.204-.328.61 0 .484.907.906l1.875.766q.984.453 1.53 1.172.563.703.563 1.906 0 1.078-.515 1.844-.516.75-1.36 1.14-.843.375-1.78.375zm8.867-.047q-1.265 0-2.14-.64-.875-.641-.875-2.282v-5.812h-1.454l.11-1.969h1.406l.266-2.281 2.28-.313v2.594h2.157l-.11 1.969h-2.03v5.781q0 .563.28.813.282.234.813.234.313 0 1.016-.11v1.813q-.078.016-.594.11-.515.093-1.125.093zm3.138-10.484 2.61-.219v1.688q.562-.797 1.39-1.282.828-.5 2.11-.5v2.547q-.672 0-1.766.235-1.078.234-1.734.812v6.89l-2.61.22v-10.391zm7.772 13.61q-.438 0-1.094-.126v-2.172q.688.032 1.094.032 1.64 0 1.64-1.532v-.515l-3-9.39 2.844-.126 1.469 6.578 1.406-6.531 2.36-.016-2.688 10.282q-.562 2.015-1.64 2.765-1.063.75-2.391.75zM244.258 275.65q-.828 3.344-1.125 4.704l-.25 1.39q-.031.328.61.469.156.031.53.11l-.14.39q-.828-.047-1.812-.047-.985 0-1.563.047l.063-.39q.672-.141.922-.235.25-.11.343-.344.72-2.156 1.438-5.515l.328-1.766q.016-.25-.172-.344-.187-.11-.812-.234l.125-.39q.828.046 2.312.046l1.5 7.86 4.844-7.86q1.516 0 2.375-.047l-.063.39q-.656.126-.89.235-.235.094-.328.36-.094.25-.235.875-.125.625-.515 2.75-.422 2.64-.5 3.39l-.032.25q-.03.235.172.344.219.094.844.234l-.14.391q-.813-.047-1.813-.047-.984 0-1.828.047l.047-.39q.734-.141.984-.235.266-.11.328-.344l.406-1.89q.313-1.453.72-4.203h-.079l-4.344 7-.86.156-1.327-7.156h-.063zm12.68 4.22q-1.094.03-1.75.421-.657.375-.75.828-.094.453.093.656.188.204.703.204.516 0 1.344-.438l.36-1.672zm.343 2.921q-.797 0-.734-.875-1.36.875-2.219.875-.578 0-.906-.36-.313-.359-.156-1.093.156-.75 1.078-1.344.937-.61 2.718-.734l.266-1.234q.078-.375-.156-.563-.219-.203-.719-.203-.484 0-.844.281-.343.266-.437.688-.031.156-.047.359l-.313.14q-.234-.156-.421-.406-.188-.25-.157-.359.032-.125.266-.344.234-.219.578-.469.36-.25.906-.421.547-.188 1.188-.188.64 0 .969.313.343.312.171 1.14-.171.813-.64 3.453-.14.625.328.625.203 0 .437-.093l.063.343q-.61.47-1.219.47zm5.263-7.828q-.25.203-.547.203-.281 0-.437-.203-.157-.219-.094-.516.062-.296.297-.5.25-.203.53-.203.298 0 .454.203.172.204.11.5-.063.297-.313.516zm-.297 1.703-.672 2.953q-.36 1.719-.36 2.235l-.015.172q-.015.093.297.187.313.078.594.11l-.14.39q-.626-.047-1.548-.047-.906 0-1.562.047l.125-.39q.281-.032.61-.11.343-.094.39-.188.203-.468.5-1.859.484-2.265.484-2.781l-.812-.25.062-.344q.844 0 1.797-.25l.25.125zm3.337 1.11-.422 1.843q-.36 1.719-.36 2.235l-.015.172q-.015.093.25.187.282.078.547.11l-.14.39q-.625-.047-1.454-.047-.812 0-1.468.047l.125-.39q.25-.032.547-.11.312-.094.359-.188.203-.468.5-1.859.484-2.265.484-2.781l-.812-.25.062-.344q.844 0 1.797-.25l.235.125-.141.64q1.64-.765 2.734-.765.672 0 .953.266.297.265.141 1l-.39 1.812q-.36 1.719-.376 2.235l.016.172q-.031.093.234.187.282.078.547.11l-.125.39q-.625-.047-1.453-.047-.828 0-1.484.047l.14-.39q.25-.032.547-.11.297-.094.344-.188.203-.468.61-2.406l.28-1.297q.11-.515-.156-.718-.25-.203-.984-.203t-1.672.375zm6.667 5.015q-1.375 0-1.078-1.344.25-1.171.453-2.14l.422-2.047-.875.016v-.157l.406-.515q.188.03.563.047l.203-1.22 1.047-.796.234.125q-.25.984-.437 1.875h1.968l.032.156-.594.531q-.453-.046-1.531-.062l-.391 1.781q-.344 1.672-.453 2.39-.078.595.578.595.531 0 1.234-.313l.078.453q-1.093.625-1.859.625zm6.265-2.922q-1.094.031-1.75.422-.657.375-.75.828-.094.453.093.656.188.204.703.204.516 0 1.344-.438l.36-1.672zm.343 2.922q-.797 0-.734-.875-1.36.875-2.219.875-.578 0-.906-.36-.313-.359-.156-1.093.156-.75 1.078-1.344.937-.61 2.719-.734l.265-1.234q.078-.375-.156-.563-.219-.203-.719-.203-.484 0-.844.281-.343.266-.437.688-.031.156-.047.359l-.312.14q-.235-.156-.422-.406-.188-.25-.157-.359.032-.125.266-.344.234-.219.578-.469.36-.25.906-.421.547-.188 1.188-.188.64 0 .969.313.343.312.172 1.14-.172.813-.641 3.453-.14.625.328.625.203 0 .438-.093l.062.343q-.61.47-1.219.47zm5.263-7.828q-.25.203-.547.203-.281 0-.437-.203-.157-.219-.094-.516.062-.296.297-.5.25-.203.531-.203.297 0 .453.203.172.204.11.5-.063.297-.313.516zm-.297 1.703-.672 2.953q-.359 1.719-.359 2.235l-.016.172q-.015.093.297.187.313.078.594.11l-.14.39q-.626-.047-1.548-.047-.906 0-1.562.047l.125-.39q.281-.032.61-.11.343-.094.39-.188.203-.468.5-1.859.484-2.265.484-2.781l-.812-.25.062-.344q.844 0 1.797-.25l.25.125zm3.337 1.11-.422 1.843q-.359 1.719-.359 2.235l-.016.172q-.015.093.25.187.282.078.547.11l-.14.39q-.625-.047-1.453-.047-.813 0-1.47.047l.126-.39q.25-.032.547-.11.312-.094.36-.188.202-.468.5-1.859.483-2.265.483-2.781l-.812-.25.062-.344q.844 0 1.797-.25l.235.125-.14.64q1.64-.765 2.733-.765.672 0 .954.266.296.265.14 1l-.39 1.812q-.36 1.719-.375 2.235l.015.172q-.031.093.235.187.28.078.546.11l-.125.39q-.625-.047-1.453-.047-.828 0-1.484.047l.14-.39q.25-.032.547-.11.297-.094.344-.188.203-.468.61-2.406l.28-1.297q.11-.515-.155-.718-.25-.203-.985-.203-.734 0-1.672.375zm12.171-3.313q-.281.781-.719 2.844-.718 3.344-.812 4.156l-.016.281q-.031.235.172.344.219.094.844.234l-.14.391q-.829-.047-1.813-.047-.985 0-1.844.047l.062-.39q.704-.141.954-.235.265-.11.359-.344.25-.781.687-2.844.72-3.359.813-4.171l.047-.266q.015-.25-.172-.344-.188-.11-.813-.234l.125-.39q.829.046 1.75.046.922 0 1.766-.047l-.047.39q-.656.126-.89.235-.235.094-.313.344zm5.011 7.453q-1.109.875-2.203.875-1.093 0-1.625-.797-.531-.797-.218-2.265.312-1.47 1.328-2.328 1.03-.875 2.25-.875.672 0 1.5.468.53-2.469.562-3.031l.016-.188-.813-.25.063-.343q.844 0 1.797-.25l.234.125q-.375 1.672-1.031 4.719-.64 3.046-.719 3.5-.062.437 0 .546.063.11.219.157.265.093.64.109l-.109.39q-.5.048-1.516.235-.359-.172-.375-.797zm-.296-4.578q-1.063 0-1.704.688-.64.687-.859 1.703-.219 1 .094 1.609.312.61 1.125.61.828 0 1.64-.47.313-1.062.907-3.906-.657-.234-1.203-.234zm7.766 1.063q.125-.61-.157-.907-.265-.312-.687-.312-.625 0-1.188.5-.562.5-.875 1.219l2.797-.11q.063-.203.11-.39zm-2.094 4.39q-1.406 0-1.953-.812-.547-.813-.266-2.141.297-1.344 1.281-2.313 1-.984 2.594-.984.813 0 1.297.578.5.563.266 1.688l-.578.547h-1.266q-1.172 0-2.375.093l-.031.11q-.25 1.219.125 1.828.375.594 1.25.594t1.953-.422l.078.406q-1.219.828-2.375.828zm6.164-5.015-.422 1.843q-.359 1.719-.359 2.235l-.016.172q-.015.093.25.187.282.078.547.11l-.14.39q-.625-.047-1.453-.047-.813 0-1.47.047l.126-.39q.25-.032.547-.11.312-.094.36-.188.202-.468.5-1.859.483-2.265.483-2.781l-.812-.25.062-.344q.844 0 1.797-.25l.235.125-.14.64q1.64-.765 2.733-.765.672 0 .954.266.296.265.14 1l-.39 1.812q-.36 1.719-.375 2.235l.015.172q-.031.093.235.187.28.078.546.11l-.125.39q-.625-.047-1.453-.047-.828 0-1.484.047l.14-.39q.25-.032.547-.11.297-.094.344-.188.203-.468.61-2.406l.28-1.297q.11-.515-.155-.718-.25-.203-.985-.203-.734 0-1.672.375zm6.667 5.015q-1.375 0-1.078-1.344.25-1.171.453-2.14l.422-2.047-.875.016v-.157l.406-.515q.188.03.563.047l.203-1.22 1.047-.796.234.125q-.25.984-.437 1.875h1.968l.032.156-.594.531q-.453-.046-1.531-.062l-.39 1.781q-.345 1.672-.454 2.39-.078.595.578.595.531 0 1.234-.313l.079.453q-1.094.625-1.86.625zm5.78-7.828q-.25.203-.547.203-.28 0-.437-.203-.156-.219-.094-.516.063-.296.297-.5.25-.203.531-.203.297 0 .453.203.172.204.11.5-.063.297-.313.516zm-.297 1.703-.671 2.953q-.36 1.719-.36 2.235l-.015.172q-.016.093.296.187.313.078.594.11l-.14.39q-.625-.047-1.547-.047-.907 0-1.563.047l.125-.39q.281-.032.61-.11.343-.094.39-.188.203-.468.5-1.859.485-2.265.485-2.781l-.813-.25.063-.344q.843 0 1.796-.25l.25.125zm3.431 6.047q-.625-.047-1.562-.047-.938 0-1.594.047l.125-.39q.266-.032.594-.11.328-.094.375-.188.11 0 1.125-4.765l-.938.016v-.157l.407-.515q.187.03.64.047.188-.86.625-1.547.453-.703.953-1.078.5-.391 1.047-.657.89-.437 1.375-.437.11 0 .281.312.188.313.204.625l-.266.25q-.5-.25-1.078-.25-1.531 0-2.125 2.766h1.734l.031.156-.515.516q-.453-.031-1.375-.047-.797 3.703-.875 4.766-.031.093.312.187.36.094.625.11l-.125.39zm4.743-7.75q-.25.203-.547.203-.28 0-.437-.203-.156-.219-.094-.516.063-.296.297-.5.25-.203.531-.203.297 0 .453.203.172.204.11.5-.063.297-.313.516zm-.297 1.703-.672 2.953q-.359 1.719-.359 2.235l-.016.172q-.015.093.297.187.313.078.594.11l-.14.39q-.626-.047-1.547-.047-.907 0-1.563.047l.125-.39q.281-.032.61-.11.343-.094.39-.188.203-.468.5-1.859.484-2.265.484-2.781l-.812-.25.062-.344q.844 0 1.797-.25l.25.125zm5.384 1.735q.125-.61-.156-.907-.266-.312-.687-.312-.625 0-1.188.5-.562.5-.875 1.219l2.797-.11q.062-.203.11-.39zm-2.093 4.39q-1.407 0-1.954-.812-.546-.813-.265-2.141.297-1.344 1.281-2.313 1-.984 2.594-.984.812 0 1.297.578.5.563.265 1.688l-.578.547h-1.265q-1.172 0-2.375.093l-.032.11q-.25 1.219.125 1.828.375.594 1.25.594t1.953-.422l.079.406q-1.22.828-2.375.828zm8.367-6.328q.11 0 .281.313.188.312.22.609l-.266.25q-.438-.188-.954-.188-.515 0-1.046.438-.516.437-.72 1.39-.484 2.344-.452 2.735-.016.11.328.203.344.078.75.11l-.14.39q-.61-.047-1.595-.047-.984 0-1.64.047l.14-.39q.266-.032.563-.11.312-.094.36-.188.202-.468.5-1.859.484-2.265.484-2.781l-.797-.25.047-.344q.843 0 1.797-.25l.25.125q-.079.203-.266 1.094.516-.64 1.172-.969.672-.328.984-.328zm4.837.313.172.093q-.187.86-.203 1.313l-.375.125q-.031-.672-.281-.938-.25-.281-.735-.281-.468 0-.812.266-.328.25-.406.593-.125.594.484.985l1.203.75q.781.484.578 1.422-.14.687-.797 1.187-.656.5-1.656.5-.984 0-1.969-.344.36-.921.485-1.53l.375-.11q.015.469.031.64.031.172.125.438.11.25.328.328.219.078.688.078.468 0 .828-.265.36-.266.437-.641.125-.563-.422-.906l-1.265-.797q-.781-.469-.578-1.422.14-.688.765-1.203.625-.516 1.563-.516.937 0 1.437.235zm7.517 3.093q-1.093.031-1.75.422-.656.375-.75.828-.093.453.094.656.188.204.703.204.516 0 1.344-.438l.36-1.672zm.344 2.922q-.797 0-.734-.875-1.36.875-2.219.875-.578 0-.906-.36-.313-.359-.156-1.093.156-.75 1.078-1.344.937-.61 2.718-.734l.266-1.234q.078-.375-.156-.563-.219-.203-.719-.203-.484 0-.844.281-.343.266-.437.688-.031.156-.047.359l-.313.14q-.234-.156-.421-.406-.188-.25-.157-.359.032-.125.266-.344.234-.219.578-.469.36-.25.906-.421.547-.188 1.188-.188.64 0 .969.313.343.312.171 1.14-.171.813-.64 3.453-.14.625.328.625.203 0 .437-.093l.063.343q-.61.47-1.219.47zm4.638-5.015-.422 1.843q-.36 1.719-.36 2.235l-.015.172q-.016.093.25.187.281.078.547.11l-.14.39q-.626-.047-1.454-.047-.812 0-1.469.047l.125-.39q.25-.032.547-.11.313-.094.36-.188.203-.468.5-1.859.484-2.265.484-2.781l-.812-.25.062-.344q.844 0 1.797-.25l.234.125-.14.64q1.64-.765 2.734-.765.672 0 .953.266.297.265.14 1l-.39 1.812q-.36 1.719-.375 2.235l.016.172q-.031.093.234.187.281.078.547.11l-.125.39q-.625-.047-1.453-.047-.828 0-1.484.047l.14-.39q.25-.032.547-.11.297-.094.344-.188.203-.468.61-2.406l.28-1.297q.11-.515-.156-.718-.25-.203-.984-.203-.735 0-1.672.375zm9.292 4.14q-1.11.875-2.203.875-1.094 0-1.625-.797-.532-.797-.219-2.265.312-1.47 1.328-2.328 1.031-.875 2.25-.875.672 0 1.5.468.531-2.469.563-3.031l.015-.188-.812-.25.062-.343q.844 0 1.797-.25l.234.125q-.375 1.672-1.03 4.719-.641 3.046-.72 3.5-.062.437 0 .546.063.11.22.157.265.093.64.109l-.11.39q-.5.048-1.515.235-.36-.172-.375-.797zm-.297-4.578q-1.063 0-1.703.688-.64.687-.86 1.703-.218 1 .094 1.609.313.61 1.125.61.828 0 1.64-.47.313-1.062.907-3.906-.656-.234-1.203-.234zm12.707-1.563q-.062-.968-.468-1.328-.39-.359-1.157-.359-.75 0-1.234.375-.469.36-.594.89-.172.86.594 1.454l1.813 1.375q1.187.906.921 2.14-.218 1-1.171 1.75-.938.735-2.47.735-1.515 0-2.53-.485.453-1.093.625-1.968l.406-.157q-.047 1.094.281 1.516.344.406 1.234.406.907 0 1.47-.437.577-.438.718-1.047.172-.813-.594-1.375l-1.828-1.39q-1.062-.798-.797-2.048.203-.984 1.125-1.687.922-.719 2.14-.719.407 0 .86.11.469.093.719.093t.61-.078l-.032.188q-.219.984-.25 1.89l-.39.156zm5.788 6.126q-1.297.89-2.61.89-1.297 0-1.828-.828-.515-.828-.234-2.156.281-1.328 1.297-2.297 1.03-.969 2.484-.969.61 0 1.031.188.438.187.594.39.172.203.14.328-.109.532-.515.97h-.328q-.063-.438-.375-.798-.297-.36-.89-.36-.829 0-1.438.735-.594.735-.828 1.813-.235 1.078.156 1.64.406.547 1.344.547.937 0 1.937-.531l.063.438zm3.295.812q-.625-.047-1.453-.047-.829 0-1.485.047l.14-.39q.25-.032.548-.11.312-.094.359-.188.266-.859.797-3.328.86-4.015.922-4.687l.015-.234-.812-.25.062-.344q.844 0 1.797-.25l.235.125q-.36 1.562-.922 4.25 1.625-.766 2.812-.766.672 0 .953.266.297.265.141 1l-.39 1.812q-.36 1.719-.36 2.235v.172q-.016.093.25.187.266.078.531.11l-.125.39q-.625-.047-1.453-.047-.828 0-1.484.047l.14-.39q.25-.032.547-.11.313-.094.344-.188.203-.468.61-2.406l.28-1.297q.11-.515-.156-.718-.25-.203-.687-.203-.422 0-.688.03-.265.032-.5.095-.562.14-.734.203l-.125.047q-.844 3.953-.766 4.25-.015.093.25.187.282.078.547.11l-.14.39zm9.687-4.313q.125-.609-.157-.906-.265-.312-.687-.312-.625 0-1.188.5-.562.5-.875 1.219l2.797-.11q.063-.203.11-.39zm-2.094 4.391q-1.406 0-1.953-.812-.547-.813-.266-2.141.297-1.344 1.281-2.313 1-.984 2.594-.984.813 0 1.297.578.5.563.266 1.688l-.578.547h-1.266q-1.172 0-2.375.093l-.031.11q-.25 1.219.125 1.828.375.594 1.25.594t1.953-.422l.078.406q-1.219.828-2.375.828zm9.57-3.172q-.359 1.719-.39 2.235l.016.172q-.016.093.25.187.28.078.547.11l-.141.39q-.625-.047-1.453-.047-.828 0-1.485.047l.141-.39q.25-.032.547-.11.312-.094.36-.188.202-.468.609-2.406l.28-1.297q.11-.515-.155-.718-.266-.203-.688-.203-.422 0-.672.03-.25.032-.453.095-.265.062-.734.25l-.406 1.843q-.344 1.64-.36 2.235v.172q-.015.093.25.187.281.078.547.11l-.14.39q-.626-.047-1.454-.047t-1.484.047l.14-.39q.25-.032.547-.11.313-.094.36-.188.187-.468.484-1.859.485-2.265.485-2.781l-.813-.25.063-.344q.843 0 1.796-.25l.235.125q-.078.328-.14.64 1.624-.765 2.655-.765 1.047 0 1.094.781 1.563-.78 2.688-.78.672 0 .953.265.297.265.14 1l-.39 1.812q-.36 1.719-.375 2.235l.015.172q-.015.093.25.187.266.078.532.11l-.125.39q-.625-.047-1.453-.047-.829 0-1.485.047l.14-.39q.25-.032.548-.11.312-.094.343-.188.204-.468.61-2.406l.281-1.297q.11-.515-.156-.718-.25-.203-1.031-.203-.782 0-1.516.375l-.406 1.843zm8.873.25q-1.094.031-1.75.422-.657.375-.75.828-.094.453.093.656.188.204.704.204.515 0 1.343-.438l.36-1.672zm.343 2.922q-.796 0-.734-.875-1.36.875-2.219.875-.578 0-.906-.36-.312-.359-.156-1.093.156-.75 1.078-1.344.937-.61 2.719-.734l.265-1.234q.078-.375-.156-.563-.219-.203-.719-.203-.484 0-.843.281-.344.266-.438.688-.031.156-.047.359l-.312.14q-.235-.156-.422-.406-.188-.25-.156-.359.03-.125.265-.344.235-.219.578-.469.36-.25.907-.421.546-.188 1.187-.188.64 0 .969.313.344.312.172 1.14-.172.813-.64 3.453-.142.625.327.625.203 0 .438-.093l.062.343q-.61.47-1.219.47zm6.654-6.015.172.093q-.188.86-.203 1.313l-.375.125q-.032-.672-.282-.938-.25-.281-.734-.281-.469 0-.812.266-.329.25-.407.593-.125.594.485.985l1.203.75q.781.484.578 1.422-.14.687-.797 1.187-.656.5-1.656.5-.985 0-1.969-.344.36-.921.484-1.53l.375-.11q.016.469.032.64.03.172.125.438.11.25.328.328.219.078.687.078.47 0 .828-.265.36-.266.438-.641.125-.563-.422-.906l-1.266-.797q-.78-.469-.578-1.422.14-.688.766-1.203.625-.516 1.562-.516.938 0 1.438.235z"/>
  <path fill="none" d="M628.507 123.04v143.842H470.459"/>
  <path stroke="#000" stroke-width="2" stroke-linejoin="round" stroke-linecap="butt" d="M628.507 123.04v143.842H482.459"/>
  <path fill="#000" stroke="#000" stroke-width="2" stroke-linecap="butt" d="m482.46 263.578-9.077 3.304 9.076 3.303z" fill-rule="evenodd"/>
  <path fill="none" d="M73.257 122.063v143.945H197.73v.433"/>
  <path stroke="#000" stroke-width="2" stroke-linejoin="round" stroke-linecap="butt" d="M73.257 122.063v143.945h112.48"/>
  <path fill="#000" stroke="#000" stroke-width="2" stroke-linecap="butt" d="m185.618 269.31 9.19-2.975-8.951-3.628z" fill-rule="evenodd"/>
  <path fill="#cfe2f3" d="M131.934 66.262h134.158v-4.385l8.772 8.771-8.772 8.772v-4.386H131.934z" fill-rule="evenodd"/>
  <path stroke="#000" stroke-linejoin="round" stroke-linecap="butt" d="M131.934 66.262h134.158v-4.385l8.772 8.771-8.772 8.772v-4.386H131.934z"/>
  <path fill="#cfe2f3" d="M394.081 67.7H528.24v-4.385l8.771 8.772-8.771 8.771v-4.386H394.08z" fill-rule="evenodd"/>
  <path stroke="#000" stroke-linejoin="round" stroke-linecap="butt" d="M394.081 67.7H528.24v-4.385l8.771 8.772-8.771 8.771v-4.386H394.08z"/>
  <path fill="none" d="M155.487 79.08h96.567v32h-96.567z"/>
  <path fill="#000" d="M192.66 83.677q-.11.781-.11 2.844 0 3.343.079 4.156l.031.281q.032.235.25.344.235.094.89.234l-.046.39q-.844-.046-1.828-.046-.984 0-1.828.047l-.031-.39q.671-.141.906-.235.25-.11.281-.344.094-.781.094-2.844 0-3.359-.078-4.171l-.016-.266q-.031-.25-.25-.344-.203-.11-.844-.234l.032-.39q.843.046 1.765.046.922 0 1.75-.047l.047.39q-.64.126-.86.235-.202.094-.234.344zm5.7 2.312.187.094q0 .86.078 1.313l-.344.125q-.172-.672-.484-.938-.313-.281-.797-.281-.469 0-.75.266-.282.25-.282.593 0 .594.688.985l1.36.75q.89.484.89 1.422 0 .687-.547 1.187t-1.547.5q-.984 0-2.047-.344.157-.922.157-1.53l.359-.11q.11.468.172.64.062.172.219.438.156.25.39.328.235.078.703.078.47 0 .766-.266.312-.265.312-.64 0-.563-.625-.906l-1.437-.797q-.875-.47-.875-1.422 0-.688.516-1.203.515-.516 1.453-.516.937 0 1.484.234zm5.09 0 .188.094q0 .86.078 1.313l-.344.125q-.172-.672-.484-.938-.313-.281-.797-.281-.469 0-.75.266-.281.25-.281.593 0 .594.687.985l1.36.75q.89.484.89 1.422 0 .687-.547 1.187-.546.5-1.546.5-.985 0-2.047-.344.156-.922.156-1.53l.36-.11q.109.468.171.64.063.172.219.438.156.25.39.328.235.078.704.078.468 0 .765-.266.313-.265.313-.64 0-.563-.625-.906l-1.438-.797q-.875-.47-.875-1.422 0-.688.516-1.203.516-.516 1.453-.516.938 0 1.484.234zm3.467 6.016q-1.36 0-1.36-1.39v-1.782q0-1.797-.093-2.234l-.797-.25-.016-.344q.781 0 1.688-.25l.25.125q-.047 2.39-.047 4.328 0 .906 1.093.906.454 0 .97-.156.515-.156.827-.344.047-.718.047-1.687 0-1.813-.11-2.328l-.827-.25-.032-.344q.844 0 1.75-.25l.266.125q-.047 1-.047 3.313l.047 1.546q0 .235.172.36.187.125.36.156.171.031.484.047l-.047.39q-.485.047-1.453.235-.407-.172-.547-.797-1.281.875-2.578.875zm9.33-4.39q0-.61-.344-.907-.343-.312-.765-.312-.625 0-1.078.5-.453.5-.61 1.218l2.766-.109q.031-.203.031-.39zm-1.156 4.39q-1.406 0-2.125-.812-.719-.813-.719-2.141 0-1.344.781-2.313.797-.984 2.391-.984.813 0 1.422.578.61.563.61 1.688l-.454.547h-1.265q-1.172 0-2.36.093v.11q0 1.218.5 1.828.516.594 1.39.594.876 0 1.86-.422l.156.406q-1.03.828-2.187.828zM177.125 107.38q1.25 0 2.047-.5.812-.516 1.078-1.406l.36.172q-.157.468-.313 1.78-1.64.61-3.203.61-2.188 0-3.47-1.187-1.28-1.188-1.28-3.313t1.265-3.515q1.266-1.391 3.469-1.391.61 0 1.36.11.765.093 1.046.093t.61-.078v.188q0 .984.156 1.89l-.36.156q-.53-1.75-2.828-1.75-1.328 0-2.297.954-.484.468-.75 1.25-.265.765-.265 1.656 0 .875.172 1.594.187.718.578 1.343.39.61 1.062.985.688.359 1.563.359zm8.158-5.703q.109 0 .343.312.25.313.344.61l-.203.25q-.484-.188-1-.188t-.953.438q-.422.437-.422 1.39.016 2.344.125 2.735.016.11.375.203.36.078.766.11l-.047.39q-.625-.047-1.61-.047-.984 0-1.625.047l.047-.39q.266-.032.547-.11.297-.094.313-.188.109-.468.109-1.859 0-2.266-.11-2.781l-.843-.25-.031-.344q.843 0 1.75-.25l.265.125q-.031.203-.031 1.094.39-.64.984-.969.594-.328.907-.328zm5.274 1.937q0-.609-.343-.906-.344-.312-.766-.312-.625 0-1.078.5-.453.5-.61 1.218l2.766-.109q.031-.203.031-.39zm-1.156 4.391q-1.406 0-2.125-.812-.719-.813-.719-2.141 0-1.344.782-2.313.796-.984 2.39-.984.813 0 1.422.578.61.563.61 1.688l-.454.547h-1.265q-1.172 0-2.36.093v.11q0 1.218.5 1.828.516.594 1.39.594.876 0 1.86-.422l.157.406q-1.032.828-2.188.828zm7.805-.875q-.922.875-2.015.875-1.094 0-1.797-.797-.703-.797-.703-2.265 0-1.47.828-2.329.843-.875 2.062-.875.672 0 1.61.47 0-2.47-.079-3.032l-.03-.188-.86-.25-.016-.343q.844 0 1.75-.25l.25.125q-.015 1.672-.015 4.718 0 3.047.015 3.5.031.438.11.547.093.11.265.157.281.093.656.109l-.03.39q-.485.047-1.454.235-.406-.172-.547-.797zm-1.265-4.578q-1.063 0-1.563.687-.5.688-.5 1.704 0 1 .438 1.609.437.61 1.25.61.828 0 1.546-.47.079-1.062.079-3.906-.704-.234-1.25-.234zm7.984 1.062q0-.609-.343-.906-.344-.312-.766-.312-.625 0-1.078.5-.453.5-.61 1.218l2.766-.109q.031-.203.031-.39zm-1.156 4.391q-1.406 0-2.125-.812-.719-.813-.719-2.141 0-1.344.782-2.313.797-.984 2.39-.984.813 0 1.422.578.61.563.61 1.688l-.454.547h-1.265q-1.172 0-2.36.093v.11q0 1.218.5 1.828.516.594 1.391.594t1.86-.422l.156.406q-1.032.828-2.188.828zm5.086-5.016-.015 1.844q0 1.719.11 2.235l.015.171q.015.094.297.188.297.078.562.11l-.047.39q-.64-.047-1.468-.047-.813 0-1.454.047l.032-.39q.25-.032.531-.11.297-.094.312-.188.11-.468.11-1.859 0-2.266-.11-2.781l-.859-.25-.016-.344q.844 0 1.75-.25l.25.125v.64q1.485-.765 2.579-.765.671 0 1.015.266.344.265.344 1v1.812q0 1.719.094 2.235l.047.171q0 .094.28.188.298.078.563.11l-.03.39q-.642-.047-1.47-.047t-1.468.047l.046-.39q.25-.032.532-.11.281-.094.297-.188.109-.468.109-2.406v-1.297q0-.515-.313-.718-.296-.204-1.03-.204-.735 0-1.595.375zm7.745 5.016q-1.375 0-1.375-1.344v-2.14q0-.985-.015-2.047l-.86.015-.03-.156.296-.515q.188.03.563.046l-.047-1.218.875-.797.25.125q-.032.984-.032 1.875h1.97l.062.156-.485.531q-.453-.047-1.547-.062v1.781q0 1.672.047 2.39.047.594.703.594.532 0 1.172-.312l.172.453q-.953.625-1.719.625zm4.109-7.828q-.203.203-.5.203-.282 0-.485-.203-.203-.219-.203-.516 0-.297.203-.5t.485-.203q.297 0 .5.203t.203.5q0 .297-.203.516zm.062 1.703-.031 2.953q0 1.719.11 2.235l.015.171q.016.094.344.188.328.078.61.11l-.048.39q-.64-.047-1.562-.047-.907 0-1.547.047l.031-.39q.281-.032.594-.11.328-.094.344-.188.109-.468.109-1.859 0-2.266-.11-2.781l-.859-.25-.015-.344q.843 0 1.75-.25l.265.125zm5.134 3.203q-1.094.031-1.672.422-.562.375-.562.828 0 .453.234.656.235.204.75.204.516 0 1.25-.438v-1.672zm.969 2.922q-.797 0-.922-.875-1.172.875-2.031.875-.578 0-.985-.36-.39-.359-.39-1.093 0-.75.797-1.344.797-.61 2.562-.734v-1.235q0-.375-.281-.562-.266-.203-.766-.203-.484 0-.78.281-.282.266-.282.688 0 .156.031.359l-.297.14q-.265-.156-.5-.406-.234-.25-.234-.36 0-.124.187-.343.188-.219.485-.469.312-.25.812-.421.516-.188 1.156-.188.641 0 1.032.313.406.312.406 1.14 0 .813.094 3.453 0 .625.468.625.204 0 .422-.093l.125.343q-.5.469-1.11.469zm3.575-9.734q-.015 1.672-.015 4.89 0 3.203.14 4.078.016.094.344.188.328.094.594.11l-.047.39q-.64-.047-1.547-.047-.906 0-1.547.047l.047-.39q.281-.032.594-.11.312-.094.328-.188.094-.859.094-3.328 0-4.015-.094-4.687l-.016-.235-.86-.25-.03-.343q.859 0 1.765-.25l.25.125zm5.422 3.718.188.094q0 .86.078 1.313l-.344.125q-.172-.672-.484-.938-.313-.281-.797-.281-.469 0-.75.266-.281.25-.281.593 0 .594.687.985l1.36.75q.89.484.89 1.422 0 .687-.547 1.187t-1.547.5q-.984 0-2.046-.344.156-.922.156-1.531l.36-.11q.109.47.171.641.063.172.219.438.156.25.39.328.235.078.704.078.468 0 .765-.266.313-.265.313-.64 0-.563-.625-.906l-1.438-.797q-.875-.47-.875-1.422 0-.688.516-1.203.515-.516 1.453-.516.937 0 1.484.234z"/>
  <path fill="none" d="M408.419 79.08H521.93v32H408.42z"/>
  <path fill="#000" d="M456.787 84.99q-.266-.97-.75-1.329-.469-.36-1.234-.36-.75 0-1.157.376-.39.36-.39.89 0 .86.89 1.454l2.11 1.375q1.375.906 1.375 2.14 0 1-.797 1.75-.781.735-2.313.735-1.515 0-2.64-.485.218-1.093.218-1.968l.36-.157q.187 1.094.61 1.516.437.406 1.327.406.907 0 1.375-.437.485-.438.485-1.047 0-.813-.875-1.375l-2.125-1.39q-1.235-.798-1.235-2.048 0-.984.766-1.687.766-.719 1.984-.719.407 0 .89.11.485.093.735.093t.594-.078v.188q0 .984.156 1.89l-.36.156zm5.99 2.624q0-.609-.343-.906-.344-.312-.766-.312-.625 0-1.078.5-.453.5-.61 1.218l2.766-.109q.031-.203.031-.39zm-1.156 4.391q-1.406 0-2.125-.812-.719-.813-.719-2.141 0-1.344.782-2.313.796-.984 2.39-.984.813 0 1.422.578.61.563.61 1.688l-.454.547h-1.265q-1.172 0-2.36.093v.11q0 1.218.5 1.828.516.594 1.39.594.876 0 1.86-.422l.157.406q-1.032.828-2.188.828zm5.086-5.016-.015 1.844q0 1.719.11 2.235l.015.171q.015.094.297.188.296.078.562.11l-.047.39q-.64-.047-1.469-.047-.812 0-1.453.047l.032-.39q.25-.032.53-.11.298-.094.313-.188.11-.468.11-1.859 0-2.266-.11-2.781l-.859-.25-.016-.344q.844 0 1.75-.25l.25.125v.64q1.485-.765 2.578-.765.672 0 1.016.266.344.265.344 1v1.812q0 1.719.094 2.235l.046.171q0 .094.282.188.297.078.562.11l-.031.39q-.64-.047-1.469-.047-.828 0-1.469.047l.047-.39q.25-.032.532-.11.28-.094.296-.188.11-.468.11-2.406v-1.297q0-.515-.313-.718-.297-.204-1.03-.204-.735 0-1.595.375zm10.183 4.141q-.922.875-2.016.875-1.094 0-1.797-.797-.703-.797-.703-2.265 0-1.47.828-2.329.844-.875 2.063-.875.672 0 1.61.47 0-2.47-.079-3.032l-.031-.188-.86-.25-.015-.343q.844 0 1.75-.25l.25.125q-.016 1.672-.016 4.718 0 3.047.016 3.5.031.438.11.547.093.11.265.157.281.093.656.109l-.031.39q-.485.047-1.453.235-.407-.172-.547-.797zm-1.266-4.578q-1.062 0-1.562.687-.5.688-.5 1.704 0 1 .437 1.609.438.61 1.25.61.828 0 1.547-.47.078-1.062.078-3.906-.703-.234-1.25-.234zM432.248 98.755h2.015q1.469 0 2.235.703.78.703.78 1.797 0 1.078-.968 1.984-.953.907-2.547.907-.437 0-.953-.078l.11 2.89q.03.235.25.344.234.094.89.234l-.047.39q-.844-.046-1.828-.046-.984 0-1.828.047l-.031-.39q.672-.141.906-.235.25-.11.281-.344.094-.781.094-2.844 0-3.359-.078-4.171l-.016-.266q-.031-.25-.25-.344-.203-.11-.844-.234l.032-.39q.843.046 1.797.046zm1.296 4.828q1.157 0 1.797-.547.657-.547.657-1.656 0-1.11-.563-1.578-.562-.484-1.672-.484-.5 0-.64.062-.125.063-.172.39-.14.688-.14 3.782.39.031.733.031zm8.318-1.906q.11 0 .344.312.25.313.344.61l-.204.25q-.484-.188-1-.188-.515 0-.953.438-.422.437-.422 1.39.016 2.344.125 2.735.016.11.375.203.36.078.766.11l-.047.39q-.625-.047-1.61-.047-.984 0-1.624.047l.047-.39q.265-.032.547-.11.296-.094.312-.188.11-.468.11-1.859 0-2.266-.11-2.781l-.844-.25-.03-.344q.843 0 1.75-.25l.265.125q-.032.203-.032 1.094.391-.64.985-.969.594-.328.906-.328zm5.275 1.937q0-.609-.344-.906-.344-.312-.766-.312-.625 0-1.078.5-.453.5-.61 1.218l2.767-.109q.03-.203.03-.39zm-1.156 4.391q-1.407 0-2.125-.812-.72-.813-.72-2.141 0-1.344.782-2.313.797-.984 2.39-.984.813 0 1.423.578.609.563.609 1.688l-.453.547h-1.266q-1.172 0-2.36.093v.11q0 1.218.5 1.828.516.594 1.391.594t1.86-.422l.156.406q-1.031.828-2.187.828zm6.898-6.016.188.094q0 .86.078 1.313l-.344.125q-.172-.672-.484-.938-.313-.281-.797-.281-.469 0-.75.266-.281.25-.281.593 0 .594.687.985l1.36.75q.89.484.89 1.422 0 .687-.547 1.187t-1.547.5q-.984 0-2.046-.344.156-.922.156-1.531l.36-.11q.109.47.171.641.063.172.219.438.156.25.39.328.235.078.704.078.468 0 .765-.266.313-.265.313-.64 0-.563-.625-.906l-1.438-.797q-.875-.47-.875-1.422 0-.688.516-1.203.515-.516 1.453-.516.937 0 1.484.234zm5.467 1.625q0-.609-.344-.906-.344-.312-.766-.312-.625 0-1.078.5-.453.5-.61 1.218l2.766-.109q.032-.203.032-.39zm-1.157 4.391q-1.406 0-2.125-.812-.718-.813-.718-2.141 0-1.344.78-2.313.798-.984 2.392-.984.812 0 1.421.578.61.563.61 1.688l-.453.547h-1.266q-1.172 0-2.36.093v.11q0 1.218.5 1.828.516.594 1.391.594t1.86-.422l.156.406q-1.031.828-2.188.828zm5.087-5.016-.016 1.844q0 1.719.11 2.235l.015.171q.016.094.297.188.297.078.563.11l-.047.39q-.641-.047-1.47-.047-.812 0-1.452.047l.031-.39q.25-.032.531-.11.297-.094.313-.188.11-.468.11-1.859 0-2.266-.11-2.781l-.86-.25-.015-.344q.844 0 1.75-.25l.25.125v.64q1.484-.765 2.578-.765.672 0 1.016.266.343.265.343 1v1.812q0 1.719.094 2.235l.047.171q0 .094.281.188.297.078.563.11l-.032.39q-.64-.047-1.468-.047t-1.47.047l.048-.39q.25-.032.531-.11.281-.094.297-.188.11-.468.11-2.406v-1.297q0-.515-.313-.718-.297-.204-1.031-.204-.735 0-1.594.375zm7.745 5.016q-1.375 0-1.375-1.344v-2.14q0-.985-.016-2.047l-.86.015-.03-.156.296-.515q.188.03.563.046l-.047-1.218.875-.797.25.125q-.031.984-.031 1.875h1.969l.062.156-.484.531q-.453-.047-1.547-.062v1.781q0 1.672.047 2.39.047.594.703.594.531 0 1.172-.312l.172.453q-.954.625-1.72.625zm5.64-2.922q-1.094.031-1.673.422-.562.375-.562.828 0 .453.234.656.235.204.75.204.516 0 1.25-.438v-1.672zm.968 2.922q-.797 0-.922-.875-1.172.875-2.031.875-.578 0-.984-.36-.391-.359-.391-1.093 0-.75.797-1.344.797-.61 2.562-.734v-1.235q0-.375-.281-.562-.266-.203-.766-.203-.484 0-.78.281-.282.266-.282.688 0 .156.031.359l-.297.14q-.265-.156-.5-.406-.234-.25-.234-.36 0-.124.187-.343.188-.219.485-.469.312-.25.812-.421.516-.188 1.157-.188.64 0 1.03.313.407.312.407 1.14 0 .813.094 3.453 0 .625.469.625.203 0 .421-.093l.125.343q-.5.469-1.109.469zm3.84 0q-1.374 0-1.374-1.344v-2.14q0-.985-.016-2.047l-.86.015-.03-.156.297-.515q.187.03.562.046l-.047-1.218.875-.797.25.125q-.031.984-.031 1.875h1.969l.062.156-.484.531q-.453-.047-1.547-.062v1.781q0 1.672.047 2.39.047.594.703.594.531 0 1.172-.312l.172.453q-.953.625-1.72.625zm4.11-7.828q-.204.203-.5.203-.282 0-.485-.203-.203-.219-.203-.516 0-.297.203-.5t.484-.203q.297 0 .5.203t.203.5q0 .297-.203.516zm.062 1.703-.032 2.953q0 1.719.11 2.235l.015.171q.016.094.344.188.328.078.61.11l-.047.39q-.64-.047-1.563-.047-.906 0-1.547.047l.032-.39q.28-.032.593-.11.328-.094.344-.188.11-.468.11-1.859 0-2.266-.11-2.781l-.86-.25-.015-.344q.844 0 1.75-.25l.266.125zm4.821.516q-.547 0-.953.28-.39.267-.578.688-.36.75-.36 1.454 0 1.093.438 1.828.438.718 1.375.718.516 0 .89-.234.391-.234.594-.61.391-.687.422-1.39 0-2.734-1.828-2.734zm.063-.641q1.515 0 2.203.781.703.766.703 2.14 0 1.376-.797 2.36-.797.969-2.312.969-1.516 0-2.22-.766-.687-.765-.687-2.14t.797-2.36q.797-.984 2.313-.984zm5.738 1.234-.016 1.844q0 1.719.11 2.235l.015.171q.016.094.297.188.297.078.563.11l-.047.39q-.641-.047-1.47-.047-.812 0-1.452.047l.031-.39q.25-.032.531-.11.297-.094.313-.188.11-.468.11-1.859 0-2.266-.11-2.781l-.86-.25-.015-.344q.844 0 1.75-.25l.25.125v.64q1.484-.765 2.578-.765.672 0 1.016.266.343.265.343 1v1.812q0 1.719.094 2.235l.047.171q0 .094.281.188.297.078.563.11l-.032.39q-.64-.047-1.468-.047t-1.47.047l.048-.39q.25-.032.531-.11.281-.094.297-.188.11-.468.11-2.406v-1.297q0-.515-.313-.718-.297-.204-1.031-.204-.735 0-1.594.375z"/>
  <path fill="none" d="M484.241 221.822h122.772v42.677H484.241z"/>
  <path fill="#000" d="M503.808 234.45q.828.047 1.64.047.813 0 1.641-.047l.047.39q-.594.125-.844.266-.25.125-.359.39-2.016 5.422-2.781 8.126l-1.313.125-2.844-8.329q-.109-.234-.328-.343-.203-.11-.812-.235l.047-.39q.844.047 1.765.047.922 0 1.766-.047l.031.39q-.922.172-1.094.328-.078.063-.078.157 0 .093.375 1.234.375 1.125 1 3.031.641 1.89.97 2.875h.062l.937-2.922q1.297-4.062 1.281-4.218 0-.157-.265-.25-.266-.11-.89-.235l.046-.39zm7.761 4.906q0-.61-.344-.906-.343-.313-.765-.313-.625 0-1.078.5-.453.5-.61 1.219l2.766-.11q.031-.203.031-.39zm-1.156 4.39q-1.406 0-2.125-.812-.719-.812-.719-2.14 0-1.344.781-2.313.797-.984 2.391-.984.813 0 1.422.578.61.562.61 1.687l-.454.547h-1.265q-1.172 0-2.36.094v.11q0 1.218.5 1.827.516.594 1.39.594.876 0 1.86-.422l.156.406q-1.03.829-2.187.829zm7.024-6.328q.11 0 .344.313.25.312.343.61l-.203.25q-.484-.188-1-.188-.515 0-.953.437-.422.438-.422 1.39.016 2.345.125 2.735.016.11.375.203.36.079.766.11l-.047.39q-.625-.046-1.61-.046-.984 0-1.624.046l.046-.39q.266-.031.547-.11.297-.093.313-.187.11-.469.11-1.86 0-2.265-.11-2.78l-.844-.25-.031-.344q.844 0 1.75-.25l.265.125q-.03.203-.03 1.093.39-.64.984-.968.593-.329.906-.329zm3.118-1.5q-.203.204-.5.204-.281 0-.484-.204-.203-.218-.203-.515 0-.297.203-.5t.484-.203q.297 0 .5.203t.203.5q0 .297-.203.515zm.063 1.704-.032 2.953q0 1.718.11 2.234l.015.172q.016.094.344.187.328.079.61.11l-.047.39q-.641-.046-1.563-.046-.906 0-1.547.046l.032-.39q.28-.031.593-.11.328-.093.344-.187.11-.469.11-1.86 0-2.265-.11-2.78l-.86-.25-.015-.344q.844 0 1.75-.25l.266.125zm4.727 6.046q-.64-.046-1.578-.046-.937 0-1.578.046l.031-.39q.266-.031.579-.11.312-.093.328-.187.109 0 .109-4.766l-.922.016-.031-.156.297-.516q.187.031.64.047 0-.86.297-1.547.313-.703.719-1.078.422-.39.922-.656.797-.438 1.281-.438.11 0 .344.313.25.312.328.625l-.203.25q-.563-.25-1.14-.25-1.532 0-1.532 2.765h1.734l.063.157-.406.515q-.453-.031-1.391-.047 0 3.703.14 4.766 0 .094.36.187.375.094.64.11l-.03.39zm3.571-5.734q-.406.031-.609.156-.187.125-.187.203 0 .063 1.406 4.422 1.469-4.187 1.469-4.39 0-.297-.735-.391l-.047-.39q.453.046.97.046l1.358-.047.032.391q-.672.094-.828.484-.579 1.797-1.938 5.204-1.031 2.593-1.953 3.25-.266.187-.406.218-.14.032-.282.032-.125 0-.375-.313-.25-.312-.328-.61l.203-.265q.25.125.594.125.953 0 1.922-2.437l-.469-.282q-1.03-3.172-1.578-4.437l-.203-.422q-.172-.438-.812-.547l-.047-.39q.922.046 1.422.046l1.375-.047.046.391zm9.913-2.516q-.11.782-.11 2.844 0 3.344.079 4.156l.03.282q.032.234.25.343.235.094.891.235l-.046.39q-.844-.046-1.829-.046-.984 0-1.828.046l-.03-.39q.671-.14.905-.235.25-.109.282-.343.093-.782.093-2.844 0-3.36-.078-4.172l-.015-.266q-.032-.25-.25-.343-.204-.11-.844-.235l.031-.39q.844.047 1.766.047t1.75-.047l.047.39q-.641.125-.86.235-.203.093-.234.343zm6.605 7.454q-.922.875-2.016.875-1.093 0-1.797-.797-.703-.797-.703-2.266 0-1.469.828-2.328.844-.875 2.063-.875.672 0 1.61.469 0-2.47-.079-3.032l-.031-.187-.86-.25-.015-.344q.844 0 1.75-.25l.25.125q-.016 1.672-.016 4.719 0 3.047.016 3.5.031.437.11.547.093.11.265.156.281.094.656.11l-.031.39q-.484.047-1.453.234-.406-.171-.547-.796zm-1.266-4.579q-1.062 0-1.562.688-.5.687-.5 1.703 0 1 .437 1.61.438.609 1.25.609.828 0 1.547-.469.078-1.062.078-3.906-.703-.235-1.25-.235zm7.985 1.063q0-.61-.344-.906-.343-.313-.765-.313-.625 0-1.078.5-.454.5-.61 1.219l2.766-.11q.031-.203.031-.39zm-1.156 4.39q-1.406 0-2.125-.812-.719-.812-.719-2.14 0-1.344.781-2.313.797-.984 2.391-.984.812 0 1.422.578.61.562.61 1.687l-.454.547h-1.266q-1.171 0-2.359.094v.11q0 1.218.5 1.827.516.594 1.39.594.876 0 1.86-.422l.156.406q-1.03.829-2.187.829zm5.086-5.015-.015 1.844q0 1.718.109 2.234l.016.172q.015.094.296.187.297.079.563.11l-.047.39q-.64-.046-1.469-.046-.812 0-1.453.046l.031-.39q.25-.031.532-.11.297-.093.312-.187.11-.469.11-1.86 0-2.265-.11-2.78l-.86-.25-.015-.344q.844 0 1.75-.25l.25.125v.64q1.485-.765 2.578-.765.672 0 1.016.265.344.266.344 1v1.813q0 1.718.093 2.234l.047.172q0 .094.282.187.296.079.562.11l-.031.39q-.64-.046-1.469-.046-.828 0-1.469.046l.047-.39q.25-.031.531-.11.282-.093.297-.187.11-.469.11-2.406v-1.297q0-.516-.313-.719-.297-.203-1.031-.203t-1.594.375zm7.745 5.016q-1.375 0-1.375-1.344v-2.14q0-.985-.015-2.048l-.86.016-.031-.156.297-.516q.187.031.562.047l-.047-1.219.875-.797.25.125q-.03.985-.03 1.875h1.968l.062.157-.484.53q-.453-.046-1.547-.062v1.782q0 1.671.047 2.39.047.594.703.594.531 0 1.172-.313l.172.454q-.953.625-1.719.625zm4.109-7.829q-.204.204-.5.204-.282 0-.485-.204-.203-.218-.203-.515 0-.297.203-.5t.485-.203q.296 0 .5.203.203.203.203.5t-.203.515zm.062 1.704-.031 2.953q0 1.718.11 2.234l.015.172q.015.094.344.187.328.079.609.11l-.047.39q-.64-.046-1.562-.046-.907 0-1.547.046l.03-.39q.282-.031.595-.11.328-.093.343-.187.11-.469.11-1.86 0-2.265-.11-2.78l-.859-.25-.016-.344q.844 0 1.75-.25l.266.125zm4.728 6.046q-.64-.046-1.578-.046-.938 0-1.579.046l.032-.39q.265-.031.578-.11.312-.093.328-.187.11 0 .11-4.766l-.923.016-.03-.156.296-.516q.188.031.64.047 0-.86.298-1.547.312-.703.718-1.078.422-.39.922-.656.797-.438 1.281-.438.11 0 .344.313.25.312.328.625l-.203.25q-.562-.25-1.14-.25-1.532 0-1.532 2.765h1.735l.062.157-.406.515q-.453-.031-1.39-.047 0 3.703.14 4.766 0 .094.36.187.374.094.64.11l-.031.39zm3.086-7.75q-.203.204-.5.204-.28 0-.484-.204-.203-.218-.203-.515 0-.297.203-.5t.484-.203q.297 0 .5.203.204.203.204.5t-.204.515zm.063 1.704-.031 2.953q0 1.718.109 2.234l.016.172q.015.094.343.187.329.079.61.11l-.047.39q-.64-.046-1.563-.046-.906 0-1.546.046l.03-.39q.282-.031.595-.11.328-.093.343-.187.11-.469.11-1.86 0-2.265-.11-2.78l-.86-.25-.015-.344q.844 0 1.75-.25l.266.125zm5.759 1.734q0-.61-.344-.906-.344-.313-.766-.313-.625 0-1.078.5-.453.5-.609 1.219l2.766-.11q.03-.203.03-.39zm-1.156 4.39q-1.407 0-2.125-.812-.72-.812-.72-2.14 0-1.344.782-2.313.797-.984 2.39-.984.813 0 1.423.578.609.562.609 1.687l-.453.547h-1.266q-1.172 0-2.36.094v.11q0 1.218.5 1.827.516.594 1.391.594t1.86-.422l.156.406q-1.031.829-2.187.829zm7.023-6.328q.11 0 .344.313.25.312.344.61l-.203.25q-.485-.188-1-.188-.516 0-.953.437-.422.438-.422 1.39.015 2.345.125 2.735.015.11.375.203.36.079.765.11l-.046.39q-.625-.046-1.61-.046-.984 0-1.625.046l.047-.39q.266-.031.547-.11.297-.093.312-.187.11-.469.11-1.86 0-2.265-.11-2.78l-.843-.25-.032-.344q.844 0 1.75-.25l.266.125q-.031.203-.031 1.093.39-.64.984-.968.594-.329.906-.329zm4.9.313.188.094q0 .859.078 1.312l-.344.125q-.172-.672-.484-.937-.313-.282-.797-.282-.469 0-.75.266-.281.25-.281.594 0 .594.687.984l1.36.75q.89.485.89 1.422 0 .688-.547 1.188t-1.547.5q-.984 0-2.047-.344.157-.922.157-1.531l.359-.11q.11.469.172.64.062.173.219.438.156.25.39.328.235.079.703.079.47 0 .766-.266.313-.266.313-.64 0-.563-.625-.907l-1.438-.797q-.875-.469-.875-1.422 0-.687.516-1.203.515-.515 1.453-.515.937 0 1.484.234zM513.01 256.825q-1.094.03-1.672.422-.562.375-.562.828 0 .453.234.656t.75.203q.516 0 1.25-.437v-1.672zm.969 2.922q-.797 0-.922-.875-1.172.875-2.031.875-.579 0-.985-.36-.39-.36-.39-1.094 0-.75.796-1.343.797-.61 2.563-.735v-1.234q0-.375-.281-.563-.266-.203-.766-.203-.484 0-.781.282-.281.265-.281.687 0 .156.03.36l-.296.14q-.266-.156-.5-.406-.234-.25-.234-.36 0-.125.187-.343.188-.22.484-.47.313-.25.813-.421.516-.187 1.156-.187.64 0 1.031.312.407.313.407 1.14 0 .813.093 3.454 0 .625.47.625.202 0 .421-.094l.125.344q-.5.469-1.11.469zm3.56-5.016-.016 1.844q0 1.718.11 2.234l.015.172q.015.094.297.187.297.079.562.11l-.047.39q-.64-.046-1.468-.046-.813 0-1.454.046l.032-.39q.25-.031.53-.11.298-.093.313-.187.11-.469.11-1.86 0-2.265-.11-2.78l-.859-.25-.016-.344q.844 0 1.75-.25l.25.125v.64q1.485-.765 2.579-.765.671 0 1.015.265.344.266.344 1v1.813q0 1.718.094 2.234l.047.172q0 .094.28.187.298.079.563.11l-.03.39q-.642-.046-1.47-.046t-1.468.046l.046-.39q.25-.031.532-.11.28-.093.297-.187.109-.469.109-2.406v-1.297q0-.516-.313-.719-.296-.203-1.03-.203-.735 0-1.595.375zm10.182 4.14q-.922.876-2.016.876-1.093 0-1.797-.797-.703-.797-.703-2.266 0-1.469.828-2.328.844-.875 2.063-.875.672 0 1.61.469 0-2.47-.079-3.032l-.031-.187-.86-.25-.015-.344q.844 0 1.75-.25l.25.125q-.016 1.672-.016 4.719 0 3.047.016 3.5.031.437.11.547.093.11.265.156.281.094.656.11l-.031.39q-.484.047-1.453.234-.406-.171-.547-.796zm-1.266-4.578q-1.062 0-1.562.688-.5.687-.5 1.703 0 1 .437 1.61.438.609 1.25.609.828 0 1.547-.469.078-1.062.078-3.906-.703-.235-1.25-.235zm12.364-1.562q-.266-.969-.75-1.328-.469-.36-1.234-.36-.75 0-1.157.375-.39.36-.39.891 0 .86.89 1.453l2.11 1.375q1.375.906 1.375 2.14 0 1-.797 1.75-.781.735-2.313.735-1.515 0-2.64-.484.219-1.094.219-1.969l.359-.156q.187 1.094.61 1.515.437.407 1.327.407.907 0 1.375-.438.485-.437.485-1.047 0-.812-.875-1.375l-2.125-1.39q-1.235-.797-1.235-2.047 0-.985.766-1.688.766-.718 1.984-.718.407 0 .891.109.484.094.734.094t.594-.078v.187q0 .984.156 1.89l-.359.157zm7.1 6.125q-1.11.89-2.422.89-1.297 0-2-.828-.703-.828-.703-2.156 0-1.328.812-2.297.828-.968 2.282-.968.609 0 1.078.187.468.188.672.39.203.204.203.329 0 .531-.313.969h-.328q-.156-.438-.547-.797-.375-.36-.969-.36-.828 0-1.28.735-.438.734-.438 1.812t.515 1.64q.516.548 1.453.548.938 0 1.829-.532l.156.438zm3.467.812q-.641-.046-1.47-.046-.827 0-1.468.046l.047-.39q.25-.031.531-.11.297-.093.313-.187.093-.86.093-3.328 0-4.016-.078-4.688l-.03-.234-.86-.25-.016-.344q.844 0 1.75-.25l.25.125q-.016 1.563-.016 4.25 1.47-.765 2.657-.765.672 0 1.015.265.344.266.344 1v1.813q0 1.718.11 2.234l.03.172q.016.094.298.187.28.079.546.11l-.03.39q-.641-.046-1.47-.046-.828 0-1.468.046l.047-.39q.25-.031.53-.11.298-.093.298-.187.11-.469.11-2.406v-1.297q0-.516-.313-.719-.297-.203-.735-.203-.422 0-.687.031-.25.031-.469.094-.531.14-.688.203l-.125.047q0 3.953.141 4.25.016.094.297.187.297.079.562.11l-.046.39zm8.765-4.312q0-.61-.344-.906-.344-.313-.766-.313-.625 0-1.078.5-.453.5-.61 1.219l2.767-.11q.03-.203.03-.39zm-1.156 4.39q-1.407 0-2.125-.812-.72-.812-.72-2.14 0-1.344.782-2.313.797-.984 2.39-.984.813 0 1.423.578.609.562.609 1.687l-.453.547h-1.266q-1.172 0-2.36.094v.11q0 1.218.5 1.827.516.594 1.391.594t1.86-.422l.156.406q-1.031.829-2.187.829zm8.898-3.171q0 1.718.078 2.234l.047.172q.016.094.297.187.297.079.563.11l-.047.39q-.64-.046-1.469-.046-.828 0-1.469.046l.047-.39q.25-.031.531-.11.297-.093.313-.187.11-.469.11-2.406v-1.297q0-.516-.313-.719-.313-.203-.735-.203-.421 0-.671.031-.235.031-.422.094-.25.062-.688.25v1.844q0 1.64.11 2.234l.03.172q.016.094.298.187.297.079.562.11l-.047.39q-.64-.046-1.468-.046-.829 0-1.47.046l.048-.39q.25-.031.531-.11.297-.093.312-.187.094-.469.094-1.86 0-2.265-.11-2.78l-.859-.25-.015-.344q.844 0 1.75-.25l.25.125v.64q1.469-.765 2.5-.765 1.047 0 1.25.78 1.406-.78 2.531-.78.672 0 1.016.265.343.266.343 1v1.813q0 1.718.094 2.234l.047.172q.016.094.297.187.281.079.547.11l-.031.39q-.641-.046-1.47-.046-.827 0-1.468.046l.047-.39q.25-.031.531-.11.297-.093.297-.187.11-.469.11-2.406v-1.297q0-.516-.313-.719-.297-.203-1.078-.203-.781 0-1.438.375v1.844zm8.92.25q-1.094.03-1.673.422-.562.375-.562.828 0 .453.234.656.235.203.75.203.516 0 1.25-.437v-1.672zm.968 2.922q-.797 0-.922-.875-1.172.875-2.031.875-.578 0-.984-.36-.391-.36-.391-1.094 0-.75.797-1.343.797-.61 2.562-.735v-1.234q0-.375-.28-.563-.267-.203-.767-.203-.484 0-.78.282-.282.265-.282.687 0 .156.031.36l-.297.14q-.265-.156-.5-.406-.234-.25-.234-.36 0-.125.187-.343.188-.22.485-.47.312-.25.812-.421.516-.187 1.157-.187.64 0 1.03.312.407.313.407 1.14 0 .813.094 3.454 0 .625.469.625.203 0 .421-.094l.125.344q-.5.469-1.109.469zm5.372-6.016.188.094q0 .859.078 1.312l-.344.125q-.172-.672-.484-.937-.313-.282-.797-.282-.469 0-.75.266-.281.25-.281.594 0 .594.687.984l1.36.75q.89.485.89 1.422 0 .688-.547 1.188t-1.547.5q-.984 0-2.047-.344.157-.922.157-1.531l.36-.11q.108.469.171.64.062.173.219.438.156.25.39.328.235.079.703.079.47 0 .766-.266.313-.266.313-.64 0-.563-.625-.907l-1.438-.797q-.875-.469-.875-1.422 0-.687.516-1.203.515-.515 1.453-.515.937 0 1.484.234z"/>
  <path fill="none" d="M329.647 139.753h113.512v58.3H329.647z"/>
  <path fill="#000" d="M367.639 161.6q-.86-.047-1.875-.047-1 0-1.844.047l-.031-.39q.672-.141.906-.235.25-.11.281-.344.094-.78.094-2.843 0-3.36-.078-4.172l-.016-.266q-.03-.25-.25-.344-.203-.109-.843-.234l.031-.39q.844.046 1.797.046h2.297q1.297 0 1.968.61.672.609.672 1.515 0 1.625-1.797 2.516l2.344 3.906q.313.172 1.11.235l-.047.39-2.25.078-2.36-4.422q-.453.032-1.375.032 0 2.468.11 3.14l.047.203q.015.235.25.344.234.094.906.235l-.047.39zm1.89-7.047q0-1.562-2.203-1.562-.484 0-.625.047-.14.047-.187.234-.14.797-.14 3.5 1.468 0 2.093-.14 1.063-.657 1.063-2.079zm7.373 2.735q0-.61-.344-.907-.344-.312-.766-.312-.625 0-1.078.5-.453.5-.61 1.219l2.766-.11q.032-.203.032-.39zm-1.157 4.39q-1.406 0-2.125-.812-.718-.813-.718-2.14 0-1.345.78-2.313.798-.985 2.391-.985.813 0 1.422.578.61.563.61 1.688l-.453.547h-1.266q-1.172 0-2.36.094v.109q0 1.219.5 1.828.516.594 1.391.594t1.86-.422l.156.406q-1.031.828-2.188.828zm8.555-6.734q.11 0 .36.312.25.313.328.625l-.203.25q-.235-.125-.578-.125-.329 0-.625.157.468.562.468 1.5 0 .937-.609 1.593-.61.657-1.813.657-.312 0-.593-.032-.485.625-.485.875 0 .297.86.297h1q2.515 0 2.515 1.64 0 .907-1.015 1.626-1 .734-2.688.734-.984 0-1.703-.328-.719-.312-.719-.922 0-.843 1.375-1.953-.843-.187-.843-.64 0-.454 1.203-1.422-1.344-.438-1.344-2.157 0-.875.61-1.53.624-.673 1.75-.673 1.124 0 1.687.407.156-.25.484-.563.344-.328.578-.328zm-4.375 8.422q0 .515.375.828.391.328 1.266.328.89 0 1.562-.562.688-.547.688-1.172 0-.391-.36-.657-.343-.25-1.078-.25h-1.796q-.657.75-.657 1.485zm1.72-7.39q-.392 0-.688.187-.282.172-.407.453-.234.547-.234 1.14 0 .594.297 1.11.312.5.969.5.484 0 .796-.281.313-.297.407-.594.11-.313.125-.64 0-1.876-1.266-1.876zm5.749-2.126q-.204.203-.5.203-.282 0-.485-.203-.203-.219-.203-.515 0-.297.203-.5.203-.204.485-.204.296 0 .5.204.203.203.203.5 0 .296-.203.515zm.062 1.703-.031 2.953q0 1.72.11 2.235l.015.172q.015.093.344.187.328.078.609.11l-.047.39q-.64-.047-1.562-.047-.907 0-1.547.047l.031-.39q.281-.032.594-.11.328-.094.343-.187.11-.47.11-1.86 0-2.265-.11-2.781l-.859-.25-.016-.344q.844 0 1.75-.25l.266.125zm5.384.11.188.093q0 .86.078 1.313l-.344.125q-.172-.672-.484-.938-.313-.28-.797-.28-.469 0-.75.265-.282.25-.282.594 0 .593.688.984l1.36.75q.89.484.89 1.422 0 .687-.547 1.187t-1.547.5q-.984 0-2.047-.343.157-.922.157-1.532l.359-.11q.11.47.172.642.062.171.219.437.156.25.39.328.235.078.703.078.47 0 .766-.265.312-.266.312-.641 0-.562-.625-.906l-1.437-.797q-.875-.469-.875-1.422 0-.687.516-1.203.515-.516 1.453-.516.937 0 1.484.235zm3.56 6.015q-1.375 0-1.375-1.343v-2.141q0-.984-.015-2.047l-.86.016-.031-.157.297-.515q.187.031.562.047l-.047-1.22.875-.796.25.125q-.03.984-.03 1.875h1.968l.062.156-.484.532q-.453-.047-1.547-.063v1.781q0 1.672.047 2.39.047.595.703.595.531 0 1.172-.313l.172.453q-.953.625-1.719.625zm6.265-4.39q0-.61-.344-.907-.344-.312-.766-.312-.625 0-1.078.5-.453.5-.61 1.219l2.766-.11q.032-.203.032-.39zm-1.157 4.39q-1.406 0-2.125-.812-.718-.813-.718-2.14 0-1.345.78-2.313.798-.985 2.392-.985.812 0 1.421.578.61.563.61 1.688l-.453.547h-1.266q-1.172 0-2.36.094v.109q0 1.219.5 1.828.516.594 1.391.594t1.86-.422l.156.406q-1.031.828-2.188.828zm7.024-6.328q.11 0 .344.313.25.312.344.609l-.203.25q-.485-.187-1-.187-.516 0-.953.437-.422.438-.422 1.39.015 2.344.125 2.735.015.11.375.203.359.078.765.11l-.047.39q-.625-.047-1.609-.047t-1.625.047l.047-.39q.266-.032.547-.11.297-.094.312-.187.11-.47.11-1.86 0-2.265-.11-2.781l-.843-.25-.032-.344q.844 0 1.75-.25l.266.125q-.031.203-.031 1.094.39-.64.984-.969.594-.328.906-.328zM348.556 169.35q-.109.781-.109 2.844 0 3.344.078 4.156l.031.281q.032.235.25.344.235.094.891.235l-.047.39q-.844-.047-1.828-.047-.984 0-1.828.047l-.031-.39q.672-.141.906-.235.25-.11.281-.344.094-.78.094-2.843 0-3.36-.078-4.172l-.016-.266q-.031-.25-.25-.344-.203-.109-.844-.234l.032-.39q.843.046 1.765.046.922 0 1.75-.047l.047.391q-.64.125-.86.234-.202.094-.234.344zm6.606 7.453q-.922.875-2.016.875-1.094 0-1.797-.797-.703-.796-.703-2.265t.828-2.328q.844-.875 2.063-.875.671 0 1.609.468 0-2.468-.078-3.03l-.031-.188-.86-.25-.015-.344q.843 0 1.75-.25l.25.125q-.016 1.672-.016 4.719 0 3.047.016 3.5.03.437.109.547.094.109.266.156.28.094.656.11l-.031.39q-.485.047-1.454.234-.406-.172-.546-.797zm-1.266-4.578q-1.063 0-1.563.688-.5.687-.5 1.703 0 1 .438 1.61.437.609 1.25.609.828 0 1.547-.47.078-1.062.078-3.905-.703-.235-1.25-.235zm7.985 1.063q0-.61-.344-.907-.344-.312-.766-.312-.625 0-1.078.5-.453.5-.61 1.219l2.767-.11q.03-.203.03-.39zm-1.156 4.39q-1.407 0-2.125-.812-.72-.813-.72-2.14 0-1.345.782-2.313.797-.985 2.39-.985.813 0 1.423.578.609.563.609 1.688l-.453.547h-1.266q-1.172 0-2.36.094v.109q0 1.219.5 1.828.516.594 1.391.594t1.86-.422l.156.406q-1.031.828-2.187.828zm5.086-5.015-.016 1.843q0 1.72.11 2.235l.015.172q.016.093.297.187.297.078.563.11l-.047.39q-.64-.047-1.469-.047-.813 0-1.453.047l.031-.39q.25-.032.531-.11.297-.094.313-.187.11-.47.11-1.86 0-2.265-.11-2.781l-.86-.25-.015-.344q.844 0 1.75-.25l.25.125v.64q1.484-.765 2.578-.765.672 0 1.016.266.343.266.343 1v1.812q0 1.72.094 2.235l.047.172q0 .093.281.187.297.078.563.11l-.032.39q-.64-.047-1.468-.047t-1.469.047l.047-.39q.25-.032.531-.11.281-.094.297-.187.11-.47.11-2.407v-1.296q0-.516-.313-.72-.297-.202-1.031-.202-.735 0-1.594.375zm7.745 5.015q-1.375 0-1.375-1.343v-2.141q0-.984-.016-2.047l-.86.016-.03-.157.296-.515q.188.031.563.047l-.047-1.22.875-.796.25.125q-.031.984-.031 1.875h1.969l.062.156-.484.532q-.453-.047-1.547-.063v1.781q0 1.672.047 2.39.047.595.703.595.531 0 1.172-.313l.172.453q-.954.625-1.72.625zm4.108-7.828q-.203.203-.5.203-.281 0-.484-.203-.203-.219-.203-.515 0-.297.203-.5.203-.204.484-.204.297 0 .5.204.203.203.203.5 0 .296-.203.515zm.063 1.703-.032 2.953q0 1.72.11 2.235l.015.172q.016.093.344.187.328.078.61.11l-.047.39q-.641-.047-1.563-.047-.906 0-1.547.047l.031-.39q.282-.032.594-.11.328-.094.344-.187.11-.47.11-1.86 0-2.265-.11-2.781l-.86-.25-.015-.344q.844 0 1.75-.25l.266.125zm4.727 6.047q-.64-.047-1.578-.047-.937 0-1.578.047l.031-.39q.266-.032.578-.11.313-.094.329-.187.109 0 .109-4.766l-.922.016-.031-.157.297-.515q.187.031.64.047 0-.86.297-1.547.313-.703.719-1.078.422-.391.922-.657.797-.437 1.281-.437.11 0 .344.312.25.313.328.625l-.203.25q-.563-.25-1.14-.25-1.532 0-1.532 2.766h1.734l.063.156-.406.516q-.454-.031-1.391-.047 0 3.703.14 4.766 0 .093.36.187.375.094.64.11l-.03.39zm3.087-7.75q-.203.203-.5.203-.281 0-.484-.203-.204-.219-.204-.515 0-.297.204-.5.203-.204.484-.204.297 0 .5.204.203.203.203.5 0 .296-.203.515zm.062 1.703-.03 2.953q0 1.72.109 2.235l.015.172q.016.093.344.187.328.078.61.11l-.048.39q-.64-.047-1.562-.047-.906 0-1.547.047l.031-.39q.282-.032.594-.11.328-.094.344-.187.11-.47.11-1.86 0-2.265-.11-2.781l-.86-.25-.015-.344q.844 0 1.75-.25l.265.125zm5.76 1.735q0-.61-.344-.907-.344-.312-.766-.312-.625 0-1.078.5-.453.5-.61 1.219l2.766-.11q.031-.203.031-.39zm-1.157 4.39q-1.406 0-2.125-.812-.719-.813-.719-2.14 0-1.345.782-2.313.797-.985 2.39-.985.813 0 1.422.578.61.563.61 1.688l-.454.547h-1.265q-1.172 0-2.36.094v.109q0 1.219.5 1.828.516.594 1.391.594t1.86-.422l.156.406q-1.032.828-2.188.828zm7.024-6.328q.11 0 .344.313.25.312.344.609l-.204.25q-.484-.187-1-.187-.515 0-.953.437-.422.438-.422 1.39.016 2.344.125 2.735.016.11.375.203.36.078.766.11l-.047.39q-.625-.047-1.61-.047-.984 0-1.624.047l.047-.39q.265-.032.547-.11.296-.094.312-.187.11-.47.11-1.86 0-2.265-.11-2.781l-.844-.25-.031-.344q.844 0 1.75-.25l.266.125q-.032.203-.032 1.094.391-.64.985-.969.594-.328.906-.328zm4.9.313.187.093q0 .86.078 1.313l-.343.125q-.172-.672-.485-.938-.312-.28-.797-.28-.468 0-.75.265-.28.25-.28.594 0 .593.687.984l1.359.75q.89.484.89 1.422 0 .687-.546 1.187-.547.5-1.547.5-.985 0-2.047-.343.156-.922.156-1.532l.36-.11q.109.47.171.642.063.171.22.437.155.25.39.328.234.078.703.078t.766-.265q.312-.266.312-.641 0-.562-.625-.906l-1.437-.797q-.875-.469-.875-1.422 0-.687.515-1.203.516-.516 1.453-.516.938 0 1.485.235zm8.173 3.093q-1.094.032-1.672.422-.562.375-.562.828 0 .454.234.657t.75.203q.516 0 1.25-.438v-1.672zm.969 2.922q-.797 0-.922-.875-1.172.875-2.031.875-.578 0-.985-.36-.39-.358-.39-1.093 0-.75.797-1.344.796-.609 2.562-.734v-1.234q0-.375-.281-.563-.266-.203-.766-.203-.484 0-.781.281-.281.266-.281.688 0 .156.03.36l-.296.14q-.266-.156-.5-.406-.234-.25-.234-.36 0-.125.187-.344.188-.218.485-.468.312-.25.812-.422.516-.188 1.156-.188.64 0 1.032.313.406.312.406 1.14 0 .813.094 3.454 0 .625.468.625.203 0 .422-.094l.125.344q-.5.468-1.11.468zm3.56-5.015-.016 1.843q0 1.72.11 2.235l.015.172q.016.093.297.187.297.078.562.11l-.047.39q-.64-.047-1.468-.047-.813 0-1.453.047l.03-.39q.25-.032.532-.11.297-.094.313-.187.109-.47.109-1.86 0-2.265-.11-2.781l-.859-.25-.015-.344q.843 0 1.75-.25l.25.125v.64q1.484-.765 2.578-.765.672 0 1.015.266.344.266.344 1v1.812q0 1.72.094 2.235l.047.172q0 .093.28.187.298.078.563.11l-.03.39q-.641-.047-1.47-.047-.828 0-1.468.047l.047-.39q.25-.032.53-.11.282-.094.298-.187.109-.47.109-2.407v-1.296q0-.516-.312-.72-.297-.202-1.032-.202-.734 0-1.593.375zm10.182 4.14q-.922.875-2.016.875-1.093 0-1.797-.797-.703-.796-.703-2.265t.828-2.328q.844-.875 2.063-.875.672 0 1.61.468 0-2.468-.079-3.03l-.031-.188-.86-.25-.015-.344q.844 0 1.75-.25l.25.125q-.016 1.672-.016 4.719 0 3.047.016 3.5.031.437.11.547.093.109.265.156.281.094.656.11l-.031.39q-.484.047-1.453.234-.406-.172-.547-.797zm-1.266-4.578q-1.062 0-1.562.688-.5.687-.5 1.703 0 1 .437 1.61.438.609 1.25.609.828 0 1.547-.47.078-1.062.078-3.905-.703-.235-1.25-.235zM356.222 184.381q.828.047 1.64.047.829 0 1.672-.047l.032.391q-.64.125-.86.234-.218.094-.218.344-.079 1.438-.157 4.906-.03 1.563-.906 2.516-.86.938-2.719.938-.89 0-1.515-.141-.61-.14-1.094-.5-.953-.703-.969-2.656l-.094-5.063q0-.25-.218-.344-.219-.109-.875-.234l.031-.39q.844.046 1.766.046.921 0 1.765-.047l.031.391q-.64.125-.859.234-.203.094-.234.344-.125.86-.125 2.656v2.079q.015.296.047.718.03.422.093.657.063.218.172.5.125.28.297.437.172.14.422.297.437.266 1.328.266.906 0 1.484-.266.579-.281.86-.828.297-.563.406-1.219.11-.656.11-1.766 0-2.39-.079-3.25l-.03-.28q-.032-.329-.704-.454-.156-.047-.547-.125l.047-.39zm7.676 3.282.188.093q0 .86.078 1.313l-.344.125q-.172-.672-.484-.938-.313-.28-.797-.28-.469 0-.75.265-.281.25-.281.594 0 .593.687.984l1.36.75q.89.484.89 1.422 0 .687-.547 1.187t-1.547.5q-.984 0-2.047-.343.157-.922.157-1.532l.359-.11q.11.47.172.642.062.171.219.437.156.25.39.328.235.078.703.078.47 0 .766-.265.313-.266.313-.641 0-.562-.625-.906l-1.438-.797q-.875-.469-.875-1.422 0-.687.516-1.203.515-.516 1.453-.516.937 0 1.484.235zm5.466 1.625q0-.61-.343-.907-.344-.312-.766-.312-.625 0-1.078.5-.453.5-.61 1.219l2.766-.11q.031-.203.031-.39zm-1.156 4.39q-1.406 0-2.125-.812-.719-.813-.719-2.14 0-1.345.782-2.313.797-.985 2.39-.985.813 0 1.422.578.61.563.61 1.688l-.454.547h-1.265q-1.172 0-2.36.094v.109q0 1.219.5 1.828.516.594 1.391.594t1.86-.422l.156.406q-1.032.828-2.188.828zm11.653-7.015q-.266-.97-.75-1.328-.469-.36-1.234-.36-.75 0-1.157.375-.39.36-.39.89 0 .86.89 1.454l2.11 1.375q1.375.906 1.375 2.14 0 1-.797 1.75-.781.735-2.313.735-1.515 0-2.64-.484.218-1.094.218-1.97l.36-.155q.187 1.093.61 1.515.437.406 1.327.406.907 0 1.375-.437.485-.438.485-1.047 0-.812-.875-1.375l-2.125-1.39q-1.235-.797-1.235-2.047 0-.985.766-1.688.766-.719 1.984-.719.407 0 .891.11.484.093.734.093t.594-.078v.188q0 .984.156 1.89l-.359.157zm7.1 6.125q-1.11.89-2.422.89-1.297 0-2-.828-.703-.828-.703-2.156 0-1.328.812-2.297.828-.969 2.281-.969.61 0 1.079.188.468.187.671.39.204.204.204.329 0 .53-.313.968h-.328q-.156-.437-.547-.797-.375-.359-.969-.359-.828 0-1.28.734-.438.735-.438 1.813 0 1.078.515 1.64.516.547 1.453.547.938 0 1.828-.53l.157.437zm3.467.812q-.641-.047-1.47-.047-.827 0-1.468.047l.047-.39q.25-.032.531-.11.297-.094.313-.187.093-.86.093-3.328 0-4.016-.078-4.688l-.031-.234-.86-.25-.015-.344q.844 0 1.75-.25l.25.125q-.016 1.562-.016 4.25 1.47-.766 2.657-.766.672 0 1.015.266.344.266.344 1v1.812q0 1.72.11 2.235l.03.172q.016.093.298.187.28.078.546.11l-.03.39q-.641-.047-1.47-.047-.828 0-1.468.047l.047-.39q.25-.032.53-.11.298-.094.298-.187.109-.47.109-2.407v-1.296q0-.516-.312-.72-.297-.202-.735-.202-.422 0-.687.03-.25.032-.47.095-.53.14-.687.203l-.125.047q0 3.953.141 4.25.016.093.297.187.297.078.562.11l-.046.39zm8.765-4.312q0-.61-.344-.907-.344-.312-.766-.312-.625 0-1.078.5-.453.5-.61 1.219l2.766-.11q.032-.203.032-.39zm-1.157 4.39q-1.406 0-2.125-.812-.718-.813-.718-2.14 0-1.345.781-2.313.797-.985 2.39-.985.813 0 1.422.578.61.563.61 1.688l-.453.547h-1.266q-1.172 0-2.36.094v.109q0 1.219.5 1.828.516.594 1.391.594t1.86-.422l.156.406q-1.031.828-2.188.828zm8.9-3.172q0 1.72.077 2.235l.047.172q.016.093.297.187.297.078.563.11l-.047.39q-.64-.047-1.469-.047-.828 0-1.469.047l.047-.39q.25-.032.531-.11.297-.094.313-.187.11-.47.11-2.407v-1.296q0-.516-.313-.72-.313-.202-.735-.202-.421 0-.671.03-.235.032-.422.095-.25.062-.688.25v1.843q0 1.641.11 2.235l.03.172q.016.093.298.187.297.078.562.11l-.047.39q-.64-.047-1.468-.047-.829 0-1.47.047l.048-.39q.25-.032.53-.11.298-.094.313-.187.094-.47.094-1.86 0-2.265-.11-2.781l-.859-.25-.015-.344q.844 0 1.75-.25l.25.125v.64q1.469-.765 2.5-.765 1.047 0 1.25.782 1.406-.782 2.531-.782.672 0 1.016.266.343.266.343 1v1.812q0 1.72.094 2.235l.047.172q.016.093.297.187.281.078.547.11l-.031.39q-.641-.047-1.47-.047-.827 0-1.468.047l.047-.39q.25-.032.531-.11.297-.094.297-.187.11-.47.11-2.407v-1.296q0-.516-.313-.72-.297-.202-1.078-.202-.781 0-1.438.375v1.843zm8.918.25q-1.094.032-1.672.422-.562.375-.562.828 0 .454.234.657.235.203.75.203.516 0 1.25-.438v-1.672zm.969 2.922q-.797 0-.922-.875-1.172.875-2.031.875-.578 0-.985-.36-.39-.358-.39-1.093 0-.75.797-1.344.797-.609 2.562-.734v-1.234q0-.375-.281-.563-.266-.203-.766-.203-.484 0-.78.281-.282.266-.282.688 0 .156.031.36l-.297.14q-.265-.156-.5-.406-.234-.25-.234-.36 0-.125.187-.344.188-.218.485-.468.312-.25.812-.422.516-.188 1.156-.188.641 0 1.032.313.406.312.406 1.14 0 .813.094 3.454 0 .625.468.625.204 0 .422-.094l.125.344q-.5.468-1.109.468zm5.372-6.015.188.093q0 .86.078 1.313l-.344.125q-.172-.672-.484-.938-.313-.28-.797-.28-.469 0-.75.265-.281.25-.281.594 0 .593.687.984l1.36.75q.89.484.89 1.422 0 .687-.547 1.187t-1.547.5q-.984 0-2.047-.343.157-.922.157-1.532l.359-.11q.11.47.172.642.062.171.219.437.156.25.39.328.235.078.703.078.47 0 .766-.265.313-.266.313-.641 0-.562-.625-.906l-1.438-.797q-.875-.469-.875-1.422 0-.687.516-1.203.515-.516 1.453-.516.937 0 1.484.235z"/>
  <path fill="none" d="m334.472 123.04-.157 103.684"/>
  <path stroke="#000" stroke-width="2" stroke-linejoin="round" stroke-linecap="butt" d="m334.472 123.04-.139 91.684"/>
  <path fill="#000" stroke="#000" stroke-width="2" stroke-linecap="butt" d="m331.03 214.72 3.29 9.08 3.317-9.07z" fill-rule="evenodd"/>
  <path fill="none" d="M72.705 221.822h122.771v42.677H72.705z"/>
  <path fill="#000" d="M92.271 234.45q.828.047 1.64.047.813 0 1.641-.047l.047.39q-.593.125-.843.266-.25.125-.36.39-2.015 5.422-2.781 8.126l-1.313.125-2.843-8.329q-.11-.234-.328-.343-.204-.11-.813-.235l.047-.39q.844.047 1.766.047.921 0 1.765-.047l.031.39q-.921.172-1.093.328-.078.063-.078.157 0 .093.375 1.234.375 1.125 1 3.031.64 1.89.968 2.875h.063q.297-.922.937-2.922 1.297-4.062 1.282-4.218 0-.157-.266-.25-.266-.11-.89-.235l.046-.39zm7.761 4.906q0-.61-.343-.906-.344-.313-.766-.313-.625 0-1.078.5-.453.5-.61 1.219l2.766-.11q.031-.203.031-.39zm-1.156 4.39q-1.406 0-2.125-.812-.719-.812-.719-2.14 0-1.344.782-2.313.797-.984 2.39-.984.813 0 1.422.578.61.562.61 1.687l-.454.547h-1.265q-1.172 0-2.36.094v.11q0 1.218.5 1.827.516.594 1.391.594t1.86-.422l.156.406q-1.032.829-2.188.829zm7.024-6.328q.11 0 .344.313.25.312.343.61l-.203.25q-.484-.188-1-.188-.515 0-.953.437-.422.438-.422 1.39.016 2.345.125 2.735.016.11.375.203.36.079.766.11l-.047.39q-.625-.046-1.61-.046-.984 0-1.624.046l.047-.39q.265-.031.546-.11.297-.093.313-.187.11-.469.11-1.86 0-2.265-.11-2.78l-.844-.25-.031-.344q.844 0 1.75-.25l.266.125q-.032.203-.032 1.093.391-.64.985-.968.593-.329.906-.329zm3.118-1.5q-.203.204-.5.204-.28 0-.484-.204-.203-.218-.203-.515 0-.297.203-.5t.484-.203q.297 0 .5.203.204.203.204.5t-.204.515zm.063 1.704-.031 2.953q0 1.718.11 2.234l.015.172q.015.094.343.187.329.079.61.11l-.047.39q-.64-.046-1.563-.046-.906 0-1.546.046l.03-.39q.282-.031.595-.11.328-.093.343-.187.11-.469.11-1.86 0-2.265-.11-2.78l-.86-.25-.015-.344q.844 0 1.75-.25l.266.125zm4.728 6.046q-.641-.046-1.578-.046-.938 0-1.579.046l.032-.39q.265-.031.578-.11.312-.093.328-.187.11 0 .11-4.766l-.923.016-.03-.156.296-.516q.188.031.64.047 0-.86.298-1.547.312-.703.718-1.078.422-.39.922-.656.797-.438 1.281-.438.11 0 .344.313.25.312.328.625l-.203.25q-.562-.25-1.14-.25-1.532 0-1.532 2.765h1.735l.062.157-.406.515q-.453-.031-1.39-.047 0 3.703.14 4.766 0 .094.36.187.374.094.64.11l-.031.39zm3.57-5.734q-.406.031-.609.156-.187.125-.187.203 0 .063 1.406 4.422 1.469-4.187 1.469-4.39 0-.297-.735-.391l-.046-.39q.453.046.968.046l1.36-.047.03.391q-.67.094-.827.484-.578 1.797-1.938 5.204-1.03 2.593-1.953 3.25-.265.187-.406.218-.14.032-.281.032-.125 0-.375-.313-.25-.312-.328-.61l.203-.265q.25.125.593.125.954 0 1.922-2.437l-.468-.282q-1.032-3.172-1.579-4.437l-.203-.422q-.172-.438-.812-.547l-.047-.39q.922.046 1.422.046l1.375-.047.047.391zm9.913-2.516q-.11.782-.11 2.844 0 3.344.079 4.156l.031.282q.031.234.25.343.234.094.89.235l-.046.39q-.844-.046-1.828-.046-.985 0-1.828.046l-.032-.39q.672-.14.907-.235.25-.109.28-.343.095-.782.095-2.844 0-3.36-.079-4.172l-.015-.266q-.031-.25-.25-.343-.203-.11-.844-.235l.031-.39q.844.047 1.766.047t1.75-.047l.047.39q-.64.125-.86.235-.203.093-.234.343zm6.605 7.454q-.922.875-2.015.875-1.094 0-1.797-.797-.703-.797-.703-2.266 0-1.469.828-2.328.843-.875 2.062-.875.672 0 1.61.469 0-2.47-.079-3.032l-.03-.187-.86-.25-.016-.344q.844 0 1.75-.25l.25.125q-.015 1.672-.015 4.719 0 3.047.015 3.5.031.437.11.547.093.11.265.156.281.094.656.11l-.03.39q-.485.047-1.454.234-.406-.171-.547-.796zm-1.265-4.579q-1.063 0-1.563.688-.5.687-.5 1.703 0 1 .438 1.61.437.609 1.25.609.828 0 1.546-.469.079-1.062.079-3.906-.704-.235-1.25-.235zm7.984 1.063q0-.61-.343-.906-.344-.313-.766-.313-.625 0-1.078.5-.453.5-.61 1.219l2.766-.11q.031-.203.031-.39zm-1.156 4.39q-1.406 0-2.125-.812-.719-.812-.719-2.14 0-1.344.782-2.313.797-.984 2.39-.984.813 0 1.422.578.61.562.61 1.687l-.454.547h-1.265q-1.172 0-2.36.094v.11q0 1.218.5 1.827.516.594 1.391.594t1.86-.422l.156.406q-1.032.829-2.188.829zm5.086-5.015-.015 1.844q0 1.718.11 2.234l.015.172q.015.094.297.187.297.079.562.11l-.047.39q-.64-.046-1.468-.046-.813 0-1.454.046l.032-.39q.25-.031.531-.11.297-.093.312-.187.11-.469.11-1.86 0-2.265-.11-2.78l-.859-.25-.016-.344q.844 0 1.75-.25l.25.125v.64q1.485-.765 2.579-.765.671 0 1.015.265.344.266.344 1v1.813q0 1.718.094 2.234l.047.172q0 .094.28.187.298.079.563.11l-.03.39q-.642-.046-1.47-.046t-1.468.046l.046-.39q.25-.031.532-.11.281-.093.297-.187.109-.469.109-2.406v-1.297q0-.516-.313-.719-.296-.203-1.03-.203-.735 0-1.595.375zm7.745 5.016q-1.375 0-1.375-1.344v-2.14q0-.985-.015-2.048l-.86.016-.03-.156.296-.516q.188.031.563.047l-.047-1.219.875-.797.25.125q-.032.985-.032 1.875h1.97l.062.157-.485.53q-.453-.046-1.547-.062v1.782q0 1.671.047 2.39.047.594.703.594.532 0 1.172-.313l.172.454q-.953.625-1.719.625zm4.109-7.829q-.203.204-.5.204-.282 0-.485-.204-.203-.218-.203-.515 0-.297.203-.5t.485-.203q.297 0 .5.203t.203.5q0 .297-.203.515zm.062 1.704-.031 2.953q0 1.718.11 2.234l.015.172q.016.094.344.187.328.079.61.11l-.048.39q-.64-.046-1.562-.046-.907 0-1.547.046l.031-.39q.281-.031.594-.11.328-.093.344-.187.109-.469.109-1.86 0-2.265-.11-2.78l-.859-.25-.015-.344q.843 0 1.75-.25l.265.125zm4.728 6.046q-.64-.046-1.578-.046-.938 0-1.578.046l.031-.39q.266-.031.578-.11.313-.093.328-.187.11 0 .11-4.766l-.922.016-.032-.156.297-.516q.188.031.641.047 0-.86.297-1.547.312-.703.719-1.078.421-.39.921-.656.797-.438 1.282-.438.11 0 .343.313.25.312.329.625l-.204.25q-.562-.25-1.14-.25-1.531 0-1.531 2.765h1.734l.062.157-.406.515q-.453-.031-1.39-.047 0 3.703.14 4.766 0 .094.36.187.375.094.64.11l-.031.39zm3.087-7.75q-.203.204-.5.204-.282 0-.485-.204-.203-.218-.203-.515 0-.297.203-.5t.485-.203q.297 0 .5.203t.203.5q0 .297-.203.515zm.062 1.704-.031 2.953q0 1.718.11 2.234l.015.172q.016.094.344.187.328.079.609.11l-.047.39q-.64-.046-1.562-.046-.907 0-1.547.046l.031-.39q.281-.031.594-.11.328-.093.344-.187.109-.469.109-1.86 0-2.265-.11-2.78l-.859-.25-.015-.344q.843 0 1.75-.25l.265.125zm5.76 1.734q0-.61-.345-.906-.343-.313-.765-.313-.625 0-1.078.5-.454.5-.61 1.219l2.766-.11q.031-.203.031-.39zm-1.157 4.39q-1.406 0-2.125-.812-.719-.812-.719-2.14 0-1.344.781-2.313.797-.984 2.391-.984.812 0 1.422.578.61.562.61 1.687l-.454.547h-1.266q-1.171 0-2.359.094v.11q0 1.218.5 1.827.516.594 1.39.594.876 0 1.86-.422l.156.406q-1.03.829-2.187.829zm7.024-6.328q.11 0 .343.313.25.312.344.61l-.203.25q-.484-.188-1-.188t-.953.437q-.422.438-.422 1.39.016 2.345.125 2.735.016.11.375.203.36.079.766.11l-.047.39q-.625-.046-1.61-.046-.984 0-1.625.046l.047-.39q.266-.031.547-.11.297-.093.313-.187.11-.469.11-1.86 0-2.265-.11-2.78l-.844-.25-.031-.344q.843 0 1.75-.25l.265.125q-.03.203-.03 1.093.39-.64.983-.968.594-.329.907-.329zm4.9.313.187.094q0 .859.078 1.312l-.344.125q-.172-.672-.484-.937-.313-.282-.797-.282-.469 0-.75.266-.281.25-.281.594 0 .594.687.984l1.36.75q.89.485.89 1.422 0 .688-.547 1.188t-1.547.5q-.984 0-2.046-.344.156-.922.156-1.531l.36-.11q.109.469.171.64.063.173.219.438.156.25.39.328.235.079.704.079.468 0 .765-.266.313-.266.313-.64 0-.563-.625-.907l-1.438-.797q-.875-.469-.875-1.422 0-.687.516-1.203.515-.515 1.453-.515.937 0 1.484.234zM89.138 256.825q-1.094.03-1.672.422-.562.375-.562.828 0 .453.234.656t.75.203q.516 0 1.25-.437v-1.672zm.969 2.922q-.797 0-.922-.875-1.172.875-2.031.875-.578 0-.985-.36-.39-.36-.39-1.094 0-.75.797-1.343.796-.61 2.562-.735v-1.234q0-.375-.281-.563-.266-.203-.766-.203-.484 0-.781.282-.281.265-.281.687 0 .156.031.36l-.297.14q-.266-.156-.5-.406-.234-.25-.234-.36 0-.125.187-.343.188-.22.485-.47.312-.25.812-.421.516-.187 1.156-.187.641 0 1.032.312.406.313.406 1.14 0 .813.094 3.454 0 .625.468.625.203 0 .422-.094l.125.344q-.5.469-1.11.469zm3.56-5.016-.016 1.844q0 1.718.11 2.234l.015.172q.016.094.297.187.297.079.562.11l-.047.39q-.64-.046-1.468-.046-.813 0-1.453.046l.03-.39q.25-.031.532-.11.297-.093.313-.187.109-.469.109-1.86 0-2.265-.11-2.78l-.859-.25-.015-.344q.843 0 1.75-.25l.25.125v.64q1.484-.765 2.578-.765.672 0 1.015.265.344.266.344 1v1.813q0 1.718.094 2.234l.047.172q0 .094.28.187.298.079.563.11l-.03.39q-.641-.046-1.47-.046-.828 0-1.468.046l.047-.39q.25-.031.53-.11.282-.093.298-.187.109-.469.109-2.406v-1.297q0-.516-.312-.719-.297-.203-1.032-.203-.734 0-1.593.375zm10.182 4.14q-.922.876-2.016.876-1.093 0-1.796-.797-.704-.797-.704-2.266 0-1.469.829-2.328.843-.875 2.062-.875.672 0 1.61.469 0-2.47-.079-3.032l-.031-.187-.86-.25-.015-.344q.844 0 1.75-.25l.25.125q-.016 1.672-.016 4.719 0 3.047.016 3.5.031.437.11.547.093.11.265.156.281.094.656.11l-.031.39q-.484.047-1.453.234-.406-.171-.547-.796zm-1.266-4.578q-1.062 0-1.562.688-.5.687-.5 1.703 0 1 .437 1.61.438.609 1.25.609.829 0 1.547-.469.078-1.062.078-3.906-.703-.235-1.25-.235zm13.395-3.843q.829.047 1.641.047.828 0 1.672-.047l.031.39q-.64.125-.86.235-.218.093-.218.343-.078 1.438-.156 4.907-.031 1.562-.906 2.515-.86.938-2.72.938-.89 0-1.515-.14-.61-.141-1.094-.5-.953-.704-.968-2.657l-.094-5.063q0-.25-.219-.343-.219-.11-.875-.235l.031-.39q.844.047 1.766.047t1.766-.047l.03.39q-.64.125-.858.235-.204.093-.235.343-.125.86-.125 2.657v2.078q.016.297.047.719.031.421.094.656.062.219.172.5.125.281.297.437.171.14.421.297.438.266 1.329.266.906 0 1.484-.266.578-.281.86-.828.296-.562.406-1.219.109-.656.109-1.765 0-2.391-.078-3.25l-.031-.282q-.032-.328-.704-.453-.156-.047-.546-.125l.046-.39zm7.677 3.28.187.095q0 .859.078 1.312l-.344.125q-.171-.672-.484-.937-.312-.282-.797-.282-.469 0-.75.266-.281.25-.281.594 0 .594.687.984l1.36.75q.89.485.89 1.422 0 .688-.546 1.188-.547.5-1.547.5-.985 0-2.047-.344.156-.922.156-1.531l.36-.11q.109.469.171.64.063.173.22.438.155.25.39.328.234.079.703.079t.765-.266q.313-.266.313-.64 0-.563-.625-.907l-1.438-.797q-.875-.469-.875-1.422 0-.687.516-1.203.516-.515 1.453-.515.938 0 1.485.234zm5.466 1.626q0-.61-.344-.906-.344-.313-.765-.313-.625 0-1.079.5-.453.5-.609 1.219l2.766-.11q.03-.203.03-.39zm-1.156 4.39q-1.407 0-2.125-.812-.72-.812-.72-2.14 0-1.344.782-2.313.797-.984 2.39-.984.813 0 1.423.578.609.562.609 1.687l-.453.547h-1.266q-1.172 0-2.36.094v.11q0 1.218.5 1.827.517.594 1.392.594.875 0 1.859-.422l.156.406q-1.031.829-2.187.829zm11.652-7.015q-.265-.969-.75-1.328-.468-.36-1.234-.36-.75 0-1.156.375-.39.36-.39.891 0 .86.89 1.453l2.11 1.375q1.374.906 1.374 2.14 0 1-.797 1.75-.781.735-2.312.735-1.516 0-2.64-.484.218-1.094.218-1.969l.36-.156q.187 1.094.609 1.515.437.407 1.328.407.906 0 1.375-.438.484-.437.484-1.047 0-.812-.875-1.375l-2.125-1.39q-1.234-.797-1.234-2.047 0-.985.765-1.688.766-.718 1.985-.718.406 0 .89.109.485.094.735.094t.594-.078v.187q0 .984.156 1.89l-.36.157zm7.1 6.125q-1.11.89-2.422.89-1.297 0-2-.828-.703-.828-.703-2.156 0-1.328.813-2.297.828-.968 2.28-.968.61 0 1.079.187.469.188.672.39.203.204.203.329 0 .531-.312.969h-.329q-.156-.438-.546-.797-.375-.36-.97-.36-.827 0-1.28.735-.438.734-.438 1.812t.516 1.64q.515.548 1.453.548.937 0 1.828-.532l.156.438zm3.467.812q-.64-.046-1.469-.046-.828 0-1.469.046l.047-.39q.25-.031.532-.11.296-.093.312-.187.094-.86.094-3.328 0-4.016-.078-4.688l-.032-.234-.859-.25-.016-.344q.844 0 1.75-.25l.25.125q-.015 1.563-.015 4.25 1.469-.765 2.656-.765.672 0 1.016.265.343.266.343 1v1.813q0 1.718.11 2.234l.031.172q.016.094.297.187.281.079.547.11l-.031.39q-.641-.046-1.47-.046-.827 0-1.468.046l.047-.39q.25-.031.531-.11.297-.093.297-.187.11-.469.11-2.406v-1.297q0-.516-.313-.719-.297-.203-.734-.203-.422 0-.688.031-.25.031-.469.094-.53.14-.687.203l-.125.047q0 3.953.14 4.25.016.094.297.187.297.079.563.11l-.047.39zm8.765-4.312q0-.61-.344-.906-.343-.313-.765-.313-.625 0-1.078.5-.453.5-.61 1.219l2.766-.11q.031-.203.031-.39zm-1.156 4.39q-1.406 0-2.125-.812-.719-.812-.719-2.14 0-1.344.781-2.313.797-.984 2.391-.984.813 0 1.422.578.61.562.61 1.687l-.454.547h-1.265q-1.172 0-2.36.094v.11q0 1.218.5 1.827.516.594 1.39.594.876 0 1.86-.422l.156.406q-1.03.829-2.187.829zm8.899-3.171q0 1.718.078 2.234l.047.172q.015.094.297.187.297.079.562.11l-.047.39q-.64-.046-1.468-.046-.829 0-1.47.046l.048-.39q.25-.031.53-.11.298-.093.313-.187.11-.469.11-2.406v-1.297q0-.516-.313-.719-.312-.203-.734-.203t-.672.031q-.234.031-.422.094-.25.062-.687.25v1.844q0 1.64.109 2.234l.031.172q.016.094.297.187.297.079.563.11l-.047.39q-.64-.046-1.469-.046-.828 0-1.469.046l.047-.39q.25-.031.531-.11.297-.093.313-.187.094-.469.094-1.86 0-2.265-.11-2.78l-.86-.25-.015-.344q.844 0 1.75-.25l.25.125v.64q1.469-.765 2.5-.765 1.047 0 1.25.78 1.407-.78 2.532-.78.671 0 1.015.265.344.266.344 1v1.813q0 1.718.094 2.234l.047.172q.015.094.296.187.282.079.547.11l-.031.39q-.64-.046-1.469-.046-.828 0-1.468.046l.046-.39q.25-.031.532-.11.297-.093.297-.187.109-.469.109-2.406v-1.297q0-.516-.313-.719-.296-.203-1.078-.203-.781 0-1.437.375v1.844zm8.919.25q-1.094.03-1.672.422-.563.375-.563.828 0 .453.235.656.234.203.75.203.515 0 1.25-.437v-1.672zm.968 2.922q-.796 0-.921-.875-1.172.875-2.032.875-.578 0-.984-.36-.39-.36-.39-1.094 0-.75.796-1.343.797-.61 2.563-.735v-1.234q0-.375-.282-.563-.265-.203-.765-.203-.485 0-.781.282-.282.265-.282.687 0 .156.032.36l-.297.14q-.266-.156-.5-.406-.235-.25-.235-.36 0-.125.188-.343.187-.22.484-.47.313-.25.813-.421.515-.187 1.156-.187.64 0 1.031.312.406.313.406 1.14 0 .813.094 3.454 0 .625.469.625.203 0 .422-.094l.125.344q-.5.469-1.11.469zm5.373-6.016.187.094q0 .859.078 1.312l-.344.125q-.171-.672-.484-.937-.312-.282-.797-.282-.469 0-.75.266-.281.25-.281.594 0 .594.687.984l1.36.75q.89.485.89 1.422 0 .688-.546 1.188-.547.5-1.547.5-.985 0-2.047-.344.156-.922.156-1.531l.36-.11q.109.469.171.64.063.173.22.438.155.25.39.328.234.079.703.079t.765-.266q.313-.266.313-.64 0-.563-.625-.907l-1.438-.797q-.875-.469-.875-1.422 0-.687.516-1.203.516-.515 1.453-.515.938 0 1.485.234z"/>
 </g>
</svg>
