<svg viewBox="0 0 332.654 266.698" fill="none" stroke-linecap="square" stroke-miterlimit="10" xmlns="http://www.w3.org/2000/svg">
 <clipPath id="a">
  <path d="M0 0h332.654v266.698H0V0z"/>
 </clipPath>
 <g clip-path="url(#a)">
  <path fill="none" d="M0 0h332.654v266.698H0z"/>
  <path fill="#d9d9d9" d="M28.583 47.586c0-23.115 18.738-41.854 41.854-41.854H269.5a41.854 41.854 0 0 1 41.854 41.854v167.41c0 23.116-18.738 41.854-41.854 41.854H70.437c-23.116 0-41.854-18.738-41.854-41.853z" fill-rule="evenodd"/>
  <path stroke="#000" stroke-linejoin="round" stroke-linecap="butt" d="M28.583 47.586c0-23.115 18.738-41.854 41.854-41.854H269.5a41.854 41.854 0 0 1 41.854 41.854v167.41c0 23.116-18.738 41.854-41.854 41.854H70.437c-23.116 0-41.854-18.738-41.854-41.853z"/>
  <path fill="#000" d="m83.956 44.91-3.297-13.874 3.234-.125 1.86 9.672 1.937-9.547 2.625-.125-3.36 14h-3zm10.975.25q-1.875 0-2.86-1.484-.984-1.484-.984-3.953 0-2.5 1-3.968 1.015-1.485 2.937-1.485 1.828 0 2.797 1.485.969 1.468.969 3.968 0 .157-.063.22-.046.062-.046.077h-4.985q0 1.219.313 2.219.312 1 .968 1 .735 0 1.079-.844.359-.844.375-.875l1.984.735q-.39 1.343-1.25 2.125-.86.78-2.234.78zm1.28-6.655q0-1.11-.296-1.766-.297-.656-.938-.656-.312 0-.609.328-.297.312-.484.875-.188.547-.188 1.219h2.516zm4.163-3.875 2.61-.22v1.688q.562-.797 1.39-1.28.828-.5 2.11-.5v2.546q-.673 0-1.766.234-1.078.235-1.735.813v6.89l-2.61.22V34.63zm7.553-1.563v-2.703l2.61-.188v2.782l-2.61.11zm-.016 11.953V34.63l2.61-.22v10.391l-2.61.22zm5.407-8.64h-1.282l.094-1.97h1.188v-.187q0-1.109.14-1.78.14-.688.703-1.142.579-.468 1.766-.468 1.14 0 1.781.265v1.578h-.578q-.75 0-.969.407-.218.406-.218 1.14v.188h1.859l-.125 1.969h-1.734V44.8l-2.625.22V36.38zm5.821-3.313v-2.703l2.61-.188v2.782l-2.61.11zm-.016 11.953V34.63l2.61-.22v10.391l-2.61.22zm6.626.14q-.672 0-1.219-.421-.547-.422-.844-1.14-.297-.72-.297-1.61 0-2.047 1.391-2.875 1.39-.828 3.234-.938 0-1.015-.125-1.5-.125-.484-.64-.484-.422 0-.656.344-.22.328-.266.86l-2.563-.454q.188-1.437 1.172-2.047 1-.625 2.313-.625 1.703 0 2.547.906.86.891.86 2.329v5.421q0 .891.28 1.875l-2.562.22-.297-1.282q-.344.594-1 1.016-.64.406-1.328.406zm1.203-1.874q.328 0 .531-.14.219-.157.531-.485v-2.922q-.921 0-1.484.516-.562.5-.562 1.562 0 .703.25 1.094.25.375.734.375zm10.725 1.875q-1.032 0-1.547-.422-.5-.422-.703-1.14l-.641 1.421-1.969-.219V31.255l2.61-.344v4.844q.468-.672 1.171-1.079.72-.406 1.5-.406 1.204 0 1.891 1.281.703 1.282.703 4.11 0 5.5-3.015 5.5zm-.97-1.875q.86 0 1.11-.906.266-.922.266-2.72 0-1.25-.11-1.905-.109-.657-.359-.938-.25-.297-.734-.297-.328 0-.782.25-.453.235-.671.453v3.328q0 1.485.359 2.11.375.625.922.625zm5.79 1.734V31.255l2.61-.344V44.8l-2.61.22zm8.234.14q-1.875 0-2.859-1.484t-.984-3.953q0-2.5 1-3.968 1.015-1.485 2.937-1.485 1.828 0 2.797 1.485.969 1.468.969 3.968 0 .157-.063.22-.047.062-.047.077h-4.984q0 1.219.313 2.219.312 1 .968 1 .735 0 1.078-.844.36-.844.375-.875l1.985.735q-.39 1.343-1.25 2.125-.86.78-2.235.78zm1.282-6.655q0-1.11-.297-1.766-.297-.656-.938-.656-.312 0-.609.328-.297.312-.484.875-.188.547-.188 1.219h2.516zm8.886-7.594h1.75q2.11 0 3.36.187 1.25.172 2.202 1.094.97.906.97 2.922 0 1.828-.813 2.781-.813.938-2 1.235-1.188.28-2.735.28v5.391l-2.734.22V30.91zm3.219 6.281q1.078 0 1.703-.453t.625-1.64q0-1.173-.578-1.579-.579-.422-1.829-.422h-.39v4.094h.469zm6.553-2.562 2.61-.22v1.688q.562-.797 1.39-1.28.828-.5 2.11-.5v2.546q-.673 0-1.767.234-1.078.235-1.734.813v6.89l-2.61.22V34.63zm10.88 10.53q-1.874 0-2.859-1.484-.984-1.484-.984-3.953 0-2.5 1-3.968 1.015-1.485 2.937-1.485 1.828 0 2.797 1.485.969 1.468.969 3.968 0 .157-.063.22-.046.062-.046.077h-4.985q0 1.219.313 2.219.312 1 .968 1 .735 0 1.079-.844.359-.844.375-.875l1.984.735q-.39 1.343-1.25 2.125-.86.78-2.234.78zm1.282-6.655q0-1.11-.297-1.766-.297-.656-.938-.656-.312 0-.609.328-.297.312-.484.875-.188.547-.188 1.219h2.516zm7.287 6.656q-1.547 0-2.5-.703-.938-.703-1.219-1.953l2.031-.672q.079.36.282.64.422.61 1.25.61.468 0 .89-.203.422-.204.422-.641 0-.578-.797-.89l-2.203-.891q-.875-.375-1.344-1.125-.468-.75-.468-1.828 0-1 .5-1.735.5-.734 1.312-1.11.813-.39 1.735-.39 1.171 0 2.156.688 1 .687 1.344 1.86l-2.172.671q-.078-.328-.266-.64-.406-.626-1.047-.626-.453 0-.797.22-.328.202-.328.608 0 .485.906.907l1.875.765q.985.453 1.532 1.172.562.703.562 1.906 0 1.079-.515 1.844-.516.75-1.36 1.14-.844.376-1.781.376zm8.633 0q-1.875 0-2.86-1.485-.984-1.484-.984-3.953 0-2.5 1-3.968 1.016-1.485 2.937-1.485 1.829 0 2.797 1.485.969 1.468.969 3.968 0 .157-.062.22-.047.062-.047.077h-4.985q0 1.219.313 2.219.312 1 .969 1 .734 0 1.078-.844.359-.844.375-.875l1.984.735q-.39 1.343-1.25 2.125-.86.78-2.234.78zm1.28-6.656q0-1.11-.296-1.766-.297-.656-.937-.656-.313 0-.61.328-.297.312-.484.875-.188.547-.188 1.219h2.516zm4.163-3.875 2.61-.22v1.345q.796-.72 1.562-1.094.781-.39 1.437-.39 1 0 1.625.718.625.719.625 1.937v7.875l-2.625.22v-7.11q0-1.39-.953-1.39-.312 0-.703.187-.375.187-.969.531v7.562l-2.609.22V34.63zm13.634 10.484q-1.266 0-2.14-.64-.876-.641-.876-2.282V36.38h-1.453l.11-1.97h1.406l.265-2.28 2.282-.313v2.594h2.156l-.11 1.969h-2.03v5.78q0 .563.28.813.282.235.813.235.312 0 1.016-.11v1.813l-.594.11q-.516.093-1.125.093zm4.857.047q-.672 0-1.219-.422t-.844-1.14q-.297-.72-.297-1.61 0-2.047 1.391-2.875 1.39-.828 3.234-.938 0-1.015-.125-1.5-.125-.484-.64-.484-.422 0-.657.344-.218.328-.265.86l-2.563-.454q.188-1.437 1.172-2.047 1-.625 2.313-.625 1.703 0 2.547.906.859.891.859 2.329v5.421q0 .891.281 1.875l-2.562.22-.297-1.282q-.344.594-1 1.016-.64.406-1.328.406zm1.203-1.875q.328 0 .531-.14.219-.157.531-.485v-2.922q-.922 0-1.484.516-.563.5-.563 1.562 0 .703.25 1.094.25.375.735.375zm9.443 1.828q-1.265 0-2.14-.64-.875-.641-.875-2.282V36.38h-1.454l.11-1.97h1.406l.266-2.28 2.28-.313v2.594h2.157l-.11 1.969h-2.03v5.78q0 .563.28.813.282.235.813.235.313 0 1.016-.11v1.813l-.594.11q-.515.093-1.125.093zm3.154-12.047v-2.703l2.61-.188v2.782l-2.61.11zm-.016 11.953V34.63l2.61-.22v10.391l-2.61.22zm8.313.14q-1.875 0-2.89-1.5-1.016-1.5-1.016-3.968 0-2.469 1-3.937 1.016-1.485 2.906-1.485 1.89 0 2.922 1.485 1.031 1.468 1.031 3.937 0 2.453-1.031 3.969-1.031 1.5-2.922 1.5zm0-1.952q.844 0 1.078-1.016.25-1.031.25-2.531 0-1.485-.25-2.5-.234-1.031-1.078-1.031-.828 0-1.062.968-.22.97-.22 2.36 0 1.718.22 2.734.234 1.016 1.062 1.016zm5.735-8.578 2.61-.22v1.345q.797-.72 1.562-1.094.782-.39 1.438-.39 1 0 1.625.718.625.719.625 1.937v7.875l-2.625.22v-7.11q0-1.39-.953-1.39-.313 0-.703.187-.375.187-.97.531v7.562l-2.609.22V34.63z"/>
  <path fill="#c27ba0" d="M45.724 123.292h241.89v41.764H45.724z" fill-rule="evenodd"/>
  <path stroke="#000" stroke-linejoin="round" stroke-linecap="butt" d="M45.724 123.292h241.89v41.764H45.724z"/>
  <path fill="#000" d="M94.01 136.636q1 .063 1.97.063.968 0 1.984-.063l.047.469q-.704.14-1.016.312-.297.172-.438.47-2.421 6.515-3.343 9.765l-1.563.14-3.422-10q-.125-.265-.39-.406-.25-.14-.97-.281l.048-.469q1.015.063 2.125.063t2.11-.063l.046.469q-1.11.203-1.328.406-.078.078-.078.188 0 .093.453 1.468.453 1.36 1.203 3.641.766 2.266 1.156 3.453h.078q.344-1.11 1.11-3.5 1.578-4.89 1.562-5.062-.015-.188-.328-.313-.312-.14-1.062-.281l.047-.469zm9.321 5.89q0-.734-.421-1.093-.407-.36-.922-.36-.75 0-1.297.594-.547.594-.719 1.453l3.313-.125q.046-.234.046-.468zm-1.39 5.266q-1.703 0-2.563-.968-.86-.97-.86-2.579 0-1.609.954-2.78.953-1.173 2.875-1.173.969 0 1.688.688.734.687.734 2.047l-.547.656q-.094-.016-1.516-.016-1.406 0-2.828.11v.14q0 1.47.61 2.203.609.72 1.656.72 1.062 0 2.234-.516l.188.484q-1.235.984-2.625.984zm8.438-7.593q.125 0 .421.375.297.375.391.734l-.234.312q-.578-.218-1.203-.218-.625 0-1.141.515-.516.516-.516 1.672.016 2.813.14 3.281.017.125.454.235.453.094.938.125l-.063.469q-.766-.047-1.937-.047-1.172 0-1.938.047l.047-.47q.312-.03.656-.124.36-.11.375-.219.125-.562.125-2.25 0-2.719-.125-3.328l-1.015-.297-.032-.422q1.016 0 2.11-.281l.297.14q-.032.25-.032 1.313.469-.766 1.172-1.156.719-.406 1.11-.406zm3.735-1.797q-.235.234-.594.234-.344 0-.594-.234-.234-.25-.234-.61 0-.359.234-.593.25-.25.594-.25.36 0 .594.25.25.234.25.593 0 .36-.25.61zm.062 2.047-.031 3.546q0 2.063.125 2.688l.047.203q.015.11.406.219.39.094.719.125l-.047.469q-.766-.047-1.875-.047-1.094 0-1.86.047l.047-.47q.329-.03.704-.124.39-.11.406-.219.125-.562.125-2.25 0-2.719-.125-3.328l-1.016-.297-.031-.422q1.016 0 2.11-.281l.296.14zm5.681 7.25q-.765-.047-1.89-.047t-1.89.047l.046-.47q.313-.03.688-.124.375-.11.39-.219.125 0 .125-5.734l-1.094.015-.046-.172.359-.625q.234.032.766.063 0-1.031.359-1.86.375-.843.875-1.296.5-.469 1.094-.797.953-.516 1.53-.516.126 0 .423.39.297.376.39.735l-.234.313q-.687-.313-1.375-.313-1.844 0-1.844 3.328l2.078-.015.079.187-.485.625q-.547-.047-1.672-.062 0 4.453.157 5.734.03.11.468.219.438.11.75.125l-.047.469zm3.713-9.297q-.235.234-.594.234-.344 0-.594-.234-.234-.25-.234-.61 0-.359.234-.593.25-.25.594-.25.36 0 .594.25.25.234.25.593 0 .36-.25.61zm.062 2.047-.031 3.546q0 2.063.125 2.688l.047.203q.015.11.406.219.39.094.719.125l-.047.469q-.766-.047-1.875-.047-1.094 0-1.86.047l.047-.47q.329-.03.704-.124.39-.11.406-.219.125-.562.125-2.25 0-2.719-.125-3.328l-1.016-.297-.031-.422q1.016 0 2.11-.281l.296.14zm6.181 3.843q-1.312.032-2 .5-.687.453-.687 1 0 .547.281.797t.906.25q.625 0 1.5-.531v-2.016zm1.172 3.5q-.968 0-1.125-1.03-1.406 1.03-2.437 1.03-.688 0-1.172-.422-.469-.421-.469-1.312 0-.906.953-1.625t3.078-.86v-1.484q0-.453-.328-.687-.328-.25-.922-.25-.593 0-.953.328-.343.328-.343.844 0 .187.046.437l-.343.156q-.328-.172-.61-.468-.28-.313-.28-.454 0-.14.218-.39.219-.266.578-.563.375-.312.984-.53.625-.22 1.39-.22.767 0 1.25.375.485.375.485 1.36 0 .984.094 4.156.016.766.578.766.235 0 .485-.125l.171.406q-.609.562-1.328.562zm5.484-.734q1.156 0 1.828-.938.672-.937.672-2.109t-.578-1.953q-.578-.797-1.625-.797-.781 0-1.781.516 0 3.86.14 5.015.704.266 1.344.266zm-1.484-5.844q1.328-.906 2.562-.906 1.235 0 2.032 1.078.812 1.078.812 2.61 0 1.515-1.047 2.671-1.031 1.141-3.031 1.141-1.328 0-2.656-.563.125-1.406.125-4.359 0-4.812-.094-5.64l-.031-.266-1.032-.297-.03-.422q1.03 0 2.109-.297l.312.156q-.031 1.766-.031 5.094zm8.857-5.094q-.031 2-.031 5.86 0 3.844.172 4.906.015.11.422.219.406.11.703.125l-.047.469q-.766-.047-1.86-.047-1.078 0-1.859.047l.063-.47q.328-.03.703-.124.375-.11.39-.219.11-1.047.11-4 0-4.812-.094-5.64l-.031-.266-1.016-.297-.031-.422q1.015 0 2.11-.297l.296.156zm6.961 6.407q0-.735-.421-1.094-.407-.36-.922-.36-.75 0-1.297.594-.547.594-.719 1.453l3.313-.125q.046-.234.046-.468zm-1.39 5.265q-1.703 0-2.563-.968-.859-.97-.859-2.579 0-1.609.953-2.78.953-1.173 2.875-1.173.969 0 1.688.688.734.687.734 2.047l-.547.656q-.094-.016-1.516-.016-1.406 0-2.828.11v.14q0 1.47.61 2.203.61.72 1.656.72 1.062 0 2.234-.516l.188.484q-1.235.984-2.625.984zm13.844-.734q1.5 0 2.453-.61.969-.624 1.281-1.671l.438.187q-.172.578-.375 2.14-1.953.735-3.844.735-2.625 0-4.172-1.422-1.531-1.437-1.531-3.984 0-2.547 1.516-4.219 1.53-1.672 4.171-1.672.735 0 1.641.125.922.125 1.25.125.344 0 .719-.093v.234q0 1.172.187 2.25l-.422.203q-.64-2.11-3.39-2.11-1.61 0-2.75 1.141-.578.563-.906 1.5-.329.922-.329 1.985 0 1.062.22 1.937.218.86.687 1.594.468.734 1.28 1.187.813.438 1.876.438zm9.794-6.86q.125 0 .422.376.296.375.39.734l-.234.312q-.578-.218-1.203-.218-.625 0-1.141.515-.516.516-.516 1.672.016 2.813.141 3.281.016.125.453.235.453.094.938.125l-.063.469q-.765-.047-1.937-.047-1.172 0-1.938.047l.047-.47q.313-.03.656-.124.36-.11.375-.219.125-.562.125-2.25 0-2.719-.125-3.328l-1.015-.297-.032-.422q1.016 0 2.11-.281l.297.14q-.032.25-.032 1.313.47-.766 1.172-1.156.719-.406 1.11-.406zm6.329 2.329q0-.735-.422-1.094-.407-.36-.922-.36-.75 0-1.297.594-.547.594-.719 1.453l3.313-.125q.047-.234.047-.468zm-1.391 5.265q-1.703 0-2.563-.968-.859-.97-.859-2.579 0-1.609.953-2.78.953-1.173 2.875-1.173.969 0 1.688.688.734.687.734 2.047l-.547.656q-.094-.016-1.515-.016-1.407 0-2.829.11v.14q0 1.47.61 2.203.61.72 1.656.72 1.063 0 2.234-.516l.188.484q-1.234.984-2.625.984zm9.36-1.03q-1.11 1.03-2.422 1.03-1.313 0-2.157-.953-.828-.953-.828-2.719 0-1.765 1-2.796 1-1.047 2.47-1.047.796 0 1.92.562 0-2.969-.093-3.64l-.031-.22-1.031-.296-.032-.422q1.032 0 2.11-.297l.312.156q-.03 2-.03 5.672 0 3.657.03 4.188.032.515.125.656.11.14.328.203.329.094.782.125l-.047.469q-.578.047-1.75.281-.485-.203-.656-.953zm-1.516-5.517q-1.266 0-1.875.829-.594.828-.594 2.046 0 1.22.531 1.954.532.718 1.5.718.985 0 1.86-.562.078-1.281.078-4.688-.828-.297-1.5-.297zm9.595 1.282q0-.735-.422-1.094-.407-.36-.922-.36-.75 0-1.297.594-.547.594-.719 1.453l3.313-.125q.047-.234.047-.468zm-1.391 5.265q-1.703 0-2.563-.968-.859-.97-.859-2.579 0-1.609.953-2.78.953-1.173 2.875-1.173.969 0 1.688.688.734.687.734 2.047l-.547.656q-.094-.016-1.515-.016-1.407 0-2.829.11v.14q0 1.47.61 2.203.61.72 1.656.72 1.063 0 2.234-.516l.188.484q-1.234.984-2.625.984zm6.094-6.015-.016 2.218q0 2.063.125 2.688l.032.203q.015.11.359.219.344.094.672.125l-.047.469q-.766-.047-1.766-.047-.984 0-1.75.047l.047-.47q.297-.03.64-.124.345-.11.36-.219.125-.562.125-2.25 0-2.719-.125-3.328l-1.015-.297-.032-.422q1.016 0 2.11-.281l.297.14v.766q1.78-.922 3.093-.922.797 0 1.203.328.422.313.422 1.188v2.187q0 2.063.11 2.688l.047.203q.03.11.375.219.343.094.656.125l-.047.469q-.766-.047-1.766-.047-.984 0-1.75.047l.047-.47q.297-.03.64-.124.345-.11.36-.219.125-.562.125-2.89v-1.563q0-.625-.375-.86-.36-.234-1.234-.234-.875 0-1.922.438zm9.32 6.015q-1.673 0-1.673-1.593.016-1.407.016-2.579 0-1.187-.031-2.468l-1.016.015-.047-.172.36-.625q.218.047.672.063l-.063-1.469 1.063-.937.296.14q-.03 1.188-.03 2.25l2.359-.015.078.187-.578.64q-.547-.062-1.86-.077v2.14q0 2 .047 2.875.047.72.844.72.64 0 1.406-.376l.203.531q-1.14.75-2.047.75zm4.919-9.39q-.234.234-.594.234-.344 0-.594-.234-.234-.25-.234-.61 0-.359.234-.593.25-.25.594-.25.36 0 .594.25.25.234.25.593 0 .36-.25.61zm.062 2.047-.03 3.546q0 2.063.124 2.688l.047.203q.016.11.406.219.39.094.719.125l-.047.469q-.765-.047-1.875-.047-1.094 0-1.86.047l.048-.47q.328-.03.703-.124.39-.11.406-.219.125-.562.125-2.25 0-2.719-.125-3.328l-1.016-.297-.03-.422q1.015 0 2.109-.281l.296.14zm6.182 3.843q-1.313.032-2 .5-.688.453-.688 1 0 .547.281.797.282.25.907.25t1.5-.531v-2.016zm1.172 3.5q-.97 0-1.125-1.03-1.407 1.03-2.438 1.03-.687 0-1.172-.422-.469-.421-.469-1.312 0-.906.954-1.625.953-.719 3.078-.86v-1.484q0-.453-.328-.687-.329-.25-.922-.25-.594 0-.953.328-.344.328-.344.844 0 .187.047.437l-.344.156q-.328-.172-.61-.468-.28-.313-.28-.454 0-.14.218-.39.219-.266.578-.563.375-.312.985-.53.625-.22 1.39-.22.766 0 1.25.375.485.375.485 1.36 0 .984.093 4.156.016.766.578.766.235 0 .485-.125l.172.406q-.61.562-1.328.562zm4.28-11.672q-.031 2-.031 5.86 0 3.844.172 4.906.016.11.422.219.406.11.703.125l-.047.469q-.766-.047-1.86-.047-1.077 0-1.859.047l.063-.47q.328-.03.703-.124.375-.11.39-.219.11-1.047.11-4 0-4.812-.094-5.64l-.031-.266-1.016-.297-.031-.422q1.016 0 2.11-.297l.296.156zm4.18 6.875q0 1.641.61 3.375.625 1.735 1.844 3.141l-.5.453q-1.844-1.5-2.657-3.344-.797-1.843-.797-3.625 0-3.875 3.454-6.687l.5.453q-2.454 2.875-2.454 6.234zm8.68-2.421.235.125q0 1.03.094 1.578l-.422.14q-.203-.812-.578-1.125-.375-.328-.953-.328-.579 0-.922.313-.328.297-.328.718 0 .72.828 1.172l1.64.907q1.047.593 1.047 1.703 0 .812-.656 1.422-.64.593-1.844.593-1.187 0-2.453-.39.188-1.125.188-1.844l.421-.14q.141.577.204.78.078.204.265.516.188.297.469.39.297.095.844.095.562 0 .937-.313.375-.328.375-.766 0-.671-.765-1.093l-1.72-.953q-1.062-.563-1.062-1.72 0-.812.625-1.437t1.735-.625q1.125 0 1.797.282zm4.894 2.421q0-3.359-2.453-6.234l.5-.453q3.453 2.812 3.453 6.687 0 1.782-.813 3.625-.812 1.844-2.64 3.344l-.5-.453q1.218-1.406 1.828-3.14.625-1.735.625-3.376z"/>
  <path fill="#a4c2f4" d="M45.724 180.706h241.89v41.764H45.724z" fill-rule="evenodd"/>
  <path stroke="#000" stroke-linejoin="round" stroke-linecap="butt" d="M45.724 180.706h241.89v41.764H45.724z"/>
  <path fill="#000" d="M141.41 194.113h2.438q1.75 0 2.672.844.938.843.938 2.156 0 1.297-1.157 2.39-1.14 1.079-3.062 1.079-.531 0-1.14-.094l.124 3.469q.032.297.297.422.281.109 1.063.265l-.047.469q-1-.047-2.188-.047-1.187 0-2.187.047l-.047-.469q.812-.156 1.094-.281.297-.125.328-.406.125-.938.125-3.422 0-4.016-.094-5l-.031-.328q-.031-.282-.297-.407-.25-.125-1.016-.28l.047-.47q1 .063 2.14.063zm1.579 5.797q1.375 0 2.156-.656.781-.657.781-1.985 0-1.344-.671-1.906-.672-.578-2.016-.578-.594 0-.75.078-.156.078-.234.453-.157.844-.157 4.547.47.047.891.047zm9.982-2.297q.125 0 .421.375.297.375.391.734l-.234.313q-.578-.219-1.203-.219-.625 0-1.141.516-.516.515-.516 1.672.016 2.812.141 3.28.016.126.453.235.453.094.938.125l-.063.469q-.766-.047-1.937-.047-1.172 0-1.938.047l.047-.469q.312-.031.656-.125.36-.11.375-.219.125-.562.125-2.25 0-2.718-.125-3.328l-1.015-.297-.032-.421q1.016 0 2.11-.282l.297.14q-.032.25-.032 1.313.47-.765 1.172-1.156.719-.406 1.11-.406zm5.188.875q-.656 0-1.14.328-.47.328-.688.828-.438.906-.438 1.735 0 1.312.531 2.187.532.875 1.657.875.61 0 1.078-.281.469-.281.703-.719.469-.844.5-1.672 0-3.281-2.203-3.281zm.078-.781q1.828 0 2.656.937.844.922.844 2.578 0 1.657-.953 2.828-.953 1.157-2.781 1.157-1.829 0-2.657-.922-.828-.922-.828-2.563 0-1.64.953-2.828.953-1.187 2.766-1.187zm8.386.78q-.656 0-1.14.329-.47.328-.688.828-.438.906-.438 1.735 0 1.312.532 2.187.53.875 1.656.875.61 0 1.078-.281.469-.281.703-.719.469-.844.5-1.672 0-3.281-2.203-3.281zm.078-.78q1.828 0 2.656.937.844.922.844 2.578 0 1.657-.953 2.828-.953 1.157-2.781 1.157-1.828 0-2.657-.922-.828-.922-.828-2.563 0-1.64.953-2.828.954-1.187 2.766-1.187zm8.277 7.406q-.766-.047-1.891-.047t-1.89.047l.046-.469q.313-.031.688-.125.375-.11.39-.219.125 0 .125-5.734l-1.093.016-.047-.172.359-.625q.234.031.766.062 0-1.031.359-1.86.375-.843.875-1.296.5-.469 1.094-.797.953-.515 1.531-.515.125 0 .422.39.297.375.39.735l-.234.312q-.687-.312-1.375-.312-1.844 0-1.844 3.328l2.079-.016.078.188-.485.625q-.547-.047-1.672-.063 0 4.453.157 5.734.03.11.468.22.438.109.75.124l-.046.469zm3.524-4.703q0 1.64.61 3.375.625 1.734 1.843 3.14l-.5.454q-1.843-1.5-2.656-3.344-.797-1.844-.797-3.625 0-3.875 3.453-6.688l.5.453q-2.453 2.875-2.453 6.235zm8.68-2.422.235.125q0 1.031.094 1.578l-.422.14q-.203-.812-.578-1.124-.375-.328-.954-.328-.578 0-.921.312-.329.297-.329.719 0 .719.829 1.172l1.64.906q1.047.594 1.047 1.703 0 .813-.656 1.422-.64.594-1.844.594-1.187 0-2.453-.391.187-1.125.187-1.844l.422-.14q.14.578.203.78.079.204.266.517.188.296.469.39.297.094.844.094.562 0 .937-.313.375-.328.375-.765 0-.672-.766-1.094l-1.718-.953q-1.063-.563-1.063-1.719 0-.812.625-1.437t1.735-.625q1.125 0 1.796.28zm4.894 2.422q0-3.36-2.453-6.235l.5-.453q3.453 2.813 3.453 6.688 0 1.781-.813 3.625-.812 1.844-2.64 3.344l-.5-.454q1.218-1.406 1.828-3.14.625-1.735.625-3.375z"/>
  <path fill="#b4a7d6" d="M45.724 65.877h241.89v41.764H45.724z" fill-rule="evenodd"/>
  <path stroke="#000" stroke-linejoin="round" stroke-linecap="butt" d="M45.724 65.877h241.89v41.764H45.724z"/>
  <path fill="#000" d="M93.53 79.284h2.438q1.75 0 2.672.844.938.844.938 2.156 0 1.297-1.157 2.39-1.14 1.08-3.062 1.08-.531 0-1.14-.095l.124 3.47q.032.296.297.42.281.11 1.063.267l-.047.468q-1-.047-2.188-.047-1.187 0-2.187.047l-.047-.468q.812-.157 1.094-.282.297-.125.328-.406.125-.937.125-3.422 0-4.015-.094-5l-.031-.328q-.031-.281-.297-.406-.25-.125-1.016-.281l.047-.47q1 .063 2.14.063zm1.579 5.797q1.375 0 2.156-.656.781-.656.781-1.984 0-1.344-.671-1.907-.672-.578-2.016-.578-.594 0-.75.078-.156.078-.234.453-.157.844-.157 4.547.469.047.89.047zm9.982-2.297q.125 0 .421.375.297.375.391.735l-.234.312q-.578-.219-1.203-.219-.625 0-1.141.516t-.516 1.672q.016 2.812.14 3.281.017.125.454.235.453.093.938.125l-.063.468q-.766-.047-1.937-.047-1.172 0-1.938.047l.047-.468q.312-.032.656-.125.36-.11.375-.22.125-.562.125-2.25 0-2.718-.125-3.327l-1.015-.297-.032-.422q1.016 0 2.11-.281l.297.14q-.032.25-.032 1.313.469-.766 1.172-1.156.719-.407 1.11-.407zm6.328 2.328q0-.734-.421-1.093-.407-.36-.922-.36-.75 0-1.297.594-.547.594-.719 1.453l3.313-.125q.046-.234.046-.469zm-1.39 5.266q-1.703 0-2.563-.969-.86-.968-.86-2.578 0-1.61.954-2.781.953-1.172 2.875-1.172.969 0 1.688.688.734.687.734 2.046l-.547.657q-.094-.016-1.516-.016-1.406 0-2.828.11v.14q0 1.469.61 2.203.61.719 1.656.719 1.062 0 2.234-.516l.188.485q-1.235.984-2.625.984zm8.281-7.219.235.125q0 1.032.093 1.578l-.421.141q-.204-.812-.579-1.125-.375-.328-.953-.328t-.922.312q-.328.297-.328.72 0 .718.828 1.171l1.641.906q1.047.594 1.047 1.703 0 .813-.656 1.422-.64.594-1.844.594-1.188 0-2.453-.39.187-1.126.187-1.844l.422-.14q.14.577.203.78.078.203.266.516.187.297.469.39.297.094.843.094.563 0 .938-.312.375-.328.375-.766 0-.672-.766-1.094l-1.718-.953q-1.063-.562-1.063-1.718 0-.813.625-1.438t1.734-.625q1.125 0 1.797.281zm6.565 1.953q0-.734-.421-1.093-.407-.36-.922-.36-.75 0-1.297.594-.547.594-.719 1.453l3.313-.125q.046-.234.046-.469zm-1.39 5.266q-1.703 0-2.563-.969-.859-.968-.859-2.578 0-1.61.953-2.781.953-1.172 2.875-1.172.969 0 1.688.688.734.687.734 2.046l-.547.657q-.094-.016-1.516-.016-1.406 0-2.828.11v.14q0 1.469.61 2.203.61.719 1.656.719 1.062 0 2.234-.516l.188.485q-1.235.984-2.625.984zm6.094-6.016-.016 2.22q0 2.062.125 2.687l.031.203q.016.11.36.219.344.093.672.125l-.047.468q-.766-.047-1.766-.047-.984 0-1.75.047l.047-.468q.297-.032.64-.125.344-.11.36-.22.125-.562.125-2.25 0-2.718-.125-3.327l-1.016-.297-.03-.422q1.015 0 2.109-.281l.296.14v.766q1.782-.922 3.094-.922.797 0 1.203.328.422.313.422 1.188v2.187q0 2.063.11 2.688l.046.203q.032.11.375.219.344.093.657.125l-.047.468q-.766-.047-1.766-.047-.984 0-1.75.047l.047-.468q.297-.032.64-.125.344-.11.36-.22.125-.562.125-2.89V85.02q0-.625-.375-.86-.36-.234-1.234-.234-.875 0-1.922.437zm9.32 6.016q-1.673 0-1.673-1.594.016-1.406.016-2.578 0-1.187-.031-2.469l-1.016.016-.047-.172.36-.625q.218.047.671.063l-.062-1.47 1.062-.937.297.141q-.03 1.188-.03 2.25l2.358-.016.079.188-.579.64q-.546-.062-1.859-.078v2.141q0 2 .047 2.875.047.719.844.719.64 0 1.406-.375l.203.531q-1.14.75-2.047.75zm6.762-3.5q-1.312.031-2 .5-.687.453-.687 1 0 .547.281.797t.906.25q.625 0 1.5-.531v-2.016zm1.172 3.5q-.968 0-1.125-1.031-1.406 1.031-2.437 1.031-.688 0-1.172-.422-.469-.422-.469-1.312 0-.907.953-1.625.953-.72 3.078-.86v-1.484q0-.453-.328-.688-.328-.25-.922-.25-.593 0-.953.329-.343.328-.343.843 0 .188.046.438l-.343.156q-.328-.172-.61-.469-.28-.312-.28-.453 0-.14.218-.39.219-.266.578-.563.375-.312.984-.531.625-.219 1.391-.219t1.25.375q.484.375.484 1.36 0 .984.094 4.156.016.765.578.765.235 0 .485-.125l.171.407q-.609.562-1.328.562zm4.61 0q-1.673 0-1.673-1.594.016-1.406.016-2.578 0-1.187-.031-2.469l-1.016.016-.047-.172.36-.625q.218.047.671.063l-.062-1.47 1.062-.937.297.141q-.03 1.188-.03 2.25l2.358-.016.079.188-.579.64q-.546-.062-1.859-.078v2.141q0 2 .047 2.875.047.719.844.719.64 0 1.406-.375l.203.531q-1.14.75-2.047.75zm4.919-9.39q-.235.234-.594.234-.344 0-.594-.235-.234-.25-.234-.609 0-.36.234-.594.25-.25.594-.25.36 0 .594.25.25.235.25.594 0 .36-.25.61zm.062 2.046-.031 3.547q0 2.063.125 2.688l.047.203q.016.11.406.219.39.093.719.125l-.047.468q-.766-.047-1.875-.047-1.094 0-1.86.047l.048-.468q.328-.032.703-.125.39-.11.406-.22.125-.562.125-2.25 0-2.718-.125-3.327l-1.016-.297-.031-.422q1.016 0 2.11-.281l.296.14zm5.79.625q-.655 0-1.14.328-.468.329-.687.829-.438.906-.438 1.734 0 1.312.532 2.187.53.875 1.656.875.61 0 1.078-.28.469-.282.703-.72.469-.843.5-1.671 0-3.282-2.203-3.282zm.079-.78q1.828 0 2.656.937.844.921.844 2.578 0 1.656-.953 2.828-.953 1.156-2.781 1.156-1.828 0-2.657-.922-.828-.922-.828-2.562 0-1.64.953-2.828.954-1.188 2.766-1.188zm6.886 1.483-.016 2.22q0 2.062.125 2.687l.032.203q.015.11.359.219.344.093.672.125l-.047.468q-.766-.047-1.766-.047-.984 0-1.75.047l.047-.468q.297-.032.64-.125.345-.11.36-.22.125-.562.125-2.25 0-2.718-.125-3.327l-1.015-.297-.032-.422q1.016 0 2.11-.281l.297.14v.766q1.78-.922 3.093-.922.797 0 1.203.328.422.313.422 1.188v2.187q0 2.063.11 2.688l.047.203q.03.11.375.219.343.093.656.125l-.047.468q-.766-.047-1.766-.047-.984 0-1.75.047l.047-.468q.297-.032.64-.125.345-.11.36-.22.125-.562.125-2.89V85.02q0-.625-.375-.86-.36-.234-1.234-.234-.875 0-1.922.437zm13.32-2.546q-.173 4-.173 5.64l.063 1.672q.047.39.844.563.187.03.656.125l-.047.468q-1.016-.047-2.203-.047-1.172 0-1.844.047l-.047-.468q.766-.157 1.047-.282.297-.125.328-.406.313-2.594.313-6.625l-.063-2.125q-.03-.281-.297-.406-.25-.125-1.015-.281l.047-.47q1.015.063 2.781.063l3.812 9.438 3.813-9.438q1.812 0 2.828-.062l.047.469q-.766.156-1.031.28-.25.126-.297.438-.047.297-.047 1.047t.078 3.313q.156 3.172.25 4.062l.047.297q.031.297.297.422.265.11 1.062.266l-.062.468q-1-.047-2.188-.047-1.187 0-2.187.047l-.047-.468q.828-.157 1.125-.282.297-.125.297-.406.015-.516.015-2.266t-.203-5.046h-.093l-3.438 8.406-.984.172-3.422-8.578h-.063zm17.033 3.296q0-.734-.422-1.093-.407-.36-.922-.36-.75 0-1.297.594-.547.594-.719 1.453l3.313-.125q.047-.234.047-.469zm-1.391 5.266q-1.703 0-2.563-.969-.859-.968-.859-2.578 0-1.61.953-2.781.953-1.172 2.875-1.172.969 0 1.688.688.734.687.734 2.046l-.547.657q-.094-.016-1.515-.016-1.407 0-2.829.11v.14q0 1.469.61 2.203.61.719 1.656.719 1.063 0 2.234-.516l.188.485q-1.234.984-2.625.984zm6.453 0q-1.671 0-1.671-1.594.015-1.406.015-2.578 0-1.187-.031-2.469l-1.016.016-.047-.172.36-.625q.219.047.672.063l-.063-1.47 1.063-.937.297.141q-.032 1.188-.032 2.25l2.36-.016.078.188-.578.64q-.547-.062-1.86-.078v2.141q0 2 .047 2.875.047.719.844.719.64 0 1.406-.375l.203.531q-1.14.75-2.047.75zm6.764-3.5q-1.313.031-2 .5-.688.453-.688 1 0 .547.281.797.282.25.907.25t1.5-.531v-2.016zm1.171 3.5q-.968 0-1.125-1.031-1.406 1.031-2.437 1.031-.688 0-1.172-.422-.469-.422-.469-1.312 0-.907.953-1.625.954-.72 3.079-.86v-1.484q0-.453-.329-.688-.328-.25-.921-.25-.594 0-.954.329-.343.328-.343.843 0 .188.047.438l-.344.156q-.328-.172-.61-.469-.28-.312-.28-.453 0-.14.218-.39.219-.266.578-.563.375-.312.984-.531.625-.219 1.391-.219t1.25.375q.484.375.484 1.36 0 .984.094 4.156.016.765.578.765.235 0 .485-.125l.172.407q-.61.562-1.329.562zm7.516-1.031q-1.11 1.031-2.422 1.031-1.313 0-2.156-.953-.829-.953-.829-2.719 0-1.765 1-2.797 1-1.047 2.47-1.047.796 0 1.921.563 0-2.969-.094-3.64l-.031-.22-1.031-.296-.031-.422q1.03 0 2.109-.297l.312.156q-.03 2-.03 5.672 0 3.656.03 4.188.032.515.125.656.11.14.329.203.328.094.78.125l-.046.469q-.578.047-1.75.28-.484-.202-.656-.952zm-1.516-5.516q-1.266 0-1.875.828-.594.828-.594 2.047 0 1.219.532 1.953.53.72 1.5.72.984 0 1.859-.563.078-1.282.078-4.688-.828-.297-1.5-.297zm8.845 3.047q-1.313.031-2 .5-.688.453-.688 1 0 .547.281.797.282.25.907.25t1.5-.531v-2.016zm1.172 3.5q-.97 0-1.125-1.031-1.407 1.031-2.438 1.031-.687 0-1.172-.422-.469-.422-.469-1.312 0-.907.954-1.625.953-.72 3.078-.86v-1.484q0-.453-.328-.688-.329-.25-.922-.25-.594 0-.953.329-.344.328-.344.843 0 .188.047.438l-.344.156q-.328-.172-.61-.469-.28-.312-.28-.453 0-.14.218-.39.219-.266.578-.563.375-.312.985-.531.625-.219 1.39-.219.766 0 1.25.375.485.375.485 1.36 0 .984.093 4.156.016.765.578.765.235 0 .485-.125l.172.407q-.61.562-1.328.562zm4.608 0q-1.671 0-1.671-1.594.015-1.406.015-2.578 0-1.187-.031-2.469l-1.016.016-.047-.172.36-.625q.219.047.672.063l-.063-1.47 1.063-.937.297.141q-.032 1.188-.032 2.25l2.36-.016.078.188-.578.64q-.547-.062-1.86-.078v2.141q0 2 .047 2.875.047.719.844.719.64 0 1.406-.375l.203.531q-1.14.75-2.047.75zm6.764-3.5q-1.313.031-2 .5-.688.453-.688 1 0 .547.281.797.282.25.907.25t1.5-.531v-2.016zm1.172 3.5q-.97 0-1.125-1.031-1.407 1.031-2.438 1.031-.687 0-1.172-.422-.469-.422-.469-1.312 0-.907.954-1.625.953-.72 3.078-.86v-1.484q0-.453-.328-.688-.329-.25-.922-.25-.594 0-.953.329-.344.328-.344.843 0 .188.047.438l-.344.156q-.328-.172-.61-.469-.28-.312-.28-.453 0-.14.218-.39.219-.266.578-.563.375-.312.985-.531.625-.219 1.39-.219.766 0 1.25.375.485.375.485 1.36 0 .984.093 4.156.016.765.578.765.235 0 .485-.125l.172.407q-.61.562-1.328.562z"/>
 </g>
</svg>
