<svg viewBox="0 0 722.564 293.79" fill="none" stroke-linecap="square" stroke-miterlimit="10" xmlns="http://www.w3.org/2000/svg">
 <clipPath id="a">
  <path d="M0 0h722.564v293.79H0V0z"/>
 </clipPath>
 <g clip-path="url(#a)">
  <path fill="none" d="M0 0h722.564v293.79H0z"/>
  <path fill="#e06666" d="M16.845 138.924h205.008v40H16.845z"/>
  <path stroke="#000" stroke-linejoin="round" stroke-linecap="butt" d="M16.845 138.924h205.008v40H16.845z"/>
  <path fill="#93c47d" d="M567.333 138.924h122.52v40h-122.52z"/>
  <path stroke="#000" stroke-linejoin="round" stroke-linecap="butt" d="M567.333 138.924h122.52v40h-122.52z"/>
  <path fill="#f6b26b" d="M221.853 138.924h345.48v40h-345.48z"/>
  <path stroke="#000" stroke-linejoin="round" stroke-linecap="butt" d="M221.853 138.924h345.48v40h-345.48z"/>
  <path fill="none" d="M28.357 22.924h181.984v64H28.357z"/>
  <path fill="#000" d="M43.612 49.844V36.25h1.812v5.578h7.063V36.25h1.796v13.594h-1.796v-6.406h-7.063v6.406h-1.812zm13.223-11.688V36.25h1.671v1.906h-1.671zm0 11.688v-9.86h1.671v9.86h-1.671zm3.832.812 1.61.25q.109.75.577 1.094.61.453 1.688.453 1.172 0 1.797-.468.625-.454.86-1.282.124-.515.109-2.156-1.094 1.297-2.72 1.297-2.03 0-3.155-1.469-1.11-1.469-1.11-3.515 0-1.407.516-2.594.515-1.203 1.484-1.844.969-.656 2.266-.656 1.75 0 2.875 1.406v-1.187h1.547V48.5q0 2.313-.47 3.266-.468.969-1.483 1.515-1.016.563-2.5.563-1.766 0-2.86-.797-1.078-.797-1.031-2.39zm1.375-5.921q0 1.953.766 2.843.78.89 1.937.89 1.14 0 1.922-.89.781-.89.781-2.781 0-1.812-.812-2.719-.797-.922-1.922-.922-1.11 0-1.89.907-.782.89-.782 2.672zm9.297 5.109V36.25h1.672v4.875q1.172-1.36 2.953-1.36 1.094 0 1.891.438.813.422 1.156 1.188.36.765.36 2.203v6.25h-1.672v-6.25q0-1.25-.547-1.813-.547-.578-1.531-.578-.75 0-1.407.39-.64.376-.921 1.048-.282.656-.282 1.812v5.39H71.34zm10.345 0V36.25h1.672v13.594h-1.672zm4.098 3.797-.172-1.563q.547.14.953.14.547 0 .875-.187.344-.187.563-.515.156-.25.5-1.25.047-.14.156-.406l-3.734-9.875h1.796l2.047 5.718q.407 1.078.719 2.282.281-1.157.688-2.25l2.093-5.75h1.672l-3.75 10.03q-.594 1.626-.937 2.235-.438.828-1.016 1.203-.578.39-1.375.39-.484 0-1.078-.202zm21.027-7.406 1.64.218q-.265 1.688-1.374 2.657-1.11.953-2.735.953-2.015 0-3.25-1.313-1.219-1.328-1.219-3.797 0-1.593.516-2.781.531-1.203 1.61-1.797 1.093-.61 2.359-.61 1.61 0 2.625.813t1.312 2.313l-1.625.25q-.234-1-.828-1.5t-1.422-.5q-1.265 0-2.062.906-.781.906-.781 2.86 0 1.984.765 2.89.766.89 1.985.89.984 0 1.64-.593.656-.61.844-1.86zm2.266-1.313q0-2.734 1.53-4.062 1.266-1.094 3.095-1.094 2.03 0 3.312 1.344 1.297 1.328 1.297 3.671 0 1.907-.578 3-.563 1.079-1.656 1.688-1.079.594-2.375.594-2.063 0-3.344-1.328-1.281-1.329-1.281-3.813zm1.718 0q0 1.89.828 2.828.829.938 2.079.938 1.25 0 2.062-.938.828-.953.828-2.89 0-1.829-.828-2.766-.828-.938-2.062-.938-1.25 0-2.079.938-.828.937-.828 2.828zm9.267 4.922v-9.86h1.5v1.5q.578-1.046 1.062-1.374.485-.344 1.078-.344.844 0 1.719.547l-.578 1.547q-.61-.36-1.234-.36-.547 0-.985.328-.422.328-.61.907-.28.89-.28 1.953v5.156h-1.672zm6.212 0v-9.86h1.5v1.5q.578-1.046 1.063-1.374.484-.344 1.078-.344.844 0 1.719.547l-.578 1.547q-.61-.36-1.235-.36-.547 0-.984.328-.422.328-.61.907-.28.89-.28 1.953v5.156h-1.673zm12.979-3.172 1.718.219q-.406 1.5-1.515 2.344-1.094.828-2.813.828-2.156 0-3.422-1.328-1.265-1.329-1.265-3.735 0-2.484 1.265-3.86 1.282-1.374 3.329-1.374 1.984 0 3.234 1.344 1.25 1.343 1.25 3.796 0 .141-.016.438h-7.343q.093 1.625.921 2.484.829.86 2.063.86.906 0 1.547-.47.656-.483 1.047-1.546zm-5.485-2.703h5.5q-.11-1.234-.625-1.86-.797-.968-2.078-.968-1.14 0-1.937.781-.782.766-.86 2.047zm9.08 5.875V36.25h1.671v13.594h-1.672zm10.613-1.219q-.938.797-1.797 1.125-.86.313-1.844.313-1.61 0-2.484-.782-.875-.796-.875-2.03 0-.735.328-1.329t.86-.953q.53-.36 1.202-.547.5-.14 1.485-.25 2.03-.25 2.984-.578v-.438q0-1.015-.469-1.437-.64-.563-1.906-.563-1.172 0-1.734.407-.563.406-.828 1.468l-1.641-.234q.234-1.047.734-1.687.516-.641 1.47-.985.968-.36 2.25-.36 1.265 0 2.046.298.781.297 1.156.75.375.453.516 1.14.094.422.094 1.532v2.234q0 2.328.093 2.953.11.61.438 1.172h-1.75q-.266-.516-.328-1.219zm-.14-3.719q-.907.36-2.735.625-1.032.141-1.453.329-.422.187-.657.546-.234.36-.234.797 0 .672.5 1.125.516.438 1.484.438.97 0 1.72-.422.75-.438 1.108-1.156.266-.578.266-1.672v-.61zm7.734 3.438.235 1.484q-.704.14-1.266.14-.906 0-1.406-.28-.5-.297-.703-.75-.204-.47-.204-1.985v-5.656h-1.234v-1.312h1.234v-2.438l1.657-1v3.438h1.687v1.312h-1.687v5.75q0 .719.078.922.094.203.297.328.203.125.578.125.265 0 .734-.078zm7.965.281q-.938.797-1.797 1.125-.86.313-1.844.313-1.61 0-2.484-.782-.875-.796-.875-2.03 0-.735.328-1.329t.86-.953q.53-.36 1.202-.547.5-.14 1.485-.25 2.03-.25 2.984-.578v-.438q0-1.015-.469-1.437-.64-.563-1.906-.563-1.172 0-1.734.407-.563.406-.828 1.468l-1.641-.234q.234-1.047.734-1.687.516-.641 1.47-.985.968-.36 2.25-.36 1.265 0 2.046.298.781.297 1.156.75.375.453.516 1.14.094.422.094 1.532v2.234q0 2.328.093 2.953.11.61.438 1.172h-1.75q-.266-.516-.328-1.219zm-.14-3.719q-.907.36-2.735.625-1.032.141-1.453.329-.422.187-.657.546-.234.36-.234.797 0 .672.5 1.125.516.438 1.484.438.97 0 1.72-.422.75-.438 1.108-1.156.266-.578.266-1.672v-.61zm5.625 4.938h-1.547V36.25h1.656v4.844q1.063-1.328 2.703-1.328.907 0 1.719.375.813.36 1.328 1.031.531.656.828 1.594.297.937.297 2 0 2.531-1.25 3.922-1.25 1.375-3 1.375t-2.734-1.453v1.234zm-.016-5q0 1.766.469 2.562.797 1.282 2.14 1.282 1.094 0 1.891-.938.797-.953.797-2.844 0-1.921-.766-2.843-.765-.922-1.843-.922-1.094 0-1.891.953-.797.953-.797 2.75zm8.813 5V36.25h1.672v13.594H183.3zm10.926-3.172 1.72.219q-.407 1.5-1.516 2.344-1.094.828-2.813.828-2.156 0-3.422-1.328-1.265-1.329-1.265-3.735 0-2.484 1.265-3.86 1.281-1.374 3.328-1.374 1.985 0 3.235 1.344 1.25 1.343 1.25 3.796 0 .141-.016.438h-7.344q.094 1.625.922 2.484.828.86 2.063.86.906 0 1.547-.47.656-.483 1.046-1.546zm-5.484-2.703h5.5q-.11-1.234-.625-1.86-.797-.968-2.078-.968-1.14 0-1.938.781-.78.766-.859 2.047zM76.094 75.844q-1.375-1.75-2.328-4.078-.953-2.344-.953-4.844 0-2.219.703-4.234.843-2.344 2.578-4.672h1.203q-1.125 1.922-1.484 2.75-.563 1.281-.891 2.672-.406 1.734-.406 3.484 0 4.469 2.78 8.922h-1.202zm2.728-3.188 1.61.25q.109.75.578 1.094.609.453 1.687.453 1.172 0 1.797-.468.625-.454.86-1.282.124-.515.109-2.156-1.094 1.297-2.719 1.297-2.031 0-3.156-1.469-1.11-1.469-1.11-3.515 0-1.407.516-2.594.516-1.203 1.484-1.844.97-.656 2.266-.656 1.75 0 2.875 1.406v-1.187h1.547V70.5q0 2.313-.469 3.266-.469.969-1.484 1.515-1.016.563-2.5.563-1.766 0-2.86-.797-1.078-.797-1.03-2.39zm1.375-5.921q0 1.953.766 2.843.781.89 1.937.89 1.14 0 1.922-.89.781-.89.781-2.781 0-1.812-.812-2.719-.797-.922-1.922-.922-1.11 0-1.89.907-.782.89-.782 2.672zm9.266 5.109V58.25h1.672v13.594h-1.672zm3.552-4.922q0-2.734 1.53-4.062 1.266-1.094 3.095-1.094 2.03 0 3.312 1.344 1.297 1.328 1.297 3.671 0 1.907-.578 3-.563 1.079-1.656 1.688-1.079.594-2.375.594-2.063 0-3.344-1.328-1.281-1.329-1.281-3.813zm1.718 0q0 1.89.828 2.828.829.938 2.079.938 1.25 0 2.062-.938.828-.953.828-2.89 0-1.829-.828-2.766-.828-.938-2.062-.938-1.25 0-2.079.938-.828.937-.828 2.828zm10.83 4.922h-1.548V58.25h1.656v4.844q1.063-1.328 2.704-1.328.906 0 1.718.375.813.36 1.328 1.031.532.656.829 1.594.296.937.296 2 0 2.531-1.25 3.922-1.25 1.375-3 1.375t-2.734-1.453v1.234zm-.017-5q0 1.766.47 2.562.796 1.282 2.14 1.282 1.094 0 1.89-.938.797-.953.797-2.844 0-1.921-.765-2.843-.766-.922-1.844-.922-1.094 0-1.89.953-.798.953-.798 2.75zm15.282 3.781q-.937.797-1.796 1.125-.86.313-1.844.313-1.61 0-2.485-.782-.875-.796-.875-2.03 0-.735.329-1.329.328-.594.859-.953.531-.36 1.203-.547.5-.14 1.484-.25 2.032-.25 2.985-.578v-.438q0-1.015-.469-1.437-.64-.563-1.906-.563-1.172 0-1.735.407-.562.406-.828 1.468l-1.64-.234q.234-1.047.734-1.687.516-.641 1.469-.985.969-.36 2.25-.36 1.265 0 2.047.298.781.297 1.156.75.375.453.516 1.14.093.422.093 1.532v2.234q0 2.328.094 2.953.11.61.438 1.172h-1.75q-.266-.516-.329-1.219zm-.14-3.719q-.906.36-2.735.625-1.03.141-1.453.329-.422.187-.656.546-.234.36-.234.797 0 .672.5 1.125.515.438 1.484.438t1.719-.422q.75-.438 1.11-1.156.265-.578.265-1.672v-.61zm4.047 4.938V58.25h1.672v13.594h-1.672zm9.875 0V58.25h1.813v13.594h-1.813zm4.887 0V58.25h4.687q1.578 0 2.422.188 1.156.265 1.985.968 1.078.922 1.609 2.344.531 1.406.531 3.219 0 1.547-.36 2.75-.359 1.187-.921 1.984-.563.782-1.234 1.235-.672.437-1.625.672-.954.234-2.188.234h-4.906zm1.797-1.61h2.906q1.344 0 2.11-.25.765-.25 1.218-.703.64-.64 1-1.718.36-1.078.36-2.625 0-2.125-.704-3.266-.703-1.156-1.703-1.547-.719-.281-2.328-.281h-2.86v10.39zm10.785-1.328 1.656-.265q.141 1 .766 1.531.64.516 1.781.516 1.157 0 1.703-.47.563-.468.563-1.093 0-.562-.484-.89-.344-.22-1.704-.563-1.843-.469-2.562-.797-.703-.344-1.078-.937-.36-.61-.36-1.328 0-.657.297-1.22.313-.562.828-.937.391-.281 1.063-.484.672-.203 1.437-.203 1.172 0 2.047.344.875.328 1.282.906.421.562.578 1.515l-1.625.22q-.11-.75-.657-1.173-.53-.437-1.5-.437-1.156 0-1.64.39-.485.375-.485.875 0 .329.204.594.203.266.64.438.25.093 1.469.437 1.766.469 2.469.766.703.297 1.093.875.407.578.407 1.437 0 .828-.485 1.578-.484.735-1.406 1.141-.922.39-2.078.39-1.922 0-2.938-.796-1-.797-1.28-2.36zm11.094 6.938h-1.188q2.766-4.453 2.766-8.922 0-1.734-.39-3.453-.329-1.39-.891-2.672-.36-.844-1.485-2.781h1.188q1.75 2.328 2.578 4.672.719 2.015.719 4.234 0 2.5-.969 4.844-.953 2.328-2.328 4.078z"/>
  <path fill="none" d="M257.341 22.924H531.83v76H257.341z"/>
  <path fill="#000" d="m354.944 45.078 1.797.453q-.562 2.22-2.031 3.391-1.469 1.156-3.594 1.156-2.203 0-3.578-.89-1.375-.907-2.094-2.594-.718-1.703-.718-3.656 0-2.125.797-3.703.812-1.579 2.312-2.391 1.5-.828 3.297-.828 2.047 0 3.437 1.047 1.391 1.03 1.938 2.906l-1.766.422q-.468-1.485-1.375-2.156-.906-.688-2.265-.688-1.563 0-2.625.75-1.047.75-1.485 2.031-.422 1.266-.422 2.61 0 1.734.5 3.03.516 1.282 1.579 1.923 1.078.64 2.312.64 1.516 0 2.563-.859 1.046-.875 1.421-2.594zm2.926-.156q0-2.734 1.532-4.062 1.265-1.094 3.093-1.094 2.032 0 3.313 1.344 1.297 1.328 1.297 3.671 0 1.907-.578 3-.563 1.079-1.657 1.688-1.078.594-2.375.594-2.062 0-3.343-1.328-1.282-1.329-1.282-3.813zm1.72 0q0 1.89.827 2.828.828.938 2.078.938t2.063-.938q.828-.953.828-2.89 0-1.829-.828-2.766-.828-.938-2.063-.938-1.25 0-2.078.938-.828.937-.828 2.828zm9.266 4.922v-9.86h1.5v1.5q.578-1.046 1.062-1.374.484-.344 1.078-.344.844 0 1.719.547l-.578 1.547q-.61-.36-1.235-.36-.546 0-.984.328-.422.328-.61.907-.28.89-.28 1.953v5.156h-1.672zm6.212 0v-9.86h1.5v1.5q.578-1.046 1.063-1.374.484-.344 1.078-.344.844 0 1.719.547l-.579 1.547q-.609-.36-1.234-.36-.547 0-.984.328-.422.328-.61.907-.28.89-.28 1.953v5.156h-1.673zm12.979-3.172 1.718.219q-.406 1.5-1.515 2.344-1.094.828-2.813.828-2.156 0-3.422-1.328-1.265-1.329-1.265-3.735 0-2.484 1.265-3.86 1.282-1.374 3.328-1.374 1.985 0 3.235 1.344 1.25 1.343 1.25 3.796 0 .141-.016.438h-7.344q.094 1.625.922 2.484.828.86 2.063.86.906 0 1.547-.47.656-.483 1.047-1.546zm-5.485-2.703h5.5q-.11-1.234-.625-1.86-.797-.968-2.078-.968-1.14 0-1.937.781-.782.766-.86 2.047zm9.079 5.875V36.25h1.672v13.594h-1.672zm10.614-1.219q-.938.797-1.797 1.125-.86.313-1.844.313-1.61 0-2.484-.782-.875-.796-.875-2.03 0-.735.328-1.329t.86-.953q.53-.36 1.202-.547.5-.14 1.485-.25 2.03-.25 2.984-.578v-.438q0-1.015-.469-1.437-.64-.563-1.906-.563-1.172 0-1.734.407-.563.406-.829 1.468l-1.64-.234q.234-1.047.734-1.687.516-.641 1.469-.985.969-.36 2.25-.36 1.266 0 2.047.298.781.297 1.156.75.375.453.516 1.14.093.422.093 1.532v2.234q0 2.328.094 2.953.11.61.438 1.172h-1.75q-.266-.516-.328-1.219zm-.141-3.719q-.906.36-2.734.625-1.032.141-1.454.329-.421.187-.656.546-.234.36-.234.797 0 .672.5 1.125.515.438 1.484.438t1.719-.422q.75-.438 1.11-1.156.265-.578.265-1.672v-.61zm7.735 3.438.234 1.484q-.703.14-1.265.14-.906 0-1.406-.28-.5-.297-.704-.75-.203-.47-.203-1.985v-5.656h-1.234v-1.312h1.234v-2.438l1.657-1v3.438h1.687v1.312h-1.687v5.75q0 .719.078.922.093.203.297.328.203.125.578.125.265 0 .734-.078zm7.965.281q-.938.797-1.797 1.125-.86.313-1.844.313-1.61 0-2.484-.782-.875-.796-.875-2.03 0-.735.328-1.329t.86-.953q.53-.36 1.202-.547.5-.14 1.485-.25 2.03-.25 2.984-.578v-.438q0-1.015-.469-1.437-.64-.563-1.906-.563-1.172 0-1.734.407-.563.406-.829 1.468l-1.64-.234q.234-1.047.734-1.687.516-.641 1.469-.985.969-.36 2.25-.36 1.266 0 2.047.298.781.297 1.156.75.375.453.516 1.14.093.422.093 1.532v2.234q0 2.328.094 2.953.11.61.438 1.172h-1.75q-.266-.516-.328-1.219zm-.141-3.719q-.906.36-2.734.625-1.032.141-1.454.329-.421.187-.656.546-.234.36-.234.797 0 .672.5 1.125.515.438 1.484.438t1.719-.422q.75-.438 1.11-1.156.265-.578.265-1.672v-.61zm5.626 4.938h-1.547V36.25h1.656v4.844q1.063-1.328 2.703-1.328.906 0 1.719.375.812.36 1.328 1.031.531.656.828 1.594.297.937.297 2 0 2.531-1.25 3.922-1.25 1.375-3 1.375T423.3 48.61v1.234zm-.016-5q0 1.766.469 2.562.797 1.282 2.14 1.282 1.094 0 1.891-.938.797-.953.797-2.844 0-1.921-.766-2.843-.765-.922-1.843-.922-1.094 0-1.891.953-.797.953-.797 2.75zm8.813 5V36.25h1.672v13.594h-1.672zm10.926-3.172 1.72.219q-.407 1.5-1.517 2.344-1.093.828-2.812.828-2.156 0-3.422-1.328-1.266-1.329-1.266-3.735 0-2.484 1.266-3.86 1.281-1.374 3.328-1.374 1.985 0 3.235 1.344 1.25 1.343 1.25 3.796 0 .141-.016.438h-7.344q.094 1.625.922 2.484.828.86 2.063.86.906 0 1.546-.47.657-.483 1.047-1.546zm-5.484-2.703h5.5q-.11-1.234-.625-1.86-.797-.968-2.078-.968-1.14 0-1.938.781-.78.766-.859 2.047zM347.757 71.844l-3.75-9.86h1.766l2.125 5.907q.343.953.625 1.984.218-.781.625-1.875l2.187-6.015h1.719l-3.735 9.859h-1.562zm6.61-11.688V58.25h1.671v1.906h-1.672zm0 11.688v-9.86h1.671v9.86h-1.672zm10.566-1.219q-.938.797-1.797 1.125-.86.313-1.844.313-1.609 0-2.484-.782-.875-.796-.875-2.03 0-.735.328-1.329t.86-.953q.53-.36 1.203-.547.5-.14 1.484-.25 2.031-.25 2.984-.578v-.438q0-1.015-.468-1.437-.641-.563-1.907-.563-1.172 0-1.734.407-.563.406-.828 1.468l-1.64-.234q.234-1.047.734-1.687.515-.641 1.468-.985.97-.36 2.25-.36 1.266 0 2.047.298.781.297 1.156.75.375.453.516 1.14.094.422.094 1.532v2.234q0 2.328.094 2.953.109.61.437 1.172h-1.75q-.266-.516-.328-1.219zm-.14-3.719q-.907.36-2.735.625-1.031.141-1.453.329-.422.187-.656.546-.235.36-.235.797 0 .672.5 1.125.516.438 1.485.438.968 0 1.718-.422.75-.438 1.11-1.156.265-.578.265-1.672v-.61zm15.699 1.329 1.64.218q-.265 1.688-1.374 2.657-1.11.953-2.735.953-2.015 0-3.25-1.313-1.218-1.328-1.218-3.797 0-1.593.515-2.781.531-1.203 1.61-1.797 1.093-.61 2.359-.61 1.61 0 2.625.813 1.016.813 1.312 2.313l-1.625.25q-.234-1-.828-1.5-.593-.5-1.422-.5-1.265 0-2.062.906-.781.906-.781 2.86 0 1.984.765 2.89.766.89 1.985.89.984 0 1.64-.593.657-.61.844-1.86zm2.266-1.313q0-2.734 1.53-4.062 1.267-1.094 3.095-1.094 2.03 0 3.312 1.344 1.297 1.328 1.297 3.671 0 1.907-.578 3-.563 1.079-1.656 1.688-1.078.594-2.375.594-2.063 0-3.344-1.328-1.281-1.329-1.281-3.813zm1.718 0q0 1.89.829 2.828.828.938 2.078.938t2.062-.938q.828-.953.828-2.89 0-1.829-.828-2.766-.828-.938-2.062-.938-1.25 0-2.078.938-.829.937-.829 2.828zm9.251 4.922V58.25h1.672v13.594h-1.672zm4.145 0V58.25h1.672v13.594h-1.672zm10.63 0V70.39q-1.142 1.672-3.126 1.672-.86 0-1.625-.328-.75-.344-1.125-.844-.36-.5-.516-1.235-.093-.5-.093-1.562v-6.11h1.672v5.47q0 1.312.093 1.765.157.656.672 1.031.516.375 1.266.375t1.406-.375q.656-.39.922-1.047.281-.672.281-1.937v-5.281h1.672v9.859h-1.5zm3.25-2.938 1.656-.265q.14 1 .766 1.531.64.516 1.781.516 1.156 0 1.703-.47.563-.468.563-1.093 0-.562-.485-.89-.344-.22-1.703-.563-1.844-.469-2.562-.797-.704-.344-1.079-.937-.359-.61-.359-1.328 0-.657.297-1.22.312-.562.828-.937.39-.281 1.063-.484.671-.203 1.437-.203 1.172 0 2.047.344.875.328 1.281.906.422.562.578 1.515l-1.625.22q-.109-.75-.656-1.173-.531-.437-1.5-.437-1.156 0-1.64.39-.485.375-.485.875 0 .329.203.594.203.266.64.438.25.093 1.47.437 1.765.469 2.468.766.703.297 1.094.875.406.578.406 1.437 0 .828-.484 1.578-.484.735-1.406 1.141-.922.39-2.078.39-1.922 0-2.938-.796-1-.797-1.281-2.36zm10.015-8.75V58.25h1.672v1.906h-1.672zm0 11.688v-9.86h1.672v9.86h-1.672zm3.505-4.922q0-2.734 1.53-4.062 1.267-1.094 3.095-1.094 2.03 0 3.312 1.344 1.297 1.328 1.297 3.671 0 1.907-.578 3-.563 1.079-1.656 1.688-1.078.594-2.375.594-2.063 0-3.344-1.328-1.281-1.329-1.281-3.813zm1.718 0q0 1.89.829 2.828.828.938 2.078.938t2.062-.938q.828-.953.828-2.89 0-1.829-.828-2.766-.828-.938-2.062-.938-1.25 0-2.078.938-.829.937-.829 2.828zm9.282 4.922v-9.86h1.5v1.407q1.094-1.625 3.141-1.625.89 0 1.64.328.75.312 1.11.844.375.515.531 1.218.094.47.094 1.625v6.063h-1.672v-6q0-1.016-.203-1.516-.188-.515-.688-.812-.5-.297-1.171-.297-1.063 0-1.844.672-.766.672-.766 2.578v5.375h-1.672zM285.468 97.844q-1.375-1.75-2.328-4.078-.953-2.344-.953-4.844 0-2.219.703-4.234.844-2.344 2.578-4.672h1.203q-1.125 1.922-1.484 2.75-.562 1.281-.89 2.672-.407 1.734-.407 3.484 0 4.469 2.781 8.922h-1.203zm3.026-.219v-13.64h1.53v1.28q.532-.75 1.204-1.124.687-.375 1.64-.375 1.266 0 2.235.656.969.64 1.453 1.828.5 1.188.5 2.594 0 1.516-.547 2.734-.547 1.203-1.578 1.844-1.031.64-2.172.64-.844 0-1.515-.343-.657-.36-1.079-.89v4.796h-1.671zm1.515-8.656q0 1.906.766 2.812.781.907 1.875.907 1.11 0 1.89-.938.797-.937.797-2.922 0-1.875-.781-2.812-.766-.938-1.844-.938-1.062 0-1.89 1-.813 1-.813 2.89zm15.61 1.703 1.719.219q-.406 1.5-1.516 2.344-1.093.828-2.812.828-2.156 0-3.422-1.328-1.266-1.329-1.266-3.735 0-2.484 1.266-3.86 1.281-1.374 3.328-1.374 1.985 0 3.235 1.344 1.25 1.343 1.25 3.796 0 .141-.016.438h-7.344q.094 1.625.922 2.484.828.86 2.063.86.906 0 1.546-.47.657-.483 1.047-1.546zm-5.484-2.703h5.5q-.11-1.234-.625-1.86-.797-.968-2.078-.968-1.14 0-1.938.781-.781.766-.86 2.047zm9.094 5.875v-9.86h1.5v1.5q.578-1.046 1.063-1.374.484-.344 1.078-.344.844 0 1.719.547l-.578 1.547q-.61-.36-1.235-.36-.547 0-.984.328-.422.328-.61.907-.28.89-.28 1.953v5.156h-1.673zm5.557-2.938 1.656-.265q.14 1 .766 1.531.64.516 1.78.516 1.157 0 1.704-.47.563-.468.563-1.093 0-.562-.485-.89-.344-.22-1.703-.563-1.844-.469-2.562-.797-.704-.344-1.079-.937-.359-.61-.359-1.328 0-.657.297-1.22.312-.562.828-.937.39-.281 1.063-.484.671-.203 1.437-.203 1.172 0 2.047.344.875.328 1.281.906.422.562.578 1.515l-1.625.22q-.11-.75-.656-1.173-.531-.437-1.5-.437-1.156 0-1.64.39-.485.375-.485.875 0 .329.203.594.203.266.64.438.25.093 1.47.437 1.765.469 2.468.766.703.297 1.094.875.406.578.406 1.437 0 .828-.484 1.578-.484.735-1.406 1.141-.922.39-2.078.39-1.922 0-2.938-.796-1-.797-1.281-2.36zm9.375-1.984q0-2.734 1.531-4.062 1.266-1.094 3.094-1.094 2.031 0 3.312 1.344 1.297 1.328 1.297 3.671 0 1.907-.578 3-.562 1.079-1.656 1.688-1.078.594-2.375.594-2.063 0-3.344-1.328-1.281-1.329-1.281-3.813zm1.719 0q0 1.89.828 2.828t2.078.938q1.25 0 2.062-.938.828-.953.828-2.89 0-1.829-.828-2.766-.828-.938-2.062-.938-1.25 0-2.078.938-.828.937-.828 2.828zm9.281 4.922v-9.86h1.5v1.407q1.094-1.625 3.141-1.625.89 0 1.64.328.75.312 1.11.844.375.515.531 1.218.094.47.094 1.625v6.063h-1.672v-6q0-1.016-.203-1.516-.187-.515-.687-.812-.5-.297-1.172-.297-1.063 0-1.844.672-.766.672-.766 2.578v5.375h-1.672zm16.814-1.219q-.938.797-1.797 1.125-.86.313-1.844.313-1.61 0-2.484-.782-.875-.796-.875-2.03 0-.735.328-1.329t.86-.953q.53-.36 1.202-.547.5-.14 1.485-.25 2.03-.25 2.984-.578v-.438q0-1.015-.469-1.437-.64-.563-1.906-.563-1.172 0-1.734.407-.563.406-.828 1.468l-1.641-.234q.234-1.047.734-1.687.516-.641 1.47-.985.968-.36 2.25-.36 1.265 0 2.046.298.781.297 1.156.75.375.453.516 1.14.094.422.094 1.532v2.234q0 2.328.093 2.953.11.61.438 1.172h-1.75q-.266-.516-.328-1.219zm-.14-3.719q-.907.36-2.735.625-1.032.141-1.453.329-.422.187-.657.546-.234.36-.234.797 0 .672.5 1.125.516.438 1.484.438.97 0 1.72-.422.75-.438 1.108-1.156.266-.578.266-1.672v-.61zm4.047 4.938V80.25h1.672v13.594h-1.672zm4.144 0V80.25h1.672v13.594h-1.672zm4.098 3.797-.171-1.563q.546.14.953.14.547 0 .875-.187.343-.187.562-.515.156-.25.5-1.25.047-.14.156-.406l-3.734-9.875h1.797l2.047 5.718q.406 1.078.719 2.282.28-1.157.687-2.25l2.094-5.75h1.672l-3.75 10.03q-.594 1.626-.938 2.235-.437.828-1.015 1.203-.579.39-1.375.39-.485 0-1.079-.202zm14.606-15.485V80.25h1.671v1.906h-1.671zm0 11.688v-9.86h1.671v9.86h-1.671zm10.52 0v-1.25q-.938 1.469-2.75 1.469-1.172 0-2.172-.641-.985-.656-1.532-1.812-.53-1.172-.53-2.688 0-1.469.483-2.672.5-1.203 1.47-1.844.984-.64 2.202-.64.89 0 1.578.375.704.375 1.141.984V80.25h1.656v13.594h-1.547zm-5.282-4.922q0 1.89.797 2.828.813.938 1.89.938 1.094 0 1.86-.891.766-.89.766-2.734 0-2.016-.782-2.953-.78-.954-1.921-.954-1.11 0-1.86.907-.75.906-.75 2.859zm16.017 1.75 1.718.219q-.406 1.5-1.515 2.344-1.094.828-2.813.828-2.156 0-3.422-1.328-1.265-1.329-1.265-3.735 0-2.484 1.265-3.86 1.282-1.374 3.328-1.374 1.985 0 3.235 1.344 1.25 1.343 1.25 3.796 0 .141-.016.438h-7.344q.094 1.625.922 2.484.828.86 2.063.86.906 0 1.547-.47.656-.483 1.047-1.546zm-5.485-2.703h5.5q-.11-1.234-.625-1.86-.797-.968-2.078-.968-1.14 0-1.937.781-.782.766-.86 2.047zm9.11 5.875v-9.86h1.5v1.407q1.094-1.625 3.14-1.625.892 0 1.642.328.75.312 1.109.844.375.515.531 1.218.094.47.094 1.625v6.063h-1.672v-6q0-1.016-.203-1.516-.188-.515-.688-.812-.5-.297-1.171-.297-1.063 0-1.844.672-.766.672-.766 2.578v5.375h-1.672zm14.032-1.5.235 1.484q-.704.14-1.266.14-.906 0-1.406-.28-.5-.297-.703-.75-.204-.47-.204-1.985v-5.656h-1.234v-1.312h1.234v-2.438l1.657-1v3.438h1.687v1.312h-1.687v5.75q0 .719.078.922.094.203.297.328.203.125.578.125.265 0 .734-.078zm1.543-10.188V80.25h1.672v1.906h-1.672zm0 11.688v-9.86h1.672v9.86h-1.672zm4.535 0v-8.547h-1.484v-1.312h1.484v-1.047q0-.985.172-1.47.235-.655.844-1.046.61-.406 1.703-.406.703 0 1.563.156l-.25 1.469q-.516-.094-.985-.094-.765 0-1.078.328-.312.313-.312 1.203v.907h1.921v1.312h-1.921v8.547h-1.657zm4.793-11.688V80.25h1.672v1.906h-1.672zm0 11.688v-9.86h1.672v9.86h-1.672zm10.567-1.219q-.938.797-1.797 1.125-.86.313-1.844.313-1.61 0-2.484-.782-.875-.796-.875-2.03 0-.735.328-1.329t.86-.953q.53-.36 1.202-.547.5-.14 1.485-.25 2.031-.25 2.984-.578v-.438q0-1.015-.469-1.437-.64-.563-1.906-.563-1.172 0-1.734.407-.563.406-.828 1.468l-1.641-.234q.234-1.047.734-1.687.516-.641 1.47-.985.968-.36 2.25-.36 1.265 0 2.046.298.781.297 1.156.75.375.453.516 1.14.094.422.094 1.532v2.234q0 2.328.093 2.953.11.61.438 1.172h-1.75q-.266-.516-.328-1.219zm-.14-3.719q-.907.36-2.735.625-1.032.141-1.453.329-.422.187-.657.546-.234.36-.234.797 0 .672.5 1.125.516.438 1.484.438.97 0 1.72-.422.75-.438 1.108-1.156.266-.578.266-1.672v-.61zm5.625 4.938h-1.547V80.25h1.656v4.844q1.063-1.328 2.703-1.328.907 0 1.72.375.812.36 1.327 1.031.531.656.828 1.594.297.937.297 2 0 2.531-1.25 3.922-1.25 1.375-3 1.375t-2.734-1.453v1.234zm-.016-5q0 1.766.469 2.562.797 1.282 2.14 1.282 1.094 0 1.891-.938.797-.953.797-2.844 0-1.921-.766-2.843-.765-.922-1.843-.922-1.094 0-1.89.953-.798.953-.798 2.75zm8.813 5V80.25h1.672v13.594h-1.672zm10.926-3.172 1.72.219q-.407 1.5-1.516 2.344-1.094.828-2.813.828-2.156 0-3.422-1.328-1.265-1.329-1.265-3.735 0-2.484 1.265-3.86 1.281-1.374 3.328-1.374 1.985 0 3.235 1.344 1.25 1.343 1.25 3.796 0 .141-.016.438h-7.344q.094 1.625.922 2.484.828.86 2.063.86.906 0 1.547-.47.656-.483 1.046-1.546zm-5.484-2.703h5.5q-.11-1.234-.625-1.86-.797-.968-2.078-.968-1.14 0-1.938.781-.78.766-.859 2.047zm14.31-5.813V80.25h1.671v1.906h-1.672zm0 11.688v-9.86h1.671v9.86h-1.672zm4.128 0v-9.86h1.5v1.407q1.094-1.625 3.141-1.625.89 0 1.64.328.75.312 1.11.844.375.515.531 1.218.094.47.094 1.625v6.063h-1.672v-6q0-1.016-.203-1.516-.188-.515-.688-.812-.5-.297-1.171-.297-1.063 0-1.844.672-.766.672-.766 2.578v5.375h-1.672zm10.782 0v-8.547h-1.484v-1.312h1.484v-1.047q0-.985.172-1.47.235-.655.844-1.046.61-.406 1.703-.406.703 0 1.563.156l-.25 1.469q-.516-.094-.985-.094-.765 0-1.078.328-.312.313-.312 1.203v.907h1.921v1.312h-1.921v8.547h-1.657zm4.152-4.922q0-2.734 1.532-4.062 1.265-1.094 3.093-1.094 2.032 0 3.313 1.344 1.297 1.328 1.297 3.671 0 1.907-.578 3-.563 1.079-1.657 1.688-1.078.594-2.375.594-2.062 0-3.343-1.328-1.282-1.329-1.282-3.813zm1.72 0q0 1.89.827 2.828.828.938 2.078.938t2.063-.938q.828-.953.828-2.89 0-1.829-.828-2.766-.828-.938-2.063-.938-1.25 0-2.078.938-.828.937-.828 2.828zm10.375 8.922h-1.188q2.766-4.453 2.766-8.922 0-1.734-.39-3.453-.329-1.39-.891-2.672-.36-.844-1.485-2.781h1.188q1.75 2.328 2.578 4.672.719 2.015.719 4.234 0 2.5-.97 4.844-.952 2.328-2.327 4.078z"/>
  <path fill="none" d="M548.333 22.924h160.032v64H548.333z"/>
  <path fill="#000" d="M560.843 49.844V36.25h1.844l7.14 10.672V36.25h1.72v13.594h-1.844l-7.14-10.688v10.688h-1.72zm12.645-4.922q0-2.734 1.531-4.062 1.266-1.094 3.094-1.094 2.031 0 3.313 1.344 1.297 1.328 1.297 3.671 0 1.907-.579 3-.562 1.079-1.656 1.688-1.078.594-2.375.594-2.062 0-3.344-1.328-1.28-1.329-1.28-3.813zm1.719 0q0 1.89.828 2.828t2.078.938q1.25 0 2.063-.938.828-.953.828-2.89 0-1.829-.828-2.766-.828-.938-2.063-.938-1.25 0-2.078.938-.828.937-.828 2.828zm9.282 4.922v-9.86h1.5v1.407q1.094-1.625 3.14-1.625.891 0 1.641.328.75.312 1.11.844.374.515.53 1.218.094.47.094 1.625v6.063h-1.671v-6q0-1.016-.204-1.516-.187-.515-.687-.812-.5-.297-1.172-.297-1.062 0-1.844.672-.765.672-.765 2.578v5.375h-1.672zm9.735-4.078v-1.688h5.125v1.688h-5.125zm13.29.469 1.641.218q-.265 1.688-1.375 2.657-1.109.953-2.734.953-2.016 0-3.25-1.313-1.219-1.328-1.219-3.797 0-1.593.516-2.781.531-1.203 1.61-1.797 1.093-.61 2.359-.61 1.609 0 2.625.813 1.015.813 1.312 2.313l-1.625.25q-.234-1-.828-1.5t-1.422-.5q-1.266 0-2.062.906-.782.906-.782 2.86 0 1.984.766 2.89.766.89 1.984.89.985 0 1.641-.593.656-.61.844-1.86zm2.266-1.313q0-2.734 1.532-4.062 1.265-1.094 3.093-1.094 2.032 0 3.313 1.344 1.297 1.328 1.297 3.671 0 1.907-.578 3-.563 1.079-1.657 1.688-1.078.594-2.375.594-2.062 0-3.343-1.328-1.282-1.329-1.282-3.813zm1.72 0q0 1.89.827 2.828.828.938 2.078.938t2.063-.938q.828-.953.828-2.89 0-1.829-.828-2.766-.828-.938-2.063-.938-1.25 0-2.078.938-.828.937-.828 2.828zm9.265 4.922v-9.86h1.5v1.5q.579-1.046 1.063-1.374.484-.344 1.078-.344.844 0 1.719.547l-.578 1.547q-.61-.36-1.235-.36-.547 0-.984.328-.422.328-.61.907-.28.89-.28 1.953v5.156h-1.673zm6.213 0v-9.86h1.5v1.5q.578-1.046 1.063-1.374.484-.344 1.078-.344.843 0 1.718.547l-.578 1.547q-.609-.36-1.234-.36-.547 0-.984.328-.422.328-.61.907-.281.89-.281 1.953v5.156h-1.672zm12.978-3.172 1.72.219q-.407 1.5-1.516 2.344-1.094.828-2.813.828-2.156 0-3.422-1.328-1.265-1.329-1.265-3.735 0-2.484 1.265-3.86 1.281-1.374 3.328-1.374 1.985 0 3.235 1.344 1.25 1.343 1.25 3.796 0 .141-.016.438h-7.344q.094 1.625.922 2.484.828.86 2.063.86.906 0 1.547-.47.656-.483 1.046-1.546zm-5.484-2.703h5.5q-.11-1.234-.625-1.86-.797-.968-2.078-.968-1.14 0-1.938.781-.78.766-.859 2.047zm9.079 5.875V36.25h1.672v13.594h-1.672zm10.613-1.219q-.937.797-1.796 1.125-.86.313-1.844.313-1.61 0-2.485-.782-.875-.796-.875-2.03 0-.735.329-1.329.328-.594.859-.953.531-.36 1.203-.547.5-.14 1.484-.25 2.032-.25 2.985-.578v-.438q0-1.015-.469-1.437-.64-.563-1.906-.563-1.172 0-1.735.407-.562.406-.828 1.468l-1.64-.234q.234-1.047.734-1.687.516-.641 1.469-.985.969-.36 2.25-.36 1.265 0 2.047.298.781.297 1.156.75.375.453.516 1.14.093.422.093 1.532v2.234q0 2.328.094 2.953.11.61.438 1.172h-1.75q-.266-.516-.329-1.219zm-.14-3.719q-.906.36-2.735.625-1.03.141-1.453.329-.422.187-.656.546-.234.36-.234.797 0 .672.5 1.125.515.438 1.484.438t1.719-.422q.75-.438 1.11-1.156.265-.578.265-1.672v-.61zm7.735 3.438.234 1.484q-.703.14-1.265.14-.907 0-1.407-.28-.5-.297-.703-.75-.203-.47-.203-1.985v-5.656h-1.234v-1.312h1.234v-2.438l1.656-1v3.438h1.688v1.312h-1.688v5.75q0 .719.079.922.093.203.296.328.204.125.579.125.265 0 .734-.078zm7.964.281q-.937.797-1.796 1.125-.86.313-1.844.313-1.61 0-2.485-.782-.875-.796-.875-2.03 0-.735.329-1.329.328-.594.859-.953.531-.36 1.203-.547.5-.14 1.484-.25 2.032-.25 2.985-.578v-.438q0-1.015-.469-1.437-.64-.563-1.906-.563-1.172 0-1.735.407-.562.406-.828 1.468l-1.64-.234q.234-1.047.734-1.687.516-.641 1.469-.985.969-.36 2.25-.36 1.265 0 2.047.298.781.297 1.156.75.375.453.516 1.14.093.422.093 1.532v2.234q0 2.328.094 2.953.11.61.438 1.172h-1.75q-.266-.516-.329-1.219zm-.14-3.719q-.906.36-2.735.625-1.03.141-1.453.329-.422.187-.656.546-.234.36-.234.797 0 .672.5 1.125.515.438 1.484.438t1.719-.422q.75-.438 1.11-1.156.265-.578.265-1.672v-.61zm5.626 4.938h-1.547V36.25h1.656v4.844q1.062-1.328 2.703-1.328.906 0 1.719.375.812.36 1.328 1.031.531.656.828 1.594.297.937.297 2 0 2.531-1.25 3.922-1.25 1.375-3 1.375t-2.734-1.453v1.234zm-.016-5q0 1.766.469 2.562.797 1.282 2.14 1.282 1.094 0 1.891-.938.797-.953.797-2.844 0-1.921-.766-2.843-.765-.922-1.844-.922-1.093 0-1.89.953-.797.953-.797 2.75zm8.813 5V36.25h1.672v13.594h-1.672zm10.926-3.172 1.719.219q-.406 1.5-1.516 2.344-1.093.828-2.812.828-2.156 0-3.422-1.328-1.266-1.329-1.266-3.735 0-2.484 1.266-3.86 1.281-1.374 3.328-1.374 1.984 0 3.234 1.344 1.25 1.343 1.25 3.796 0 .141-.015.438h-7.344q.094 1.625.922 2.484.828.86 2.062.86.907 0 1.547-.47.657-.483 1.047-1.546zm-5.484-2.703h5.5q-.11-1.234-.625-1.86-.797-.968-2.078-.968-1.14 0-1.938.781-.781.766-.86 2.047zM573.684 75.844q-1.375-1.75-2.328-4.078-.953-2.344-.953-4.844 0-2.219.703-4.234.844-2.344 2.578-4.672h1.203q-1.125 1.922-1.484 2.75-.563 1.281-.89 2.672-.407 1.734-.407 3.484 0 4.469 2.781 8.922h-1.203zm3.025-.219v-13.64h1.532v1.28q.53-.75 1.203-1.124.687-.375 1.64-.375 1.266 0 2.235.656.968.64 1.453 1.828.5 1.188.5 2.594 0 1.516-.547 2.734-.547 1.203-1.578 1.844-1.031.64-2.172.64-.844 0-1.516-.343-.656-.36-1.078-.89v4.796h-1.672zm1.516-8.656q0 1.906.766 2.812.78.907 1.875.907 1.109 0 1.89-.938.797-.937.797-2.922 0-1.875-.781-2.812-.766-.938-1.844-.938-1.062 0-1.89 1-.813 1-.813 2.89zm8.188 1.937 1.656-.265q.141 1 .766 1.531.64.516 1.781.516 1.157 0 1.703-.47.563-.468.563-1.093 0-.562-.484-.89-.344-.22-1.704-.563-1.843-.469-2.562-.797-.703-.344-1.078-.937-.36-.61-.36-1.328 0-.657.297-1.22.313-.562.828-.937.391-.281 1.063-.484.672-.203 1.437-.203 1.172 0 2.047.344.875.328 1.282.906.421.562.578 1.515l-1.625.22q-.11-.75-.657-1.173-.53-.437-1.5-.437-1.156 0-1.64.39-.485.375-.485.875 0 .329.204.594.203.266.64.438.25.093 1.469.437 1.766.469 2.469.766.703.297 1.093.875.407.578.407 1.437 0 .828-.485 1.578-.484.735-1.406 1.141-.922.39-2.078.39-1.922 0-2.938-.796-1-.797-1.28-2.36zm16.75-.234 1.719.219q-.406 1.5-1.516 2.344-1.093.828-2.812.828-2.156 0-3.422-1.328-1.266-1.329-1.266-3.735 0-2.484 1.266-3.86 1.281-1.374 3.328-1.374 1.984 0 3.234 1.344 1.25 1.343 1.25 3.796 0 .141-.015.438h-7.344q.094 1.625.922 2.484.828.86 2.062.86.907 0 1.547-.47.657-.483 1.047-1.546zm-5.484-2.703h5.5q-.11-1.234-.625-1.86-.797-.968-2.078-.968-1.14 0-1.938.781-.781.766-.86 2.047zm15.563 5.875V70.39q-1.14 1.672-3.125 1.672-.86 0-1.625-.328-.75-.344-1.125-.844-.36-.5-.516-1.235-.093-.5-.093-1.562v-6.11h1.672v5.47q0 1.312.093 1.765.157.656.672 1.031.516.375 1.266.375t1.406-.375q.656-.39.922-1.047.281-.672.281-1.937v-5.281h1.672v9.859h-1.5zm10.313 0v-1.25q-.937 1.469-2.75 1.469-1.172 0-2.172-.641-.984-.656-1.53-1.812-.532-1.172-.532-2.688 0-1.469.484-2.672.5-1.203 1.469-1.844.984-.64 2.203-.64.89 0 1.578.375.703.375 1.14.984V58.25h1.657v13.594h-1.547zm-5.281-4.922q0 1.89.797 2.828.812.938 1.89.938 1.094 0 1.86-.891.765-.89.765-2.734 0-2.016-.78-2.953-.782-.954-1.923-.954-1.109 0-1.859.907-.75.906-.75 2.859zm8.641 0q0-2.734 1.532-4.062 1.265-1.094 3.093-1.094 2.032 0 3.313 1.344 1.297 1.328 1.297 3.671 0 1.907-.578 3-.563 1.079-1.657 1.688-1.078.594-2.375.594-2.062 0-3.343-1.328-1.282-1.329-1.282-3.813zm1.72 0q0 1.89.827 2.828.828.938 2.078.938t2.063-.938q.828-.953.828-2.89 0-1.829-.828-2.766-.828-.938-2.063-.938-1.25 0-2.078.938-.828.937-.828 2.828zm9.281 4.922v-9.86h1.5v1.407q1.094-1.625 3.14-1.625.891 0 1.641.328.75.312 1.11.844.375.515.53 1.218.095.47.095 1.625v6.063h-1.672v-6q0-1.016-.203-1.516-.188-.515-.688-.812-.5-.297-1.172-.297-1.062 0-1.843.672-.766.672-.766 2.578v5.375h-1.672zm10.298 3.797-.172-1.563q.547.14.953.14.547 0 .875-.187.344-.187.562-.515.157-.25.5-1.25.047-.14.157-.406l-3.735-9.875h1.797l2.047 5.718q.406 1.078.719 2.282.281-1.157.687-2.25l2.094-5.75h1.672l-3.75 10.03q-.594 1.626-.938 2.235-.437.828-1.015 1.203-.578.39-1.375.39-.485 0-1.078-.202zm9.406-3.797v-9.86h1.5v1.391q.453-.719 1.219-1.156.78-.453 1.765-.453 1.094 0 1.797.453.703.453.984 1.281 1.172-1.734 3.047-1.734 1.47 0 2.25.812.797.813.797 2.5v6.766h-1.672V65.64q0-1-.156-1.438-.156-.453-.594-.718-.422-.266-1-.266-1.03 0-1.718.687-.688.688-.688 2.22v5.718h-1.672v-6.406q0-1.11-.406-1.657-.406-.562-1.344-.562-.703 0-1.312.375-.594.36-.86 1.078-.265.719-.265 2.063v5.109h-1.672zm14.869-2.938 1.656-.265q.14 1 .766 1.531.64.516 1.78.516 1.157 0 1.704-.47.563-.468.563-1.093 0-.562-.485-.89-.344-.22-1.703-.563-1.844-.469-2.562-.797-.704-.344-1.079-.937-.359-.61-.359-1.328 0-.657.297-1.22.312-.562.828-.937.39-.281 1.063-.484.671-.203 1.437-.203 1.172 0 2.047.344.875.328 1.281.906.422.562.578 1.515l-1.625.22q-.11-.75-.656-1.173-.531-.437-1.5-.437-1.156 0-1.64.39-.485.375-.485.875 0 .329.203.594.203.266.64.438.25.093 1.47.437 1.765.469 2.468.766.703.297 1.094.875.406.578.406 1.437 0 .828-.484 1.578-.484.735-1.406 1.141-.922.39-2.078.39-1.922 0-2.938-.796-1-.797-1.281-2.36zm11.094 6.938h-1.188q2.766-4.453 2.766-8.922 0-1.734-.39-3.453-.33-1.39-.892-2.672-.359-.844-1.484-2.781h1.188q1.75 2.328 2.578 4.672.718 2.015.718 4.234 0 2.5-.968 4.844-.953 2.328-2.328 4.078z"/>
  <path fill="none" d="M119.35 86.924v52"/>
  <path stroke="#000" stroke-linejoin="round" stroke-linecap="butt" d="M119.35 86.924v46"/>
  <path fill="#000" stroke="#000" stroke-linecap="butt" d="m117.697 132.924 1.652 4.538 1.652-4.538z" fill-rule="evenodd"/>
  <path fill="none" d="M394.585 98.924v40"/>
  <path stroke="#000" stroke-linejoin="round" stroke-linecap="butt" d="M394.585 98.924v34"/>
  <path fill="#000" stroke="#000" stroke-linecap="butt" d="m392.934 132.924 1.651 4.538 1.652-4.538z" fill-rule="evenodd"/>
  <path fill="none" d="m628.35 86.924.251 52"/>
  <path stroke="#000" stroke-linejoin="round" stroke-linecap="butt" d="m628.35 86.924.222 46"/>
  <path fill="#000" stroke="#000" stroke-linecap="butt" d="m626.92 132.932 1.674 4.53 1.63-4.546z" fill-rule="evenodd"/>
  <path fill="none" d="M275.845 190.924h266.992v52H275.845z"/>
  <path fill="#000" d="m292.845 214.672 1.719.219q-.406 1.5-1.516 2.344-1.093.828-2.812.828-2.156 0-3.422-1.328-1.266-1.329-1.266-3.735 0-2.484 1.266-3.86 1.281-1.374 3.328-1.374 1.984 0 3.234 1.344 1.25 1.343 1.25 3.796 0 .141-.015.438h-7.344q.094 1.625.922 2.484.828.86 2.062.86.907 0 1.547-.47.657-.483 1.047-1.546zm-5.484-2.703h5.5q-.11-1.234-.625-1.86-.797-.968-2.078-.968-1.141 0-1.938.781-.781.766-.86 2.047zm9.579 5.875v-1.906h1.906v1.906h-1.906zm4.417.812 1.61.25q.109.75.578 1.094.61.453 1.687.453 1.172 0 1.797-.468.625-.454.86-1.282.125-.515.109-2.156-1.094 1.297-2.719 1.297-2.031 0-3.156-1.469-1.11-1.469-1.11-3.515 0-1.407.516-2.594.516-1.203 1.485-1.844.968-.656 2.265-.656 1.75 0 2.875 1.406v-1.187h1.547v8.515q0 2.313-.469 3.266-.468.969-1.484 1.515-1.016.563-2.5.563-1.766 0-2.86-.797-1.078-.797-1.03-2.39zm1.375-5.921q0 1.953.766 2.843.781.89 1.937.89 1.141 0 1.922-.89.782-.89.782-2.781 0-1.812-.813-2.719-.797-.922-1.922-.922-1.11 0-1.89.907-.782.89-.782 2.672zm9.767 5.109v-1.906h1.906v1.906h-1.906zm9.897 0v-9.86h1.5v1.407q1.094-1.625 3.141-1.625.89 0 1.64.328.75.312 1.11.844.375.515.531 1.218.094.47.094 1.625v6.063h-1.672v-6q0-1.016-.203-1.516-.187-.515-.687-.812-.5-.297-1.172-.297-1.063 0-1.844.672-.766.672-.766 2.578v5.375h-1.672zm16.814-1.219q-.938.797-1.797 1.125-.86.313-1.844.313-1.61 0-2.484-.782-.875-.796-.875-2.03 0-.735.328-1.329t.86-.953q.53-.36 1.202-.547.5-.14 1.485-.25 2.031-.25 2.984-.578v-.438q0-1.015-.469-1.437-.64-.563-1.906-.563-1.172 0-1.734.407-.563.406-.828 1.468l-1.641-.234q.234-1.047.734-1.687.516-.641 1.47-.985.968-.36 2.25-.36 1.265 0 2.046.298.781.297 1.156.75.375.453.516 1.14.094.422.094 1.532v2.234q0 2.328.093 2.953.11.61.438 1.172h-1.75q-.266-.516-.328-1.219zm-.14-3.719q-.907.36-2.735.625-1.032.141-1.453.329-.422.187-.657.546-.234.36-.234.797 0 .672.5 1.125.516.438 1.484.438.97 0 1.72-.422.75-.438 1.108-1.156.266-.578.266-1.672v-.61zm4.078 4.938v-9.86h1.5v1.391q.453-.719 1.219-1.156.78-.453 1.765-.453 1.094 0 1.797.453.703.453.985 1.281 1.171-1.734 3.046-1.734 1.47 0 2.25.812.797.813.797 2.5v6.766h-1.672v-6.203q0-1-.156-1.438-.156-.453-.594-.718-.421-.266-1-.266-1.03 0-1.718.687-.688.688-.688 2.22v5.718h-1.672v-6.406q0-1.11-.406-1.657-.406-.562-1.344-.562-.703 0-1.312.375-.594.36-.86 1.078-.265.719-.265 2.063v5.109h-1.672zm22.29-3.172 1.72.219q-.407 1.5-1.516 2.344-1.094.828-2.813.828-2.156 0-3.422-1.328-1.265-1.329-1.265-3.735 0-2.484 1.265-3.86 1.282-1.374 3.329-1.374 1.984 0 3.234 1.344 1.25 1.343 1.25 3.796 0 .141-.016.438h-7.343q.093 1.625.921 2.484.829.86 2.063.86.906 0 1.547-.47.656-.483 1.047-1.546zm-5.484-2.703h5.5q-.109-1.234-.625-1.86-.797-.968-2.078-.968-1.14 0-1.937.781-.782.766-.86 2.047zm9.548 5.875v-1.906h1.906v1.906q0 1.047-.375 1.687-.375.657-1.172 1l-.468-.718q.53-.22.78-.672.25-.453.282-1.297h-.953zm11.476 0h-1.547V204.25h1.656v4.844q1.063-1.328 2.703-1.328.907 0 1.72.375.812.36 1.327 1.031.532.656.828 1.594.297.937.297 2 0 2.531-1.25 3.922-1.25 1.375-3 1.375t-2.734-1.453v1.234zm-.016-5q0 1.766.47 2.562.796 1.282 2.14 1.282 1.093 0 1.89-.938.797-.953.797-2.844 0-1.921-.765-2.843-.766-.922-1.844-.922-1.094 0-1.89.953-.798.953-.798 2.75zm8.86-6.688v-1.906h1.672v1.906h-1.672zm0 11.688v-9.86h1.672v9.86h-1.672zm4.114 0v-9.86h1.5v1.5q.578-1.046 1.062-1.374.485-.344 1.079-.344.843 0 1.718.547l-.578 1.547q-.61-.36-1.234-.36-.547 0-.985.328-.421.328-.609.907-.281.89-.281 1.953v5.156h-1.672zm9.885-1.5.234 1.484q-.703.14-1.266.14-.906 0-1.406-.28-.5-.297-.703-.75-.203-.47-.203-1.985v-5.656h-1.235v-1.312h1.235v-2.438l1.656-1v3.438h1.688v1.312h-1.688v5.75q0 .719.078.922.094.203.297.328.203.125.578.125.266 0 .735-.078zm1.527 1.5V204.25h1.671v4.875q1.172-1.36 2.954-1.36 1.093 0 1.89.438.813.422 1.156 1.188.36.765.36 2.203v6.25h-1.672v-6.25q0-1.25-.547-1.813-.547-.578-1.531-.578-.75 0-1.406.39-.641.376-.922 1.048-.282.656-.282 1.812v5.39h-1.671zm16.766 0v-1.25q-.938 1.469-2.75 1.469-1.172 0-2.172-.641-.984-.656-1.531-1.812-.531-1.172-.531-2.688 0-1.469.484-2.672.5-1.203 1.469-1.844.984-.64 2.203-.64.89 0 1.578.375.703.375 1.14.984v-4.875h1.657v13.594h-1.547zm-5.281-4.922q0 1.89.797 2.828.812.938 1.89.938 1.094 0 1.86-.891.765-.89.765-2.734 0-2.016-.781-2.953-.781-.954-1.922-.954-1.11 0-1.86.907-.75.906-.75 2.859zm15.703 3.703q-.937.797-1.796 1.125-.86.313-1.844.313-1.61 0-2.485-.782-.875-.796-.875-2.03 0-.735.329-1.329.328-.594.859-.953.531-.36 1.203-.547.5-.14 1.484-.25 2.032-.25 2.985-.578v-.438q0-1.015-.469-1.437-.64-.563-1.906-.563-1.172 0-1.735.407-.562.406-.828 1.468l-1.64-.234q.234-1.047.734-1.687.516-.641 1.469-.985.969-.36 2.25-.36 1.265 0 2.047.298.781.297 1.156.75.375.453.516 1.14.093.422.093 1.532v2.234q0 2.328.094 2.953.11.61.438 1.172h-1.75q-.266-.516-.329-1.219zm-.14-3.719q-.906.36-2.735.625-1.03.141-1.453.329-.422.187-.656.546-.234.36-.234.797 0 .672.5 1.125.515.438 1.484.438t1.719-.422q.75-.438 1.11-1.156.265-.578.265-1.672v-.61zm4 8.735-.171-1.563q.547.14.953.14.547 0 .875-.187.344-.187.562-.515.157-.25.5-1.25.047-.14.157-.406l-3.735-9.875h1.797l2.047 5.718q.406 1.078.719 2.282.281-1.157.687-2.25l2.094-5.75h1.672l-3.75 10.03q-.594 1.626-.938 2.235-.437.828-1.015 1.203-.578.39-1.375.39-.485 0-1.078-.202zm9.844-3.797v-1.906h1.907v1.906q0 1.047-.375 1.687-.375.657-1.172 1l-.469-.718q.531-.22.781-.672.25-.453.281-1.297h-.953zm9.054 0v-1.36l6.266-7.187q-1.062.047-1.875.047h-4.016v-1.36h8.047v1.11l-5.343 6.25-1.016 1.14q1.11-.078 2.094-.078h4.562v1.438h-8.719zm10.22-11.688v-1.906h1.671v1.906h-1.672zm0 11.688v-9.86h1.671v9.86h-1.672zm4.128 3.781v-13.64h1.532v1.28q.53-.75 1.203-1.124.687-.375 1.64-.375 1.266 0 2.235.656.969.64 1.453 1.828.5 1.188.5 2.594 0 1.516-.547 2.734-.547 1.203-1.578 1.844-1.031.64-2.172.64-.844 0-1.516-.343-.656-.36-1.078-.89v4.796h-1.672zm1.516-8.656q0 1.906.766 2.812.78.907 1.875.907 1.109 0 1.89-.938.797-.937.797-2.922 0-1.875-.781-2.812-.766-.938-1.844-.938-1.062 0-1.89 1-.813 1-.813 2.89zm20.48 1.266 1.642.218q-.266 1.688-1.375 2.657-1.11.953-2.735.953-2.015 0-3.25-1.313-1.219-1.328-1.219-3.797 0-1.593.516-2.781.531-1.203 1.61-1.797 1.093-.61 2.359-.61 1.61 0 2.625.813t1.312 2.313l-1.625.25q-.234-1-.828-1.5t-1.422-.5q-1.265 0-2.062.906-.781.906-.781 2.86 0 1.984.765 2.89.766.89 1.985.89.984 0 1.64-.593.656-.61.844-1.86zm2.267-1.313q0-2.734 1.53-4.062 1.266-1.094 3.095-1.094 2.03 0 3.312 1.344 1.297 1.328 1.297 3.671 0 1.907-.578 3-.563 1.079-1.656 1.688-1.079.594-2.375.594-2.063 0-3.344-1.328-1.281-1.329-1.281-3.813zm1.718 0q0 1.89.828 2.828.829.938 2.079.938 1.25 0 2.062-.938.828-.953.828-2.89 0-1.829-.828-2.766-.828-.938-2.062-.938-1.25 0-2.079.938-.828.937-.828 2.828zm15.673 4.922v-1.25q-.938 1.469-2.75 1.469-1.172 0-2.172-.641-.984-.656-1.531-1.812-.531-1.172-.531-2.688 0-1.469.484-2.672.5-1.203 1.469-1.844.984-.64 2.203-.64.89 0 1.578.375.703.375 1.14.984v-4.875h1.657v13.594h-1.547zm-5.281-4.922q0 1.89.797 2.828.812.938 1.89.938 1.094 0 1.86-.891.765-.89.765-2.734 0-2.016-.781-2.953-.781-.954-1.922-.954-1.11 0-1.86.907-.75.906-.75 2.859zm16.016 1.75 1.719.219q-.406 1.5-1.516 2.344-1.094.828-2.812.828-2.157 0-3.422-1.328-1.266-1.329-1.266-3.735 0-2.484 1.266-3.86 1.281-1.374 3.328-1.374 1.984 0 3.234 1.344 1.25 1.343 1.25 3.796 0 .141-.015.438h-7.344q.094 1.625.922 2.484.828.86 2.062.86.907 0 1.547-.47.656-.483 1.047-1.546zm-5.484-2.703h5.5q-.11-1.234-.625-1.86-.797-.968-2.078-.968-1.141 0-1.938.781-.781.766-.86 2.047z"/>
  <path fill="none" d="M16.845 190.924h205.008v84H16.845z"/>
  <path fill="#000" d="m33.845 214.672 1.719.219q-.406 1.5-1.516 2.344-1.093.828-2.812.828-2.156 0-3.422-1.328-1.266-1.329-1.266-3.735 0-2.484 1.266-3.86 1.281-1.374 3.328-1.374 1.984 0 3.234 1.344 1.25 1.343 1.25 3.796 0 .141-.015.438h-7.344q.094 1.625.922 2.484.828.86 2.062.86.907 0 1.547-.47.657-.483 1.047-1.546zm-5.484-2.703h5.5q-.11-1.234-.625-1.86-.797-.968-2.078-.968-1.141 0-1.938.781-.781.766-.86 2.047zm9.579 5.875v-1.906h1.906v1.906H37.94zm4.417.812 1.61.25q.109.75.578 1.094.61.453 1.687.453 1.172 0 1.797-.468.625-.454.86-1.282.125-.515.109-2.156-1.094 1.297-2.719 1.297-2.031 0-3.156-1.469-1.11-1.469-1.11-3.515 0-1.407.516-2.594.516-1.203 1.485-1.844.968-.656 2.265-.656 1.75 0 2.875 1.406v-1.187h1.547v8.515q0 2.313-.469 3.266-.468.969-1.484 1.515-1.016.563-2.5.563-1.766 0-2.86-.797-1.078-.797-1.03-2.39zm1.375-5.921q0 1.953.766 2.843.781.89 1.937.89 1.141 0 1.922-.89.782-.89.782-2.781 0-1.812-.813-2.719-.797-.922-1.922-.922-1.11 0-1.89.907-.782.89-.782 2.672zm9.767 5.109v-1.906h1.906v1.906h-1.906zm9.6.812 1.61.25q.11.75.578 1.094.61.453 1.688.453 1.171 0 1.796-.468.625-.454.86-1.282.125-.515.11-2.156-1.095 1.297-2.72 1.297-2.03 0-3.156-1.469-1.11-1.469-1.11-3.515 0-1.407.516-2.594.516-1.203 1.485-1.844.969-.656 2.265-.656 1.75 0 2.875 1.406v-1.187h1.547v8.515q0 2.313-.468 3.266-.47.969-1.485 1.515-1.015.563-2.5.563-1.765 0-2.86-.797-1.077-.797-1.03-2.39zm1.376-5.921q0 1.953.765 2.843.781.89 1.938.89 1.14 0 1.922-.89.78-.89.78-2.781 0-1.812-.812-2.719-.797-.922-1.922-.922-1.109 0-1.89.907-.781.89-.781 2.672zm8.672.187q0-2.734 1.531-4.062 1.266-1.094 3.094-1.094 2.031 0 3.313 1.344 1.297 1.328 1.297 3.671 0 1.907-.579 3-.562 1.079-1.656 1.688-1.078.594-2.375.594-2.062 0-3.344-1.328-1.28-1.329-1.28-3.813zm1.719 0q0 1.89.828 2.828t2.078.938q1.25 0 2.063-.938.828-.953.828-2.89 0-1.829-.828-2.766-.828-.938-2.063-.938-1.25 0-2.078.938-.828.937-.828 2.828zm12.016 4.922-3.75-9.86h1.766l2.125 5.907q.344.953.625 1.984.219-.781.625-1.875l2.187-6.015h1.72l-3.735 9.859h-1.563zm13.344-3.172 1.719.219q-.406 1.5-1.516 2.344-1.094.828-2.812.828-2.157 0-3.422-1.328-1.266-1.329-1.266-3.735 0-2.484 1.266-3.86 1.281-1.374 3.328-1.374 1.984 0 3.234 1.344 1.25 1.343 1.25 3.796 0 .141-.015.438h-7.344q.094 1.625.922 2.484.828.86 2.062.86.907 0 1.547-.47.656-.483 1.047-1.546zm-5.484-2.703h5.5q-.11-1.234-.625-1.86-.797-.968-2.078-.968-1.141 0-1.938.781-.781.766-.86 2.047zm9.094 5.875v-9.86h1.5v1.5q.578-1.046 1.063-1.374.484-.344 1.078-.344.844 0 1.719.547l-.579 1.547q-.609-.36-1.234-.36-.547 0-.984.328-.422.328-.61.907-.281.89-.281 1.953v5.156h-1.672zm6.228 0v-9.86h1.5v1.407q1.094-1.625 3.141-1.625.89 0 1.64.328.75.312 1.11.844.375.515.531 1.218.094.47.094 1.625v6.063h-1.672v-6q0-1.016-.203-1.516-.187-.515-.687-.812-.5-.297-1.172-.297-1.063 0-1.844.672-.766.672-.766 2.578v5.375h-1.672zm10.376 0v-9.86h1.5v1.391q.453-.719 1.219-1.156.781-.453 1.766-.453 1.093 0 1.796.453.704.453.985 1.281 1.172-1.734 3.047-1.734 1.468 0 2.25.812.797.813.797 2.5v6.766h-1.672v-6.203q0-1-.157-1.438-.156-.453-.593-.718-.422-.266-1-.266-1.032 0-1.72.687-.687.688-.687 2.22v5.718H126.3v-6.406q0-1.11-.407-1.657-.406-.562-1.343-.562-.704 0-1.313.375-.594.36-.86 1.078-.265.719-.265 2.063v5.109h-1.672zm22.291-3.172 1.719.219q-.407 1.5-1.516 2.344-1.094.828-2.812.828-2.157 0-3.422-1.328-1.266-1.329-1.266-3.735 0-2.484 1.266-3.86 1.281-1.374 3.328-1.374 1.984 0 3.234 1.344 1.25 1.343 1.25 3.796 0 .141-.015.438h-7.344q.094 1.625.922 2.484.828.86 2.062.86.906 0 1.547-.47.656-.483 1.047-1.546zm-5.484-2.703h5.5q-.11-1.234-.625-1.86-.797-.968-2.079-.968-1.14 0-1.937.781-.781.766-.86 2.047zm9.11 5.875v-9.86h1.5v1.407q1.093-1.625 3.14-1.625.89 0 1.64.328.75.312 1.11.844.375.515.532 1.218.093.47.093 1.625v6.063H152.7v-6q0-1.016-.203-1.516-.187-.515-.687-.812-.5-.297-1.172-.297-1.063 0-1.844.672-.765.672-.765 2.578v5.375h-1.672zm14.032-1.5.234 1.484q-.703.14-1.266.14-.906 0-1.406-.28-.5-.297-.703-.75-.203-.47-.203-1.985v-5.656h-1.234v-1.312h1.234v-2.438l1.656-1v3.438h1.688v1.312H158.7v5.75q0 .719.078.922.094.203.297.328.203.125.578.125.266 0 .735-.078zm7.226 1.5V204.25h1.812v13.594h-1.812zm4.886 0V204.25h4.688q1.578 0 2.421.188 1.157.265 1.985.968 1.078.922 1.61 2.344.53 1.406.53 3.219 0 1.547-.359 2.75-.36 1.187-.922 1.984-.562.782-1.234 1.235-.672.437-1.625.672-.953.234-2.188.234h-4.906zm1.797-1.61h2.906q1.344 0 2.11-.25.765-.25 1.218-.703.64-.64 1-1.718.36-1.078.36-2.625 0-2.125-.703-3.266-.704-1.156-1.704-1.547-.718-.281-2.328-.281h-2.86v10.39zm11.895 1.61v-1.906h1.906v1.906q0 1.047-.375 1.687-.375.657-1.172 1l-.469-.718q.532-.22.782-.672.25-.453.28-1.297h-.952zM26.423 236.906l1.657-.265q.14 1 .765 1.531.64.516 1.781.516 1.157 0 1.704-.47.562-.468.562-1.093 0-.562-.484-.89-.344-.22-1.703-.563-1.844-.469-2.563-.797-.703-.344-1.078-.937-.36-.61-.36-1.328 0-.657.297-1.22.313-.562.829-.937.39-.281 1.062-.484.672-.203 1.438-.203 1.171 0 2.046.344.875.328 1.282.906.422.562.578 1.515l-1.625.22q-.11-.75-.656-1.173-.532-.437-1.5-.437-1.157 0-1.641.39-.484.375-.484.875 0 .329.203.594.203.266.64.438.25.093 1.469.437 1.766.469 2.469.766.703.297 1.094.875.406.578.406 1.437 0 .828-.485 1.578-.484.735-1.406 1.141-.922.39-2.078.39-1.922 0-2.937-.796-1-.797-1.282-2.36zm10 2.938V226.25h1.672v4.875q1.172-1.36 2.953-1.36 1.094 0 1.89.438.813.422 1.157 1.188.36.765.36 2.203v6.25h-1.672v-6.25q0-1.25-.547-1.813-.547-.578-1.531-.578-.75 0-1.407.39-.64.376-.922 1.048-.28.656-.28 1.812v5.39h-1.673zm10.392-11.688v-1.906h1.671v1.906h-1.671zm0 11.688v-9.86h1.671v9.86h-1.671zm4.129 3.781v-13.64h1.531v1.28q.531-.75 1.203-1.124.688-.375 1.64-.375 1.266 0 2.235.656.969.64 1.453 1.828.5 1.188.5 2.594 0 1.516-.547 2.734-.546 1.203-1.578 1.844-1.03.64-2.172.64-.843 0-1.515-.343-.656-.36-1.078-.89v4.796h-1.672zm1.515-8.656q0 1.906.766 2.812.781.907 1.875.907 1.11 0 1.89-.938.798-.937.798-2.922 0-1.875-.782-2.812-.765-.938-1.843-.938-1.063 0-1.891 1-.813 1-.813 2.89zm8.86 8.656v-13.64h1.532v1.28q.531-.75 1.203-1.124.687-.375 1.64-.375 1.266 0 2.235.656.969.64 1.453 1.828.5 1.188.5 2.594 0 1.516-.547 2.734-.547 1.203-1.578 1.844-1.031.64-2.172.64-.844 0-1.515-.343-.657-.36-1.079-.89v4.796H61.32zm1.516-8.656q0 1.906.766 2.812.781.907 1.875.907 1.11 0 1.89-.938.797-.937.797-2.922 0-1.875-.781-2.812-.766-.938-1.844-.938-1.062 0-1.89 1-.813 1-.813 2.89zm8.876-6.813v-1.906h1.672v1.906H71.71zm0 11.688v-9.86h1.672v9.86H71.71zm4.13 0v-9.86h1.5v1.407q1.093-1.625 3.14-1.625.89 0 1.64.328.75.312 1.11.844.375.515.53 1.218.095.47.095 1.625v6.063h-1.672v-6q0-1.016-.203-1.516-.188-.515-.688-.812-.5-.297-1.172-.297-1.062 0-1.843.672-.766.672-.766 2.578v5.375H75.84zm10.078.812 1.61.25q.109.75.577 1.094.61.453 1.688.453 1.172 0 1.797-.468.625-.454.86-1.282.124-.515.109-2.156-1.094 1.297-2.72 1.297-2.03 0-3.155-1.469-1.11-1.469-1.11-3.515 0-1.407.516-2.594.515-1.203 1.484-1.844.969-.656 2.266-.656 1.75 0 2.875 1.406v-1.187h1.547v8.515q0 2.313-.47 3.266-.468.969-1.483 1.515-1.016.563-2.5.563-1.766 0-2.86-.797-1.078-.797-1.031-2.39zm1.375-5.921q0 1.953.766 2.843.78.89 1.937.89 1.14 0 1.922-.89.781-.89.781-2.781 0-1.812-.812-2.719-.797-.922-1.922-.922-1.11 0-1.89.907-.782.89-.782 2.672zm20.918 3.89q-.937.797-1.797 1.125-.859.313-1.843.313-1.61 0-2.485-.782-.875-.796-.875-2.03 0-.735.328-1.329.329-.594.86-.953.531-.36 1.203-.547.5-.14 1.484-.25 2.032-.25 2.985-.578v-.438q0-1.015-.47-1.437-.64-.563-1.905-.563-1.172 0-1.735.407-.562.406-.828 1.468l-1.64-.234q.234-1.047.734-1.687.516-.641 1.469-.985.968-.36 2.25-.36 1.265 0 2.047.298.78.297 1.156.75.375.453.515 1.14.094.422.094 1.532v2.234q0 2.328.094 2.953.11.61.437 1.172h-1.75q-.265-.516-.328-1.219zm-.14-3.719q-.907.36-2.735.625-1.03.141-1.453.329-.422.187-.656.546-.234.36-.234.797 0 .672.5 1.125.515.438 1.484.438t1.719-.422q.75-.438 1.11-1.156.265-.578.265-1.672v-.61zm10.47 4.938v-1.25q-.938 1.469-2.75 1.469-1.173 0-2.173-.641-.984-.656-1.531-1.812-.531-1.172-.531-2.688 0-1.469.484-2.672.5-1.203 1.469-1.844.984-.64 2.203-.64.89 0 1.578.375.703.375 1.14.984v-4.875h1.657v13.594h-1.547zm-5.282-4.922q0 1.89.797 2.828.812.938 1.89.938 1.094 0 1.86-.891.765-.89.765-2.734 0-2.016-.78-2.953-.782-.954-1.923-.954-1.11 0-1.86.907-.75.906-.75 2.859zm15.657 4.922v-1.25q-.938 1.469-2.75 1.469-1.172 0-2.172-.641-.984-.656-1.531-1.812-.532-1.172-.532-2.688 0-1.469.485-2.672.5-1.203 1.469-1.844.984-.64 2.203-.64.89 0 1.578.375.703.375 1.14.984v-4.875h1.657v13.594h-1.547zm-5.281-4.922q0 1.89.796 2.828.813.938 1.891.938 1.094 0 1.86-.891.765-.89.765-2.734 0-2.016-.781-2.953-.781-.954-1.922-.954-1.11 0-1.86.907-.75.906-.75 2.859zm9.25 4.922v-9.86h1.5v1.5q.578-1.046 1.063-1.374.484-.344 1.078-.344.844 0 1.719.547l-.578 1.547q-.61-.36-1.235-.36-.547 0-.984.328-.422.328-.61.907-.28.89-.28 1.953v5.156h-1.673zm12.979-3.172 1.718.219q-.406 1.5-1.515 2.344-1.094.828-2.813.828-2.156 0-3.422-1.328-1.265-1.329-1.265-3.735 0-2.484 1.265-3.86 1.282-1.374 3.328-1.374 1.985 0 3.235 1.344 1.25 1.343 1.25 3.796 0 .141-.016.438h-7.344q.094 1.625.922 2.484.828.86 2.063.86.906 0 1.547-.47.656-.483 1.047-1.546zm-5.485-2.703h5.5q-.11-1.234-.625-1.86-.797-.968-2.078-.968-1.14 0-1.937.781-.782.766-.86 2.047zm8.438 2.937 1.657-.265q.14 1 .765 1.531.641.516 1.782.516 1.156 0 1.703-.47.562-.468.562-1.093 0-.562-.484-.89-.344-.22-1.703-.563-1.844-.469-2.563-.797-.703-.344-1.078-.937-.36-.61-.36-1.328 0-.657.298-1.22.312-.562.828-.937.39-.281 1.062-.484.672-.203 1.438-.203 1.172 0 2.047.344.875.328 1.28.906.423.562.579 1.515l-1.625.22q-.11-.75-.656-1.173-.532-.437-1.5-.437-1.157 0-1.64.39-.485.375-.485.875 0 .329.203.594.203.266.64.438.25.093 1.47.437 1.765.469 2.468.766.703.297 1.094.875.406.578.406 1.437 0 .828-.484 1.578-.485.735-1.407 1.141-.922.39-2.078.39-1.922 0-2.937-.796-1-.797-1.282-2.36zm9.329 0 1.656-.265q.14 1 .765 1.531.641.516 1.782.516 1.156 0 1.703-.47.562-.468.562-1.093 0-.562-.484-.89-.344-.22-1.703-.563-1.844-.469-2.563-.797-.703-.344-1.078-.937-.36-.61-.36-1.328 0-.657.298-1.22.312-.562.828-.937.39-.281 1.062-.484.672-.203 1.438-.203 1.172 0 2.047.344.875.328 1.281.906.422.562.578 1.515l-1.625.22q-.11-.75-.656-1.173-.531-.437-1.5-.437-1.156 0-1.64.39-.485.375-.485.875 0 .329.203.594.203.266.64.438.25.093 1.47.437 1.765.469 2.468.766.703.297 1.094.875.406.578.406 1.437 0 .828-.484 1.578-.485.735-1.407 1.141-.921.39-2.078.39-1.922 0-2.937-.796-1-.797-1.281-2.36zm10.437 2.938v-1.906h1.906v1.906q0 1.047-.375 1.687-.375.657-1.172 1l-.468-.718q.531-.22.781-.672.25-.453.281-1.297h-.953zM33.533 258.235l1.64.218q-.265 1.688-1.375 2.657-1.11.953-2.734.953-2.016 0-3.25-1.313-1.219-1.328-1.219-3.797 0-1.593.516-2.781.531-1.203 1.61-1.797 1.093-.61 2.359-.61 1.609 0 2.625.813 1.015.813 1.312 2.313l-1.625.25q-.234-1-.828-1.5t-1.422-.5q-1.266 0-2.062.906-.782.906-.782 2.86 0 1.984.766 2.89.766.89 1.984.89.985 0 1.64-.593.657-.61.845-1.86zm2.875 3.609v-9.86h1.5v1.5q.578-1.046 1.062-1.374.485-.344 1.078-.344.844 0 1.719.547l-.578 1.547q-.61-.36-1.234-.36-.547 0-.985.328-.422.328-.61.907-.28.89-.28 1.953v5.156h-1.672zm12.978-3.172 1.719.219q-.407 1.5-1.516 2.344-1.094.828-2.812.828-2.157 0-3.422-1.328-1.266-1.329-1.266-3.735 0-2.484 1.266-3.86 1.28-1.374 3.328-1.374 1.984 0 3.234 1.344 1.25 1.343 1.25 3.796 0 .141-.015.438h-7.344q.094 1.625.922 2.484.828.86 2.062.86.906 0 1.547-.47.656-.483 1.047-1.546zm-5.484-2.703h5.5q-.11-1.234-.625-1.86-.797-.968-2.079-.968-1.14 0-1.937.781-.781.766-.86 2.047zm15.5 5.875v-1.25q-.937 1.469-2.75 1.469-1.172 0-2.172-.641-.984-.656-1.53-1.813-.532-1.171-.532-2.687 0-1.469.484-2.672.5-1.203 1.469-1.844.984-.64 2.203-.64.89 0 1.578.375.703.375 1.14.984v-4.875h1.657v13.594h-1.547zm-5.281-4.922q0 1.89.797 2.828.812.938 1.89.938 1.094 0 1.86-.891.766-.89.766-2.734 0-2.016-.782-2.953-.781-.954-1.922-.954-1.109 0-1.859.907-.75.906-.75 2.859zm9.282-6.766v-1.906h1.672v1.906h-1.672zm0 11.688v-9.86h1.672v9.86h-1.672zm7.785-1.5.235 1.484q-.703.14-1.266.14-.906 0-1.406-.28-.5-.297-.703-.75-.203-.47-.203-1.985v-5.656H66.61v-1.312h1.235v-2.438l1.656-1v3.438h1.687v1.312h-1.687v5.75q0 .719.078.922.094.203.297.328.203.125.578.125.266 0 .734-.078zm13.148-2.11 1.64.22q-.265 1.687-1.374 2.656-1.11.953-2.734.953-2.016 0-3.25-1.313-1.22-1.328-1.22-3.797 0-1.593.516-2.781.532-1.203 1.61-1.797 1.094-.61 2.36-.61 1.609 0 2.624.813 1.016.813 1.313 2.313l-1.625.25q-.235-1-.828-1.5-.594-.5-1.422-.5-1.266 0-2.063.906-.781.906-.781 2.86 0 1.984.766 2.89.765.89 1.984.89.984 0 1.64-.593.657-.61.844-1.86zm9.328 2.391q-.937.797-1.796 1.125-.86.313-1.844.313-1.61 0-2.485-.782-.875-.796-.875-2.03 0-.735.329-1.329.328-.594.859-.953.531-.36 1.203-.547.5-.14 1.484-.25 2.032-.25 2.985-.578v-.438q0-1.015-.469-1.437-.64-.563-1.906-.563-1.172 0-1.735.407-.562.406-.828 1.468l-1.64-.234q.234-1.047.734-1.687.516-.641 1.469-.985.969-.36 2.25-.36 1.265 0 2.047.298.78.297 1.156.75.375.453.516 1.14.093.422.093 1.532v2.234q0 2.328.094 2.953.11.61.438 1.172h-1.75q-.266-.516-.329-1.219zm-.14-3.719q-.906.36-2.735.625-1.03.141-1.453.329-.422.187-.656.546-.234.36-.234.797 0 .672.5 1.125.515.438 1.484.438t1.719-.422q.75-.438 1.11-1.156.265-.578.265-1.672v-.61zm4.063 4.938v-9.86h1.5v1.5q.578-1.046 1.063-1.374.484-.344 1.078-.344.843 0 1.718.547l-.578 1.547q-.61-.36-1.234-.36-.547 0-.984.328-.422.328-.61.907-.281.89-.281 1.953v5.156h-1.672zm12.619 0v-1.25q-.938 1.469-2.75 1.469-1.172 0-2.172-.641-.984-.656-1.531-1.812-.531-1.172-.531-2.688 0-1.469.484-2.672.5-1.203 1.469-1.844.984-.64 2.203-.64.89 0 1.578.375.703.375 1.14.984v-4.875h1.657v13.594h-1.547zm-5.281-4.922q0 1.89.797 2.828.812.938 1.89.938 1.094 0 1.86-.891.765-.89.765-2.734 0-2.016-.781-2.953-.781-.954-1.922-.954-1.11 0-1.86.907-.75.906-.75 2.859zm14.45 4.922v-9.86h1.5v1.407q1.093-1.625 3.14-1.625.89 0 1.64.328.75.312 1.11.844.375.515.531 1.218.094.47.094 1.625v6.063h-1.672v-6q0-1.016-.203-1.516-.188-.515-.688-.812-.5-.297-1.171-.297-1.063 0-1.844.672-.766.672-.766 2.578v5.375h-1.672zm16.828 0v-1.453q-1.14 1.672-3.125 1.672-.86 0-1.625-.328-.75-.344-1.125-.844-.36-.5-.515-1.235-.094-.5-.094-1.562v-6.11h1.672v5.47q0 1.312.093 1.765.157.656.672 1.031.516.375 1.266.375t1.406-.375q.656-.39.922-1.047.281-.672.281-1.937v-5.281h1.672v9.859h-1.5zm3.923 0v-9.86h1.5v1.391q.453-.719 1.219-1.156.78-.453 1.765-.453 1.094 0 1.797.453.703.453.984 1.281 1.172-1.734 3.047-1.734 1.469 0 2.25.812.797.813.797 2.5v6.766h-1.672v-6.203q0-1-.156-1.438-.156-.453-.594-.718-.422-.266-1-.266-1.031 0-1.718.687-.688.688-.688 2.22v5.718h-1.672v-6.406q0-1.11-.406-1.657-.406-.562-1.344-.562-.703 0-1.312.375-.594.36-.86 1.078-.265.719-.265 2.063v5.109h-1.672zm17.087 0h-1.546V248.25h1.656v4.844q1.062-1.328 2.703-1.328.906 0 1.719.375.812.36 1.328 1.031.531.656.828 1.594.297.937.297 2 0 2.531-1.25 3.922-1.25 1.375-3 1.375t-2.735-1.453v1.234zm-.015-5q0 1.766.469 2.562.796 1.282 2.14 1.282 1.094 0 1.89-.938.798-.953.798-2.844 0-1.921-.766-2.843-.766-.922-1.844-.922-1.093 0-1.89.953-.797.953-.797 2.75zm15.594 1.828 1.719.219q-.406 1.5-1.516 2.344-1.093.828-2.812.828-2.156 0-3.422-1.328-1.266-1.329-1.266-3.735 0-2.484 1.266-3.86 1.281-1.374 3.328-1.374 1.985 0 3.235 1.344 1.25 1.343 1.25 3.796 0 .141-.016.438h-7.344q.094 1.625.922 2.484.828.86 2.063.86.906 0 1.546-.47.657-.483 1.047-1.546zm-5.484-2.703h5.5q-.11-1.234-.625-1.86-.797-.968-2.078-.968-1.14 0-1.938.781-.781.766-.86 2.047zm9.094 5.875v-9.86h1.5v1.5q.579-1.046 1.063-1.374.484-.344 1.078-.344.844 0 1.719.547l-.578 1.547q-.61-.36-1.235-.36-.547 0-.984.328-.422.328-.61.907-.28.89-.28 1.953v5.156h-1.673z"/>
  <path fill="none" d="M567.09 190.924h122.519v52h-122.52z"/>
  <path fill="#000" d="m602.635 214.672 1.719.219q-.407 1.5-1.516 2.344-1.094.828-2.813.828-2.156 0-3.421-1.328-1.266-1.329-1.266-3.735 0-2.484 1.266-3.86 1.28-1.374 3.328-1.374 1.984 0 3.234 1.344 1.25 1.343 1.25 3.796 0 .141-.016.438h-7.343q.093 1.625.922 2.484.828.86 2.062.86.906 0 1.547-.47.656-.483 1.047-1.546zm-5.485-2.703h5.5q-.109-1.234-.625-1.86-.796-.968-2.078-.968-1.14 0-1.937.781-.781.766-.86 2.047zm9.58 5.875v-1.906h1.906v1.906h-1.907zm4.417.812 1.61.25q.109.75.577 1.094.61.453 1.688.453 1.172 0 1.797-.468.625-.454.86-1.282.124-.515.109-2.156-1.094 1.297-2.72 1.297-2.03 0-3.155-1.469-1.11-1.469-1.11-3.515 0-1.407.516-2.594.515-1.203 1.484-1.844.969-.656 2.266-.656 1.75 0 2.875 1.406v-1.187h1.547v8.515q0 2.313-.47 3.266-.468.969-1.483 1.515-1.016.563-2.5.563-1.766 0-2.86-.797-1.078-.797-1.031-2.39zm1.375-5.921q0 1.953.766 2.843.78.89 1.937.89 1.14 0 1.922-.89.781-.89.781-2.781 0-1.812-.812-2.719-.797-.922-1.922-.922-1.11 0-1.89.907-.782.89-.782 2.672zm9.766 5.109v-1.906h1.907v1.906h-1.907zm16.336-1.219q-.938.797-1.797 1.125-.86.313-1.844.313-1.61 0-2.484-.782-.875-.796-.875-2.03 0-.735.328-1.329t.86-.953q.53-.36 1.202-.547.5-.14 1.485-.25 2.03-.25 2.984-.578v-.438q0-1.015-.469-1.437-.64-.563-1.906-.563-1.172 0-1.734.407-.563.406-.828 1.468l-1.641-.234q.234-1.047.734-1.687.516-.641 1.469-.985.969-.36 2.25-.36 1.266 0 2.047.298.781.297 1.156.75.375.453.516 1.14.094.422.094 1.532v2.234q0 2.328.093 2.953.11.61.438 1.172h-1.75q-.266-.516-.328-1.219zm-.141-3.719q-.906.36-2.734.625-1.032.141-1.453.329-.422.187-.657.546-.234.36-.234.797 0 .672.5 1.125.516.438 1.484.438.969 0 1.719-.422.75-.438 1.11-1.156.265-.578.265-1.672v-.61zm3.782 5.75 1.61.25q.109.75.577 1.094.61.453 1.688.453 1.172 0 1.797-.468.625-.454.86-1.282.124-.515.109-2.156-1.094 1.297-2.72 1.297-2.03 0-3.155-1.469-1.11-1.469-1.11-3.515 0-1.407.516-2.594.515-1.203 1.484-1.844.969-.656 2.266-.656 1.75 0 2.875 1.406v-1.187h1.547v8.515q0 2.313-.469 3.266-.469.969-1.484 1.515-1.016.563-2.5.563-1.766 0-2.86-.797-1.078-.797-1.031-2.39zm1.375-5.921q0 1.953.766 2.843.78.89 1.937.89 1.14 0 1.922-.89.781-.89.781-2.781 0-1.812-.812-2.719-.797-.922-1.922-.922-1.11 0-1.89.907-.782.89-.782 2.672zm16.048 1.937 1.718.219q-.406 1.5-1.515 2.344-1.094.828-2.813.828-2.156 0-3.422-1.328-1.265-1.329-1.265-3.735 0-2.484 1.265-3.86 1.282-1.374 3.328-1.374 1.985 0 3.235 1.344 1.25 1.343 1.25 3.796 0 .141-.016.438h-7.344q.094 1.625.922 2.484.828.86 2.063.86.906 0 1.547-.47.656-.483 1.047-1.546zm-5.485-2.703h5.5q-.11-1.234-.625-1.86-.797-.968-2.078-.968-1.14 0-1.937.781-.782.766-.86 2.047zM597.86 234.922q0-2.734 1.532-4.062 1.265-1.094 3.094-1.094 2.03 0 3.312 1.344 1.297 1.328 1.297 3.671 0 1.907-.578 3-.563 1.079-1.656 1.688-1.079.594-2.375.594-2.063 0-3.344-1.328-1.281-1.329-1.281-3.813zm1.72 0q0 1.89.827 2.828.829.938 2.079.938 1.25 0 2.062-.938.828-.953.828-2.89 0-1.829-.828-2.766-.828-.938-2.062-.938-1.25 0-2.079.938-.828.937-.828 2.828zm12.016 4.922-3.75-9.86h1.765l2.125 5.907q.344.953.625 1.984.22-.781.625-1.875l2.188-6.015h1.719l-3.735 9.859h-1.562zm13.343-3.172 1.72.219q-.407 1.5-1.516 2.344-1.094.828-2.813.828-2.156 0-3.422-1.328-1.265-1.329-1.265-3.735 0-2.484 1.265-3.86 1.281-1.374 3.328-1.374 1.985 0 3.235 1.344 1.25 1.343 1.25 3.796 0 .141-.016.438h-7.344q.094 1.625.922 2.484.828.86 2.063.86.906 0 1.547-.47.656-.483 1.046-1.546zm-5.484-2.703h5.5q-.11-1.234-.625-1.86-.797-.968-2.078-.968-1.14 0-1.938.781-.78.766-.859 2.047zm9.095 5.875v-9.86h1.5v1.5q.578-1.046 1.062-1.374.484-.344 1.078-.344.844 0 1.719.547l-.578 1.547q-.61-.36-1.235-.36-.546 0-.984.328-.422.328-.61.907-.28.89-.28 1.953v5.156h-1.672zm19.724-1.61v1.61h-8.985q-.015-.61.188-1.156.343-.922 1.093-1.813.766-.89 2.188-2.062 2.219-1.813 3-2.875.781-1.063.781-2.016 0-.984-.719-1.672-.703-.687-1.843-.687-1.203 0-1.938.734-.719.719-.719 2l-1.718-.172q.172-1.922 1.328-2.922 1.156-1.015 3.094-1.015 1.953 0 3.093 1.093 1.141 1.079 1.141 2.688 0 .812-.344 1.61-.328.78-1.11 1.656-.765.859-2.562 2.39-1.5 1.266-1.937 1.719-.422.437-.703.89h6.672zm7.891 1.61h-1.672v-10.64q-.594.577-1.578 1.156-.984.562-1.766.859v-1.625q1.407-.656 2.453-1.594 1.047-.937 1.485-1.812h1.078v13.656z"/>
 </g>
</svg>
