<?xml version="1.0" encoding="UTF-8" standalone="no"?>
<!DOCTYPE svg PUBLIC "-//W3C//DTD SVG 1.0//EN" "http://www.w3.org/TR/2001/PR-SVG-20010719/DTD/svg10.dtd">
<svg width="32cm" height="17cm" viewBox="45 35 626 325" xmlns="http://www.w3.org/2000/svg" xmlns:xlink="http://www.w3.org/1999/xlink">
  <g>
    <line style="fill: none; fill-opacity:0; stroke-width: 2; stroke: #000000" x1="494.682" y1="190.626" x2="325.812" y2="191.572"/>
    <polygon style="fill: #000000" points="318.312,191.614 328.284,186.558 325.812,191.572 328.34,196.558 "/>
    <polygon style="fill: none; fill-opacity:0; stroke-width: 2; stroke: #000000" points="318.312,191.614 328.284,186.558 325.812,191.572 328.34,196.558 "/>
  </g>
  <text font-size="10.16" style="fill: #000000;text-anchor:start;font-family:sans-serif;font-style:normal;font-weight:normal" x="347.544" y="188.2">
    <tspan x="347.544" y="188.2">3. Store credential request</tspan>
  </text>
  <g>
    <line style="fill: none; fill-opacity:0; stroke-width: 1; stroke-dasharray: 8; stroke: #000000" x1="104.581" y1="57.983" x2="104.581" y2="58.6901"/>
    <line style="fill: none; fill-opacity:0; stroke-width: 1; stroke-dasharray: 8; stroke: #000000" x1="104.581" y1="98.6901" x2="104.581" y2="358.918"/>
    <rect style="fill: #ffffff" x="97.5808" y="58.6901" width="14" height="40"/>
    <rect style="fill: none; fill-opacity:0; stroke-width: 2; stroke: #000000" x="97.5808" y="58.6901" width="14" height="40"/>
  </g>
  <g>
    <rect style="fill: #ffffff" x="46.669" y="36.0626" width="128.6" height="52" rx="10" ry="10"/>
    <rect style="fill: none; fill-opacity:0; stroke-width: 2; stroke: #000000" x="46.669" y="36.0626" width="128.6" height="52" rx="10" ry="10"/>
    <text font-size="12.8" style="fill: #000000;text-anchor:middle;font-family:sans-serif;font-style:normal;font-weight:normal" x="110.969" y="57.9626">
      <tspan x="110.969" y="57.9626">Identity Provider</tspan>
      <tspan x="110.969" y="73.9626">(storage service)</tspan>
    </text>
  </g>
  <g>
    <line style="fill: none; fill-opacity:0; stroke-width: 1; stroke-dasharray: 8; stroke: #000000" x1="310.78" y1="57.82" x2="310.78" y2="58.5271"/>
    <line style="fill: none; fill-opacity:0; stroke-width: 1; stroke-dasharray: 8; stroke: #000000" x1="310.78" y1="98.5271" x2="310.78" y2="356.796"/>
    <rect style="fill: #ffffff" x="303.78" y="58.5271" width="14" height="40"/>
    <rect style="fill: none; fill-opacity:0; stroke-width: 2; stroke: #000000" x="303.78" y="58.5271" width="14" height="40"/>
  </g>
  <g>
    <rect style="fill: #ffffff" x="269.556" y="36.0626" width="91.1" height="52" rx="10" ry="10"/>
    <rect style="fill: none; fill-opacity:0; stroke-width: 2; stroke: #000000" x="269.556" y="36.0626" width="91.1" height="52" rx="10" ry="10"/>
    <text font-size="12.8" style="fill: #000000;text-anchor:middle;font-family:sans-serif;font-style:normal;font-weight:normal" x="315.106" y="57.9626">
      <tspan x="315.106" y="57.9626">User Agent</tspan>
      <tspan x="315.106" y="73.9626">(browser)</tspan>
    </text>
  </g>
  <g>
    <line style="fill: none; fill-opacity:0; stroke-width: 1; stroke-dasharray: 8; stroke: #000000" x1="501.562" y1="58.2002" x2="501.562" y2="58.9073"/>
    <line style="fill: none; fill-opacity:0; stroke-width: 1; stroke-dasharray: 8; stroke: #000000" x1="501.562" y1="98.9073" x2="501.562" y2="358.918"/>
    <rect style="fill: #ffffff" x="494.562" y="58.9073" width="14" height="40"/>
    <rect style="fill: none; fill-opacity:0; stroke-width: 2; stroke: #000000" x="494.562" y="58.9073" width="14" height="40"/>
  </g>
  <g>
    <rect style="fill: #ffffff" x="444.064" y="36.0626" width="128.3" height="52" rx="10" ry="10"/>
    <rect style="fill: none; fill-opacity:0; stroke-width: 2; stroke: #000000" x="444.064" y="36.0626" width="128.3" height="52" rx="10" ry="10"/>
    <text font-size="12.8" style="fill: #000000;text-anchor:middle;font-family:sans-serif;font-style:normal;font-weight:normal" x="508.214" y="57.9626">
      <tspan x="508.214" y="57.9626">Credential Issuer</tspan>
      <tspan x="508.214" y="73.9626">(website)</tspan>
    </text>
  </g>
  <text font-size="12.8" style="fill: #000000;text-anchor:start;font-family:sans-serif;font-style:normal;font-weight:normal" x="179.312" y="293.864">
    <tspan x="179.312" y="293.864"></tspan>
  </text>
  <text font-size="12.8" style="fill: #000000;text-anchor:start;font-family:sans-serif;font-style:normal;font-weight:normal" x="545.594" y="346.896">
    <tspan x="545.594" y="346.896"></tspan>
  </text>
  <g>
    <line style="fill: none; fill-opacity:0; stroke-width: 2; stroke: #000000" x1="315.784" y1="336.29" x2="489.128" y2="335.642"/>
    <polygon style="fill: #000000" points="496.628,335.614 486.647,340.652 489.128,335.642 486.609,330.652 "/>
    <polygon style="fill: none; fill-opacity:0; stroke-width: 2; stroke: #000000" points="496.628,335.614 486.647,340.652 489.128,335.642 486.609,330.652 "/>
  </g>
  <text font-size="10.16" style="fill: #000000;text-anchor:start;font-family:sans-serif;font-style:normal;font-weight:normal" x="325.33" y="330.036">
    <tspan x="325.33" y="330.036">7. Credential storage confirmation</tspan>
  </text>
  <g>
    <line style="fill: none; fill-opacity:0; stroke-width: 2; stroke: #000000" x1="111.723" y1="308.3" x2="292.612" y2="308.691"/>
    <polygon style="fill: #000000" points="300.112,308.707 290.101,313.686 292.612,308.691 290.123,303.686 "/>
    <polygon style="fill: none; fill-opacity:0; stroke-width: 2; stroke: #000000" points="300.112,308.707 290.101,313.686 292.612,308.691 290.123,303.686 "/>
  </g>
  <text font-size="10.16" style="fill: #000000;text-anchor:start;font-family:sans-serif;font-style:normal;font-weight:normal" x="127.34" y="303.166">
    <tspan x="127.34" y="303.166">6. Credential storage confirmation</tspan>
  </text>
  <g>
    <line style="fill: none; fill-opacity:0; stroke-width: 2; stroke: #000000" x1="302.642" y1="268.702" x2="115.802" y2="268.702"/>
    <polygon style="fill: #000000" points="108.302,268.702 118.302,263.702 115.802,268.702 118.302,273.702 "/>
    <polygon style="fill: none; fill-opacity:0; stroke-width: 2; stroke: #000000" points="108.302,268.702 118.302,263.702 115.802,268.702 118.302,273.702 "/>
  </g>
  <text font-size="10.16" style="fill: #000000;text-anchor:start;font-family:sans-serif;font-style:normal;font-weight:normal" x="128.34" y="264.568">
    <tspan x="128.34" y="264.568">5. Store credential request to IdP</tspan>
  </text>
  <g>
    <line style="fill: none; fill-opacity:0; stroke-width: 2; stroke: #000000" x1="317.906" y1="126.279" x2="488.066" y2="125.219"/>
    <polygon style="fill: #000000" points="495.566,125.172 485.597,130.234 488.066,125.219 485.535,120.235 "/>
    <polygon style="fill: none; fill-opacity:0; stroke-width: 2; stroke: #000000" points="495.566,125.172 485.597,130.234 488.066,125.219 485.535,120.235 "/>
  </g>
  <text font-size="10.16" style="fill: #000000;text-anchor:start;font-family:sans-serif;font-style:normal;font-weight:normal" x="349.312" y="121.623">
    <tspan x="349.312" y="121.623">1. Create credential request</tspan>
  </text>
  <g>
    <path style="fill: none; fill-opacity:0; stroke-width: 2; stroke: #000000" d="M 314.494 216.706 C 351.264,208.928 350.556,242.162 323.522,241.643"/>
    <polygon style="fill: #000000" points="316.024,241.499 326.118,236.692 323.522,241.643 325.926,246.69 "/>
    <polygon style="fill: none; fill-opacity:0; stroke-width: 2; stroke: #000000" points="316.024,241.499 326.118,236.692 323.522,241.643 325.926,246.69 "/>
  </g>
  <text font-size="10.16" style="fill: #000000;text-anchor:start;font-family:sans-serif;font-style:normal;font-weight:normal" x="350.204" y="230.958">
    <tspan x="350.204" y="230.958">4. IdP lookup via</tspan>
    <tspan x="350.204" y="243.658">    decentralized query (DHT)</tspan>
  </text>
  <text font-size="12.8" style="fill: #000000;text-anchor:start;font-family:sans-serif;font-style:normal;font-weight:normal" x="356.088" y="225.274">
    <tspan x="356.088" y="225.274"></tspan>
  </text>
  <text font-size="12.8" style="fill: #000000;text-anchor:start;font-family:sans-serif;font-style:normal;font-weight:normal" x="373.766" y="336.998">
    <tspan x="373.766" y="336.998"></tspan>
  </text>
  <text font-size="12.8" style="fill: #000000;text-anchor:start;font-family:sans-serif;font-style:normal;font-weight:normal" x="436.7" y="330.634">
    <tspan x="436.7" y="330.634"></tspan>
  </text>
  <text font-size="12.8" style="fill: #000000;text-anchor:start;font-family:sans-serif;font-style:normal;font-weight:normal" x="359.624" y="230.224">
    <tspan x="359.624" y="230.224"></tspan>
  </text>
  <text font-size="12.8" style="fill: #000000;text-anchor:start;font-family:sans-serif;font-style:normal;font-weight:normal" x="151.028" y="280.428">
    <tspan x="151.028" y="280.428"></tspan>
  </text>
  <text font-size="12.8" style="fill: #000000;text-anchor:start;font-family:sans-serif;font-style:normal;font-weight:normal" x="363.868" y="385.08">
    <tspan x="363.868" y="385.08"></tspan>
  </text>
  <text font-size="12.8" style="fill: #000000;text-anchor:start;font-family:sans-serif;font-style:normal;font-weight:normal" x="541.35" y="394.98">
    <tspan x="541.35" y="394.98"></tspan>
  </text>
  <text font-size="12.8" style="fill: #000000;text-anchor:start;font-family:sans-serif;font-style:normal;font-weight:normal" x="544.18" y="393.566">
    <tspan x="544.18" y="393.566"></tspan>
  </text>
  <text font-size="12.8" style="fill: #000000;text-anchor:start;font-family:sans-serif;font-style:normal;font-weight:normal" x="545.594" y="396.394">
    <tspan x="545.594" y="396.394"></tspan>
  </text>
  <text font-size="12.8" style="fill: #000000;text-anchor:start;font-family:sans-serif;font-style:normal;font-weight:normal" x="545.594" y="397.102">
    <tspan x="545.594" y="397.102"></tspan>
  </text>
  <text font-size="12.8" style="fill: #000000;text-anchor:start;font-family:sans-serif;font-style:normal;font-weight:normal" x="556.908" y="392.152">
    <tspan x="556.908" y="392.152"></tspan>
  </text>
  <text font-size="12.8" style="fill: #000000;text-anchor:start;font-family:sans-serif;font-style:normal;font-weight:normal" x="403.464" y="116.38">
    <tspan x="403.464" y="116.38"></tspan>
  </text>
  <text font-size="12.8" style="fill: #000000;text-anchor:start;font-family:sans-serif;font-style:normal;font-weight:normal" x="501.888" y="62.0626">
    <tspan x="501.888" y="62.0626"></tspan>
  </text>
  <text font-size="12.8" style="fill: #000000;text-anchor:start;font-family:sans-serif;font-style:normal;font-weight:normal" x="104.144" y="62.0626">
    <tspan x="104.144" y="62.0626"></tspan>
  </text>
  <g>
    <path style="fill: none; fill-opacity:0; stroke-width: 2; stroke: #000000" d="M 503.874 143.957 C 540.644,136.179 539.936,169.413 512.902,168.893"/>
    <polygon style="fill: #000000" points="505.404,168.749 515.498,163.942 512.902,168.893 515.306,173.94 "/>
    <polygon style="fill: none; fill-opacity:0; stroke-width: 2; stroke: #000000" points="505.404,168.749 515.498,163.942 512.902,168.893 515.306,173.94 "/>
  </g>
  <text font-size="10.16" style="fill: #000000;text-anchor:start;font-family:sans-serif;font-style:normal;font-weight:normal" x="539.584" y="158.208">
    <tspan x="539.584" y="158.208">2. Verify, issue, and</tspan>
    <tspan x="539.584" y="170.908">    digitally sign credential</tspan>
  </text>
  <text font-size="12.8" style="fill: #000000;text-anchor:start;font-family:sans-serif;font-style:normal;font-weight:normal" x="610.648" y="168.706">
    <tspan x="610.648" y="168.706"></tspan>
  </text>
  <text font-size="12.8" style="fill: #000000;text-anchor:start;font-family:sans-serif;font-style:normal;font-weight:normal" x="597.92" y="153.149">
    <tspan x="597.92" y="153.149"></tspan>
  </text>
  <text font-size="12.8" style="fill: #000000;text-anchor:start;font-family:sans-serif;font-style:normal;font-weight:normal" x="569.636" y="170.12">
    <tspan x="569.636" y="170.12"></tspan>
  </text>
  <text font-size="12.8" style="fill: #000000;text-anchor:start;font-family:sans-serif;font-style:normal;font-weight:normal" x="377.302" y="186.383">
    <tspan x="377.302" y="186.383"></tspan>
  </text>
  <text font-size="12.8" style="fill: #000000;text-anchor:start;font-family:sans-serif;font-style:normal;font-weight:normal" x="367.402" y="184.969">
    <tspan x="367.402" y="184.969"></tspan>
  </text>
  <text font-size="12.8" style="fill: #000000;text-anchor:start;font-family:sans-serif;font-style:normal;font-weight:normal" x="409.828" y="182.848">
    <tspan x="409.828" y="182.848"></tspan>
  </text>
  <text font-size="12.8" style="fill: #000000;text-anchor:start;font-family:sans-serif;font-style:normal;font-weight:normal" x="354.674" y="230.224">
    <tspan x="354.674" y="230.224"></tspan>
  </text>
  <text font-size="12.8" style="fill: #000000;text-anchor:start;font-family:sans-serif;font-style:normal;font-weight:normal" x="399.222" y="328.512">
    <tspan x="399.222" y="328.512"></tspan>
  </text>
</svg>
